<?xml version="1.0" encoding="UTF-8"?>
<svg version="1.1" xmlns="http://www.w3.org/2000/svg" width="512" height="512">
<path d="M0 0 C1.45108658 0.00273422 1.45108658 0.00273422 2.93148804 0.00552368 C17.26440977 0.05095174 31.21023917 0.55983928 45.3125 3.3125 C46.65803955 3.55395752 46.65803955 3.55395752 48.03076172 3.80029297 C107.84088904 14.62287989 165.35495829 48.68064457 202.3125 97.3125 C202.72918945 97.85277832 203.14587891 98.39305664 203.57519531 98.94970703 C211.2584873 108.9447116 218.00092968 119.40459036 224.3125 130.3125 C224.70679199 130.98974121 225.10108398 131.66698242 225.50732422 132.36474609 C238.68961173 155.2833756 247.29510918 180.85822563 252.625 206.6875 C252.77243652 207.39817627 252.91987305 208.10885254 253.07177734 208.84106445 C256.05713787 224.48358366 256.6873098 240.11919606 256.625 256 C256.62226578 257.45108658 256.62226578 257.45108658 256.61947632 258.93148804 C256.57404826 273.26440977 256.06516072 287.21023917 253.3125 301.3125 C253.15152832 302.20952637 252.99055664 303.10655273 252.82470703 304.03076172 C242.00212011 363.84088904 207.94435543 421.35495829 159.3125 458.3125 C158.77222168 458.72918945 158.23194336 459.14587891 157.67529297 459.57519531 C147.6802884 467.2584873 137.22040964 474.00092968 126.3125 480.3125 C125.63525879 480.70679199 124.95801758 481.10108398 124.26025391 481.50732422 C86.85070239 503.02446876 44.04569533 512.78824631 1.1875 512.625 C0.19393494 512.62317719 -0.79963013 512.62135437 -1.82330322 512.61947632 C-16.317192 512.57469978 -30.42886097 512.11360213 -44.6875 509.3125 C-45.58307617 509.15152832 -46.47865234 508.99055664 -47.40136719 508.82470703 C-109.03402643 497.67427285 -167.53435212 462.00083433 -204.6875 411.3125 C-205.32461914 410.45857666 -205.32461914 410.45857666 -205.97460938 409.58740234 C-212.49151959 400.8447849 -218.29787157 391.78842938 -223.6875 382.3125 C-224.05198242 381.68069824 -224.41646484 381.04889648 -224.79199219 380.39794922 C-237.96768166 357.37828699 -246.65106895 331.85904551 -252 305.9375 C-252.14743652 305.22682373 -252.29487305 304.51614746 -252.44677734 303.78393555 C-255.43213787 288.14141634 -256.0623098 272.50580394 -256 256.625 C-255.99817719 255.65760895 -255.99635437 254.6902179 -255.99447632 253.69351196 C-255.94904826 239.36059023 -255.44016072 225.41476083 -252.6875 211.3125 C-252.44604248 209.96696045 -252.44604248 209.96696045 -252.19970703 208.59423828 C-241.37712011 148.78411096 -207.31935543 91.27004171 -158.6875 54.3125 C-158.14722168 53.89581055 -157.60694336 53.47912109 -157.05029297 53.04980469 C-147.0552884 45.3665127 -136.59540964 38.62407032 -125.6875 32.3125 C-125.01025879 31.91820801 -124.33301758 31.52391602 -123.63525391 31.11767578 C-100.7166244 17.93538827 -75.14177437 9.32989082 -49.3125 4 C-48.60182373 3.85256348 -47.89114746 3.70512695 -47.15893555 3.55322266 C-31.51641634 0.56786213 -15.88080394 -0.0623098 0 0 Z " fill="#57B9E6" transform="translate(255.6875,-0.3125)"/>
<path d="M0 0 C1.45108658 0.00273422 1.45108658 0.00273422 2.93148804 0.00552368 C17.26440977 0.05095174 31.21023917 0.55983928 45.3125 3.3125 C46.65803955 3.55395752 46.65803955 3.55395752 48.03076172 3.80029297 C107.84088904 14.62287989 165.35495829 48.68064457 202.3125 97.3125 C202.72918945 97.85277832 203.14587891 98.39305664 203.57519531 98.94970703 C211.2584873 108.9447116 218.00092968 119.40459036 224.3125 130.3125 C224.70679199 130.98974121 225.10108398 131.66698242 225.50732422 132.36474609 C237.94160769 153.9829012 253.62259182 185.76570956 252.3125 211.3125 C251.08015625 211.54324219 249.8478125 211.77398437 248.578125 212.01171875 C231.15275456 215.39057501 217.77214932 222.0342568 202.92578125 231.4609375 C183.92216242 243.42702801 165.26038165 248.38722929 142.92236328 248.50537109 C141.60309341 248.51763733 141.60309341 248.51763733 140.25717163 248.53015137 C137.38239174 248.55471382 134.50766001 248.5714411 131.6328125 248.5859375 C130.64196529 248.59126118 129.65111809 248.59658485 128.63024521 248.60206985 C123.39038623 248.62866839 118.15055004 248.64808947 112.91064453 248.66259766 C108.59858039 248.6759482 104.28698815 248.70384141 99.97509766 248.74462891 C94.73745912 248.79414605 89.50024886 248.81874024 84.26238632 248.82582474 C82.27942077 248.83249898 80.29646335 248.84761994 78.31363297 248.87171555 C67.26505758 248.99838165 58.23290685 248.81193272 48.3125 243.3125 C46.7839304 242.55839761 45.25420902 241.80661885 43.72265625 241.05859375 C42.27006334 240.29545079 40.82090252 239.5257443 39.375 238.75 C38.57344482 238.32436768 37.77188965 237.89873535 36.94604492 237.46020508 C30.05272204 233.77118723 23.27457489 229.88971054 16.5 225.98828125 C5.88267656 219.88797699 -4.86628051 214.04243322 -15.6875 208.3125 C-16.6170752 207.81830566 -17.54665039 207.32411133 -18.50439453 206.81494141 C-37.35458283 196.86260438 -56.80286752 188.81072853 -77.6875 184.3125 C-78.55568359 184.05098145 -78.55568359 184.05098145 -79.44140625 183.78417969 C-84.56780438 182.70763608 -89.97162961 183.08590958 -95.19726562 183.07226562 C-97.36111211 183.06283299 -99.52388806 183.03193523 -101.6875 183 C-124.53311632 182.82120386 -147.25036722 187.3804215 -169.75 190.875 C-201.87412442 195.84690058 -201.87412442 195.84690058 -213.6875 197.3125 C-214.47705078 197.42335937 -215.26660156 197.53421875 -216.08007812 197.6484375 C-222.95266462 198.55321444 -229.82930739 198.42283041 -236.75 198.375 C-237.99716797 198.37048828 -239.24433594 198.36597656 -240.52929688 198.36132812 C-243.58208221 198.34963163 -246.63476498 198.33324086 -249.6875 198.3125 C-238.02342588 142.38290236 -204.28547379 88.96445814 -158.6875 54.3125 C-158.14722168 53.89581055 -157.60694336 53.47912109 -157.05029297 53.04980469 C-147.0552884 45.3665127 -136.59540964 38.62407032 -125.6875 32.3125 C-125.01025879 31.91820801 -124.33301758 31.52391602 -123.63525391 31.11767578 C-100.7166244 17.93538827 -75.14177437 9.32989082 -49.3125 4 C-48.60182373 3.85256348 -47.89114746 3.70512695 -47.15893555 3.55322266 C-31.51641634 0.56786213 -15.88080394 -0.0623098 0 0 Z " fill="#DDFAF1" transform="translate(255.6875,-0.3125)"/>
<path d="M0 0 C5.42346559 28.79601967 5.61366462 61.24042125 0 90 C-0.16097168 90.89702637 -0.32194336 91.79405273 -0.48779297 92.71826172 C-11.31037989 152.52838904 -45.36814457 210.04245829 -94 247 C-94.54027832 247.41668945 -95.08055664 247.83337891 -95.63720703 248.26269531 C-105.6322116 255.9459873 -116.09209036 262.68842968 -127 269 C-127.67724121 269.39429199 -128.35448242 269.78858398 -129.05224609 270.19482422 C-154.61404398 284.89740358 -183.87527146 294.55952678 -213 299 C-214.75775757 299.26925293 -214.75775757 299.26925293 -216.55102539 299.54394531 C-228.88243466 301.28138288 -241.13173294 301.23033706 -253.5625 301.125 C-255.65299045 301.11493942 -257.74348565 301.10581907 -259.83398438 301.09765625 C-264.88944296 301.07591124 -269.94466705 301.04155506 -275 301 C-275 300.67 -275 300.34 -275 300 C-274.175 299.814375 -273.35 299.62875 -272.5 299.4375 C-257.92225988 293.45021388 -248.30408958 275.18003903 -241 262 C-240.36626465 260.86594727 -240.36626465 260.86594727 -239.71972656 259.70898438 C-226.53165982 235.91459076 -217.09459557 210.56642803 -208 185 C-207.61150879 183.91428711 -207.22301758 182.82857422 -206.82275391 181.70996094 C-203.20835425 171.58964189 -199.73021586 161.46658934 -196.78930664 151.12866211 C-195.35765554 146.1157823 -193.74610671 141.18348436 -192.0625 136.25 C-190.23421365 130.88142366 -188.55049227 125.50630233 -187.05273438 120.03613281 C-184.30955023 110.02390595 -181.16765243 100.16184139 -177.847229 90.32833862 C-177.33212569 88.7999958 -176.82088683 87.27034398 -176.31390381 85.73928833 C-171.59524717 71.52718585 -167.02499666 58.57839659 -154 50 C-153.22914063 49.45859375 -152.45828125 48.9171875 -151.6640625 48.359375 C-137.70582316 39.17754314 -121.23711514 37.04700315 -104.9375 36.125 C-81.92150378 34.56262997 -64.51096678 28.89083186 -45.31762695 16.08569336 C-31.490658 6.92582624 -16.89068838 0 0 0 Z " fill="#93D75B" transform="translate(509,211)"/>
<path d="M0 0 C0.79599609 0.2578125 1.59199219 0.515625 2.41210938 0.78125 C17.92174201 5.80762757 32.46933802 12.65790238 47 20 C48.48814209 20.75120117 48.48814209 20.75120117 50.00634766 21.51757812 C61.22283922 27.21213316 72.24052754 33.20186645 83.13745117 39.48461914 C103.46664275 51.4716191 103.46664275 51.4716191 125 61 C125 61.66 125 62.32 125 63 C124.319375 63.09796875 123.63875 63.1959375 122.9375 63.296875 C111.23338219 65.10229743 99.6586939 67.35489858 88.9765625 72.6171875 C86.09666898 73.95509079 83.17928446 75.05511593 80.19482422 76.13476562 C61.7608804 82.87679091 44.61349109 92.87615774 27.53515625 102.4609375 C-36.91315067 138.61381853 -98.19671788 163.49619485 -173 163 C-173.33 163.66 -173.66 164.32 -174 165 C-178.92403059 151.29691955 -183.3834753 137.68435764 -186.4375 123.4375 C-186.67162598 122.35952148 -186.90575195 121.28154297 -187.14697266 120.17089844 C-190.53302931 103.60296071 -191.37549253 87.18378695 -191.3125 70.3125 C-191.31134186 69.34843231 -191.31018372 68.38436462 -191.30899048 67.39108276 C-191.26366144 48.29528493 -189.4276629 30.59980601 -185 12 C-184.28682617 11.98018066 -183.57365234 11.96036133 -182.83886719 11.93994141 C-157.83167317 11.21340816 -133.88948133 8.49653533 -109.22662354 4.37225342 C-96.16051505 2.18782329 -83.09058352 0.03331287 -70 -2 C-69.0320752 -2.15130371 -68.06415039 -2.30260742 -67.06689453 -2.45849609 C-45.92410921 -5.63012562 -20.37019882 -7.13247685 0 0 Z " fill="#94D75B" transform="translate(191,186)"/>
<path d="M0 0 C1.45108658 0.00273422 1.45108658 0.00273422 2.93148804 0.00552368 C17.26440977 0.05095174 31.21023917 0.55983928 45.3125 3.3125 C46.65803955 3.55395752 46.65803955 3.55395752 48.03076172 3.80029297 C94.90399065 12.28196015 137.71818278 34.29130008 172.875 66.1875 C173.38844971 66.6522876 173.90189941 67.1170752 174.4309082 67.59594727 C176.75447903 69.73617107 178.54836432 71.66629648 180.3125 74.3125 C179.61125 74.66441406 178.91 75.01632813 178.1875 75.37890625 C163.31979498 83.11576905 156.4471594 92.42525974 151.3125 108.3125 C150.29671875 108.39886719 149.2809375 108.48523438 148.234375 108.57421875 C132.16053593 110.13455727 119.45738016 115.38875274 108.88671875 128.015625 C104.65241859 133.39876629 101.45823981 139.24412249 98.3125 145.3125 C97.73395264 145.29155273 97.15540527 145.27060547 96.55932617 145.24902344 C79.89894715 144.72522682 68.31421707 145.86849663 55.3125 157.3125 C53.58799504 159.25525144 52.07587692 161.2008886 50.62890625 163.35546875 C48.99181222 165.78924949 47.162609 168.03816218 45.3125 170.3125 C44.77882813 169.21292969 44.24515625 168.11335937 43.6953125 166.98046875 C35.06949624 149.66408375 24.63538326 138.49224814 6.3125 131.3125 C3.55814768 130.58051423 3.55814768 130.58051423 0.8125 130.1875 C-0.21101562 130.01992187 -1.23453125 129.85234375 -2.2890625 129.6796875 C-5.76377965 129.24156264 -5.76377965 129.24156264 -9.5859375 129.3203125 C-19.66355859 129.30051364 -19.66355859 129.30051364 -22.69140625 126.37890625 C-24.19579042 123.75135787 -25.42299157 121.06242495 -26.6875 118.3125 C-36.74007212 103.41476924 -53.13587909 92.4767081 -70.6875 88.3125 C-93.11650536 84.15949345 -113.85335722 87.50990479 -132.6875 100.3125 C-136.265621 103.10051552 -139.5059401 106.08248994 -142.6875 109.3125 C-143.48027344 110.1065625 -144.27304688 110.900625 -145.08984375 111.71875 C-150.47878887 117.38566068 -154.28104103 123.28584346 -157.6875 130.3125 C-158.14898437 129.94898438 -158.61046875 129.58546875 -159.0859375 129.2109375 C-175.36933644 116.66049167 -190.40488916 112.34015228 -210.6875 111.3125 C-209.12221324 106.26663771 -206.06997684 102.74379576 -202.75 98.75 C-202.16589355 98.04109619 -201.58178711 97.33219238 -200.97998047 96.60180664 C-188.30731798 81.33364233 -174.51999243 66.34432552 -158.6875 54.3125 C-158.14722168 53.89581055 -157.60694336 53.47912109 -157.05029297 53.04980469 C-147.0552884 45.3665127 -136.59540964 38.62407032 -125.6875 32.3125 C-125.01025879 31.91820801 -124.33301758 31.52391602 -123.63525391 31.11767578 C-100.7166244 17.93538827 -75.14177437 9.32989082 -49.3125 4 C-48.60182373 3.85256348 -47.89114746 3.70512695 -47.15893555 3.55322266 C-31.51641634 0.56786213 -15.88080394 -0.0623098 0 0 Z " fill="#9AF4EF" transform="translate(255.6875,-0.3125)"/>
<path d="M0 0 C8.67441621 3.42046252 16.70505867 15.74340367 22.19921875 22.8671875 C22.8329541 23.68630615 22.8329541 23.68630615 23.47949219 24.52197266 C31.15564789 34.51106789 37.8922438 44.96721977 44.19921875 55.8671875 C44.79065674 56.88304932 44.79065674 56.88304932 45.39404297 57.91943359 C57.82832644 79.5375887 73.50931057 111.32039706 72.19921875 136.8671875 C70.966875 137.09792969 69.73453125 137.32867187 68.46484375 137.56640625 C51.03947331 140.94526251 37.65886807 147.5889443 22.8125 157.015625 C1.18641994 170.63301196 -19.17771096 174.05300058 -44.30859375 173.96484375 C-45.88613846 173.96297494 -47.46368375 173.96155323 -49.04122925 173.96055603 C-53.16094612 173.95676728 -57.28062684 173.94696879 -61.40032959 173.93585205 C-65.61714184 173.92555894 -69.83396002 173.9210416 -74.05078125 173.91601562 C-82.30079771 173.90534267 -90.55078496 173.88831088 -98.80078125 173.8671875 C-98.85339111 172.57176025 -98.90600098 171.27633301 -98.96020508 169.94165039 C-99.03821295 168.22019843 -99.11660229 166.49876374 -99.1953125 164.77734375 C-99.22886841 163.92611938 -99.26242432 163.07489502 -99.29699707 162.19787598 C-99.97673726 147.87502548 -105.89270597 136.01485053 -116.08203125 126 C-118.77028995 123.8911074 -121.32697323 122.53046449 -124.37988281 121.05517578 C-127.51208597 119.52569885 -130.05977186 118.06898193 -132.80078125 115.8671875 C-134.28851088 111.44840846 -133.97905778 107.473623 -133.80078125 102.8671875 C-134.34770558 100.43787232 -134.34770558 100.43787232 -135.11328125 98.3046875 C-135.45359375 96.603125 -135.45359375 96.603125 -135.80078125 94.8671875 C-134.046875 92.92578125 -134.046875 92.92578125 -131.80078125 90.8671875 C-130.69820994 89.42334411 -129.6149994 87.96452814 -128.55078125 86.4921875 C-125.13494687 82.04722353 -121.48929882 78.90311868 -116.80078125 75.8671875 C-116.20136719 75.47660156 -115.60195313 75.08601563 -114.984375 74.68359375 C-107.32115386 70.00337144 -100.60304975 69.58686694 -91.86328125 69.7421875 C-90.89326172 69.75121094 -89.92324219 69.76023437 -88.92382812 69.76953125 C-86.54921718 69.79292643 -84.17513349 69.82570574 -81.80078125 69.8671875 C-81.44886719 69.10535156 -81.09695313 68.34351563 -80.734375 67.55859375 C-72.60058283 50.54771248 -61.83249918 41.37964811 -44.30078125 34.4921875 C-39.13487633 33.56970448 -34.03309182 33.71253793 -28.80078125 33.8671875 C-28.75953125 32.9390625 -28.71828125 32.0109375 -28.67578125 31.0546875 C-27.40144352 22.31131473 -21.27380045 13.66847829 -14.80078125 7.8671875 C-3.41802872 -0.25208889 -3.41802872 -0.25208889 0 0 Z " fill="#C4F7F0" transform="translate(435.80078125,74.1328125)"/>
<path d="M0 0 C-2.73369442 3.36848489 -6.44952365 4.72722879 -10.3125 6.4375 C-20.13249681 10.92549164 -29.5211574 16.11323646 -38.96679688 21.33203125 C-54.87155013 30.07810934 -70.87969329 38.65735305 -87 47 C-87.8441748 47.43908691 -88.68834961 47.87817383 -89.55810547 48.33056641 C-141.51124146 75.24765708 -192.51686528 88.38793793 -251 88 C-251.33 88.66 -251.66 89.32 -252 90 C-261.79182492 62.75033893 -270.03212161 34.24344556 -269 5 C-267.67037928 4.51062571 -266.33600575 4.03416419 -265 3.5625 C-264.2575 3.29566406 -263.515 3.02882813 -262.75 2.75390625 C-236.11350932 -4.54842713 -203.35487073 2.03515706 -177.09765625 8.74609375 C-124.07356602 22.26522372 -70.45831065 15.33360492 -17.98046875 2.41796875 C-11.95647522 0.94860057 -6.23258279 -0.18886615 0 0 Z " fill="#71BE63" transform="translate(269,261)"/>
<path d="M0 0 C5.79239663 3.46984146 11.31635313 7.23276289 15 13 C15.03903287 17.70736405 12.15196653 21.465826 9.6875 25.3125 C9.2445459 26.01036621 8.8015918 26.70823242 8.34521484 27.42724609 C-7.18559936 51.52566772 -26.9873411 74.7986186 -50 92 C-51.12115141 92.86190416 -52.24224106 93.72388867 -53.36328125 94.5859375 C-62.81675946 101.76550525 -72.73015517 108.05762882 -83 114 C-83.67724121 114.39429199 -84.35448242 114.78858398 -85.05224609 115.19482422 C-116.11254983 133.06002222 -151.48359667 142.74004027 -187 146 C-189.9940451 137.94459294 -191.94512807 129.54979002 -189.015625 121.19140625 C-187.80808847 118.68315908 -186.48981702 116.34982802 -185 114 C-184.1646875 112.63875 -184.1646875 112.63875 -183.3125 111.25 C-178.91551342 106.97185089 -172.27321506 102.20426458 -165.95703125 101.90234375 C-165.24933594 101.91394531 -164.54164063 101.92554688 -163.8125 101.9375 C-162.554375 101.958125 -161.29625 101.97875 -160 102 C-159.98582031 101.20078125 -159.97164063 100.4015625 -159.95703125 99.578125 C-159.38691791 86.45010974 -155.12409217 76.4978911 -146 67 C-136.05777333 57.8979615 -123.93387515 53.5861813 -110.51953125 53.70703125 C-107.20329943 54.0926396 -104.09888444 55.0137088 -100.875 55.875 C-96.31268607 57.09064597 -96.31268607 57.09064597 -91.93359375 56.0390625 C-90.28076004 54.51390529 -90.28076004 54.51390529 -88.78125 52.7734375 C-84.45333627 48.46450585 -78.00822447 46 -72 46 C-72.05800781 45.28457031 -72.11601562 44.56914062 -72.17578125 43.83203125 C-72.78055165 30.47524493 -67.58973043 20.00262067 -59 10 C-43.60600091 -6.6795105 -19.94344149 -9.47085806 0 0 Z " fill="#44AB5F" transform="translate(465,366)"/>
<path d="M0 0 C0.33 0 0.66 0 1 0 C1.11214844 1.54107422 1.11214844 1.54107422 1.2265625 3.11328125 C3.04290382 23.77353828 15.80911955 36.909986 31 50 C33.05439592 51.86124175 35.08919363 53.74346958 37.125 55.625 C40.9927128 59.18356302 44.9033675 62.6829185 48.875 66.125 C52.14537283 69.01062309 55.34358109 71.97466647 58.55175781 74.92895508 C62.64204853 78.68885603 66.79147922 82.37324533 71 86 C70.43732422 86.80050781 70.43732422 86.80050781 69.86328125 87.6171875 C61.98633013 99.08539341 57.8556463 109.08448904 57 123 C56.31035156 123.21914063 55.62070312 123.43828125 54.91015625 123.6640625 C48.98905907 125.66212822 44.04428778 127.97365405 38.97265625 131.6328125 C33.89400876 135.1526672 33.89400876 135.1526672 30.30078125 134.5390625 C29.31464844 134.23742187 28.32851563 133.93578125 27.3125 133.625 C16.4525264 130.69058011 5.48238378 131.5536303 -4.875 136.32421875 C-7.35973956 137.76733731 -9.68018373 139.30603345 -12 141 C-12.63421875 141.44085938 -13.2684375 141.88171875 -13.921875 142.3359375 C-24.89163226 150.73314106 -28.8439339 163.38749459 -30.66796875 176.4375 C-30.77753906 177.283125 -30.88710938 178.12875 -31 179 C-31.67804688 179.07476562 -32.35609375 179.14953125 -33.0546875 179.2265625 C-41.26179745 180.38601571 -48.37180233 182.73329963 -53.88671875 189.21875 C-57.73914994 194.81550234 -60.28685477 199.78644357 -60.25 206.6875 C-60.25515625 207.64011719 -60.2603125 208.59273437 -60.265625 209.57421875 C-59.91477346 214.09917164 -58.89007985 218.54960077 -58 223 C-72.52 223 -87.04 223 -102 223 C-102 222.67 -102 222.34 -102 222 C-101.175 221.814375 -100.35 221.62875 -99.5 221.4375 C-84.92225988 215.45021388 -75.30408958 197.18003903 -68 184 C-67.36626465 182.86594727 -67.36626465 182.86594727 -66.71972656 181.70898438 C-53.53165982 157.91459076 -44.09459557 132.56642803 -35 107 C-34.41726318 105.37143066 -34.41726318 105.37143066 -33.82275391 103.70996094 C-30.20835425 93.58964189 -26.73021586 83.46658934 -23.78930664 73.12866211 C-22.35765332 68.11577455 -20.74597815 63.18353374 -19.0625 58.25 C-16.90259762 51.90267176 -14.979706 45.52280604 -13.1875 39.0625 C-10.76763182 30.37409957 -8.03677362 21.80684289 -5.1875 13.25 C-4.59134888 11.45381226 -4.59134888 11.45381226 -3.9831543 9.62133789 C-1.12946484 1.12946484 -1.12946484 1.12946484 0 0 Z " fill="#71BE63" transform="translate(336,289)"/>
<path d="M0 0 C0 3.54613745 -0.92595825 5.09406872 -2.5234375 8.25 C-7.19701497 18.15150764 -10.30032265 28.58685963 -13.625 39 C-14.28573453 41.04710876 -14.9471885 43.09398545 -15.609375 45.140625 C-18.81577281 55.07091346 -21.96100749 65.01717484 -25 75 C-25.80741144 77.60578891 -26.62235452 80.20911151 -27.4375 82.8125 C-27.80746094 83.99457031 -28.17742187 85.17664063 -28.55859375 86.39453125 C-28.87848267 87.41401855 -28.87848267 87.41401855 -29.20483398 88.45410156 C-29.83300592 90.46533181 -30.45653048 92.47801354 -31.07836914 94.49121094 C-61.91223302 194.12640651 -61.91223302 194.12640651 -91 227 C-91.60457031 227.72316406 -92.20914063 228.44632813 -92.83203125 229.19140625 C-94.50886177 231.17510772 -96.24378629 233.08682999 -98 235 C-98.825 235.99 -99.65 236.98 -100.5 238 C-106.20202974 242.36908772 -114.89492408 240.50757919 -121.57080078 239.68212891 C-139.37915673 237.18018143 -157.01010609 232.88951786 -174 227 C-173.09834106 226.55213135 -173.09834106 226.55213135 -172.1784668 226.09521484 C-133.73296893 206.7669056 -102.5334719 175.30925402 -80 139 C-79.50435547 138.20335937 -79.00871094 137.40671875 -78.49804688 136.5859375 C-65.42800386 115.30543004 -54.69126118 92.74960513 -43.65576172 70.37475586 C-40.9729198 64.93780394 -38.26520233 59.51355247 -35.54115295 54.09713745 C-33.559818 50.14999153 -31.64695411 46.17553649 -29.75 42.1875 C-22.00027503 26.75850211 -12.43765819 12.07064532 0 0 Z " fill="#FDEEC5" transform="translate(343,271)"/>
<path d="M0 0 C0.33 0.66 0.66 1.32 1 2 C0.10751597 4.21496036 -0.8462893 6.29766006 -1.91015625 8.4296875 C-2.22856476 9.08326736 -2.54697327 9.73684723 -2.87503052 10.41023254 C-3.92951483 12.56918281 -4.99559073 14.72216594 -6.0625 16.875 C-6.79971507 18.37451995 -7.53644536 19.87427833 -8.27270508 21.37426758 C-9.77947235 24.4399294 -11.29158943 27.50287256 -12.80761719 30.56396484 C-14.49681505 33.97655746 -16.17146737 37.39589694 -17.83782959 40.81968689 C-42.60891413 91.68240774 -74.76765445 137.67111075 -124.20751953 166.92578125 C-125.4117733 167.64748059 -126.60053727 168.39561695 -127.77294922 169.16796875 C-132.10536113 171.91717531 -134.92324102 172.73720187 -140 172 C-144.01287914 170.64307238 -147.83615088 168.94583967 -151.6875 167.1875 C-152.78513672 166.69483643 -153.88277344 166.20217285 -155.01367188 165.69458008 C-182.69009968 153.07231809 -182.69009968 153.07231809 -194 144 C-194 143.34 -194 142.68 -194 142 C-193.40799805 141.8548999 -192.81599609 141.7097998 -192.20605469 141.56030273 C-158.38987939 133.19747788 -128.86455477 120.52728693 -100 101 C-99.39736328 100.59313965 -98.79472656 100.1862793 -98.17382812 99.76708984 C-83.67075485 89.89222696 -70.33039677 78.52041578 -57.58691406 66.48535156 C-55.92426359 64.92911072 -54.24255728 63.39602076 -52.5546875 61.8671875 C-47.41155135 57.20139959 -42.36942336 52.56689452 -37.9140625 47.22265625 C-36.36610753 45.42513303 -34.78787917 43.70812867 -33.1484375 41.99609375 C-24.7091145 33.16597803 -17.23977975 23.83104015 -10 14 C-9.3507959 13.12142334 -9.3507959 13.12142334 -8.68847656 12.22509766 C-5.71786551 8.19765762 -2.77615123 4.16422684 0 0 Z " fill="#3D9BD3" transform="translate(306,325)"/>
<path d="M0 0 C22.11 0 44.22 0 67 0 C67 0.33 67 0.66 67 1 C66.1028125 1.1959375 65.205625 1.391875 64.28125 1.59375 C54.74992562 3.878117 46.58095413 7.30831677 37.96875 11.94873047 C36.06548383 12.96503306 34.14710363 13.94246421 32.21875 14.91015625 C22.56181295 19.80951996 13.77539859 25.67558556 5 32 C4.2467041 32.53931152 3.4934082 33.07862305 2.71728516 33.63427734 C-8.26075019 41.51541825 -18.82343537 49.79200647 -29.17382812 58.47802734 C-31.67247365 60.56045465 -34.21266919 62.59000202 -36.75 64.625 C-42.04392004 68.94393629 -47.02390609 73.57068762 -52.015625 78.23046875 C-54.87687899 80.89841884 -57.81118488 83.46901248 -60.77734375 86.01953125 C-62.6579163 87.6951908 -64.49090635 89.40190793 -66.31640625 91.13671875 C-66.92170166 91.70914307 -67.52699707 92.28156738 -68.15063477 92.87133789 C-69.34798452 94.00672578 -70.5402428 95.14751739 -71.72631836 96.29467773 C-77.4528109 101.71397079 -83.8133848 107.01790589 -92 107.3125 C-93.0209375 107.36857422 -93.0209375 107.36857422 -94.0625 107.42578125 C-96 107 -96 107 -97.71875 105.35546875 C-100.69258801 99.88832143 -99.7538697 92.882219 -98.2265625 87.04296875 C-92.59405683 72.44239555 -82.95131716 60.10009759 -72.51025391 48.65722656 C-71.13270305 47.14561725 -69.77426615 45.61664531 -68.41796875 44.0859375 C-49.63090085 22.89847762 -27.87583473 7.43288494 0 1 C0 0.67 0 0.34 0 0 Z " fill="#78CDE9" transform="translate(316,248)"/>
<path d="M0 0 C0.99 0.495 0.99 0.495 2 1 C0.88625 1.65484375 -0.2275 2.3096875 -1.375 2.984375 C-18.08205796 12.92597827 -33.0219012 24.65514094 -48 37 C-55.67350664 43.31518446 -63.41431439 49.52796124 -71.25341797 55.63574219 C-72.92496804 56.94139242 -74.58988316 58.25509133 -76.25390625 59.5703125 C-122.76255565 96.12708045 -177.7317654 115.46202476 -237 114 C-238.6617778 110.65350782 -240.30145481 107.29663781 -241.9375 103.9375 C-242.64036133 102.52307617 -242.64036133 102.52307617 -243.35742188 101.08007812 C-243.80537109 100.15517578 -244.25332031 99.23027344 -244.71484375 98.27734375 C-245.33540649 97.01265259 -245.33540649 97.01265259 -245.96850586 95.72241211 C-247.1896677 92.49941195 -247.6151829 89.41548188 -248 86 C-246.04332397 85.93268677 -246.04332397 85.93268677 -244.04711914 85.86401367 C-239.12443292 85.69146107 -234.20245048 85.50306184 -229.28051758 85.31030273 C-227.16576496 85.22960168 -225.05085196 85.15298058 -222.93579102 85.08081055 C-210.0215229 84.63696867 -197.65440417 83.6268744 -185 81 C-183.18030741 80.67489629 -181.36006998 80.3528122 -179.5390625 80.03515625 C-134.24887765 71.36924603 -90.87849147 49.57847096 -51.22363281 26.68310547 C-41.24967404 20.93390033 -31.01495501 15.70673419 -20.78027344 10.44091797 C-15.71937925 7.81803445 -10.7063139 5.10729546 -5.6953125 2.390625 C-3 1 -3 1 0 0 Z " fill="#FCEEC5" transform="translate(266,263)"/>
<path d="M0 0 C4.87069634 2.38939821 7.85335444 5.68460037 11 10 C11.2475 11.11375 11.2475 11.11375 11.5 12.25 C11.665 12.8275 11.83 13.405 12 14 C13.65697379 14.69040574 15.3255761 15.3530635 17 16 C19.8125 18.625 19.8125 18.625 22 21 C22.226875 20.4225 22.45375 19.845 22.6875 19.25 C24.66629537 15.85777937 27.50986942 13.74506529 31 12 C37.10685229 11.49109564 40.12959772 11.9224539 45 16 C48 19.4 48 19.4 48 22 C48.66 22 49.32 22 50 22 C50.28875 21.38125 50.5775 20.7625 50.875 20.125 C52 18 52 18 54 16 C58.47496589 15.24391539 62.0335534 15.45637379 66 17.6875 C68.21737468 20.25133948 68.47895596 21.72719212 69 25 C69.96301025 24.90912109 70.92602051 24.81824219 71.91821289 24.72460938 C75.51670734 24.38589013 79.11558959 24.05145442 82.71459961 23.71826172 C84.26744179 23.57390892 85.82017878 23.42841965 87.37280273 23.28173828 C89.61414832 23.07019555 91.85584976 22.86284421 94.09765625 22.65625 C94.78336197 22.59062866 95.46906769 22.52500732 96.17555237 22.45739746 C100.464386 22.06719123 104.69464661 21.94125726 109 22 C93.7489348 33.91918835 72.29960145 38.16892884 54 43 C53.01563965 43.26361328 52.0312793 43.52722656 51.01708984 43.79882812 C43.77263244 45.6850715 36.52367469 47.00534584 29.125 48.125 C26.96093048 48.46089231 24.79686776 48.79682837 22.6328125 49.1328125 C21.69324707 49.27605957 20.75368164 49.41930664 19.78564453 49.56689453 C17.80283018 49.87517785 15.8224656 50.19939838 13.84399414 50.53442383 C-1.18719334 52.99510496 -16.83580792 52.10817301 -32 52 C-36.68187772 40.00688058 -41.2797664 25.98554941 -39 13 C-36.8125 10.1875 -36.8125 10.1875 -33 9 C-29.66648921 8.7242961 -26.33724123 8.55783415 -22.99609375 8.40234375 C-19.76298263 8.22785275 -19.76298263 8.22785275 -17 5.625 C-16.34 4.75875 -15.68 3.8925 -15 3 C-10.46823113 -0.7548942 -5.63939292 -0.80692278 0 0 Z " fill="#43AB5F" transform="translate(43,280)"/>
<path d="M0 0 C0.7374646 0.0012085 1.4749292 0.00241699 2.23474121 0.00366211 C13.30113326 0.05266811 23.35344867 0.69095539 33.875 4.375 C34.67099609 4.6328125 35.46699219 4.890625 36.28710938 5.15625 C51.79674201 10.18262757 66.34433802 17.03290238 80.875 24.375 C82.36314209 25.12620117 82.36314209 25.12620117 83.88134766 25.89257812 C95.09783922 31.58713316 106.11552754 37.57686645 117.01245117 43.85961914 C137.34164275 55.8466191 137.34164275 55.8466191 158.875 65.375 C158.875 65.705 158.875 66.035 158.875 66.375 C145.52107337 66.75493258 132.97772507 66.00734421 119.875 63.375 C119.14152344 63.23046387 118.40804687 63.08592773 117.65234375 62.93701172 C93.20682445 58.00089724 71.37085799 46.30707357 49.63452148 34.46899414 C18.87252123 17.72199825 -14.74148821 11.94888813 -49.4375 12.1875 C-51.47672411 12.19436154 -53.51594944 12.20086934 -55.55517578 12.20703125 C-70.42594038 12.27154746 -85.27295338 12.59527792 -100.125 13.375 C-100.125 13.045 -100.125 12.715 -100.125 12.375 C-92.10949371 11.09987707 -84.09314443 9.83023668 -76.07573986 8.56711006 C-72.35078101 7.98008399 -68.62611101 7.39134914 -64.90209961 6.79833984 C-21.76224292 -0.06724813 -21.76224292 -0.06724813 0 0 Z " fill="#AFEA81" transform="translate(157.125,181.625)"/>
<path d="M0 0 C0.99 0.495 0.99 0.495 2 1 C1.06542969 1.86238281 0.13085938 2.72476562 -0.83203125 3.61328125 C-9.53258463 11.68531168 -18.02419951 19.92986763 -26.35083008 28.38793945 C-30.48556066 32.56883342 -34.69504842 36.56852158 -39.15527344 40.40039062 C-41.36549735 42.31693206 -43.48899857 44.31266673 -45.61352539 46.32299805 C-52.21482811 52.55536994 -59.12733418 58.2464936 -66.35058594 63.74023438 C-67.87165121 64.90197161 -69.377966 66.08295431 -70.8828125 67.265625 C-90.90294754 82.76868222 -113.00265412 94.97484107 -137 103 C-138.14984375 103.39960938 -139.2996875 103.79921875 -140.484375 104.2109375 C-152.25019357 108.10360882 -164.42492078 109.98875666 -176.75 111 C-177.87571411 111.11734497 -177.87571411 111.11734497 -179.02416992 111.23706055 C-182.85630448 111.48318491 -184.66452469 111.2550564 -187.75390625 108.90625 C-190.10774683 105.86058497 -192.19718556 102.79537555 -194.1875 99.5 C-194.86167969 98.3965625 -195.53585938 97.293125 -196.23046875 96.15625 C-197.73678905 93.46948001 -198.94918566 90.88839224 -200 88 C-199.39341553 87.98541748 -198.78683105 87.97083496 -198.16186523 87.95581055 C-142.26650066 86.47232671 -89.34084782 71.05627943 -45 36 C-43.57940109 34.9058932 -42.15741251 33.81358943 -40.734375 32.72265625 C-33.25489542 26.97297919 -25.87436293 21.14787234 -18.72021484 14.99731445 C-12.644415 9.79184238 -6.3223469 4.90052976 0 0 Z " fill="#3E9CD4" transform="translate(230,289)"/>
<path d="M0 0 C1.93765382 13.0688566 3.51837085 25.77194381 3 39 C1.89914062 38.67386719 0.79828125 38.34773438 -0.3359375 38.01171875 C-5.44906142 36.73849471 -10.38089091 36.73828661 -15.625 36.8125 C-17.08848877 36.82543091 -17.08848877 36.82543091 -18.58154297 36.83862305 C-33.32902625 37.02049484 -49.86532677 37.28844226 -64 42 C-67.65349119 42.50760341 -71.32052229 42.7562639 -75 43 C-76.34771484 43.10054687 -76.34771484 43.10054687 -77.72265625 43.203125 C-87.36476354 43.58284231 -100.7934252 42.47104987 -109 37 C-108.351521 36.93006836 -107.70304199 36.86013672 -107.03491211 36.78808594 C-80.95224319 33.91541306 -62.65953668 27.2920161 -40.68261719 13.18188477 C-28.16895461 5.20371358 -15.01749397 0 0 0 Z " fill="#AFEA81" transform="translate(509,211)"/>
<path d="M0 0 C0 0.33 0 0.66 0 1 C-1.79244141 1.36351562 -1.79244141 1.36351562 -3.62109375 1.734375 C-15.6854764 4.24349497 -15.6854764 4.24349497 -27 9 C-28.8536852 9.91763991 -30.70786149 10.83428836 -32.5625 11.75 C-34.0426892 12.49797993 -35.52223801 13.24723607 -37 14 C-36.95703125 12.22265625 -36.95703125 12.22265625 -36 10 C-33.54517833 8.5959507 -31.28701771 7.49606954 -28.6875 6.4375 C-27.6046875 5.98298462 -27.6046875 5.98298462 -26.5 5.51928711 C-17.82640523 1.97405119 -9.43588439 -0.54437795 0 0 Z " fill="#5EBDDC" transform="translate(391,248)"/>
<path d="M0 0 C0.66 0.33 1.32 0.66 2 1 C-2.95 3.97 -7.9 6.94 -13 10 C-13.33 9.34 -13.66 8.68 -14 8 C-11.52010087 5.14181117 -8.86353122 3.80106607 -5.4375 2.25 C-4.46683594 1.80140625 -3.49617188 1.3528125 -2.49609375 0.890625 C-1.67238281 0.59671875 -0.84867187 0.3028125 0 0 Z " fill="#E8E7BF" transform="translate(266,263)"/>
<path d="M0 0 C0.33 0.66 0.66 1.32 1 2 C0.00390625 4.6015625 0.00390625 4.6015625 -1.4375 7.625 C-1.91058594 8.62789063 -2.38367188 9.63078125 -2.87109375 10.6640625 C-3.24363281 11.43492187 -3.61617188 12.20578125 -4 13 C-4.99 13 -5.98 13 -7 13 C-7 9.16235973 -5.73464665 7.88513915 -3.5 4.8125 C-2.8503125 3.91144531 -2.200625 3.01039063 -1.53125 2.08203125 C-1.0259375 1.39496094 -0.520625 0.70789063 0 0 Z " fill="#47A2D5" transform="translate(306,325)"/>
<path d="M0 0 C0 3.57870074 -0.64872567 4.39680342 -3 7 C-5.1875 8.25 -5.1875 8.25 -7 9 C-5.44499019 5.18315774 -2.96404505 2.80804268 0 0 Z " fill="#E0E6B7" transform="translate(343,271)"/>
<path d="M0 0 C-2.6855594 2.6855594 -5.37621328 3.06049974 -9 4 C-9 3.01 -9 2.02 -9 1 C-5.8035914 -0.06546953 -3.34252724 -0.07427838 0 0 Z " fill="#96CD8B" transform="translate(277,259)"/>
<path d="M0 0 C0.33 0 0.66 0 1 0 C1 2.97 1 5.94 1 9 C0.01 8.34 -0.98 7.68 -2 7 C-1.125 1.125 -1.125 1.125 0 0 Z " fill="#87C968" transform="translate(336,289)"/>
</svg>
