<?xml version="1.0" encoding="UTF-8"?>
<svg version="1.1" xmlns="http://www.w3.org/2000/svg" width="512" height="512">
<path d="M0 0 C0.66 0 1.32 0 2 0 C10.85543445 19.17824691 19.54889901 38.41837236 28.00579834 57.77584839 C33.58985335 70.55443833 39.25651244 83.29229776 45 96 C51.06542416 109.42143058 57.03964098 122.87911413 62.9375 136.375 C69.02221299 150.29769332 75.21358978 164.16722909 81.5 178 C90.51532902 197.83869072 99.29906132 217.77483683 108.01586914 237.74621582 C109.68042554 241.55826057 111.34805486 245.36896036 113.015625 249.1796875 C113.31780945 249.87031281 113.6199939 250.56093811 113.93133545 251.27249146 C114.62085748 252.848342 115.31042327 254.42417339 116 256 C121.74173878 244.69039744 127.20328355 233.27414869 132.5 221.75 C132.88041443 220.9245871 133.26082886 220.09917419 133.652771 219.24874878 C141.94807278 201.24571592 150.00926877 183.13991627 158 165 C161 166 161 166 162.28344727 168.01513672 C162.70682373 168.89443848 163.1302002 169.77374023 163.56640625 170.6796875 C164.0461792 171.6605835 164.52595215 172.64147949 165.02026367 173.65209961 C165.52920166 174.71565674 166.03813965 175.77921387 166.5625 176.875 C167.65204341 179.10364869 168.74320559 181.33150668 169.8359375 183.55859375 C170.37573242 184.66315918 170.91552734 185.76772461 171.47167969 186.90576172 C173.47206003 190.95573303 175.56243387 194.95191772 177.6875 198.9375 C182.32550435 207.66978921 186.85404279 216.45676105 191.375 225.25 C196.26721294 234.76289522 201.16752948 244.27088054 206.125 253.75 C210.56430545 262.23834228 214.97688997 270.74025437 219.375 279.25 C219.84972748 280.16851746 219.84972748 280.16851746 220.33404541 281.10559082 C220.65065125 281.71817749 220.96725708 282.33076416 221.29345703 282.96191406 C221.93261124 284.19857078 222.57177139 285.43522443 223.2109375 286.671875 C223.5274527 287.2842804 223.8439679 287.89668579 224.17007446 288.52764893 C227.44080938 294.85482959 230.72003469 301.17760011 234 307.5 C239.15657426 317.44055946 244.30445079 327.38557871 249.44775391 337.33300781 C253.95934512 346.05836473 258.4769312 354.7805852 263 363.5 C268.46643976 374.03801253 273.92333558 384.58092197 279.37475586 395.12670898 C282.52702738 401.22398543 285.68330862 407.31913718 288.84765625 413.41015625 C289.47786622 414.62369707 290.10807458 415.83723872 290.73828125 417.05078125 C291.91067368 419.30769944 293.08379009 421.56424178 294.2578125 423.8203125 C295.84532729 426.87675664 297.42368402 429.93776785 299 433 C299.54897949 434.05429199 300.09795898 435.10858398 300.66357422 436.19482422 C301.19611816 437.23268066 301.72866211 438.27053711 302.27734375 439.33984375 C302.75292725 440.26015381 303.22851074 441.18046387 303.71850586 442.12866211 C313.22115732 463.420467 307 488.68388239 307 512 C138.04 512 -30.92 512 -205 512 C-205 464.15230647 -205 464.15230647 -194 445 C-189.14258266 435.77799923 -184.86864712 426.34811394 -180.77966309 416.7661438 C-179.41458771 413.56765832 -178.0398793 410.37333549 -176.66604614 407.17860413 C-175.92703753 405.45983945 -175.18849909 403.74087255 -174.45040894 402.02171326 C-170.49791903 392.8183379 -166.50377148 383.63318679 -162.50643921 374.44921875 C-161.23931066 371.53794082 -159.97272498 368.62642729 -158.70629883 365.71484375 C-156.99252291 361.77482721 -155.27856432 357.83489022 -153.56445312 353.89501953 C-149.78947956 345.21784824 -146.01683616 336.53966387 -142.24404907 327.86154175 C-140.17187786 323.09516672 -138.09962559 318.32882693 -136.02734375 313.5625 C-135.41073128 312.14426186 -135.41073128 312.14426186 -134.78166199 310.69737244 C-132.21158197 304.78621034 -129.64109685 298.87522456 -127.07034302 292.96435547 C-115.77122578 266.988232 -115.77122578 266.988232 -104.5 241 C-96.55871855 222.66009604 -88.58360404 204.33489625 -80.61279297 186.0078125 C-76.82210683 177.29182506 -73.03255646 168.57534382 -69.24295044 159.85888672 C-67.16201634 155.07256968 -65.08100411 150.2862866 -63 145.5 C-62.16666629 143.5833335 -61.33333296 141.66666683 -60.5 139.75 C-58.83333333 135.91666667 -57.16666667 132.08333333 -55.5 128.25 C-55.08751007 127.30127014 -54.67502014 126.35254028 -54.25003052 125.37506104 C-53.41660439 123.45818704 -52.58316933 121.54131692 -51.74972534 119.62445068 C-49.66773863 114.83598797 -47.58590656 110.04745814 -45.50439453 105.25878906 C-41.73859385 96.59570718 -37.97164214 87.93313485 -34.19897461 79.27304077 C-22.70509663 52.88868801 -11.30425075 26.46617009 0 0 Z " fill="#4C5E66" transform="translate(205,0)"/>
<path d="M0 0 C0.6384082 0.26312988 1.27681641 0.52625977 1.93457031 0.79736328 C19.59907573 8.26106033 32.62381162 20.97336177 40.7734375 38.43359375 C41.99615696 41.14773074 41.99615696 41.14773074 44 44 C44.85658203 43.23816406 44.85658203 43.23816406 45.73046875 42.4609375 C58.11753019 31.9447359 71.7710293 26.69679533 88 28 C102.78898617 30.39922716 113.83520446 37.30721894 123.375 48.8125 C137.48481915 71.32102103 130 100.19717769 130 125 C-38.96 125 -207.92 125 -382 125 C-382 77.10227273 -382 77.10227273 -374.5 63.6875 C-373.9328125 62.63949219 -373.365625 61.59148437 -372.78125 60.51171875 C-370.91480067 57.87986147 -369.82301313 57.32473362 -367 56 C-366.29034805 54.68903992 -365.62628324 53.35277179 -365 52 C-357.11060632 42.84060636 -342.64508622 34.82752588 -330.49023438 33.78466797 C-319.21651681 33.29614021 -308.36503474 33.0286824 -298 38 C-297.13632812 38.37382812 -296.27265625 38.74765625 -295.3828125 39.1328125 C-279.65764287 46.35013959 -268.16771428 59.63109315 -262.0625 75.75 C-261.711875 76.8225 -261.36125 77.895 -261 79 C-259.73671875 78.67902344 -258.4734375 78.35804688 -257.171875 78.02734375 C-241.18609917 74.49959924 -226.10947727 76.22884847 -212.1875 84.8125 C-205.96751316 89.25698415 -200.76950066 94.32821508 -197 101 C-196.67128906 99.85724609 -196.67128906 99.85724609 -196.3359375 98.69140625 C-193.40549921 89.14961328 -189.45959228 81.74915492 -182 75 C-181.46117187 74.46890625 -180.92234375 73.9378125 -180.3671875 73.390625 C-167.89027228 61.59237044 -157.00266672 59.945751 -140.43310547 60.30712891 C-137.24232731 60.3751636 -134.05472206 60.38914444 -130.86328125 60.39453125 C-128.80986437 60.41352547 -126.75647285 60.4355556 -124.703125 60.4609375 C-123.76229065 60.46741302 -122.8214563 60.47388855 -121.85211182 60.4805603 C-115.74192642 60.63269503 -110.67665683 61.75906279 -105 64 C-104.13246094 64.31324219 -103.26492188 64.62648438 -102.37109375 64.94921875 C-100.58072917 65.6328125 -98.79036458 66.31640625 -97 67 C-97.05800781 66.319375 -97.11601562 65.63875 -97.17578125 64.9375 C-97.99943835 47.24063878 -89.67104412 30.88416341 -78 18 C-58.23286058 -2.66251507 -26.97839635 -11.31042032 0 0 Z " fill="#7EB515" transform="translate(382,387)"/>
<path d="M0 0 C0.66 0 1.32 0 2 0 C10.85543445 19.17824691 19.54889901 38.41837236 28.00579834 57.77584839 C33.58985457 70.55444112 39.25669032 83.29221544 45 96 C52.04018665 111.58052919 58.96089864 127.21065051 65.8125 142.875 C66.16254089 143.67488342 66.51258179 144.47476685 66.87322998 145.29888916 C67.56040271 146.87072677 68.24634111 148.44310464 68.93096924 150.01605225 C70.68348149 154.03410776 72.46696005 158.03447904 74.29980469 162.01660156 C74.67245453 162.83299103 75.04510437 163.64938049 75.42904663 164.49050903 C76.138816 166.04204219 76.85601556 167.59020608 77.5819397 169.13424683 C80.72557333 176.03341576 80.72557333 176.03341576 80 180 C78.75 181.83349609 78.75 181.83349609 77 183.5234375 C76.04661743 184.46038452 76.04661743 184.46038452 75.07397461 185.41625977 C74.38956299 186.06264404 73.70515137 186.70902832 73 187.375 C72.30592041 188.04909912 71.61184082 188.72319824 70.89672852 189.41772461 C67.09401684 193.0883388 63.21808396 196.6451949 59.171875 200.046875 C55.22794336 203.59357612 51.54605158 207.41674312 47.83374023 211.20336914 C47.25309814 211.79239014 46.67245605 212.38141113 46.07421875 212.98828125 C45.55432373 213.51977783 45.03442871 214.05127441 44.4987793 214.59887695 C43 216 43 216 40 218 C36.85409477 217.64670393 34.81815033 216.37109613 32.3046875 214.515625 C31.59771729 213.99895264 30.89074707 213.48228027 30.16235352 212.94995117 C29.40752686 212.38896729 28.6527002 211.8279834 27.875 211.25 C26.2566419 210.06362271 24.63814838 208.87743012 23.01953125 207.69140625 C22.19018066 207.08055176 21.36083008 206.46969727 20.50634766 205.84033203 C15.79251983 202.37911694 11.0422428 198.96811532 6.29199219 195.55712891 C3.01783445 193.20133249 -0.23972583 190.83498889 -3.43359375 188.37109375 C-4.40425781 187.62988281 -5.37492187 186.88867188 -6.375 186.125 C-7.18710938 185.48820313 -7.99921875 184.85140625 -8.8359375 184.1953125 C-10.87635877 182.85802055 -10.87635877 182.85802055 -12.97265625 182.91796875 C-16.14274457 184.60990413 -17.96462304 187.35730615 -20.0625 190.1875 C-21.04403194 191.47414061 -22.02580949 192.76059389 -23.0078125 194.046875 C-23.75466309 195.0359082 -23.75466309 195.0359082 -24.51660156 196.04492188 C-26.78735959 199.03771817 -29.11176815 201.98735971 -31.4375 204.9375 C-32.11232422 205.79722412 -32.11232422 205.79722412 -32.80078125 206.67431641 C-36.1933116 210.9930652 -39.62379215 215.28048082 -43.0625 219.5625 C-48.47285671 226.30102139 -53.76147416 233.12733225 -59 240 C-59.66 239.67 -60.32 239.34 -61 239 C-61.43440203 236.37850444 -61.75435769 233.82815486 -62 231.1875 C-62.70270038 224.06289892 -63.78145219 217.054339 -65 210 C-65.75311424 205.55950181 -66.49785792 201.11771869 -67.23217773 196.67407227 C-67.56055645 194.69918858 -67.89646757 192.72556222 -68.23242188 190.75195312 C-68.876246 186.84038119 -69.45694211 182.92678303 -70 179 C-70.18377197 177.72535889 -70.36754395 176.45071777 -70.55688477 175.13745117 C-71.60420349 165.65065656 -69.96441114 159.43172685 -65.8125 150.9375 C-65.22490763 149.67032405 -64.64115273 148.4013632 -64.06079102 147.13085938 C-62.76927535 144.30808216 -61.46376764 141.49232107 -60.15136719 138.67919922 C-56.514529 130.82797135 -53.12933572 122.86415372 -49.69998169 114.92080688 C-47.55985242 109.96952375 -45.40629376 105.02408851 -43.25390625 100.078125 C-42.37645693 98.06055032 -41.49901553 96.04297219 -40.62158203 94.02539062 C-38.47163561 89.08311809 -36.31980638 84.14166796 -34.16725159 79.20053101 C-22.6840539 52.84030542 -11.29388689 26.44190563 0 0 Z " fill="#BEC4D1" transform="translate(205,0)"/>
<path d="M0 0 C3 1 3 1 4.28344727 3.01513672 C4.70682373 3.89443848 5.1302002 4.77374023 5.56640625 5.6796875 C6.0461792 6.6605835 6.52595215 7.64147949 7.02026367 8.65209961 C7.78367065 10.2474353 7.78367065 10.2474353 8.5625 11.875 C9.65204341 14.10364869 10.74320559 16.33150668 11.8359375 18.55859375 C12.37573242 19.66315918 12.91552734 20.76772461 13.47167969 21.90576172 C15.47206003 25.95573303 17.56243387 29.95191772 19.6875 33.9375 C24.32550435 42.66978921 28.85404279 51.45676105 33.375 60.25 C38.26721294 69.76289522 43.16752948 79.27088054 48.125 88.75 C52.56430616 97.23834364 56.97662145 105.74039239 61.375 114.25 C62.00861648 115.47559101 62.64224277 116.70117696 63.27587891 117.92675781 C64.54694152 120.38538228 65.81793518 122.84404239 67.08886719 125.30273438 C67.40400269 125.91238037 67.71913818 126.52202637 68.04382324 127.15014648 C68.68261121 128.38596838 69.32136433 129.6218083 69.96008301 130.85766602 C72.13853094 135.07256756 74.31893244 139.28645341 76.5 143.5 C77.05091309 144.56637695 77.60182617 145.63275391 78.16943359 146.73144531 C81.50694701 153.17803308 81.50694701 153.17803308 84.9609375 159.5625 C85.2854187 160.15244751 85.6098999 160.74239502 85.94421387 161.35021973 C86.85669483 163.0039395 87.7767662 164.65346441 88.69726562 166.30273438 C90 169 90 169 90 172 C82.14483861 169.60564599 74.86257862 166.30109532 67.4375 162.8125 C66.22611971 162.24760008 65.01453248 161.68314371 63.80273438 161.11914062 C60.86643209 159.75042601 57.93228668 158.377291 55 157 C54.72526855 157.59240479 54.45053711 158.18480957 54.16748047 158.79516602 C53.05026428 160.90507388 51.8862591 162.48680246 50.3203125 164.27734375 C49.54494141 165.17163086 49.54494141 165.17163086 48.75390625 166.08398438 C47.94759766 167.00147461 47.94759766 167.00147461 47.125 167.9375 C46.06434446 169.1542861 45.00443424 170.37172235 43.9453125 171.58984375 C43.44290039 172.16718262 42.94048828 172.74452148 42.42285156 173.33935547 C40.55852545 175.51525564 38.76994068 177.74695957 37 180 C33.44300266 179.40703587 30.5264734 178.46095963 27.2890625 176.8828125 C26.38486572 176.44549805 25.48066895 176.00818359 24.54907227 175.55761719 C23.58412842 175.08485352 22.61918457 174.61208984 21.625 174.125 C20.62073975 173.64192383 19.61647949 173.15884766 18.58178711 172.66113281 C13.24419741 170.0900603 7.9360954 167.46900098 2.65234375 164.7890625 C1.63124512 164.27972168 0.61014648 163.77038086 -0.44189453 163.24560547 C-2.39786801 162.26905343 -4.34596856 161.27652445 -6.28466797 160.26611328 C-7.62682373 159.60071533 -7.62682373 159.60071533 -8.99609375 158.921875 C-10.15902954 158.32777832 -10.15902954 158.32777832 -11.34545898 157.72167969 C-18.39114092 155.80619769 -25.01885291 158.91478333 -31.44140625 161.60546875 C-32.32674545 161.96715652 -33.21208466 162.3288443 -34.12425232 162.70149231 C-36.94082103 163.85444061 -39.75169443 165.02058175 -42.5625 166.1875 C-44.42215427 166.95207676 -46.28217766 167.71575634 -48.14257812 168.47851562 C-58.38595052 172.68142502 -58.38595052 172.68142502 -68.61279297 176.92431641 C-69.97999989 177.48765269 -71.34734074 178.05066411 -72.71484375 178.61328125 C-73.89038818 179.10223877 -75.06593262 179.59119629 -76.27709961 180.0949707 C-79 181 -79 181 -81 180 C-79.42370184 176.40913296 -77.8426067 172.82041632 -76.25756836 169.23339844 C-75.46295604 167.43268722 -74.67184914 165.63043041 -73.88085938 163.828125 C-71.25686884 157.89562466 -68.54889617 152.03525901 -65.609375 146.25 C-61.35924798 137.84857244 -57.59480784 129.24473174 -53.8125 120.625 C-52.76087938 118.23285999 -51.70820637 115.84119926 -50.65324402 113.45053101 C-50.00446891 111.97994008 -49.3575932 110.50850896 -48.71308899 109.03604126 C-46.89146202 104.90232439 -44.95331475 100.85741376 -42.87084961 96.8482666 C-41.97483536 94.94659129 -41.33394425 93.06653346 -40.73046875 91.0546875 C-38.5778174 84.29250745 -35.4126575 77.92797018 -32.42153931 71.50613403 C-31.29193693 69.08085059 -30.1680475 66.65299269 -29.0456543 64.22436523 C-27.48266016 60.84295828 -25.91777677 57.4624361 -24.3515625 54.08251953 C-20.99301008 46.82941276 -17.66047127 39.56442899 -14.33505249 32.29608154 C-13.34327669 30.12972614 -12.34912344 27.96447414 -11.35473633 25.79931641 C-7.43784496 17.2533716 -3.65908373 8.65974684 0 0 Z " fill="#BEC4D1" transform="translate(363,165)"/>
<path d="M0 0 C0.6384082 0.26312988 1.27681641 0.52625977 1.93457031 0.79736328 C19.59907573 8.26106033 32.62381162 20.97336177 40.7734375 38.43359375 C41.99615696 41.14773074 41.99615696 41.14773074 44 44 C44.85658203 43.23816406 44.85658203 43.23816406 45.73046875 42.4609375 C58.11753019 31.9447359 71.7710293 26.69679533 88 28 C102.78898617 30.39922716 113.83520446 37.30721894 123.375 48.8125 C130.26601772 58.99732922 130.53180855 69.91935824 130.25 81.75 C130.2298797 83.23695478 130.21163882 84.72393622 130.1953125 86.2109375 C130.15181086 89.80785773 130.08309855 93.40375057 130 97 C129.67 97 129.34 97 129 97 C128.85304688 96.10539062 128.70609375 95.21078125 128.5546875 94.2890625 C127.0256911 86.04654169 124.87247195 79.81884814 120 73 C119.13375 71.6696875 119.13375 71.6696875 118.25 70.3125 C109.91651444 61.74752873 98.8024132 56.57144256 86.87109375 55.796875 C71.03696376 55.5807094 57.0608308 59.66239059 45.328125 70.6796875 C44.88984375 71.11539063 44.4515625 71.55109375 44 72 C41.5244275 68.93291903 39.86201473 65.81122692 38.1875 62.25 C35.60168159 56.98875561 32.70323703 52.52163196 29 48 C27.9171875 46.515 27.9171875 46.515 26.8125 45 C15.73249551 32.06164033 -2.26083759 24.91901158 -18.82519531 23.34375 C-39.4729112 21.76984121 -58.13923893 28.10969753 -73.85546875 41.41796875 C-86.20637022 53.17094458 -94.37182077 68.91802051 -96.125 85.875 C-96.25455078 87.050625 -96.25455078 87.050625 -96.38671875 88.25 C-96.5970149 90.16603159 -96.79932744 92.0829366 -97 94 C-98.11375 93.608125 -99.2275 93.21625 -100.375 92.8125 C-105.27049729 91.18066757 -110.2194208 89.76576016 -115.1875 88.375 C-115.9594873 88.15690674 -116.73147461 87.93881348 -117.52685547 87.71411133 C-135.33185423 82.77850889 -153.58031205 84.19097407 -170 93 C-182.50193536 100.91534024 -189.89166334 110.08743334 -195 124 C-197.3046875 124.22265625 -197.3046875 124.22265625 -200 124 C-201.6328125 122.49609375 -201.6328125 122.49609375 -203.125 120.4375 C-210.48989043 111.43065347 -221.71267069 106.2746329 -233 104 C-241.13733381 103.40486448 -248.44793391 104.2649801 -256.3203125 106.34375 C-259 107 -259 107 -262 107 C-262.45439453 105.7315625 -262.45439453 105.7315625 -262.91796875 104.4375 C-269.30872108 87.13330907 -279.81256914 73.78414948 -296.89453125 65.83984375 C-312.58068189 59.58284489 -329.63588569 59.38991273 -345.3125 65.6875 C-351.24973768 68.42367665 -356.16935015 71.61376993 -361 76 C-361.62390625 76.54398437 -362.2478125 77.08796875 -362.890625 77.6484375 C-367.71678451 82.11788087 -370.92216655 87.22011509 -374 93 C-374.57234375 94.06347656 -374.57234375 94.06347656 -375.15625 95.1484375 C-378.39811447 101.75496434 -379.64964422 108.80833248 -381 116 C-381.33 116 -381.66 116 -382 116 C-383.03518924 74.97067255 -383.03518924 74.97067255 -371 58 C-369.68174987 57.30398361 -368.34951268 56.63327542 -367 56 C-366.29034805 54.68903992 -365.62628324 53.35277179 -365 52 C-357.11060632 42.84060636 -342.64508622 34.82752588 -330.49023438 33.78466797 C-319.21651681 33.29614021 -308.36503474 33.0286824 -298 38 C-297.13632812 38.37382812 -296.27265625 38.74765625 -295.3828125 39.1328125 C-279.65764287 46.35013959 -268.16771428 59.63109315 -262.0625 75.75 C-261.711875 76.8225 -261.36125 77.895 -261 79 C-259.73671875 78.67902344 -258.4734375 78.35804688 -257.171875 78.02734375 C-241.18609917 74.49959924 -226.10947727 76.22884847 -212.1875 84.8125 C-205.96751316 89.25698415 -200.76950066 94.32821508 -197 101 C-196.67128906 99.85724609 -196.67128906 99.85724609 -196.3359375 98.69140625 C-193.40549921 89.14961328 -189.45959228 81.74915492 -182 75 C-181.46117187 74.46890625 -180.92234375 73.9378125 -180.3671875 73.390625 C-167.89027228 61.59237044 -157.00266672 59.945751 -140.43310547 60.30712891 C-137.24232731 60.3751636 -134.05472206 60.38914444 -130.86328125 60.39453125 C-128.80986437 60.41352547 -126.75647285 60.4355556 -124.703125 60.4609375 C-123.76229065 60.46741302 -122.8214563 60.47388855 -121.85211182 60.4805603 C-115.74192642 60.63269503 -110.67665683 61.75906279 -105 64 C-104.13246094 64.31324219 -103.26492188 64.62648438 -102.37109375 64.94921875 C-100.58072917 65.6328125 -98.79036458 66.31640625 -97 67 C-97.05800781 66.319375 -97.11601562 65.63875 -97.17578125 64.9375 C-97.99943835 47.24063878 -89.67104412 30.88416341 -78 18 C-58.23286058 -2.66251507 -26.97839635 -11.31042032 0 0 Z " fill="#8AC823" transform="translate(382,387)"/>
<path d="M0 0 C0.66 0 1.32 0 2 0 C2.31114746 0.62753174 2.62229492 1.25506348 2.94287109 1.90161133 C8.47324436 13.04252291 14.02912278 24.16234973 19.86132812 35.14868164 C24.09946373 43.14807996 28.23574026 51.1991607 32.375 59.25 C37.26721294 68.76289522 42.16752948 78.27088054 47.125 87.75 C51.56430616 96.23834364 55.97662145 104.74039239 60.375 113.25 C61.00861648 114.47559101 61.64224277 115.70117696 62.27587891 116.92675781 C63.54694152 119.38538228 64.81793518 121.84404239 66.08886719 124.30273438 C66.40400269 124.91238037 66.71913818 125.52202637 67.04382324 126.15014648 C67.68261121 127.38596838 68.32136433 128.6218083 68.96008301 129.85766602 C71.13853094 134.07256756 73.31893244 138.28645341 75.5 142.5 C76.05091309 143.56637695 76.60182617 144.63275391 77.16943359 145.73144531 C80.50694701 152.17803308 80.50694701 152.17803308 83.9609375 158.5625 C84.2854187 159.15244751 84.6098999 159.74239502 84.94421387 160.35021973 C85.85669483 162.0039395 86.7767662 163.65346441 87.69726562 165.30273438 C89 168 89 168 89 171 C81.14483861 168.60564599 73.86257862 165.30109532 66.4375 161.8125 C65.22611971 161.24760008 64.01453248 160.68314371 62.80273438 160.11914062 C59.86643209 158.75042601 56.93228668 157.377291 54 156 C53.72454346 156.59240479 53.44908691 157.18480957 53.1652832 157.79516602 C52.05642724 159.89323394 50.90000022 161.48687638 49.35546875 163.27734375 C48.84306641 163.87353516 48.33066406 164.46972656 47.80273438 165.08398438 C47.00319336 166.00147461 47.00319336 166.00147461 46.1875 166.9375 C45.40536133 167.84918945 45.40536133 167.84918945 44.60742188 168.77929688 C41.53485558 172.33518821 38.36624891 175.72086289 35 179 C33.32997746 171.14549963 32.05380398 163.25414608 30.875 155.3125 C30.69324219 154.12849609 30.51148438 152.94449219 30.32421875 151.72460938 C30.15277344 150.57412109 29.98132813 149.42363281 29.8046875 148.23828125 C29.64983887 147.20743408 29.49499023 146.17658691 29.33544922 145.11450195 C28.97420939 141.76054528 29 138.37335435 29 135 C19.76 135 10.52 135 1 135 C0.82642503 123.3750937 0.65958035 111.75010712 0.5 100.125 C0.48812275 99.26010075 0.4762455 98.39520149 0.46400833 97.50409317 C0.02049623 65.00032939 -0.12991275 32.50676326 0 0 Z " fill="#EFF3FC" transform="translate(364,166)"/>
<path d="M0 0 C4.27215347 1.35306917 8.30966167 2.96309795 12.38671875 4.8203125 C13.57201172 5.35527344 14.75730469 5.89023437 15.97851562 6.44140625 C17.84252541 7.28646348 19.70568805 8.13329929 21.56762695 8.98291016 C23.38012189 9.80856273 25.19587785 10.62704486 27.01171875 11.4453125 C28.62759888 12.18031982 28.62759888 12.18031982 30.27612305 12.93017578 C32.97765208 14.18278618 32.97765208 14.18278618 36 14 C36.27846771 14.54662796 36.55693542 15.09325592 36.84384155 15.65644836 C39.79591052 21.45069318 42.74977449 27.2440205 45.70458984 33.03686523 C46.80073481 35.18637956 47.89645229 37.33611194 48.99169922 39.48608398 C55.52355147 52.30731367 62.11259367 65.09370309 68.84265137 77.81204224 C71.79272112 83.38912405 74.72924729 88.97315135 77.64526367 94.56811523 C78.35680778 95.92969965 79.07146577 97.28966018 79.78881836 98.64819336 C80.84980377 100.6587666 81.90056055 102.67438243 82.94921875 104.69140625 C83.56112061 105.85873291 84.17302246 107.02605957 84.8034668 108.22875977 C85.19832275 109.14326904 85.59317871 110.05777832 86 111 C85.67 111.66 85.34 112.32 85 113 C84.30777344 112.12988281 84.30777344 112.12988281 83.6015625 111.2421875 C75.39754167 101.41681869 64.87685764 95.26243702 52 94 C34.97054561 92.97019524 20.06910318 99.19083257 7 110 C6.5153125 108.96101563 6.030625 107.92203125 5.53125 106.8515625 C1.12720234 97.61558841 -3.71080353 89.89857358 -10.57446289 82.24414062 C-12.38223429 79.39827066 -12.4378072 77.43388679 -12.5703125 74.078125 C-12.9550243 67.22221626 -13.83676979 60.53415328 -14.875 53.75 C-15.04700928 52.58065918 -15.21901855 51.41131836 -15.39624023 50.20654297 C-16.17608165 44.98962323 -16.99868747 39.80681114 -18.10546875 34.6484375 C-18.26740723 33.87145508 -18.4293457 33.09447266 -18.59619141 32.29394531 C-19.0299604 30.27635173 -19.49987569 28.26662259 -19.97265625 26.2578125 C-20 23 -20 23 -17.87109375 20.390625 C-16.92363281 19.60171875 -15.97617187 18.8128125 -15 18 C-9.58868428 12.26738741 -4.37828143 6.56742214 0 0 Z " fill="#819298" transform="translate(418,322)"/>
<path d="M0 0 C0.66 0 1.32 0 2 0 C12.19679901 22.67565756 22.29626608 45.39426722 32.38720703 68.1171875 C36.17682887 76.65031154 39.96934796 85.18214772 43.76171875 93.71405029 C44.9948971 96.48851924 46.22794036 99.26304818 47.4609375 102.03759766 C51.36810148 110.82956181 55.27598058 119.62120648 59.1859436 128.41192627 C61.03345971 132.56577223 62.88063476 136.71976982 64.7277832 140.8737793 C65.60879738 142.85481226 66.48997883 144.83577084 67.37133789 146.81665039 C68.59303383 149.56247479 69.8141541 152.30855454 71.03515625 155.0546875 C71.39360123 155.85989838 71.7520462 156.66510925 72.12135315 157.49472046 C72.7816744 158.98040621 73.43901944 160.4674198 74.09280396 161.95599365 C74.68419373 163.28845587 75.28992782 164.61467144 75.91183472 165.9331665 C77.51483187 169.41045255 78.62997792 172.16517346 78 176 C76.75 177.83349609 76.75 177.83349609 75 179.5234375 C74.04661743 180.46038452 74.04661743 180.46038452 73.07397461 181.41625977 C72.38956299 182.06264404 71.70515137 182.70902832 71 183.375 C69.95888062 184.38614868 69.95888062 184.38614868 68.89672852 185.41772461 C65.09336417 189.0889688 61.21865338 192.64894971 57.16796875 196.046875 C53.24424308 199.58176299 49.5918553 203.40768369 45.92163086 207.20336914 C45.34421143 207.79239014 44.76679199 208.38141113 44.171875 208.98828125 C43.3998877 209.78552612 43.3998877 209.78552612 42.61230469 210.59887695 C40.85555425 212.12552607 39.11496344 213.04712013 37 214 C36.84281104 192.97537255 37.28386943 172.01075937 38 151 C29.09 151 20.18 151 11 151 C9.11099536 127.04181473 7.22510361 103.08338811 5.34507751 79.12449646 C4.60292615 69.66791116 3.8595367 60.21143034 3.11058998 50.75538063 C2.67584743 45.26484639 2.24464846 39.77404014 1.81530762 34.28308105 C1.64830663 32.15561267 1.47995645 30.02824972 1.31018066 27.90100098 C1.07950788 25.00848725 0.85359224 22.11564025 0.62890625 19.22265625 C0.56363235 18.41935379 0.49835846 17.61605133 0.43110657 16.78840637 C0.00326823 11.18487684 -0.06667172 5.61859934 0 0 Z " fill="#EFF3FC" transform="translate(207,4)"/>
<path d="M0 0 C3.10866511 3.65514514 4.79275209 7.73091101 6.66796875 12.09375 C7.02041153 12.9012822 7.37285431 13.70881439 7.73597717 14.54081726 C8.89173859 17.19162811 10.04006181 19.84557675 11.1875 22.5 C12.79847211 26.21584937 14.41213529 29.93052151 16.02734375 33.64453125 C16.43707428 34.58774734 16.84680481 35.53096344 17.26895142 36.50276184 C20.04577505 42.87347596 22.90542079 49.20132923 25.81640625 55.51171875 C26.93567338 57.95617415 28.05379466 60.40115114 29.17178345 62.84619141 C29.88762205 64.40060927 30.61021542 65.95193509 31.33969116 67.5 C32.35329998 69.65258665 33.34282072 71.81481379 34.328125 73.98046875 C34.63130142 74.60684738 34.93447784 75.23322601 35.24684143 75.87858582 C36.59011965 78.88870262 37.06708312 80.67429556 36.39624023 83.93139648 C35.93548096 84.94403564 35.47472168 85.9566748 35 87 C34.73565155 87.60565292 34.4713031 88.21130585 34.19894409 88.83531189 C33.27100092 90.94294006 32.30530652 93.03012348 31.33203125 95.1171875 C30.79517952 96.2794133 30.79517952 96.2794133 30.2474823 97.46511841 C29.10547102 99.93647228 27.95929882 102.40586453 26.8125 104.875 C25.31689012 108.10058469 23.82336309 111.32712264 22.33203125 114.5546875 C21.96836456 115.34155945 21.60469788 116.1284314 21.23001099 116.93914795 C17.711315 124.57898556 14.33533958 132.2786522 11 140 C10.34 139.67 9.68 139.34 9 139 C8.11887295 136.2773808 7.35331549 133.57735747 6.625 130.8125 C3.38036953 118.9320447 -0.36568367 107.219559 -4.13763428 95.4984436 C-4.92440863 93.05336867 -5.70649028 90.60682821 -6.48828125 88.16015625 C-6.72659164 87.42645813 -6.96490204 86.69276001 -7.21043396 85.93682861 C-8.4729488 81.9766588 -9.43261114 78.11871811 -10 74 C-10.89831543 74.54527344 -11.79663086 75.09054688 -12.72216797 75.65234375 C-16.04793938 77.66948649 -19.37718258 79.68083526 -22.70751953 81.69042969 C-24.14988422 82.5618922 -25.59129571 83.43493437 -27.03173828 84.30957031 C-29.09941493 85.56469131 -31.17042537 86.81413737 -33.2421875 88.0625 C-33.88807831 88.45622803 -34.53396912 88.84995605 -35.19943237 89.25561523 C-39.77225659 92 -39.77225659 92 -42 92 C-42.05039873 86.36387099 -42.06042993 80.72999763 -42.01953125 75.09375 C-41.98561735 70.31654542 -42.06162384 65.55637462 -42.19921875 60.78125 C-42.48621541 42.20774018 -42.48621541 42.20774018 -38.68359375 37.2734375 C-36.27708322 34.85425683 -33.56459002 33.00968637 -30.69482422 31.18212891 C-27.68609918 29.0835627 -25.2703823 26.39735167 -22.75 23.75 C-18.93690913 19.87197939 -15.01948436 16.19119417 -10.88671875 12.65625 C-4.24477654 7.17587684 -4.24477654 7.17587684 0 0 Z " fill="#819298" transform="translate(285,177)"/>
</svg>
