<?xml version="1.0" encoding="UTF-8"?>
<svg version="1.1" xmlns="http://www.w3.org/2000/svg" width="512" height="512">
<path d="M0 0 C1.4768502 -0.00786278 1.4768502 -0.00786278 2.98353577 -0.0158844 C5.05338605 -0.02227096 7.1232728 -0.02101158 9.19311523 -0.01245117 C12.33578957 -0.00393839 15.47664509 -0.03275542 18.61914062 -0.06445312 C20.64192655 -0.06606553 22.66471564 -0.06548686 24.6875 -0.0625 C26.07702126 -0.07935097 26.07702126 -0.07935097 27.49461365 -0.09654236 C36.22124621 -0.00467892 44.28401316 2.48897982 50.75390625 8.546875 C63.6018328 23.18260265 66.52077695 41.65524933 67.00390625 60.45703125 C67.16776192 63.35947081 67.16776192 63.35947081 68.57885742 65.09423828 C71.13614008 66.96455593 72.96749951 66.81808596 76.1171875 66.83984375 C77.25494629 66.85942139 78.39270508 66.87899902 79.56494141 66.89916992 C80.7719873 66.91052979 81.9790332 66.92188965 83.22265625 66.93359375 C111.64760958 67.63085191 111.64760958 67.63085191 122.11328125 78.14453125 C135.62481264 94.31742488 134.45987838 119.67474707 132.83984375 139.47265625 C131.62780887 150.64541413 129.12756374 158.84392621 120.26953125 166.21484375 C109.28906132 174.04706706 97.66347617 174.0564386 84.66845703 174.51757812 C82.38639652 174.60299524 80.10552567 174.70523459 77.82421875 174.80859375 C76.77423203 174.83687256 76.77423203 174.83687256 75.70303345 174.86572266 C72.84162638 174.99807683 70.85830153 175.11307432 68.49243164 176.80517578 C63.08251275 184.94507179 64.77520383 200.22102228 66.03515625 209.49609375 C66.52100531 214.59750884 66.52100531 214.59750884 64.41015625 217.43359375 C61.44015625 218.42359375 61.44015625 218.42359375 58.41015625 219.43359375 C58.41015625 224.05359375 58.41015625 228.67359375 58.41015625 233.43359375 C61.38015625 234.42359375 61.38015625 234.42359375 64.41015625 235.43359375 C69.86419951 242.49547635 66.25409038 256.8090538 65.21923828 265.00585938 C65.05536621 266.24013672 64.89149414 267.47441406 64.72265625 268.74609375 C64.57425293 269.93783203 64.42584961 271.12957031 64.27294922 272.35742188 C62.49714802 284.80712489 57.05729058 296.11070988 47.84765625 304.87109375 C36.6477408 309.96196441 24.50305042 309.93741365 12.44116211 309.87963867 C9.71587833 309.87107245 6.99265941 309.90009297 4.26757812 309.93164062 C-9.28666179 309.98823082 -19.28523218 308.68184552 -29.36328125 298.84375 C-41.08436927 286.1561863 -41.02609088 271.79016073 -41.00053406 255.3719902 C-40.99601006 252.21105929 -41.01017922 249.05067459 -41.02893066 245.88980103 C-41.07167962 238.05449069 -41.08300524 230.2191957 -41.09515381 222.38378906 C-41.10666506 215.72957122 -41.13013703 209.0756085 -41.16984558 202.42149734 C-41.18343261 199.30647388 -41.17924533 196.19179324 -41.17443848 193.07675171 C-41.18377247 191.17795364 -41.19393961 189.27915943 -41.20507812 187.38037109 C-41.1989299 186.51390961 -41.19278168 185.64744812 -41.18644714 184.75473022 C-41.09876553 180.44711337 -41.09876553 180.44711337 -42.93100739 176.71178627 C-45.52078612 174.71626949 -47.83804347 175.06449401 -51.05859375 175.0625 C-52.3528125 175.04509766 -53.64703125 175.02769531 -54.98046875 175.00976562 C-57.02283593 174.99978743 -59.06503159 174.99607273 -61.10742188 174.99780273 C-70.09087916 174.98133745 -77.39010918 174.19305476 -85.58984375 170.43359375 C-86.66878906 169.964375 -87.74773437 169.49515625 -88.859375 169.01171875 C-95.03878573 165.78437674 -99.07052831 162.49123078 -102.58984375 156.43359375 C-102.94949219 155.81742188 -103.30914062 155.20125 -103.6796875 154.56640625 C-106.24696058 148.55039293 -105.75078332 141.82617365 -105.7578125 135.41015625 C-105.7611409 134.35001312 -105.7644693 133.28987 -105.76789856 132.19760132 C-105.77294959 129.96018913 -105.77530745 127.72276945 -105.77514648 125.48535156 C-105.77733173 122.0773467 -105.79550368 118.66966637 -105.81445312 115.26171875 C-105.81738774 113.08203235 -105.81937208 110.90234442 -105.8203125 108.72265625 C-105.82749802 107.71095367 -105.83468353 106.6992511 -105.84208679 105.65689087 C-105.80523907 94.14677253 -102.99511413 86.09625796 -94.96484375 77.68359375 C-90.44041621 74.23074115 -84.86276507 72.43188912 -79.58984375 70.43359375 C-78.42839844 69.89992188 -77.26695313 69.36625 -76.0703125 68.81640625 C-69.12397044 66.21566665 -61.3678974 66.96000875 -54.06054688 66.90625 C-52.88814453 66.88433594 -51.71574219 66.86242187 -50.5078125 66.83984375 C-49.44328857 66.83275391 -48.37876465 66.82566406 -47.28198242 66.81835938 C-44.60140504 66.63224669 -44.60140504 66.63224669 -42.74316406 65.20581055 C-41.24288456 62.90044879 -41.22110059 61.41448773 -41.21875 58.671875 C-41.20416748 57.72513916 -41.18958496 56.77840332 -41.17456055 55.80297852 C-41.167229 54.79420654 -41.15989746 53.78543457 -41.15234375 52.74609375 C-40.71713145 35.49794299 -37.40077765 20.53958619 -25.58984375 7.43359375 C-18.04087803 1.19749164 -9.50400662 -0.03005297 0 0 Z " fill="#FDCD6A" transform="translate(107.58984375,29.56640625)"/>
<path d="M0 0 C7.75790261 8.16621327 8.49283337 19.23219404 8.73828125 30.05078125 C8.23064205 33.47325195 6.82185384 36.39143629 5.375 39.5 C-8.4419865 69.90316206 -11.67583047 99.86355036 -0.125 131.72265625 C9.44808141 156.921257 26.67689785 175.43245529 49.375 189.5 C51.15167492 190.65775128 52.92348299 191.82305234 54.6875 193 C55.38488281 193.4640625 56.08226562 193.928125 56.80078125 194.40625 C58.375 195.5 58.375 195.5 59.375 196.5 C59.41592937 198.83297433 59.41741723 201.16705225 59.375 203.5 C60.95798026 203.9803318 62.54139978 204.45921612 64.125 204.9375 C65.00671875 205.20433594 65.8884375 205.47117187 66.796875 205.74609375 C67.64765625 205.99488281 68.4984375 206.24367188 69.375 206.5 C70.09300781 206.74878906 70.81101562 206.99757813 71.55078125 207.25390625 C72.45376953 207.37572266 72.45376953 207.37572266 73.375 207.5 C74.179375 206.675 74.98375 205.85 75.8125 205 C78.0236985 202.99511605 78.97988968 202.50314741 82.01074219 202.47900391 C83.03329102 202.60194824 84.05583984 202.72489258 85.109375 202.8515625 C90.15511 203.35054876 95.07368423 203.55891331 100.14453125 203.4921875 C100.8026329 203.48411072 101.46073456 203.47603394 102.13877869 203.4677124 C104.83980156 203.432322 107.5403929 203.3896178 110.2409668 203.32861328 C128.05720981 202.95022272 128.05720981 202.95022272 135.25 209.4375 C135.80429687 209.92089844 136.35859375 210.40429688 136.9296875 210.90234375 C140.98095322 215.38063477 141.43733161 220.66420323 141.375 226.5 C140.38303186 233.55124021 139.03803804 239.95476557 134.375 245.5 C133.83101563 246.17160156 133.28703125 246.84320313 132.7265625 247.53515625 C127.56143216 253.68060724 121.69189103 258.58209435 115.375 263.5 C114.529375 264.20769531 113.68375 264.91539062 112.8125 265.64453125 C98.19594739 277.43550029 81.74067228 284.99893023 63.3671875 288.48046875 C57.75222737 289.54993419 52.65791238 291.36295788 47.34765625 293.484375 C39.07819773 296.30968277 30.13554619 295.74190403 21.5 295.75 C20.75923218 295.75100708 20.01846436 295.75201416 19.25524902 295.75305176 C3.41521286 295.73845739 -10.56055816 293.65753058 -25.625 288.5 C-26.75421875 288.14164062 -27.8834375 287.78328125 -29.046875 287.4140625 C-41.86689083 283.16921281 -52.64707104 276.40489029 -63.5546875 268.625 C-66.2886257 266.73280868 -69.05596502 265.08900661 -71.9375 263.4375 C-85.42376971 254.9126025 -95.86694289 241.62424394 -104.625 228.5 C-105.34042969 227.45714844 -106.05585938 226.41429687 -106.79296875 225.33984375 C-118.39903459 207.58278751 -125.95922854 185.51458798 -128.625 164.5 C-128.73457031 163.68660156 -128.84414062 162.87320313 -128.95703125 162.03515625 C-133.38952089 122.73374815 -121.8680653 82.28232205 -97.48999023 51.20629883 C-78.60543035 27.7298586 -32.93052134 -13.62642262 0 0 Z " fill="#7ED39C" transform="translate(309.625,216.5)"/>
<path d="M0 0 C6.12662186 3.37493373 9.76676118 7.49052147 12.03515625 14.12109375 C12.85883081 20.25845505 12.50722182 26.51111593 12.34765625 32.68359375 C12.32253752 34.37692013 12.29973067 36.07028248 12.27929688 37.76367188 C12.22459368 41.8837107 12.1385232 46.0020003 12.03515625 50.12109375 C13.04304199 50.09490967 14.05092773 50.06872559 15.08935547 50.04174805 C18.87249044 49.95041134 22.65553059 49.89354614 26.43945312 49.84643555 C28.06885228 49.82147933 29.69814167 49.78750121 31.32714844 49.74389648 C41.60376101 49.475948 50.46932235 49.31599095 58.62817383 56.52954102 C63.36083142 61.69189332 65.71779288 67.78033002 65.4453125 74.72265625 C64.22250368 81.87317637 60.43426328 87.45766729 54.87890625 91.96484375 C49.91437491 95.07819391 45.42181686 95.39433471 39.671875 95.31640625 C38.87989212 95.31357635 38.08790924 95.31074646 37.27192688 95.30783081 C34.75534626 95.29668238 32.23912836 95.27158797 29.72265625 95.24609375 C28.01107287 95.23605704 26.29948388 95.22693239 24.58789062 95.21875 C20.40350719 95.19676056 16.21939311 95.16226783 12.03515625 95.12109375 C12.04625931 96.38927948 12.05736237 97.65746521 12.06880188 98.96408081 C12.17034344 110.93982837 12.2452013 122.9154881 12.29421711 134.89156914 C12.32026423 141.04801306 12.35557387 147.20410829 12.41235352 153.36035156 C12.46684622 159.30612725 12.49661351 165.2515684 12.50954247 171.19757462 C12.51875129 173.46130765 12.53673396 175.72502325 12.56380653 177.98861313 C12.60032523 181.16972574 12.60509194 184.34947183 12.6027832 187.53076172 C12.62075958 188.45793503 12.63873596 189.38510834 12.65725708 190.34037781 C12.60421602 197.13441299 10.88555115 202.48071799 7.03515625 208.12109375 C0.34042562 214.41219501 -5.25497212 215.60814364 -14.375 215.5234375 C-19.78454593 214.91714454 -23.16474726 212.95346282 -26.96484375 209.12109375 C-30.66280372 204.38948713 -33.09252734 199.94932511 -33.08509827 193.85005188 C-33.08647293 192.97927002 -33.0878476 192.10848816 -33.08926392 191.21131897 C-33.083871 189.78280861 -33.083871 189.78280861 -33.07836914 188.32543945 C-33.07851517 187.32038361 -33.07866119 186.31532776 -33.07881165 185.27981567 C-33.07811404 181.95214696 -33.07032869 178.62453396 -33.0625 175.296875 C-33.06063528 172.99187755 -33.05921163 170.6868797 -33.05821228 168.38188171 C-33.05439134 162.31064767 -33.04456464 156.23943749 -33.0335083 150.16821289 C-33.0232851 143.97477542 -33.01871271 137.7813341 -33.01367188 131.58789062 C-33.00294202 119.43228117 -32.98587065 107.27668944 -32.96484375 95.12109375 C-34.01349609 95.14204102 -35.06214844 95.16298828 -36.14257812 95.18457031 C-40.0636611 95.25741867 -43.98468524 95.30305486 -47.90625 95.34082031 C-49.59775886 95.36083435 -51.28919942 95.38805448 -52.98046875 95.42285156 C-55.42334929 95.4718244 -57.86530886 95.49416408 -60.30859375 95.51171875 C-61.42784241 95.54268646 -61.42784241 95.54268646 -62.56970215 95.57427979 C-68.96964724 95.57696478 -74.04676891 93.58053207 -78.953125 89.4453125 C-83.90151726 83.32915805 -86.65470569 77.67779614 -86.375 69.67578125 C-85.2564524 62.70882761 -81.11126138 57.70220835 -75.80859375 53.3125 C-70.87799746 50.12641553 -66.34897993 49.847887 -60.6015625 49.92578125 C-59.80957962 49.92861115 -59.01759674 49.93144104 -58.20161438 49.93435669 C-55.68503376 49.94550512 -53.16881586 49.97059953 -50.65234375 49.99609375 C-48.94076037 50.00613046 -47.22917138 50.01525511 -45.51757812 50.0234375 C-41.33319469 50.04542694 -37.14908061 50.07991967 -32.96484375 50.12109375 C-32.98579102 49.07244141 -33.00673828 48.02378906 -33.02832031 46.94335938 C-33.10116867 43.0222764 -33.14680486 39.10125226 -33.18457031 35.1796875 C-33.20458435 33.48817864 -33.23180448 31.79673808 -33.26660156 30.10546875 C-33.3155744 27.66258821 -33.33791408 25.22062864 -33.35546875 22.77734375 C-33.37611389 22.03117798 -33.39675903 21.28501221 -33.41802979 20.51623535 C-33.42071478 14.11629026 -31.42428207 9.03916859 -27.2890625 4.1328125 C-18.4336183 -3.03185477 -10.33958749 -5.12545589 0 0 Z " fill="#020100" transform="translate(130.96484375,77.87890625)"/>
<path d="M0 0 C1.4768502 -0.00786278 1.4768502 -0.00786278 2.98353577 -0.0158844 C5.05338605 -0.02227096 7.1232728 -0.02101158 9.19311523 -0.01245117 C12.33578957 -0.00393839 15.47664509 -0.03275542 18.61914062 -0.06445312 C20.64192655 -0.06606553 22.66471564 -0.06548686 24.6875 -0.0625 C26.07702126 -0.07935097 26.07702126 -0.07935097 27.49461365 -0.09654236 C36.22124621 -0.00467892 44.28401316 2.48897982 50.75390625 8.546875 C63.6018328 23.18260265 66.52077695 41.65524933 67.00390625 60.45703125 C67.16776192 63.35947081 67.16776192 63.35947081 68.57885742 65.09423828 C71.13614008 66.96455593 72.96749951 66.81808596 76.1171875 66.83984375 C77.25494629 66.85942139 78.39270508 66.87899902 79.56494141 66.89916992 C80.7719873 66.91052979 81.9790332 66.92188965 83.22265625 66.93359375 C111.64760958 67.63085191 111.64760958 67.63085191 122.11328125 78.14453125 C135.62481264 94.31742488 134.45987838 119.67474707 132.83984375 139.47265625 C131.62780887 150.64541413 129.12756374 158.84392621 120.26953125 166.21484375 C109.28906132 174.04706706 97.66347617 174.0564386 84.66845703 174.51757812 C82.38639652 174.60299524 80.10552567 174.70523459 77.82421875 174.80859375 C76.77423203 174.83687256 76.77423203 174.83687256 75.70303345 174.86572266 C72.84162638 174.99807683 70.85830153 175.11307432 68.49243164 176.80517578 C63.08251275 184.94507179 64.77520383 200.22102228 66.03515625 209.49609375 C66.40625793 213.3926614 66.43530447 214.32660739 64.41015625 217.43359375 C61.14565089 219.02957415 59.28998321 219.63820467 55.72265625 218.80859375 C53.01446074 217.19831534 51.97821702 216.17659427 50.41015625 213.43359375 C50.09316077 210.64661373 49.94214765 208.08840452 49.94140625 205.30078125 C49.93379272 204.50890411 49.9261792 203.71702698 49.91833496 202.90115356 C49.90754183 201.22514998 49.90467768 199.54907917 49.90917969 197.87304688 C49.91014529 195.33736191 49.86866204 192.80477418 49.82421875 190.26953125 C49.75861536 181.52421136 49.74060822 173.64509276 55.41015625 166.43359375 C61.70990975 160.53470636 67.39628691 158.14364667 76.0546875 158.1953125 C77.55144133 158.17988973 79.04818629 158.16358586 80.54492188 158.14648438 C82.88179248 158.13007411 85.21800844 158.12107964 87.55493164 158.12817383 C97.23283721 158.13942364 104.68299253 158.0805268 111.90893555 150.95581055 C117.20692285 145.09578734 117.72626285 139.79512509 117.74609375 132.2578125 C117.75275055 131.37382278 117.75940735 130.48983307 117.76626587 129.57905579 C117.77636934 127.71231153 117.7810836 125.84553133 117.78076172 123.97875977 C117.78512591 121.14082435 117.8214443 118.30445653 117.859375 115.46679688 C117.86524567 113.64714069 117.86921339 111.82747718 117.87109375 110.0078125 C117.8926503 108.74803841 117.8926503 108.74803841 117.91464233 107.46281433 C117.86325368 100.74734332 116.06229998 95.5701473 111.69921875 90.41015625 C111.15007812 89.96414062 110.6009375 89.518125 110.03515625 89.05859375 C109.49117187 88.59710938 108.9471875 88.135625 108.38671875 87.66015625 C103.43708238 84.58864277 98.60818697 84.18639176 92.88671875 84.16015625 C91.43879437 84.13986607 89.99087776 84.11901526 88.54296875 84.09765625 C86.28964633 84.07511322 84.03663299 84.05859759 81.78320312 84.05273438 C64.80254202 83.97845327 64.80254202 83.97845327 57.421875 77.7578125 C56.98488281 77.21769531 56.54789063 76.67757812 56.09765625 76.12109375 C55.42283203 75.32251953 55.42283203 75.32251953 54.734375 74.5078125 C51.1660992 68.91856633 50.04277113 64.43569591 50.0390625 57.8125 C50.02168257 56.36783614 50.00409816 54.92317474 49.98632812 53.47851562 C49.9762751 51.23620062 49.97265781 48.99404557 49.97436523 46.75170898 C50.20751896 33.89685659 50.20751896 33.89685659 44.03393555 22.96777344 C37.79714261 17.36390476 32.21197177 15.97180408 24.13671875 16 C23.25414398 15.99475815 22.37156921 15.9895163 21.46224976 15.9841156 C19.60147144 15.97771358 17.74065255 15.97900875 15.87988281 15.98754883 C13.05068939 15.99604709 10.22352497 15.96729185 7.39453125 15.93554688 C5.57942768 15.93393421 3.76432058 15.93451365 1.94921875 15.9375 C1.11250641 15.92626602 0.27579407 15.91503204 -0.58627319 15.90345764 C-7.28080599 15.9818727 -12.46881875 17.79458034 -17.61328125 22.14453125 C-18.28230469 22.96824219 -18.28230469 22.96824219 -18.96484375 23.80859375 C-19.42632812 24.35257813 -19.8878125 24.8965625 -20.36328125 25.45703125 C-23.38138507 30.32059983 -23.82994398 35.04369202 -23.828125 40.66796875 C-23.8435514 42.06120758 -23.85985552 43.45443692 -23.87695312 44.84765625 C-23.89332697 47.01095822 -23.90237675 49.17355582 -23.89526367 51.33691406 C-23.88318723 60.9409824 -24.33031714 69.45125869 -30.99682617 77.03393555 C-36.71276748 82.24035672 -42.69677635 83.80047998 -50.2109375 83.8046875 C-51.65560136 83.82206743 -53.10026276 83.83965184 -54.54492188 83.85742188 C-56.78723688 83.8674749 -59.02939193 83.87109219 -61.27172852 83.86938477 C-74.38423255 83.81591634 -74.38423255 83.81591634 -85.61328125 90.1796875 C-86.05929688 90.73785156 -86.5053125 91.29601562 -86.96484375 91.87109375 C-87.42632812 92.42667969 -87.8878125 92.98226562 -88.36328125 93.5546875 C-91.78056133 98.7894382 -91.90981698 103.54168767 -91.92578125 109.609375 C-91.93243805 110.49336472 -91.93909485 111.37735443 -91.94595337 112.28813171 C-91.95605684 114.15487597 -91.9607711 116.02165617 -91.96044922 117.88842773 C-91.96481341 120.72636315 -92.0011318 123.56273097 -92.0390625 126.40039062 C-92.04493317 128.22004681 -92.04890089 130.03971032 -92.05078125 131.859375 C-92.06515228 132.6992244 -92.07952332 133.53907379 -92.09432983 134.40437317 C-92.05454899 139.6029348 -91.13521138 143.20246432 -88.54629517 147.72721863 C-87.58984375 149.43359375 -87.58984375 149.43359375 -86.58984375 152.43359375 C-84.84116892 153.51790469 -84.84116892 153.51790469 -82.58984375 154.43359375 C-81.71038086 154.94229004 -80.83091797 155.45098633 -79.92480469 155.97509766 C-76.130514 157.63447486 -72.97448179 157.82487077 -68.91796875 157.76953125 C-67.43358943 157.78204971 -65.94921441 157.7950871 -64.46484375 157.80859375 C-62.1567422 157.81250579 -59.84907516 157.80865257 -57.54101562 157.79394531 C-40.09364191 157.72666752 -40.09364191 157.72666752 -32.58984375 163.43359375 C-25.98607687 170.46119447 -24.29193302 176.60439261 -24.31860352 186.05395508 C-24.31337677 187.01719193 -24.30815002 187.98042877 -24.30276489 188.97285461 C-24.29253728 191.06099128 -24.28674665 193.14915335 -24.2848835 195.23731422 C-24.28121642 198.54591864 -24.2644795 201.85422424 -24.24412537 205.1627655 C-24.1887501 214.56849606 -24.15805236 223.9742707 -24.13354492 233.38012695 C-24.11764136 239.13721447 -24.08739173 244.89409015 -24.04878044 250.65106773 C-24.03715412 252.841018 -24.0312003 255.0310062 -24.03109932 257.22098732 C-24.03090657 260.28923179 -24.01258794 263.35689496 -23.99047852 266.42504883 C-23.99505569 267.32350525 -23.99963287 268.22196167 -24.00434875 269.14764404 C-23.92984655 275.67432469 -23.04052192 281.49072917 -18.72265625 286.67578125 C-18.06007813 287.21460938 -17.3975 287.7534375 -16.71484375 288.30859375 C-16.05742188 288.86289062 -15.4 289.4171875 -14.72265625 289.98828125 C-9.64748744 293.42749821 -4.9272832 293.75273779 1.078125 293.76953125 C1.91297928 293.77618805 2.74783356 293.78284485 3.60798645 293.78970337 C5.37218025 293.79980605 7.13641207 293.80452113 8.90063477 293.80419922 C11.57178501 293.8085516 14.24125338 293.84483708 16.91210938 293.8828125 C31.12185067 294.18624291 31.12185067 294.18624291 43.32495117 287.68310547 C48.82581548 281.8289591 49.69310263 276.32503132 49.68359375 268.5546875 C49.70387249 266.81184242 49.72472307 265.06900391 49.74609375 263.32617188 C49.7687344 260.59182144 49.78518474 257.85773106 49.79101562 255.12329102 C49.80052748 252.47495167 49.83427315 249.82776816 49.87109375 247.1796875 C49.86604828 246.36294052 49.86100281 245.54619354 49.85580444 244.70469666 C49.91860101 241.08569299 50.07043025 238.89214748 52.25634766 235.94165039 C55.03200311 233.99818817 57.03600316 233.57418346 60.41015625 233.43359375 C63.00352992 234.22601348 64.04145805 234.8540214 65.49609375 237.140625 C69.16316533 246.33964645 65.98389979 259.24646198 64.72265625 268.74609375 C64.57425293 269.93783203 64.42584961 271.12957031 64.27294922 272.35742188 C62.49714802 284.80712489 57.05729058 296.11070988 47.84765625 304.87109375 C36.6477408 309.96196441 24.50305042 309.93741365 12.44116211 309.87963867 C9.71587833 309.87107245 6.99265941 309.90009297 4.26757812 309.93164062 C-9.28666179 309.98823082 -19.28523218 308.68184552 -29.36328125 298.84375 C-41.08436927 286.1561863 -41.02609088 271.79016073 -41.00053406 255.3719902 C-40.99601006 252.21105929 -41.01017922 249.05067459 -41.02893066 245.88980103 C-41.07167962 238.05449069 -41.08300524 230.2191957 -41.09515381 222.38378906 C-41.10666506 215.72957122 -41.13013703 209.0756085 -41.16984558 202.42149734 C-41.18343261 199.30647388 -41.17924533 196.19179324 -41.17443848 193.07675171 C-41.18377247 191.17795364 -41.19393961 189.27915943 -41.20507812 187.38037109 C-41.1989299 186.51390961 -41.19278168 185.64744812 -41.18644714 184.75473022 C-41.09876553 180.44711337 -41.09876553 180.44711337 -42.93100739 176.71178627 C-45.52078612 174.71626949 -47.83804347 175.06449401 -51.05859375 175.0625 C-52.3528125 175.04509766 -53.64703125 175.02769531 -54.98046875 175.00976562 C-57.02283593 174.99978743 -59.06503159 174.99607273 -61.10742188 174.99780273 C-70.09087916 174.98133745 -77.39010918 174.19305476 -85.58984375 170.43359375 C-86.66878906 169.964375 -87.74773437 169.49515625 -88.859375 169.01171875 C-95.03878573 165.78437674 -99.07052831 162.49123078 -102.58984375 156.43359375 C-102.94949219 155.81742188 -103.30914062 155.20125 -103.6796875 154.56640625 C-106.24696058 148.55039293 -105.75078332 141.82617365 -105.7578125 135.41015625 C-105.7611409 134.35001312 -105.7644693 133.28987 -105.76789856 132.19760132 C-105.77294959 129.96018913 -105.77530745 127.72276945 -105.77514648 125.48535156 C-105.77733173 122.0773467 -105.79550368 118.66966637 -105.81445312 115.26171875 C-105.81738774 113.08203235 -105.81937208 110.90234442 -105.8203125 108.72265625 C-105.82749802 107.71095367 -105.83468353 106.6992511 -105.84208679 105.65689087 C-105.80523907 94.14677253 -102.99511413 86.09625796 -94.96484375 77.68359375 C-90.44041621 74.23074115 -84.86276507 72.43188912 -79.58984375 70.43359375 C-78.42839844 69.89992188 -77.26695313 69.36625 -76.0703125 68.81640625 C-69.12397044 66.21566665 -61.3678974 66.96000875 -54.06054688 66.90625 C-52.88814453 66.88433594 -51.71574219 66.86242187 -50.5078125 66.83984375 C-49.44328857 66.83275391 -48.37876465 66.82566406 -47.28198242 66.81835938 C-44.60140504 66.63224669 -44.60140504 66.63224669 -42.74316406 65.20581055 C-41.24288456 62.90044879 -41.22110059 61.41448773 -41.21875 58.671875 C-41.20416748 57.72513916 -41.18958496 56.77840332 -41.17456055 55.80297852 C-41.167229 54.79420654 -41.15989746 53.78543457 -41.15234375 52.74609375 C-40.71713145 35.49794299 -37.40077765 20.53958619 -25.58984375 7.43359375 C-18.04087803 1.19749164 -9.50400662 -0.03005297 0 0 Z " fill="#020100" transform="translate(107.58984375,29.56640625)"/>
<path d="M0 0 C7.75790261 8.16621327 8.49283337 19.23219404 8.73828125 30.05078125 C8.23064205 33.47325195 6.82185384 36.39143629 5.375 39.5 C-8.4419865 69.90316206 -11.67583047 99.86355036 -0.125 131.72265625 C9.44808141 156.921257 26.67689785 175.43245529 49.375 189.5 C51.15167492 190.65775128 52.92348299 191.82305234 54.6875 193 C55.38488281 193.4640625 56.08226562 193.928125 56.80078125 194.40625 C58.375 195.5 58.375 195.5 59.375 196.5 C59.73188621 200.28299385 59.89553657 202.65412807 57.875 205.9375 C54.42920576 208.0911214 51.29535692 208.02836086 47.375 207.5 C44.73709325 206.33112447 42.62909483 205.23720339 40.25 203.6875 C39.6096582 203.28515137 38.96931641 202.88280273 38.30957031 202.46826172 C8.22120593 183.1552836 -12.4597559 155.00569375 -21.0703125 120.19140625 C-28.07162723 86.22023832 -21.58744883 55.34946122 -5.4140625 25.24609375 C-4.18699009 22.53074044 -4.25138625 20.42664107 -4.625 17.5 C-5.96655783 15.34520133 -5.96655783 15.34520133 -8.625 14.5 C-26.81034151 14.19691097 -47.98842456 27.48958388 -61.625 38.5 C-62.16721191 38.93151367 -62.70942383 39.36302734 -63.26806641 39.80761719 C-89.26082818 60.63371068 -106.56412939 90.60753442 -112 123.5625 C-113.82282403 140.7571803 -113.90256443 158.67769539 -109.625 175.5 C-109.45339355 176.19206543 -109.28178711 176.88413086 -109.10498047 177.59716797 C-103.13781338 201.06589217 -92.00705201 220.73733726 -75.625 238.5 C-74.93792969 239.25796875 -74.25085938 240.0159375 -73.54296875 240.796875 C-49.64185993 265.95593692 -15.19487202 278.9466451 18.98730469 279.8359375 C31.51812129 279.99510951 43.22413667 278.5055139 55.375 275.5 C57.1384375 275.066875 57.1384375 275.066875 58.9375 274.625 C84.06154022 267.59026874 111.65880108 251.57429837 126.375 229.5 C126.29332511 225.92823885 126.29332511 225.92823885 125.375 222.5 C121.77256542 220.09837695 120.24727196 220.28945512 115.9765625 220.375 C114.69136719 220.39046875 113.40617188 220.4059375 112.08203125 220.421875 C110.72133085 220.44666839 109.36065273 220.47271549 108 220.5 C83.1451927 220.9897499 83.1451927 220.9897499 76.0625 216.3125 C73.87957278 212.67428797 73.61672656 210.67050393 74.375 206.5 C76.94982575 203.85899004 78.41768188 202.55775396 82.15112305 202.33251953 C83.15699463 202.47286621 84.16286621 202.61321289 85.19921875 202.7578125 C90.2270068 203.3201542 95.08385503 203.56621251 100.14453125 203.4921875 C100.80274872 203.48398987 101.46096619 203.47579224 102.13912964 203.46734619 C104.84004334 203.43244377 107.54050884 203.38961519 110.2409668 203.32861328 C128.05720981 202.95022272 128.05720981 202.95022272 135.25 209.4375 C135.80429687 209.92089844 136.35859375 210.40429688 136.9296875 210.90234375 C140.98095322 215.38063477 141.43733161 220.66420323 141.375 226.5 C140.38303186 233.55124021 139.03803804 239.95476557 134.375 245.5 C133.83101563 246.17160156 133.28703125 246.84320313 132.7265625 247.53515625 C127.56143216 253.68060724 121.69189103 258.58209435 115.375 263.5 C114.529375 264.20769531 113.68375 264.91539062 112.8125 265.64453125 C98.19594739 277.43550029 81.74067228 284.99893023 63.3671875 288.48046875 C57.75222737 289.54993419 52.65791238 291.36295788 47.34765625 293.484375 C39.07819773 296.30968277 30.13554619 295.74190403 21.5 295.75 C20.75923218 295.75100708 20.01846436 295.75201416 19.25524902 295.75305176 C3.41521286 295.73845739 -10.56055816 293.65753058 -25.625 288.5 C-26.75421875 288.14164062 -27.8834375 287.78328125 -29.046875 287.4140625 C-41.86689083 283.16921281 -52.64707104 276.40489029 -63.5546875 268.625 C-66.2886257 266.73280868 -69.05596502 265.08900661 -71.9375 263.4375 C-85.42376971 254.9126025 -95.86694289 241.62424394 -104.625 228.5 C-105.34042969 227.45714844 -106.05585938 226.41429687 -106.79296875 225.33984375 C-118.39903459 207.58278751 -125.95922854 185.51458798 -128.625 164.5 C-128.73457031 163.68660156 -128.84414062 162.87320313 -128.95703125 162.03515625 C-133.38952089 122.73374815 -121.8680653 82.28232205 -97.48999023 51.20629883 C-78.60543035 27.7298586 -32.93052134 -13.62642262 0 0 Z " fill="#000101" transform="translate(309.625,216.5)"/>
<path d="M0 0 C0.99 0.495 0.99 0.495 2 1 C1.46632813 1.55945313 0.93265625 2.11890625 0.3828125 2.6953125 C-29.41126176 34.75744777 -41.15209568 73.6619722 -40.140625 116.90234375 C-39.82854343 123.77680723 -38.59605244 130.32123979 -37 137 C-36.70996094 138.26714844 -36.41992188 139.53429687 -36.12109375 140.83984375 C-27.47494887 175.89471567 -5.66558769 208.48176784 25 228 C25.87688477 228.56436768 25.87688477 228.56436768 26.77148438 229.14013672 C48.2242897 242.8111484 71.73766962 250.4354907 97 253 C78.6136095 265.25759366 47.19563143 262.7073317 26.61328125 258.97265625 C13.95670549 256.4244762 2.49071384 251.79723373 -9 246 C-10.46566406 245.27490234 -10.46566406 245.27490234 -11.9609375 244.53515625 C-42.71809849 228.62779935 -65.52006131 199.1138139 -76.05249023 166.52270508 C-87.13006814 130.86275268 -83.41545667 94.01065613 -66.63671875 60.8515625 C-63.04679269 54.06809529 -58.80453589 47.96905269 -54 42 C-53.5551123 41.43845215 -53.11022461 40.8769043 -52.65185547 40.29833984 C-40.45707123 25.00179166 -25.98061098 13.48580633 -8.75 4.3125 C-7.9154126 3.86592041 -7.0808252 3.41934082 -6.22094727 2.95922852 C-5.44162842 2.55631592 -4.66230957 2.15340332 -3.859375 1.73828125 C-3.16295898 1.37774658 -2.46654297 1.01721191 -1.74902344 0.64575195 C-1.1718457 0.43265381 -0.59466797 0.21955566 0 0 Z " fill="#5DC682" transform="translate(278,236)"/>
<path d="M0 0 C6.59388581 5.10726428 11.79207467 12.64991867 16.1484375 19.6640625 C16.1484375 20.3240625 16.1484375 20.9840625 16.1484375 21.6640625 C17.08945312 21.77363281 18.03046875 21.88320313 19 21.99609375 C20.24523437 22.15464844 21.49046875 22.31320312 22.7734375 22.4765625 C24.00320313 22.62738281 25.23296875 22.77820313 26.5 22.93359375 C34.32203582 24.49967587 38.76124476 28.41482794 43.3984375 34.7265625 C47.11747892 40.96923917 46.83633979 48.0150525 45.79296875 55.06640625 C44.4556309 60.17342126 42.56004377 62.21680978 38.3984375 65.4140625 C35.80924146 67.76220979 34.28607391 69.40762717 33.89794922 72.95068359 C33.93733058 76.62973141 34.25701946 80.25568725 34.59863281 83.91723633 C35.21002156 90.66109401 35.28502408 95.95842584 31.1484375 101.6640625 C26.57753565 107.01986669 20.92671346 109.96290244 13.9921875 110.98046875 C6.73144402 111.37674172 0.37083423 108.74071817 -5.6640625 104.8515625 C-8.5605302 103.27919432 -9.71028308 103.80776621 -12.8515625 104.6640625 C-14.56391961 105.4450451 -16.25229665 106.28052702 -17.9140625 107.1640625 C-24.44809116 110.62739973 -30.67509735 111.85718605 -38.00390625 110.16796875 C-44.5950817 107.92874024 -49.84605217 104.03930013 -53.09765625 97.7265625 C-55.5555136 91.00247607 -54.96990829 84.95988267 -53.2265625 78.1640625 C-52.47911938 74.89811847 -52.47911938 74.89811847 -52.8515625 71.6640625 C-55.28498911 68.35530258 -57.98654394 65.89240235 -61.06640625 63.2109375 C-66.36583345 58.36489748 -67.99859444 53.27962749 -68.4140625 46.2265625 C-68.09168875 38.80156714 -65.20326358 32.37093165 -59.7265625 27.2890625 C-55.94836804 24.63489902 -52.3133012 24.18938387 -47.85693359 23.54492188 C-40.54717997 22.77616502 -40.54717997 22.77616502 -34.41259766 19.22363281 C-32.54163262 16.32905709 -31.36953311 13.24692044 -30.17578125 10.02734375 C-28.06528011 4.66704439 -24.88722713 2.24921802 -19.9140625 -0.34765625 C-13.16051227 -3.26276289 -6.54620301 -3.59653051 0 0 Z " fill="#000101" transform="translate(403.8515625,265.3359375)"/>
<path d="M0 0 C6.3740765 -0.6639663 10.0320118 1.0130851 15 5 C19.34783636 9.19412497 21.81638549 13.36407426 22.23950195 19.43823242 C22.23909912 20.73092041 22.23869629 22.0236084 22.23828125 23.35546875 C22.25371101 24.79753535 22.27001537 26.2395928 22.28710938 27.68164062 C22.30347661 29.92834867 22.31254159 32.17438049 22.30541992 34.42114258 C22.29457301 43.36195629 22.35401234 51.54441291 28 59 C33.84994673 64.43097964 38.16761564 66.10713046 46.1953125 66.17578125 C47.64845167 66.19899926 49.10157668 66.22311738 50.5546875 66.24804688 C52.83212494 66.2829754 55.1090476 66.31240529 57.38671875 66.32592773 C67.06487388 66.39454467 75.59068657 66.45762161 83.33984375 72.96484375 C84.13068359 73.94130859 84.13068359 73.94130859 84.9375 74.9375 C85.48277344 75.58589844 86.02804688 76.23429687 86.58984375 76.90234375 C90.15833102 82.21059213 90.31960822 86.96936113 90.3359375 93.17578125 C90.3459227 94.50176582 90.3459227 94.50176582 90.35610962 95.85453796 C90.36621309 97.72128222 90.37092735 99.58806242 90.37060547 101.45483398 C90.37496966 104.2927694 90.41128805 107.12913722 90.44921875 109.96679688 C90.45508942 111.78645306 90.45905714 113.60611657 90.4609375 115.42578125 C90.47530853 116.26563065 90.48967957 117.10548004 90.50448608 117.97077942 C90.45194698 124.83659076 88.60091147 130.08413441 84 135.2421875 C83.34 135.78101563 82.68 136.31984375 82 136.875 C81.34 137.42929688 80.68 137.98359375 80 138.5546875 C75.51591351 141.79514063 72.0011071 142.27101982 66.5234375 142.23828125 C65.03254312 142.25371415 63.54165755 142.27001873 62.05078125 142.28710938 C59.72066647 142.30347048 57.39120193 142.31254957 55.06103516 142.30541992 C44.58148222 142.29313832 35.48449262 142.6561354 27.5625 150.375 C23.82188267 156.65923711 22.54389486 161.4133926 22.6015625 168.63671875 C22.59869232 169.43858109 22.59582214 170.24044342 22.59286499 171.06660461 C22.59083534 172.74989535 22.59628782 174.43321027 22.60888672 176.11645508 C22.62502069 178.69080077 22.60896893 181.26359181 22.58984375 183.83789062 C22.59182514 185.47917012 22.59566665 187.12044865 22.6015625 188.76171875 C22.59245346 189.91180672 22.59245346 189.91180672 22.5831604 191.08512878 C22.62486859 194.25133104 22.80234196 196.61978648 24.27490234 199.45239258 C26.13678763 201.36520404 26.13678763 201.36520404 30 202 C30 207.28 30 212.56 30 218 C27.525 218.99 27.525 218.99 25 220 C22.6031335 222.3968665 22.71718867 223.07028314 22.5859375 226.3515625 C22.54726562 227.20234375 22.50859375 228.053125 22.46875 228.9296875 C22.4378125 229.81914062 22.406875 230.70859375 22.375 231.625 C22.33632812 232.5221875 22.29765625 233.419375 22.2578125 234.34375 C22.16340643 236.5622927 22.07783252 238.78082403 22 241 C18.49808253 236.8450443 15.65547617 232.42555237 12.8125 227.8125 C12.36197266 227.08869141 11.91144531 226.36488281 11.44726562 225.61914062 C7.85901878 219.83598417 6.85704583 216.32567615 6.88647461 209.41943359 C6.88632858 208.53156662 6.88618256 207.64369965 6.8860321 206.72892761 C6.88673045 203.78540631 6.89451919 200.84194779 6.90234375 197.8984375 C6.90420821 195.86105382 6.90563198 193.82366969 6.90663147 191.7862854 C6.91045445 186.41702034 6.92028289 181.04778223 6.93133545 175.67852783 C6.94155426 170.2023556 6.9461301 164.72617902 6.95117188 159.25 C6.96190533 148.49998815 6.97897915 137.74999631 7 127 C8.57297852 126.98598145 8.57297852 126.98598145 10.17773438 126.97167969 C14.09937728 126.93155622 18.02025398 126.86573774 21.94140625 126.79248047 C23.63271174 126.76439963 25.32414532 126.74312146 27.015625 126.72900391 C29.45899425 126.70739392 31.90084425 126.66065666 34.34375 126.609375 C35.08991577 126.60814636 35.83608154 126.60691772 36.6048584 126.60565186 C43.61695781 126.41364969 48.84472299 124.15527701 53.8125 119.1875 C58.03674025 113.03217849 60.29201835 107.43816174 59 100 C56.32201454 92.50604892 53.03574934 88.0105073 45.85717773 84.43432617 C41.77896707 82.71998384 38.04207796 82.52666636 33.66015625 82.48828125 C32.50972084 82.46135445 32.50972084 82.46135445 31.33604431 82.43388367 C28.91158374 82.3801552 26.48731568 82.34600725 24.0625 82.3125 C22.40817654 82.27929366 20.75387838 82.24480098 19.09960938 82.20898438 C15.06654607 82.12445114 11.03353612 82.05746321 7 82 C7.00112793 80.96182129 7.00225586 79.92364258 7.00341797 78.85400391 C6.99971389 74.95828212 6.95662339 71.06377499 6.90234375 67.16845703 C6.88430792 65.4908029 6.87659247 63.81300176 6.87988281 62.13525391 C6.9528988 48.00484475 6.9528988 48.00484475 0 36 C-2.54831549 33.76795112 -5.12697857 31.79381541 -8 30 C-6.7023365 19.71138223 -3.91801595 9.59913909 0 0 Z " fill="#FAEA77" transform="translate(136,46)"/>
<path d="M0 0 C3.73200107 0.93300027 5.12193194 2.62856104 7.5 5.625 C8.18579091 8.49709067 8.12802932 11.27378722 8.06640625 14.21484375 C8.07204086 15.03698868 8.07767548 15.85913361 8.08348083 16.70619202 C8.09989927 19.32554543 8.0844218 21.943206 8.0625 24.5625 C8.04586798 27.17806618 8.03686575 29.79251212 8.05223083 32.40809631 C8.06145983 34.03199132 8.0525166 35.65612429 8.02259827 37.2797699 C8.04776485 42.51105752 8.95817933 45.53001815 12.5 49.625 C16.64192498 53.06872516 20.73160506 53.05161086 25.90625 53.03125 C27.10973083 53.04750427 27.10973083 53.04750427 28.33752441 53.06408691 C30.89176561 53.09824615 33.44556076 53.11392097 36 53.125 C39.36501049 53.13959461 42.72903023 53.17330593 46.09375 53.21875 C46.86158813 53.21572876 47.62942627 53.21270752 48.42053223 53.20959473 C52.92953601 53.27254372 55.97529446 53.71972695 59.5 56.625 C60.625 60 60.625 60 60.5 63.625 C58.53750961 66.30461497 56.961435 68.27982003 53.61965942 69.06912231 C51.36894327 69.23338045 49.16634655 69.23867952 46.91015625 69.19140625 C45.67693886 69.19985817 45.67693886 69.19985817 44.41880798 69.20848083 C41.79945457 69.22489927 39.181794 69.2094218 36.5625 69.1875 C33.94693382 69.17086798 31.33248788 69.16186575 28.71690369 69.17723083 C27.09300868 69.18645983 25.46887571 69.1775166 23.8452301 69.14759827 C18.61394248 69.17276485 15.59498185 70.08317933 11.5 73.625 C7.6746497 78.31054341 8.07180781 83.00268252 8.09936523 88.76782227 C8.09238617 89.78625214 8.0854071 90.80468201 8.07821655 91.85397339 C8.05823925 95.21653521 8.05874 98.57879036 8.05859375 101.94140625 C8.04682363 104.27881195 8.03346031 106.61621012 8.01856995 108.95359802 C7.98236951 115.10545272 7.96217699 121.25724072 7.94702148 127.40917969 C7.92219735 137.2599057 7.8826158 147.11048432 7.82512093 156.96107292 C7.80876916 160.40446777 7.8050122 163.84772403 7.80210876 167.29115295 C7.7923343 169.39796184 7.78207133 171.50476854 7.77124023 173.61157227 C7.77379318 174.57116348 7.77634613 175.5307547 7.77897644 176.51942444 C7.77214844 177.40118347 7.76532043 178.2829425 7.75828552 179.19142151 C7.75665122 179.95554635 7.75501692 180.71967119 7.75333309 181.50695133 C7.46174338 183.94485311 6.79192418 185.54483741 5.5 187.625 C2.40826248 189.17086876 -0.09429552 188.91859521 -3.5 188.625 C-5.69641113 187.23605347 -5.69641113 187.23605347 -7.5 184.625 C-8.09080573 181.26445531 -8.0222386 177.93989483 -7.98242188 174.53564453 C-7.98633438 173.5108197 -7.99024689 172.48599487 -7.99427795 171.43011475 C-8.00025597 169.20498393 -7.99707756 166.97981407 -7.9858551 164.75470352 C-7.96862543 161.23234508 -7.97608432 157.71080973 -7.9901123 154.18844604 C-8.01979678 145.43938897 -8.00657148 136.69048787 -7.99493408 127.94140625 C-7.98673332 120.55073491 -7.99466093 113.16042236 -8.02406311 105.76980209 C-8.03116198 102.30082696 -8.01447119 98.8324814 -7.99694824 95.36355591 C-8.00265623 93.23341533 -8.00947357 91.10327734 -8.01757812 88.97314453 C-8.00626358 88.00982208 -7.99494904 87.04649963 -7.98329163 86.0539856 C-8.03601793 80.25520272 -8.70136818 77.07429792 -12.5 72.625 C-16.69337132 69.10860625 -20.88176929 69.22734675 -26.125 69.2890625 C-27.8177122 69.27655406 -29.51042056 69.26351712 -31.203125 69.25 C-33.85625753 69.24606652 -36.50901255 69.25004959 -39.16210938 69.26464844 C-41.73364189 69.27322657 -44.30360564 69.25153146 -46.875 69.2265625 C-47.66471191 69.23990631 -48.45442383 69.25325012 -49.26806641 69.26699829 C-53.46897269 69.21078082 -55.07499332 68.94860949 -58.53515625 66.31396484 C-60.5 63.625 -60.5 63.625 -60.5625 60 C-59.35929414 56.17805197 -58.9584927 55.46662852 -55.5 53.625 C-52.59984946 53.34691094 -49.90569477 53.2313659 -47.0078125 53.25390625 C-45.31640425 53.23652204 -43.62499804 53.21893768 -41.93359375 53.20117188 C-39.27844427 53.19110891 -36.62342946 53.18750101 -33.96826172 53.18920898 C-31.3977079 53.1856275 -28.82818248 53.15824222 -26.2578125 53.12890625 C-25.07628098 53.14118004 -25.07628098 53.14118004 -23.87088013 53.15370178 C-18.6427186 53.08350408 -15.59289237 52.16114698 -11.5 48.625 C-7.98360625 44.43162868 -8.10234675 40.24323071 -8.1640625 35 C-8.15155406 33.3072878 -8.13851712 31.61457944 -8.125 29.921875 C-8.12106652 27.26874247 -8.12504959 24.61598745 -8.13964844 21.96289062 C-8.14822657 19.39135811 -8.12653146 16.82139436 -8.1015625 14.25 C-8.11490631 13.46028809 -8.12825012 12.67057617 -8.14199829 11.85693359 C-8.08525391 7.61665365 -7.85372198 6.07061572 -5.11865234 2.625 C-2.5 0.625 -2.5 0.625 0 0 Z " fill="#FDB350" transform="translate(120.5,89.375)"/>
<path d="M0 0 C3.2336252 0.87246869 4.22405428 2.83351662 6.0703125 5.55859375 C7.82744697 8.83617106 9.46325282 12.15786715 11.09375 15.5 C13.68478115 19.50944149 16.34676739 21.86803769 21.06445312 23.06420898 C23.99341612 23.56565656 26.92837947 23.91714339 29.88085938 24.24804688 C33.77732989 24.79278941 35.8595809 25.41126812 39.16015625 27.71875 C41.0703125 30.55859375 41.0703125 30.55859375 41.25390625 33.98828125 C39.76171958 38.48946479 37.61756522 40.59952688 34.1328125 43.68359375 C29.735465 47.66435043 26.45039969 50.73839535 25.83984375 56.875 C25.85402344 57.61621094 25.86820312 58.35742188 25.8828125 59.12109375 C25.88925781 59.86488281 25.89570313 60.60867188 25.90234375 61.375 C26.0075117 63.54112354 26.0075117 63.54112354 26.5625 65.5234375 C27.79031803 70.44415438 28.13375281 75.77201403 25.5078125 80.18359375 C22.14390204 82.08118426 19.76105672 82.45510432 16.0703125 81.55859375 C12.87483248 80.16367566 9.81393551 78.61767057 6.7421875 76.96875 C2.32182648 74.63578168 -0.95385242 74.18540612 -5.9296875 74.55859375 C-8.40636621 75.64214069 -10.60986116 76.71744415 -12.9296875 78.05859375 C-17.68999007 80.81064368 -21.32409941 82.10348688 -26.9296875 81.55859375 C-29.3671875 80.05859375 -29.3671875 80.05859375 -30.9296875 77.55859375 C-31.29294165 73.63544898 -30.98344733 70.08825028 -30.5859375 66.171875 C-30.41578125 64.35236328 -30.41578125 64.35236328 -30.2421875 62.49609375 C-30.11457031 61.35011719 -29.98695313 60.20414062 -29.85546875 59.0234375 C-29.97668537 53.36453529 -31.7278505 49.80913037 -35.62890625 45.75 C-36.61503906 44.88246094 -37.60117187 44.01492188 -38.6171875 43.12109375 C-44.70632998 37.43207531 -44.70632998 37.43207531 -44.8671875 33.12109375 C-43.81217121 29.11203185 -43.18653116 28.03090455 -39.9296875 25.55859375 C-37.17643308 24.75388704 -34.39765515 24.40541626 -31.5546875 24.05859375 C-25.73297874 23.34098729 -21.5015079 22.56055552 -16.9296875 18.55859375 C-15.09232564 15.97205059 -13.62719409 13.25295327 -12.1796875 10.43359375 C-11.41680848 8.99203305 -10.65129641 7.55186185 -9.8828125 6.11328125 C-9.55442383 5.47890137 -9.22603516 4.84452148 -8.88769531 4.19091797 C-6.56610024 0.23521341 -4.37942841 0.2581032 0 0 Z " fill="#7DD19B" transform="translate(395.9296875,278.44140625)"/>
<path d="M0 0 C0.99 0 1.98 0 3 0 C5.55229286 3.82843929 5.2789873 6.95864021 5.2734375 11.39453125 C5.29373193 13.08919925 5.31458282 14.78386066 5.3359375 16.47851562 C5.358505 19.14466917 5.37499574 21.81056208 5.38085938 24.47680664 C5.39041259 27.05402541 5.42422797 29.63007579 5.4609375 32.20703125 C5.45589203 32.99785599 5.45084656 33.78868073 5.44564819 34.60346985 C5.538085 39.83506321 6.46206993 42.9045067 10 47 C14.14192498 50.44372516 18.23160506 50.42661086 23.40625 50.40625 C24.20857056 50.41708618 25.01089111 50.42792236 25.83752441 50.43908691 C28.39176561 50.47324615 30.94556076 50.48892097 33.5 50.5 C36.86501049 50.51459461 40.22903023 50.54830593 43.59375 50.59375 C44.36158813 50.59072876 45.12942627 50.58770752 45.92053223 50.58459473 C50.42953601 50.64754372 53.47529446 51.09472695 57 54 C58.125 57.375 58.125 57.375 58 61 C56.03750961 63.67961497 54.461435 65.65482003 51.11965942 66.44412231 C48.86894327 66.60838045 46.66634655 66.61367952 44.41015625 66.56640625 C43.17693886 66.57485817 43.17693886 66.57485817 41.91880798 66.58348083 C39.29945457 66.59989927 36.681794 66.5844218 34.0625 66.5625 C31.44693382 66.54586798 28.83248788 66.53686575 26.21690369 66.55223083 C24.59300868 66.56145983 22.96887571 66.5525166 21.3452301 66.52259827 C16.11394248 66.54776485 13.09498185 67.45817933 9 71 C6.34377504 74.6975752 5.61781923 77.27270519 5.56762695 81.80004883 C5.54783279 82.94085403 5.52803864 84.08165924 5.50764465 85.2570343 C5.49805977 87.08853279 5.49805977 87.08853279 5.48828125 88.95703125 C5.47033005 90.21513107 5.45237885 91.4732309 5.43388367 92.76945496 C5.38894238 96.10182254 5.35661711 99.43382365 5.33044434 102.76635742 C5.30057875 106.1718471 5.25406921 109.57710569 5.20898438 112.98242188 C5.12401662 119.65484107 5.05568131 126.32727562 5 133 C2.59434708 129.39152062 1.64971144 125.76675787 0.5625 121.625 C0.34368164 120.79226562 0.12486328 119.95953125 -0.10058594 119.1015625 C-2.51327704 109.52207404 -3.8954038 99.80759114 -5 90 C-5.09571289 89.17822266 -5.19142578 88.35644531 -5.29003906 87.50976562 C-6.1612155 79.1851908 -6.24128393 70.86085744 -6.25 62.5 C-6.25133942 61.73665344 -6.25267883 60.97330688 -6.25405884 60.18682861 C-6.24639091 39.87315317 -3.96118228 19.91828537 0 0 Z " fill="#FDCD6A" transform="translate(123,92)"/>
</svg>
