<?xml version="1.0" encoding="UTF-8"?>
<svg version="1.1" xmlns="http://www.w3.org/2000/svg" width="512" height="512">
<path d="M0 0 C2.22721051 1.00062071 4.46155481 1.98354329 6.69830322 2.96264648 C9.20754224 4.06146668 11.71611804 5.16165174 14.22250366 6.26696777 C21.30979868 9.39137508 28.42260395 12.45350156 35.54547119 15.49584961 C36.67164856 15.97687134 37.79782593 16.45789307 38.95812988 16.95349121 C41.28927713 17.9489286 43.62047499 18.94424748 45.95172119 19.93945312 C66.80498944 28.84743772 87.61974424 37.84260136 108.4147644 46.88562012 C124.47125695 53.86674287 140.54837455 60.7980428 156.64416504 67.68807983 C160.1727637 69.19885647 163.70075431 70.7110444 167.22857666 72.22363281 C177.32802192 76.55275939 187.42950919 80.876521 197.54600525 85.16567993 C201.66000289 86.91164979 205.77063895 88.66543587 209.88064575 90.42077637 C211.78458586 91.23158618 213.69009131 92.03873161 215.59725952 92.84191895 C218.20385552 93.93993034 220.80480862 95.05038442 223.40484619 96.16381836 C224.15834854 96.47733749 224.91185089 96.79085663 225.68818665 97.11387634 C230.96282281 99.39455161 235.64836063 102.07376523 238.99468994 106.91381836 C240.61948801 112.02171649 240.76877781 118.21079001 238.73687744 123.19897461 C236.02876929 127.27419846 233.23670926 129.13618972 228.64703369 130.96459961 C225.01285886 131.32261915 221.41920702 131.24846801 217.77203369 131.15209961 C216.79750244 131.13856445 215.82297119 131.1250293 214.81890869 131.11108398 C212.42770506 131.07591923 210.03766394 131.02670631 207.64703369 130.96459961 C207.65591614 131.70740173 207.66479858 132.45020386 207.6739502 133.21551514 C207.75413113 140.21909866 207.81501556 147.22252296 207.85428238 154.22643661 C207.87514882 157.82718247 207.9034479 161.42754877 207.9487915 165.02807617 C207.99228494 168.50347874 208.0161779 171.97851649 208.02654266 175.45417023 C208.03751984 177.42405745 208.06874069 179.39379808 208.10021973 181.36346436 C208.10052185 182.56440735 208.10082397 183.76535034 208.10113525 185.00268555 C208.1100177 186.05969666 208.11890015 187.11670776 208.12805176 188.20574951 C207.52586861 191.65953463 206.37287218 192.83037695 203.64703369 194.96459961 C201.35699463 195.41870117 201.35699463 195.41870117 198.88140869 195.35522461 C197.99195557 195.34233398 197.10250244 195.32944336 196.18609619 195.31616211 C195.26570557 195.28264648 194.34531494 195.24913086 193.39703369 195.21459961 C192.46117432 195.19655273 191.52531494 195.17850586 190.56109619 195.15991211 C188.25536354 195.11285634 185.95172424 195.04713674 183.64703369 194.96459961 C183.66798096 195.79185547 183.68892822 196.61911133 183.71051025 197.47143555 C183.79364988 201.21903331 183.845689 204.9664371 183.89703369 208.71459961 C183.94730713 210.6675293 183.94730713 210.6675293 183.99859619 212.65991211 C184.01148682 213.91030273 184.02437744 215.16069336 184.03765869 216.44897461 C184.05860596 217.60107422 184.07955322 218.75317383 184.10113525 219.94018555 C183.64703369 222.96459961 183.64703369 222.96459961 181.87261963 225.37182617 C179.64703369 226.96459961 179.64703369 226.96459961 175.64703369 226.96459961 C175.64703369 263.92459961 175.64703369 300.88459961 175.64703369 338.96459961 C177.62703369 339.29459961 179.60703369 339.62459961 181.64703369 339.96459961 C184.03815578 343.55128274 183.88084396 345.1285653 183.84234619 349.38256836 C183.83590088 350.63618164 183.82945557 351.88979492 183.82281494 353.18139648 C183.80605713 354.49172852 183.78929932 355.80206055 183.77203369 357.15209961 C183.76200008 358.48737948 183.75287489 359.8226665 183.74468994 361.15795898 C183.72108661 364.42701976 183.68815963 367.69571989 183.64703369 370.96459961 C184.2319458 370.94365234 184.81685791 370.92270508 185.41949463 370.90112305 C188.07849835 370.81779846 190.73722724 370.76589064 193.39703369 370.71459961 C194.31742432 370.68108398 195.23781494 370.64756836 196.18609619 370.61303711 C197.07554932 370.60014648 197.96500244 370.58725586 198.88140869 370.57397461 C199.69835205 370.55302734 200.51529541 370.53208008 201.35699463 370.51049805 C204.66801301 371.16705393 205.72642308 372.19231551 207.64703369 374.96459961 C207.99613419 377.85425081 208.11518989 380.35052671 208.03765869 383.23022461 C208.0319989 384.02362244 208.02633911 384.81702026 208.02050781 385.63446045 C207.99816516 388.16179434 207.94797545 390.68769626 207.89703369 393.21459961 C207.87696584 394.93072493 207.85871556 396.64687253 207.84234619 398.36303711 C207.79830764 402.56410741 207.72929695 406.76411096 207.64703369 410.96459961 C208.46687744 410.91819336 209.28672119 410.87178711 210.13140869 410.82397461 C211.20906494 410.78788086 212.28672119 410.75178711 213.39703369 410.71459961 C214.46437744 410.66819336 215.53172119 410.62178711 216.63140869 410.57397461 C219.64703369 410.96459961 219.64703369 410.96459961 222.01324463 412.46362305 C224.30849457 415.97715269 224.14678592 419.17697314 224.03765869 423.23022461 C224.0319989 424.02362244 224.02633911 424.81702026 224.02050781 425.63446045 C223.99816516 428.16179434 223.94797545 430.68769626 223.89703369 433.21459961 C223.87696584 434.93072493 223.85871556 436.64687253 223.84234619 438.36303711 C223.79830764 442.56410741 223.72929695 446.76411096 223.64703369 450.96459961 C224.46687744 450.91819336 225.28672119 450.87178711 226.13140869 450.82397461 C227.20906494 450.78788086 228.28672119 450.75178711 229.39703369 450.71459961 C230.46437744 450.66819336 231.53172119 450.62178711 232.63140869 450.57397461 C235.64703369 450.96459961 235.64703369 450.96459961 238.00445557 452.30834961 C240.63404052 456.56071054 240.21732067 460.81264253 240.17828369 465.71459961 C240.1821106 466.76486328 240.1859375 467.81512695 240.18988037 468.8972168 C240.19260065 471.11630208 240.18523146 473.33541935 240.16851807 475.55444336 C240.14711115 478.95230556 240.16831695 482.34805322 240.19390869 485.74584961 C240.19126544 487.90210428 240.18614051 490.05835763 240.17828369 492.21459961 C240.18638062 493.23134766 240.19447754 494.2480957 240.20281982 495.2956543 C240.18390686 496.7173291 240.18390686 496.7173291 240.16461182 498.16772461 C240.16142944 498.99949219 240.15824707 499.83125977 240.15496826 500.68823242 C239.43032731 503.93579416 238.29997726 504.9519995 235.64703369 506.96459961 C232.73632889 507.35651015 230.20486355 507.50215902 227.29486084 507.46796417 C226.44050351 507.47377794 225.58614618 507.4795917 224.70589924 507.48558164 C221.82336504 507.50025933 218.94167202 507.48626027 216.05914307 507.47253418 C213.97963778 507.47714002 211.90013574 507.48349079 209.82064056 507.49144316 C204.09091926 507.50820308 198.36146307 507.49985986 192.63174057 507.48749828 C186.45851559 507.47847732 180.28533738 507.49240281 174.11212158 507.50341797 C162.71264684 507.52020847 151.31328066 507.51870862 139.91380858 507.5077721 C129.3837124 507.49771895 118.85364736 507.49507881 108.32354736 507.49986267 C107.62568404 507.50016821 106.92782072 507.50047375 106.20881003 507.50078855 C103.37611879 507.50203386 100.54342757 507.50330745 97.71073636 507.50462761 C71.12545429 507.51686993 44.54022632 507.50575975 17.9549526 507.48424002 C-5.67636186 507.46525688 -29.3075901 507.46695536 -52.93890381 507.48608398 C-79.47484409 507.50749187 -106.01073655 507.51600179 -132.54668427 507.50363493 C-135.37428283 507.50235202 -138.2018814 507.50110066 -141.02947998 507.49986267 C-141.72573213 507.49954636 -142.42198428 507.49923005 -143.13933498 507.49890416 C-153.66409042 507.49434986 -164.18881135 507.49968356 -174.71356201 507.50978088 C-186.67793941 507.52120198 -198.64221494 507.51800651 -210.60658836 507.49665791 C-216.71537433 507.48611832 -222.82398496 507.48207513 -228.93276978 507.49525452 C-234.51875265 507.50712405 -240.10439673 507.500706 -245.69034863 507.47934431 C-247.7172013 507.47485509 -249.74408227 507.47719603 -251.77091694 507.48684746 C-254.51462282 507.498916 -257.25715036 507.48663422 -260.00079346 507.46796417 C-261.19620144 507.48201117 -261.19620144 507.48201117 -262.41575909 507.49634194 C-265.97657462 507.44752219 -267.96597968 507.25817892 -270.8432312 505.07541227 C-272.64221567 502.56019011 -272.85879432 501.23881659 -272.87054443 498.16772461 C-272.88315308 497.21994141 -272.89576172 496.2721582 -272.90875244 495.2956543 C-272.90065552 494.27890625 -272.89255859 493.2621582 -272.88421631 492.21459961 C-272.88804321 491.16433594 -272.89187012 490.11407227 -272.89581299 489.03198242 C-272.89853326 486.81289714 -272.89116407 484.59377986 -272.87445068 482.37475586 C-272.85304376 478.97689366 -272.87424956 475.581146 -272.89984131 472.18334961 C-272.89719805 470.02709494 -272.89207313 467.87084159 -272.88421631 465.71459961 C-272.89231323 464.69785156 -272.90041016 463.68110352 -272.90875244 462.63354492 C-272.81670665 455.71452454 -272.81670665 455.71452454 -270.71038818 452.30834961 C-267.65464205 450.56654899 -265.59990027 450.562559 -262.10296631 450.71459961 C-261.02531006 450.75069336 -259.94765381 450.78678711 -258.83734131 450.82397461 C-258.01749756 450.87038086 -257.19765381 450.91678711 -256.35296631 450.96459961 C-256.37391357 449.895 -256.39486084 448.82540039 -256.41644287 447.72338867 C-256.48891257 443.75021788 -256.53479094 439.77710536 -256.57269287 435.8034668 C-256.59279259 434.08461682 -256.62007719 432.36583509 -256.65472412 430.6472168 C-256.70331665 428.17471472 -256.72595066 425.70311751 -256.74359131 423.23022461 C-256.76423645 422.4634137 -256.78488159 421.69660278 -256.80615234 420.90655518 C-256.80758062 417.50068961 -256.60084183 415.34404324 -254.71917725 412.46362305 C-251.65520452 410.52255902 -249.70180772 410.55812824 -246.10296631 410.71459961 C-245.02531006 410.75069336 -243.94765381 410.78678711 -242.83734131 410.82397461 C-242.01749756 410.87038086 -241.19765381 410.91678711 -240.35296631 410.96459961 C-240.38438721 409.3602002 -240.38438721 409.3602002 -240.41644287 407.72338867 C-240.48891257 403.75021788 -240.53479094 399.77710536 -240.57269287 395.8034668 C-240.59279259 394.08461682 -240.62007719 392.36583509 -240.65472412 390.6472168 C-240.70331665 388.17471472 -240.72595066 385.70311751 -240.74359131 383.23022461 C-240.76423645 382.4634137 -240.78488159 381.69660278 -240.80615234 380.90655518 C-240.80760506 377.44239918 -240.62237932 375.35348083 -238.62640381 372.47241211 C-236.00291108 370.7324324 -234.7064623 370.49399715 -231.58734131 370.57397461 C-230.25316162 370.59331055 -230.25316162 370.59331055 -228.89202881 370.61303711 C-227.51144287 370.66331055 -227.51144287 370.66331055 -226.10296631 370.71459961 C-225.16710693 370.73264648 -224.23124756 370.75069336 -223.26702881 370.76928711 C-220.96129615 370.81634288 -218.65765686 370.88206248 -216.35296631 370.96459961 C-216.37391357 370.13734375 -216.39486084 369.31008789 -216.41644287 368.45776367 C-216.4995825 364.71016591 -216.55162162 360.96276212 -216.60296631 357.21459961 C-216.65323975 355.26166992 -216.65323975 355.26166992 -216.70452881 353.26928711 C-216.71741943 352.01889648 -216.73031006 350.76850586 -216.74359131 349.48022461 C-216.76453857 348.328125 -216.78548584 347.17602539 -216.80706787 345.98901367 C-216.35296631 342.96459961 -216.35296631 342.96459961 -214.57855225 340.55737305 C-212.35296631 338.96459961 -212.35296631 338.96459961 -208.35296631 338.96459961 C-208.3696209 337.86918854 -208.3696209 337.86918854 -208.38661194 336.75164795 C-208.48684169 329.86588095 -208.56294519 322.98022312 -208.61202717 316.09391403 C-208.6381098 312.55358485 -208.67348056 309.01385892 -208.73016357 305.47387695 C-208.79493837 301.40301766 -208.81915741 297.33279088 -208.84124756 293.26147461 C-208.86705399 291.99156677 -208.89286041 290.72165894 -208.91944885 289.41326904 C-208.91982651 288.2323468 -208.92020416 287.05142456 -208.92059326 285.8347168 C-208.93724785 284.27584747 -208.93724785 284.27584747 -208.95423889 282.68548584 C-208.35296631 279.96459961 -208.35296631 279.96459961 -206.00498962 277.59771729 C-203.35296631 275.96459961 -203.35296631 275.96459961 -200.35296631 275.96459961 C-200.35296631 270.35459961 -200.35296631 264.74459961 -200.35296631 258.96459961 C-202.33296631 258.63459961 -204.31296631 258.30459961 -206.35296631 257.96459961 C-208.74408839 254.37791648 -208.58677657 252.80063392 -208.54827881 248.54663086 C-208.5418335 247.29301758 -208.53538818 246.0394043 -208.52874756 244.74780273 C-208.51198975 243.4374707 -208.49523193 242.12713867 -208.47796631 240.77709961 C-208.46793269 239.44181974 -208.45880751 238.10653271 -208.45062256 236.77124023 C-208.42701923 233.50217946 -208.39409225 230.23347933 -208.35296631 226.96459961 C-209.77609131 226.80991211 -209.77609131 226.80991211 -211.22796631 226.65209961 C-214.35296631 225.96459961 -214.35296631 225.96459961 -216.35296631 222.96459961 C-216.58001709 220.05371094 -216.58001709 220.05371094 -216.54827881 216.54663086 C-216.5418335 215.29301758 -216.53538818 214.0394043 -216.52874756 212.74780273 C-216.51198975 211.4374707 -216.49523193 210.12713867 -216.47796631 208.77709961 C-216.46793269 207.44181974 -216.45880751 206.10653271 -216.45062256 204.77124023 C-216.42701923 201.50217946 -216.39409225 198.23347933 -216.35296631 194.96459961 C-216.93787842 194.98554688 -217.52279053 195.00649414 -218.12542725 195.02807617 C-220.78443096 195.11140076 -223.44315986 195.16330858 -226.10296631 195.21459961 C-227.02335693 195.24811523 -227.94374756 195.28163086 -228.89202881 195.31616211 C-229.78148193 195.32905273 -230.67093506 195.34194336 -231.58734131 195.35522461 C-232.40428467 195.37617188 -233.22122803 195.39711914 -234.06292725 195.41870117 C-237.26394582 194.78395762 -238.32332897 193.48837295 -240.35296631 190.96459961 C-240.83398438 188.20574951 -240.83398438 188.20574951 -240.80706787 185.00268555 C-240.80676575 183.80174255 -240.80646362 182.60079956 -240.80615234 181.36346436 C-240.7855072 180.07168274 -240.76486206 178.77990112 -240.74359131 177.44897461 C-240.73612702 176.10948532 -240.73043497 174.76998508 -240.72644043 173.43048096 C-240.71119844 169.91208525 -240.67193048 166.39435446 -240.62762451 162.8762207 C-240.58663995 159.283376 -240.56842271 155.69042341 -240.54827881 152.09741211 C-240.50543376 145.05286995 -240.43720077 138.00877828 -240.35296631 130.96459961 C-240.95246094 130.98554688 -241.55195557 131.00649414 -242.1696167 131.02807617 C-244.91805873 131.11185235 -247.66623123 131.16345105 -250.41546631 131.21459961 C-251.35841553 131.24811523 -252.30136475 131.28163086 -253.27288818 131.31616211 C-259.57520495 131.40399928 -263.2120577 130.67146529 -268.35296631 126.96459961 C-272.03929514 123.18374952 -272.65658011 120.08331092 -272.85296631 114.96459961 C-272.65658011 109.8458883 -272.03929514 106.7454497 -268.35296631 102.96459961 C-262.38998478 99.23673833 -256.03117223 96.47767424 -249.60296631 93.65209961 C-248.41960693 93.12922363 -247.23624756 92.60634766 -246.01702881 92.06762695 C-234.61941194 87.04216154 -223.16646958 82.14563256 -211.71179199 77.25204468 C-199.41315211 71.99734718 -187.13211973 66.70214921 -174.85296631 61.40209961 C-172.66742142 60.4588984 -170.48187453 59.51570182 -168.29632568 58.57250977 C-163.85940845 56.65762884 -159.42257431 54.74255552 -154.98577881 52.82739258 C-148.50439244 50.02978889 -142.02251836 47.23331678 -135.54046631 44.43725586 C-134.4914061 43.9847345 -133.44234589 43.53221313 -132.36149597 43.065979 C-127.08665716 40.79067665 -121.81175409 38.51552334 -116.5368042 36.24047852 C-104.46430582 31.033485 -92.39320723 25.82326927 -80.32389832 20.60888672 C-74.8222368 18.23243512 -69.31962316 15.85824123 -63.81463623 13.48950195 C-62.77866806 13.04372803 -61.74269989 12.5979541 -60.67533875 12.13867188 C-58.65703938 11.27024812 -56.63869935 10.40191889 -54.62031555 9.53369141 C-49.61832158 7.37971993 -44.62304529 5.21203532 -39.64024353 3.01402283 C-37.75223904 2.1820605 -35.86189653 1.35572069 -33.97039795 0.53173828 C-31.87591168 -0.38221092 -29.78591807 -1.3065848 -27.70233154 -2.24511719 C-16.86596696 -6.93648825 -10.39408321 -4.67031963 0 0 Z M-144.35296631 194.96459961 C-144.56287936 204.04399283 -144.56287936 204.04399283 -144.74090576 213.12402344 C-144.77401855 214.25348389 -144.80713135 215.38294434 -144.84124756 216.54663086 C-144.86743164 217.70396729 -144.89361572 218.86130371 -144.92059326 220.05371094 C-145.35296631 222.96459961 -145.35296631 222.96459961 -146.63494873 224.80322266 C-148.35296631 225.96459961 -148.35296631 225.96459961 -152.35296631 226.96459961 C-152.35296631 263.92459961 -152.35296631 300.88459961 -152.35296631 338.96459961 C-150.37296631 339.62459961 -148.39296631 340.28459961 -146.35296631 340.96459961 C-144.95736585 343.75580052 -145.13488343 346.16665653 -145.03656006 349.28491211 C-144.99845215 350.41687012 -144.96034424 351.54882812 -144.92108154 352.71508789 C-144.87797852 354.15867676 -144.83487549 355.60226562 -144.79046631 357.08959961 C-144.57390381 363.95772461 -144.57390381 363.95772461 -144.35296631 370.96459961 C-132.14296631 370.96459961 -119.93296631 370.96459961 -107.35296631 370.96459961 C-107.14305326 361.88520639 -107.14305326 361.88520639 -106.96502686 352.80517578 C-106.91535767 351.11098511 -106.91535767 351.11098511 -106.86468506 349.38256836 C-106.83850098 348.22523193 -106.81231689 347.06789551 -106.78533936 345.87548828 C-106.35296631 342.96459961 -106.35296631 342.96459961 -105.07098389 341.12597656 C-103.17152007 339.84194226 -101.60155384 339.35228712 -99.35296631 338.96459961 C-99.33838379 337.85947021 -99.32380127 336.75434082 -99.30877686 335.61572266 C-99.25082365 331.51724822 -99.17359112 327.41932494 -99.09051514 323.32128906 C-99.05725167 321.54729149 -99.02922413 319.77318771 -99.00653076 317.99902344 C-98.97301029 315.44932785 -98.92069766 312.90060669 -98.86468506 310.35131836 C-98.85829514 309.55747238 -98.85190521 308.7636264 -98.84532166 307.94572449 C-98.69962907 302.49505767 -98.69962907 302.49505767 -97.07098389 300.00292969 C-95.35296631 298.96459961 -95.35296631 298.96459961 -91.35296631 297.96459961 C-91.35296631 290.37459961 -91.35296631 282.78459961 -91.35296631 274.96459961 C-93.00296631 274.30459961 -94.65296631 273.64459961 -96.35296631 272.96459961 C-98.75530488 270.56226103 -98.61554099 269.98107659 -98.67181396 266.69848633 C-98.69168365 265.8177243 -98.71155334 264.93696228 -98.73202515 264.0295105 C-98.74357635 263.07738678 -98.75512756 262.12526306 -98.76702881 261.14428711 C-98.78639496 260.17049103 -98.80576111 259.19669495 -98.82571411 258.19338989 C-98.88561189 255.07554958 -98.93193601 251.95767255 -98.97796631 248.83959961 C-99.0161367 246.7289062 -99.05518787 244.61822853 -99.09515381 242.50756836 C-99.19132158 237.32671817 -99.27633894 232.14577364 -99.35296631 226.96459961 C-100.13671631 226.67584961 -100.92046631 226.38709961 -101.72796631 226.08959961 C-104.35296631 224.96459961 -104.35296631 224.96459961 -106.35296631 222.96459961 C-106.67181396 220.16723633 -106.67181396 220.16723633 -106.76702881 216.64428711 C-106.80263916 215.5123291 -106.83824951 214.38037109 -106.87493896 213.21411133 C-106.90893799 211.77052246 -106.94293701 210.32693359 -106.97796631 208.83959961 C-107.10171631 204.26084961 -107.22546631 199.68209961 -107.35296631 194.96459961 C-119.56296631 194.96459961 -131.77296631 194.96459961 -144.35296631 194.96459961 Z M-34.35296631 194.96459961 C-34.56276024 203.66983597 -34.56276024 203.66983597 -34.74090576 212.37573242 C-34.77401855 213.46208984 -34.80713135 214.54844727 -34.84124756 215.66772461 C-34.86743164 216.77792969 -34.89361572 217.88813477 -34.92059326 219.03198242 C-35.40023524 222.28520629 -36.00622541 223.68488939 -38.35296631 225.96459961 C-39.67296631 226.29459961 -40.99296631 226.62459961 -42.35296631 226.96459961 C-42.35296631 263.92459961 -42.35296631 300.88459961 -42.35296631 338.96459961 C-40.70296631 339.62459961 -39.05296631 340.28459961 -37.35296631 340.96459961 C-35.02844007 344.45138897 -35.05522896 346.03427532 -34.93890381 350.16381836 C-34.90329346 351.25267334 -34.86768311 352.34152832 -34.83099365 353.46337891 C-34.79699463 354.84565674 -34.76299561 356.22793457 -34.72796631 357.65209961 C-34.60421631 362.04522461 -34.48046631 366.43834961 -34.35296631 370.96459961 C-22.47296631 370.96459961 -10.59296631 370.96459961 1.64703369 370.96459961 C1.85682762 362.25936325 1.85682762 362.25936325 2.03497314 353.5534668 C2.08464233 351.92393066 2.08464233 351.92393066 2.13531494 350.26147461 C2.16149902 349.15126953 2.18768311 348.04106445 2.21466064 346.8972168 C2.69430262 343.64399293 3.30029279 342.24430983 5.64703369 339.96459961 C6.96703369 339.63459961 8.28703369 339.30459961 9.64703369 338.96459961 C9.64703369 302.00459961 9.64703369 265.04459961 9.64703369 226.96459961 C7.17203369 225.97459961 7.17203369 225.97459961 4.64703369 224.96459961 C2.32250745 221.47781025 2.34929635 219.89492389 2.23297119 215.76538086 C2.19736084 214.67652588 2.16175049 213.5876709 2.12506104 212.46582031 C2.09106201 211.08354248 2.05706299 209.70126465 2.02203369 208.27709961 C1.89828369 203.88397461 1.77453369 199.49084961 1.64703369 194.96459961 C-10.23296631 194.96459961 -22.11296631 194.96459961 -34.35296631 194.96459961 Z M74.64703369 194.96459961 C74.43712064 204.04399283 74.43712064 204.04399283 74.25909424 213.12402344 C74.22598145 214.25348389 74.19286865 215.38294434 74.15875244 216.54663086 C74.13256836 217.70396729 74.10638428 218.86130371 74.07940674 220.05371094 C73.64703369 222.96459961 73.64703369 222.96459961 72.36505127 224.80322266 C70.64703369 225.96459961 70.64703369 225.96459961 66.64703369 226.96459961 C66.64703369 263.92459961 66.64703369 300.88459961 66.64703369 338.96459961 C68.29703369 339.62459961 69.94703369 340.28459961 71.64703369 340.96459961 C74.40142885 343.71899477 73.95692645 345.43063164 74.06109619 349.28491211 C74.09670654 350.41687012 74.13231689 351.54882812 74.16900635 352.71508789 C74.20300537 354.15867676 74.23700439 355.60226562 74.27203369 357.08959961 C74.39578369 361.66834961 74.51953369 366.24709961 74.64703369 370.96459961 C86.52703369 370.96459961 98.40703369 370.96459961 110.64703369 370.96459961 C110.89592065 363.33672509 110.89592065 363.33672509 111.12506104 355.70825195 C111.52692893 344.87963969 111.52692893 344.87963969 113.64703369 340.96459961 C116.12203369 339.97459961 116.12203369 339.97459961 118.64703369 338.96459961 C118.64703369 302.00459961 118.64703369 265.04459961 118.64703369 226.96459961 C116.17203369 225.97459961 116.17203369 225.97459961 113.64703369 224.96459961 C110.67352553 219.47364283 111.19518346 212.6925135 111.02203369 206.58959961 C110.89828369 202.75334961 110.77453369 198.91709961 110.64703369 194.96459961 C98.76703369 194.96459961 86.88703369 194.96459961 74.64703369 194.96459961 Z " fill="#000000" transform="translate(272.35296630859375,5.035400390625)"/>
<path d="M0 0 C1.08137238 0.46566879 2.16274475 0.93133759 3.27688599 1.41111755 C6.23648491 2.68691069 9.19349228 3.96849973 12.14953613 5.25250244 C15.29152083 6.61544641 18.43688071 7.9705534 21.58203125 9.32617188 C26.16914476 11.30396652 30.75534973 13.28383904 35.34038162 15.2664547 C46.77664687 20.21124029 58.22964921 25.11678343 69.68399048 30.01953125 C74.32878556 32.00813205 78.97262091 33.99896872 83.61647034 35.98977661 C92.9793226 40.00357482 102.34327846 44.01477705 111.70916748 48.02148438 C141.87515665 60.92658647 172.00082015 73.91984048 202.08912659 87.00492859 C209.42631914 90.1938618 216.77343046 93.35869851 224.1328125 96.49609375 C224.1328125 96.82609375 224.1328125 97.15609375 224.1328125 97.49609375 C223.42971349 97.49631112 222.72661447 97.49652849 222.00220942 97.49675244 C180.35821379 97.5102596 138.71431332 97.54969802 97.07037781 97.62294937 C92.07344881 97.63171643 87.07651945 97.64026619 82.07958984 97.64868164 C81.08476437 97.6503607 80.08993889 97.65203977 79.06496719 97.65376971 C62.94338049 97.68046107 46.82182934 97.68953632 30.70022282 97.69213518 C14.16581221 97.69519143 -2.36849537 97.71710006 -18.90285945 97.75661832 C-29.11073462 97.78041837 -39.31840431 97.78940087 -49.52630344 97.77960686 C-56.52018885 97.77430324 -63.51388963 97.78726252 -70.50772247 97.81475665 C-74.54673299 97.83009005 -78.5853305 97.83720493 -82.62435341 97.82269096 C-86.31953819 97.80958978 -90.01392062 97.81933243 -93.70901451 97.84753148 C-95.68440885 97.85658331 -97.65986821 97.84093374 -99.63521504 97.82451409 C-101.38711743 97.84467205 -101.38711743 97.84467205 -103.17441177 97.86523724 C-104.18446785 97.8663764 -105.19452393 97.86751556 -106.23518777 97.86868924 C-109.87070208 98.73530714 -110.93944441 100.37478866 -112.8671875 103.49609375 C-112.80385126 106.66290562 -112.53932548 108.59919792 -110.62644309 111.1517337 C-108.25402424 112.96465114 -106.75253567 112.8746985 -103.78159809 112.88085461 C-102.19466018 112.89503942 -102.19466018 112.89503942 -100.57566291 112.90951079 C-99.40933505 112.90466322 -98.24300719 112.89981564 -97.04133606 112.89482117 C-95.80553997 112.90146799 -94.56974388 112.90811482 -93.29649943 112.91496307 C-89.85984912 112.93042539 -86.42366011 112.9324246 -82.98700774 112.9288336 C-79.28351359 112.92821133 -75.58009274 112.94481502 -71.87663269 112.95935059 C-65.45802587 112.98217381 -59.03947346 112.99402809 -52.62082863 112.99847984 C-43.34050544 113.00493214 -34.06028076 113.02785323 -24.77999719 113.05482314 C-9.72419491 113.09812901 5.33160324 113.12807403 20.38745117 113.1496582 C35.01475052 113.17065652 49.64201598 113.19792157 64.26928711 113.23364258 C65.1705716 113.2358414 66.0718561 113.23804023 67.00045224 113.24030568 C71.52183012 113.25137505 76.04320767 113.26256791 80.56458509 113.27382219 C118.08729969 113.36706108 155.61002852 113.43781248 193.1328125 113.49609375 C193.1328125 129.33609375 193.1328125 145.17609375 193.1328125 161.49609375 C55.8528125 161.49609375 -81.4271875 161.49609375 -222.8671875 161.49609375 C-222.8671875 145.65609375 -222.8671875 129.81609375 -222.8671875 113.49609375 C-217.57171875 113.44710937 -212.27625 113.398125 -206.8203125 113.34765625 C-203.46612668 113.31227197 -200.11196679 113.27631318 -196.7578125 113.23828125 C-191.43363143 113.17796651 -186.10948665 113.11978327 -180.78515625 113.07421875 C-176.49270331 113.03735177 -172.20044851 112.99098797 -167.90816498 112.93803024 C-166.27034734 112.9194938 -164.63248724 112.90438305 -162.99460602 112.89274979 C-160.7009501 112.87587439 -158.40774721 112.84683673 -156.11425781 112.81494141 C-154.80853821 112.80161774 -153.5028186 112.78829407 -152.15753174 112.77456665 C-149.1007047 112.5158571 -147.37036496 112.21469674 -144.8671875 110.49609375 C-143.48168553 107.72508981 -143.6794408 105.56262315 -143.8671875 102.49609375 C-145.58945246 99.24759398 -145.58945246 99.24759398 -148.8671875 98.49609375 C-150.31369521 98.39625127 -151.76425847 98.35000116 -153.2141571 98.33787537 C-154.10176727 98.32808655 -154.98937744 98.31829773 -155.90388489 98.30821228 C-157.36044746 98.29957909 -157.36044746 98.29957909 -158.84643555 98.29077148 C-160.38328003 98.27592209 -160.38328003 98.27592209 -161.95117188 98.26077271 C-165.34372635 98.22914038 -168.73629484 98.20439334 -172.12890625 98.1796875 C-174.47874825 98.15911948 -176.82858653 98.13812305 -179.17842102 98.11671448 C-185.36798092 98.06147818 -191.55757429 98.01207573 -197.74719238 97.96386719 C-204.06130966 97.91366357 -210.37537823 97.85797155 -216.68945312 97.80273438 C-229.08198966 97.69513373 -241.47456845 97.59369295 -253.8671875 97.49609375 C-251.29801773 95.78331391 -249.02957846 94.61306527 -246.21679688 93.39575195 C-245.26756348 92.98327209 -244.31833008 92.57079224 -243.34033203 92.14581299 C-242.30763184 91.70066345 -241.27493164 91.25551392 -240.2109375 90.796875 C-239.13376465 90.32989197 -238.0565918 89.86290894 -236.94677734 89.3817749 C-233.42150568 87.85445588 -229.89439011 86.3314475 -226.3671875 84.80859375 C-223.93025766 83.75401175 -221.49340909 82.69924193 -219.05664062 81.64428711 C-204.44801599 75.32321951 -189.82720481 69.03082297 -175.19140625 62.77294922 C-165.23944139 58.51742135 -155.30011247 54.23336852 -145.3671875 49.93359375 C-130.66334924 43.56898365 -115.95444843 37.21621184 -101.2421875 30.87109375 C-100.18157104 30.41365784 -99.12095459 29.95622192 -98.02819824 29.48492432 C-93.68154105 27.61025871 -89.33486819 25.73562944 -84.98815918 23.86108398 C-76.83036116 20.34294941 -68.67291832 16.82399213 -60.515625 13.3046875 C-58.16487662 12.2905266 -55.81412793 11.27636644 -53.46337891 10.26220703 C-50.0672656 8.79705331 -46.67116053 7.33188051 -43.27508545 5.86663818 C-40.15477778 4.52038988 -37.03442503 3.17424614 -33.9140625 1.828125 C-32.53787247 1.23432289 -32.53787247 1.23432289 -31.13388062 0.62852478 C-29.45733902 -0.09469252 -27.7791566 -0.8141236 -26.09899902 -1.52890015 C-24.68609536 -2.14615195 -23.28474774 -2.79120979 -21.90197754 -3.47329712 C-13.93231742 -7.32439253 -7.51006758 -3.2785503 0 0 Z " fill="#D1B790" transform="translate(270.8671875,22.50390625)"/>
<path d="M0 0 C137.28 0 274.56 0 416 0 C416 7.92 416 15.84 416 24 C413.05225647 24.00586624 410.10451294 24.01173248 407.06744385 24.01777649 C380.04799564 24.07292987 353.02861158 24.14287304 326.00924553 24.22898628 C322.46938019 24.2402547 318.92951444 24.25139311 315.38964844 24.26245117 C314.68491259 24.26465486 313.98017675 24.26685854 313.25408527 24.269129 C301.83691331 24.3045199 290.41974141 24.3293739 279.0025349 24.35034702 C267.29102309 24.37209483 255.57958258 24.40513548 243.8681314 24.44870156 C237.2884615 24.47268558 230.70887067 24.49138039 224.12915802 24.49761391 C217.94040338 24.50364134 211.75185122 24.52355616 205.56317139 24.55427551 C203.28793491 24.5630934 201.01267201 24.56677062 198.73741913 24.56500816 C195.63820644 24.56336497 192.53961805 24.57997324 189.44049072 24.60127258 C188.53387829 24.59642501 187.62726586 24.59157743 186.69318032 24.58658296 C183.11695255 24.6273262 180.6566425 24.66380392 177.44121933 26.31007671 C175.67760563 28.07418924 175.67760563 28.07418924 175.5 31.4375 C175.7368082 34.92448218 175.7368082 34.92448218 177.40325546 37.19021988 C181.42289469 39.99167496 185.25776595 39.55734996 190.0479126 39.51898193 C191.08038549 39.52648319 192.11285839 39.53398444 193.17661834 39.541713 C196.64691917 39.56206254 200.11657116 39.55387297 203.58691406 39.54589844 C206.07023773 39.55462946 208.55355576 39.56511358 211.03686523 39.57722473 C216.38872766 39.59937044 221.7404 39.60928463 227.09229279 39.60811615 C234.8301958 39.6064478 242.56791795 39.62677242 250.30577275 39.65247145 C262.85976417 39.69356833 275.41372308 39.71686938 287.96777344 39.72900391 C300.16311772 39.74082977 312.35840081 39.7610214 324.55371094 39.79248047 C325.30538293 39.79441657 326.05705492 39.79635267 326.83150485 39.79834744 C330.60240864 39.80811193 334.37331197 39.81804105 338.14421511 39.82805204 C369.42945276 39.91089504 400.71467204 39.96377136 432 40 C432 47.92 432 55.84 432 64 C429.76635681 64.00364563 427.53271362 64.00729126 425.23138428 64.01104736 C404.21788447 64.04723833 383.20452801 64.10539371 362.19114304 64.18390274 C351.38702897 64.22373773 340.58298821 64.25610754 329.77880859 64.27099609 C320.36353949 64.28398952 310.94843139 64.31089494 301.53325295 64.35461307 C296.54645115 64.37727994 291.55984831 64.39290756 286.57299042 64.39188385 C281.88123843 64.39114032 277.18992713 64.40896716 272.49828911 64.44116783 C270.77455338 64.44970139 269.05076843 64.45139344 267.32702065 64.44580269 C264.97634482 64.4391929 262.6270836 64.45700857 260.27655029 64.48101807 C258.96022991 64.48470524 257.64390953 64.48839241 256.28770065 64.49219131 C252.93946736 64.74165148 252.93946736 64.74165148 250.57646561 66.84493637 C248.7738839 68.97015317 248.7738839 68.97015317 248.5 72 C249.12982029 75.77892172 249.94958289 76.71365856 253 79 C255.76051411 79.39626344 258.12425215 79.54764885 260.88397217 79.51898193 C261.68368258 79.52648319 262.48339299 79.53398444 263.30733705 79.541713 C265.98998472 79.56203075 268.67179047 79.55387968 271.35449219 79.54589844 C273.27624856 79.55463124 275.19799765 79.56511599 277.11973572 79.57722473 C282.34046433 79.60514117 287.56095635 79.60848817 292.78174877 79.60750484 C298.23640968 79.61062909 303.69096327 79.63623711 309.14556885 79.65948486 C319.47627186 79.70008581 329.80691168 79.72039521 340.1376822 79.73345876 C351.89818841 79.74931493 363.65858687 79.78772472 375.41903067 79.82805204 C399.61265412 79.91050706 423.806267 79.96376415 448 80 C448 87.92 448 95.84 448 104 C289.6 104 131.2 104 -32 104 C-32 96.08 -32 88.16 -32 80 C-29.6580957 79.98541748 -27.31619141 79.97083496 -24.90332031 79.95581055 C-17.16789272 79.90548602 -9.43266688 79.8388948 -1.69743729 79.76428509 C2.99270665 79.71954691 7.68276302 79.68029844 12.37304688 79.65356445 C16.89897751 79.62756579 21.42457182 79.58718793 25.95029449 79.53681374 C27.67741973 79.52012171 29.40460316 79.50862199 31.13179779 79.50238609 C33.55013838 79.49277023 35.96761402 79.46474227 38.38574219 79.43237305 C39.45820694 79.43452568 39.45820694 79.43452568 40.55233765 79.4367218 C44.62005068 79.35965716 47.10678786 78.96150284 50 76 C50.62723208 74.06574514 50.62723208 74.06574514 50.5 72 C50.5103125 71.319375 50.520625 70.63875 50.53125 69.9375 C49.76062224 67.12697524 48.47739813 66.48158596 46 65 C43.09587329 64.52926149 43.09587329 64.52926149 39.85449219 64.56762695 C38.61350769 64.54783279 37.37252319 64.52803864 36.09393311 64.50764465 C34.74491528 64.50087544 33.3958958 64.49442851 32.046875 64.48828125 C30.66252042 64.47143065 29.27818111 64.45327988 27.89385986 64.43388367 C24.25745412 64.3864183 20.62111028 64.35658692 16.98449707 64.33044434 C13.27079037 64.30062107 9.55729687 64.25409688 5.84375 64.20898438 C-1.43741243 64.12299062 -8.71854377 64.05717263 -16 64 C-16 56.08 -16 48.16 -16 40 C-12.11577271 39.96241577 -12.11577271 39.96241577 -8.15307617 39.92407227 C0.39252542 39.84068037 8.93806598 39.75198391 17.48358631 39.66066074 C22.66587499 39.60544298 27.84816933 39.55202474 33.03051758 39.50268555 C38.02963416 39.45502518 43.02868157 39.40268165 48.02771568 39.34705925 C49.93711314 39.3266433 51.84652956 39.30792896 53.75596046 39.29092598 C56.42567437 39.26686524 59.09525744 39.23681284 61.76489258 39.20532227 C62.95495911 39.19668907 62.95495911 39.19668907 64.16906738 39.18788147 C67.36715819 39.14486408 69.94443225 39.01852258 73 38 C75.31332486 34.53001271 75.33957563 33.07490752 75 29 C73.27773504 25.75150023 73.27773504 25.75150023 70 25 C67.74660334 24.88187505 65.48995504 24.82303355 63.23364258 24.79467773 C62.55045456 24.78477814 61.86726654 24.77487854 61.16337585 24.76467896 C58.90712947 24.73311321 56.65086203 24.7083261 54.39453125 24.68359375 C52.82939611 24.66301996 51.26426648 24.64202338 49.69914246 24.62062073 C45.58102884 24.56544391 41.46286544 24.51601529 37.34466553 24.46777344 C33.14184136 24.41752635 28.93908942 24.36185703 24.73632812 24.30664062 C16.49094485 24.19911272 8.24550016 24.09815696 0 24 C0 16.08 0 8.16 0 0 Z " fill="#B4997D" transform="translate(48,392)"/>
<path d="M0 0 C4.05645682 -0.14863004 8.11185486 -0.25733927 12.17041016 -0.32958984 C13.54992281 -0.35971304 14.92924467 -0.40062275 16.30810547 -0.45263672 C18.29310092 -0.52562502 20.27950932 -0.55629398 22.265625 -0.5859375 C23.45961914 -0.6173584 24.65361328 -0.6487793 25.88378906 -0.68115234 C29 0 29 0 31.35839844 2.97412109 C31.90012695 3.97266113 32.44185547 4.97120117 33 6 C34.64962097 7.64962097 36.56660951 7.13207713 38.83949375 7.1386652 C39.89347026 7.14413964 40.94744678 7.14961409 42.03336197 7.15525442 C43.20551552 7.15623253 44.37766906 7.15721064 45.58534241 7.15821838 C46.81942964 7.16315636 48.05351688 7.16809434 49.3250007 7.17318195 C52.76602551 7.18593979 56.20700942 7.19419651 59.64804852 7.20060861 C63.35291727 7.2085896 67.0577652 7.22229524 70.76261902 7.23532104 C77.18670566 7.25711657 83.61079438 7.27524976 90.03489876 7.29092598 C99.32318206 7.31359667 108.61144235 7.34174332 117.89970618 7.37124526 C132.9677139 7.4189556 148.035731 7.46221042 163.10375977 7.50268555 C177.74471773 7.54202299 192.38566733 7.58344499 207.02661133 7.62768555 C207.92842127 7.63040982 208.83023121 7.63313409 209.75936873 7.63594092 C214.28328771 7.64962011 218.80720658 7.66334044 223.33112538 7.67708123 C260.88739974 7.79110005 298.44369223 7.89762395 336 8 C336 23.84 336 39.68 336 56 C198.72 56 61.44 56 -80 56 C-80 40.16 -80 24.32 -80 8 C-74.70453125 7.95101562 -69.4090625 7.90203125 -63.953125 7.8515625 C-60.59893918 7.81617822 -57.24477929 7.78021943 -53.890625 7.7421875 C-48.56644393 7.68187276 -43.24229915 7.62368952 -37.91796875 7.578125 C-33.62551581 7.54125802 -29.33326101 7.49489422 -25.04097748 7.44193649 C-23.40315984 7.42340005 -21.76529974 7.4082893 -20.12741852 7.39665604 C-17.8337626 7.37978064 -15.54055971 7.35074298 -13.24707031 7.31884766 C-11.28849091 7.29886215 -11.28849091 7.29886215 -9.29034424 7.2784729 C-6.224969 7.01903988 -4.49178542 6.75422555 -2 5 C-0.71745356 2.46229997 -0.71745356 2.46229997 0 0 Z " fill="#B4997D" transform="translate(128,128)"/>
<path d="M0 0 C0.99818253 -0.00990463 1.99636505 -0.01980927 3.02479553 -0.03001404 C4.11889236 -0.02551239 5.2129892 -0.02101074 6.34024048 -0.01637268 C8.06986275 -0.02666756 8.06986275 -0.02666756 9.83442688 -0.03717041 C13.65761526 -0.05551671 17.4803963 -0.05158926 21.30361938 -0.0459137 C23.28541939 -0.04932042 25.2672196 -0.05273422 27.24901736 -0.05726677 C33.48243244 -0.07132049 39.7157105 -0.06974455 45.9491272 -0.05836487 C52.37658912 -0.0468901 58.80363348 -0.06094613 65.23104036 -0.08776134 C70.75133303 -0.10992852 76.27149474 -0.11655326 81.79182875 -0.11068493 C85.08797425 -0.1073156 88.38379303 -0.11143588 91.67991257 -0.12693596 C95.3573701 -0.14179019 99.03390581 -0.13120801 102.71133423 -0.11402893 C103.8013826 -0.1236969 104.89143097 -0.13336487 106.01451111 -0.14332581 C110.49518125 -0.09943006 113.35698696 -0.06331487 117.30792236 2.16903687 C119.15518188 4.38768005 119.15518188 4.38768005 120.15518188 8.38768005 C133.68518188 8.38768005 147.21518188 8.38768005 161.15518188 8.38768005 C162.14518188 10.36768005 163.13518188 12.34768005 164.15518188 14.38768005 C167.22096686 15.92057254 170.43390817 15.5415273 173.79864502 15.54589844 C174.99564736 15.5533054 174.99564736 15.5533054 176.21683156 15.560862 C178.90542663 15.57628699 181.59399773 15.58461112 184.28262329 15.59300232 C186.2040783 15.60257692 188.12553117 15.61258675 190.04698181 15.6230011 C195.2760219 15.65010157 200.50507107 15.67108324 205.73414278 15.69100308 C211.19411668 15.71283099 216.65406245 15.74023527 222.11401367 15.76705933 C232.45893574 15.81702952 242.8038734 15.86195227 253.148826 15.90508169 C264.92375761 15.95441714 276.698661 16.00934893 288.47356534 16.06476128 C312.70074474 16.17864774 336.92795148 16.28527371 361.15518188 16.38768005 C361.15518188 24.30768005 361.15518188 32.22768005 361.15518188 40.38768005 C202.75518188 40.38768005 44.35518188 40.38768005 -118.84481812 40.38768005 C-118.84481812 32.46768005 -118.84481812 24.54768005 -118.84481812 16.38768005 C-116.50291382 16.37309753 -114.16100952 16.35851501 -111.74813843 16.3434906 C-104.01271083 16.29316608 -96.27748499 16.22657485 -88.5422554 16.15196514 C-83.85211147 16.10722696 -79.1620551 16.06797849 -74.47177124 16.04124451 C-69.94584061 16.01524585 -65.4202463 15.97486798 -60.89452362 15.92449379 C-59.16739839 15.90780177 -57.44021496 15.89630204 -55.71302032 15.89006615 C-53.29467973 15.88045029 -50.87720409 15.85242232 -48.45907593 15.8200531 C-47.38661118 15.82220573 -47.38661118 15.82220573 -46.29248047 15.82440186 C-43.24356031 15.7666387 -41.11242435 15.53396512 -38.415802 14.05987549 C-36.20190537 11.70334729 -36.12490276 9.53863227 -35.84481812 6.38768005 C-35.34981812 7.37768005 -35.34981812 7.37768005 -34.84481812 8.38768005 C-26.59481812 8.38768005 -18.34481812 8.38768005 -9.84481812 8.38768005 C-9.18481812 6.73768005 -8.52481812 5.08768005 -7.84481812 3.38768005 C-5.53089836 0.25811054 -3.81218225 0.01066836 0 0 Z " fill="#977D5F" transform="translate(134.84481811523438,455.61231994628906)"/>
<path d="M0 0 C137.28 0 274.56 0 416 0 C416 7.92 416 15.84 416 24 C413.05447708 24.00142502 410.10895416 24.00285004 407.07417297 24.00431824 C380.06948939 24.01969258 353.06491313 24.05977997 326.06031086 24.12685562 C322.52173438 24.13562248 318.98315741 24.14417227 315.44458008 24.15258789 C314.38786978 24.15510648 314.38786978 24.15510648 313.30981179 24.15767596 C301.89976301 24.18435322 290.48976446 24.19344156 279.07968769 24.19604143 C267.37379476 24.19909978 255.66804718 24.22103269 243.96221989 24.26052457 C237.3863724 24.28188837 230.81077062 24.29443767 224.23488808 24.28615379 C218.04848832 24.27863529 211.86258734 24.29434748 205.67627907 24.32806015 C203.40307587 24.3363199 201.12982331 24.33601243 198.8566246 24.32659721 C195.75740548 24.31502924 192.65983571 24.33401226 189.56074524 24.36076355 C188.65704565 24.35009029 187.75334606 24.33941703 186.82226163 24.32842034 C182.35384741 24.40059193 180.57295613 24.54410528 176.96495342 27.41495228 C175.01649859 29.81264883 175.01649859 29.81264883 174 32 C162.45 32 150.9 32 139 32 C138.01 30.02 137.02 28.04 136 26 C131.84602889 24.61534296 127.91487465 24.69651026 123.5625 24.625 C122.70333984 24.58761719 121.84417969 24.55023438 120.95898438 24.51171875 C115.66683876 24.37720933 115.66683876 24.37720933 111.46484375 27.3984375 C110.61111833 28.91465385 109.77817211 30.44365579 109 32 C98.11 32 87.22 32 76 32 C75.01 30.02 74.02 28.04 73 26 C69.56602485 24.85534162 66.85638646 24.84020593 63.23364258 24.79467773 C62.55045456 24.78477814 61.86726654 24.77487854 61.16337585 24.76467896 C58.90712947 24.73311321 56.65086203 24.7083261 54.39453125 24.68359375 C52.82939611 24.66301996 51.26426648 24.64202338 49.69914246 24.62062073 C45.58102884 24.56544391 41.46286544 24.51601529 37.34466553 24.46777344 C33.14184136 24.41752635 28.93908942 24.36185703 24.73632812 24.30664062 C16.49094485 24.19911272 8.24550016 24.09815696 0 24 C0 16.08 0 8.16 0 0 Z " fill="#D1B790" transform="translate(48,392)"/>
<path d="M0 0 C0.73856232 -0.00902847 1.47712463 -0.01805695 2.23806763 -0.02735901 C3.79978384 -0.04185655 5.36156072 -0.05074703 6.92333984 -0.05444336 C9.3054107 -0.06633188 11.6848828 -0.11550742 14.06640625 -0.16601562 C15.58592489 -0.17548144 17.10545941 -0.18271572 18.625 -0.1875 C19.33349091 -0.20703232 20.04198181 -0.22656464 20.77194214 -0.24668884 C24.58168739 -0.21216297 26.26998525 0.23041119 29.2734375 2.64038086 C31.09520633 4.93090293 32.63599055 7.05101147 34.015625 9.62109375 C34.64791016 10.78125 34.64791016 10.78125 35.29296875 11.96484375 C35.71449219 12.75890625 36.13601563 13.55296875 36.5703125 14.37109375 C37.42642911 15.95478092 38.28318295 17.53812381 39.140625 19.12109375 C39.53668945 19.86488281 39.93275391 20.60867187 40.34082031 21.375 C41.49456668 23.52752806 41.49456668 23.52752806 43.25 26.05859375 C44.81174528 29.08000945 44.71646868 30.987044 44.4453125 34.37109375 C43.22363281 37.19189453 43.22363281 37.19189453 41.5234375 40.06640625 C40.90984375 41.11183594 40.29625 42.15726563 39.6640625 43.234375 C39.014375 44.31074219 38.3646875 45.38710937 37.6953125 46.49609375 C37.06109375 47.58019531 36.426875 48.66429687 35.7734375 49.78125 C29.80181508 59.84592196 29.80181508 59.84592196 26.4453125 62.37109375 C23.76908191 62.80574184 21.50657164 63.00281404 18.828125 63.0078125 C17.72596146 63.02422539 17.72596146 63.02422539 16.60153198 63.04096985 C15.05001828 63.05680582 13.49836484 63.06203972 11.94677734 63.05737305 C9.58322582 63.05858712 7.22588225 63.11832587 4.86328125 63.18164062 C-5.88667163 63.31515865 -5.88667163 63.31515865 -9.73779297 61.13549805 C-11.38513974 59.3128269 -12.42641206 57.55266891 -13.5546875 55.37109375 C-14.06725098 54.56357666 -14.57981445 53.75605957 -15.10791016 52.92407227 C-16.79464802 50.25882771 -18.36781505 47.54861937 -19.9296875 44.80859375 C-20.74759766 43.42897461 -20.74759766 43.42897461 -21.58203125 42.02148438 C-22.09636719 41.12494141 -22.61070312 40.22839844 -23.140625 39.3046875 C-23.83744385 38.09897095 -23.83744385 38.09897095 -24.54833984 36.86889648 C-25.8030484 33.75465018 -25.93350864 31.71006722 -25.5546875 28.37109375 C-24.2253418 25.33496094 -24.2253418 25.33496094 -22.37890625 22.16796875 C-22.0530806 21.60410461 -21.72725494 21.04024048 -21.39155579 20.45928955 C-20.70413071 19.27589864 -20.0104205 18.09613864 -19.31079102 16.91992188 C-18.24186622 15.12055292 -17.19485979 13.30974563 -16.15039062 11.49609375 C-11.6205783 3.73886682 -9.43642029 0.07102022 0 0 Z " fill="#030202" transform="translate(246.5546875,41.62890625)"/>
<path d="M0 0 C7.92 0 15.84 0 24 0 C24 36.96 24 73.92 24 112 C16.08 112 8.16 112 0 112 C-0.02578125 109.36386719 -0.0515625 106.72773438 -0.078125 104.01171875 C-0.11653271 101.45993345 -0.16169686 98.90835109 -0.20751953 96.35668945 C-0.23575279 94.58269939 -0.25695563 92.80858299 -0.27099609 91.03442383 C-0.29239381 88.48452968 -0.33902435 85.93615834 -0.390625 83.38671875 C-0.39185364 82.59287277 -0.39308228 81.79902679 -0.39434814 80.98112488 C-0.4768382 76.5796333 -0.4768382 76.5796333 -2.85058594 73.03833008 C-5.09714429 71.89655474 -5.09714429 71.89655474 -8 71 C-8 63.41 -8 55.82 -8 48 C-6.02 47.01 -4.04 46.02 -2 45 C-0.8584378 42.7168756 -0.84665628 41.36520695 -0.79467773 38.82568359 C-0.77473251 37.96494232 -0.75478729 37.10420105 -0.73423767 36.21737671 C-0.71752518 35.28712677 -0.70081268 34.35687683 -0.68359375 33.3984375 C-0.66281265 32.44683746 -0.64203156 31.49523743 -0.62062073 30.51480103 C-0.55511867 27.46827568 -0.4962372 24.42166257 -0.4375 21.375 C-0.39431541 19.31249084 -0.35070114 17.24999063 -0.30664062 15.1875 C-0.19862621 10.12508873 -0.09955766 5.06261299 0 0 Z " fill="#B4997D" transform="translate(189,232)"/>
<path d="M0 0 C7.92 0 15.84 0 24 0 C24 36.96 24 73.92 24 112 C16.08 112 8.16 112 0 112 C-0.02187378 109.38807739 -0.02187378 109.38807739 -0.04418945 106.72338867 C-0.09582525 100.97164334 -0.16110698 95.22014008 -0.23571491 89.46865368 C-0.28045208 85.9813232 -0.31970032 82.49411043 -0.34643555 79.0065918 C-0.37740851 74.99758213 -0.43219816 70.98920633 -0.48828125 66.98046875 C-0.49467117 65.72727341 -0.5010611 64.47407806 -0.50764465 63.1829071 C-0.52743881 62.02193008 -0.54723297 60.86095306 -0.56762695 59.66479492 C-0.57873001 58.64109299 -0.58983307 57.61739105 -0.60127258 56.56266785 C-0.80547941 53.98965919 -0.80547941 53.98965919 -2.27702332 52.20845032 C-4.22231943 50.69047737 -4.22231943 50.69047737 -8 50 C-8 44.06 -8 38.12 -8 32 C-6.02 31.01 -4.04 30.02 -2 29 C-0.94163339 25.82490018 -0.79756211 23.35717617 -0.68359375 20.01953125 C-0.64169922 18.85615234 -0.59980469 17.69277344 -0.55664062 16.49414062 C-0.51732422 15.27919922 -0.47800781 14.06425781 -0.4375 12.8125 C-0.39431641 11.58595703 -0.35113281 10.35941406 -0.30664062 9.09570312 C-0.20046986 6.06393808 -0.09972236 3.031984 0 0 Z " fill="#B4997D" transform="translate(80,232)"/>
<path d="M0 0 C7.92 0 15.84 0 24 0 C24 36.96 24 73.92 24 112 C16.08 112 8.16 112 0 112 C0 75.04 0 38.08 0 0 Z " fill="#B4997D" transform="translate(408,232)"/>
<path d="M0 0 C7.92 0 15.84 0 24 0 C24 36.96 24 73.92 24 112 C16.08 112 8.16 112 0 112 C0 75.04 0 38.08 0 0 Z " fill="#B4997D" transform="translate(299,232)"/>
<path d="M0 0 C1.15322754 -0.00700928 2.30645508 -0.01401855 3.49462891 -0.02124023 C7.31249973 -0.03886691 11.1296312 -0.02717928 14.94750977 -0.01367188 C17.5978335 -0.01636561 20.24813467 -0.02024081 22.89845276 -0.02526855 C28.45598376 -0.03254422 34.01330208 -0.02296068 39.57080078 -0.00390625 C45.99091512 0.01785193 52.41052112 0.01081897 58.83062309 -0.01121187 C64.34670397 -0.0293812 69.86263207 -0.03191648 75.37873322 -0.0214572 C78.67149181 -0.01522916 81.96395991 -0.01594329 85.25671196 -0.02760315 C88.92930408 -0.03775258 92.60091828 -0.02228758 96.2734375 0 C97.36191483 -0.00809692 98.45039215 -0.01619385 99.57185364 -0.02453613 C106.91913803 0.05813955 106.91913803 0.05813955 110.84925842 2.36633301 C113.26560101 5.17286805 113.77696546 6.81565543 113.70141602 10.51757812 C111.93102152 13.26474199 110.63849758 15.04903734 107.70141602 16.51757812 C106.12678893 16.6185379 104.54796465 16.65700324 102.97012329 16.66474915 C101.97187027 16.67190445 100.97361725 16.67905975 99.94511414 16.68643188 C98.29621941 16.69046524 98.29621941 16.69046524 96.61401367 16.69458008 C94.882201 16.70443687 94.882201 16.70443687 93.11540222 16.7144928 C89.28209373 16.73425793 85.44882443 16.74589438 81.61547852 16.75585938 C80.30943035 16.7599349 79.00338219 16.76401043 77.65775681 16.76820946 C71.46089838 16.78726006 65.26405187 16.80149217 59.06716979 16.80982143 C51.91132632 16.81959824 44.75579182 16.84592945 37.60005724 16.88632232 C32.0704858 16.91646601 26.54100302 16.93128856 21.01135099 16.93460244 C17.70791533 16.93695473 14.40488576 16.94790325 11.10152054 16.97106361 C7.41662962 16.99529689 3.73255289 16.99451876 0.04760742 16.98754883 C-1.04760727 17.00035889 -2.14282196 17.01316895 -3.27122498 17.02636719 C-4.27511765 17.01942337 -5.27901031 17.01247955 -6.31332397 17.00532532 C-7.62021714 17.00890785 -7.62021714 17.00890785 -8.95351219 17.01256275 C-12.08472686 16.35164349 -13.29616421 14.95370759 -15.29858398 12.51757812 C-15.82983398 10.51757812 -15.82983398 10.51757812 -15.79858398 8.51757812 C-15.81405273 7.52757812 -15.81405273 7.52757812 -15.82983398 6.51757812 C-13.77642527 -1.21290173 -6.49877154 -0.04825308 0 0 Z " fill="#000000" transform="translate(141.298583984375,455.482421875)"/>
<path d="M0 0 C0.89978073 -0.0071553 1.79956146 -0.01431061 2.72660828 -0.02168274 C5.69521145 -0.03856516 8.6623035 -0.01916974 11.63085938 0.00219727 C13.6968193 0.00136853 15.76277917 -0.00109104 17.82873535 -0.00511169 C22.15637076 -0.00796939 26.48348855 0.00672908 30.81103516 0.03417969 C36.35629403 0.0682621 41.90062731 0.06224381 47.44593048 0.04351711 C51.71136174 0.03294498 55.97657788 0.04188695 60.24198914 0.05690193 C62.28650778 0.06208262 64.33104891 0.06160333 66.37556458 0.05535698 C69.23394011 0.0499023 72.09099385 0.07028821 74.94921875 0.09765625 C75.79300583 0.09113037 76.63679291 0.08460449 77.50614929 0.07788086 C81.52904965 0.14332651 83.51329351 0.33984676 86.99719238 2.53944397 C89.11938081 4.78423892 89.65892467 5.59416054 89.59960938 8.63110352 C89.61894531 9.62110352 89.61894531 9.62110352 89.63867188 10.63110352 C88.57048694 13.84822521 86.81797216 14.83743727 83.97460938 16.63110352 C80.95933416 17.21229285 77.99679307 17.17802361 74.93334961 17.14868164 C74.03196259 17.15569092 73.13057556 17.1627002 72.20187378 17.16992188 C69.22866827 17.18749694 66.25641795 17.17588174 63.28320312 17.16235352 C61.21484698 17.16504833 59.14649207 17.16893066 57.07814026 17.1739502 C52.74638795 17.17984439 48.41496585 17.17128377 44.08325195 17.15258789 C38.52895334 17.12978432 32.97542724 17.14293109 27.42115688 17.16687775 C23.15149606 17.18132556 18.88201869 17.17673461 14.61235237 17.16636658 C12.56420869 17.16369723 10.51604838 17.16697634 8.46792412 17.17628479 C5.60699137 17.18643508 2.74731377 17.17097115 -0.11352539 17.14868164 C-0.96090775 17.15677856 -1.8082901 17.16487549 -2.68135071 17.17321777 C-6.459763 17.11863475 -8.40028336 17.0872756 -11.51597595 14.81359863 C-13.69522301 11.66257847 -14.09240216 9.45076077 -14.02539062 5.63110352 C-9.978572 0.03343098 -6.40274284 -0.08872161 0 0 Z " fill="#000000" transform="translate(78.025390625,151.368896484375)"/>
<path d="M0 0 C0.71446289 -0.0071553 1.42892578 -0.01431061 2.16503906 -0.02168274 C4.51693483 -0.03853429 6.86691465 -0.01919084 9.21875 0.00219727 C10.85872556 0.00136823 12.49870103 -0.00109248 14.13867188 -0.00511169 C17.57186972 -0.00796724 21.00441429 0.00670688 24.4375 0.03417969 C28.83268672 0.06826273 33.22670561 0.06224233 37.62194824 0.04351711 C41.00726003 0.03293578 44.39230125 0.0418951 47.77758789 0.05690193 C49.39785966 0.06207593 51.01815978 0.06161143 52.63842773 0.05535698 C54.90540063 0.04989075 57.17071613 0.07032154 59.4375 0.09765625 C60.72591797 0.10385483 62.01433594 0.11005341 63.34179688 0.11643982 C67.29636974 0.71913551 68.97391353 1.75782391 71.71875 4.63110352 C72.34375 8.06860352 72.34375 8.06860352 71.71875 11.63110352 C69.08802088 15.01701924 67.60317753 16.46481778 63.34179688 17.26602173 C62.05337891 17.26999969 60.76496094 17.27397766 59.4375 17.27807617 C58.72303711 17.28683777 58.00857422 17.29559937 57.27246094 17.30462646 C54.92059849 17.32655842 52.57063013 17.31209218 50.21875 17.29516602 C48.57877239 17.29853599 46.93879721 17.30339013 45.29882812 17.30966187 C41.86564297 17.3170247 38.43310928 17.30634743 35 17.28295898 C30.60465643 17.25447065 26.21083935 17.27087791 21.81555176 17.3008213 C18.43022206 17.31891075 15.04525281 17.3131289 11.65991211 17.30018234 C10.03963031 17.29685284 8.41931552 17.30091944 6.79907227 17.31258011 C4.53183644 17.32531718 2.26705358 17.30587749 0 17.27807617 C-1.28841797 17.27409821 -2.57683594 17.27012024 -3.90429688 17.26602173 C-8.15396333 16.46702022 -9.63867847 14.98768171 -12.28125 11.63110352 C-12.90625 8.63110352 -12.90625 8.63110352 -12.28125 5.63110352 C-8.50182586 0.82870336 -6.02942331 0.00450077 0 0 Z " fill="#000000" transform="translate(370.28125,151.368896484375)"/>
<path d="M0 0 C1.87291969 0.00349709 1.87291969 0.00349709 3.78367615 0.00706482 C6.4213501 0.01680272 9.05685159 0.03584388 11.6940918 0.0715332 C15.0690587 0.11685186 18.44325456 0.13156247 21.81849766 0.13527012 C25.04575254 0.14077041 28.27283185 0.1641471 31.5 0.1875 C32.71047501 0.1928627 33.92095001 0.1982254 35.16810608 0.20375061 C36.29284836 0.21973801 37.41759064 0.2357254 38.57641602 0.25219727 C40.05936913 0.26815697 40.05936913 0.26815697 41.57228088 0.28443909 C44.26963878 0.56762738 45.90133626 1.12165703 48.18359375 2.55859375 C50.05761636 5.05729057 50.18665493 6.41165715 50.12109375 9.55859375 C48.85630144 13.60592914 47.89864242 14.43990754 44.18359375 16.55859375 C39.92680777 17.17587331 35.69766851 17.14267527 31.40234375 17.125 C30.15610229 17.13119858 28.90986084 17.13739716 27.62585449 17.14378357 C24.31986187 17.15269722 21.01461254 17.14158171 17.7086792 17.12469482 C15.68516443 17.12109654 13.6625657 17.13502972 11.63916016 17.15551758 C7.74728496 17.19234995 3.85685955 17.19503255 -0.03515625 17.1875 C-1.24046997 17.20075821 -2.44578369 17.21401642 -3.68762207 17.22767639 C-12.98154183 17.12410639 -12.98154183 17.12410639 -16.07617188 14.20678711 C-17.81640625 11.55859375 -17.81640625 11.55859375 -18.44140625 8.55859375 C-17.79930231 5.47649483 -16.99424759 3.76946745 -14.69729614 1.60397339 C-10.3251419 -0.82602586 -4.85571911 -0.0784835 0 0 Z " fill="#010100" transform="translate(204.81640625,151.44140625)"/>
<path d="M0 0 C7.92 0 15.84 0 24 0 C24 13.2 24 26.4 24 40 C15 40 15 40 0 38 C0 25.46 0 12.92 0 0 Z " fill="#987E60" transform="translate(408,232)"/>
<path d="M0 0 C4.1084369 0.40598718 6.83043532 1.096554 9.63574219 4.22485352 C12.37043821 8.10350064 14.80999364 12.12699978 14.47949219 16.99438477 C14.20621094 17.80907227 13.93292969 18.62375977 13.65136719 19.46313477 C13.32265625 20.49051758 12.99394531 21.51790039 12.65527344 22.57641602 C9.07069091 30.53244065 9.07069091 30.53244065 4.68652344 32.21899414 C-0.67971305 33.3742911 -6.17814056 33.44978364 -11.34863281 31.46313477 C-15.60924231 28.22922449 -17.84833284 23.51012087 -19.34863281 18.46313477 C-19.03650947 12.90166426 -17.08635273 8.36565489 -14.03613281 3.75219727 C-9.73068418 0.08505642 -5.51547927 -0.08432942 0 0 Z " fill="#F6E0CC" transform="translate(258.3486328125,56.536865234375)"/>
<path d="M0 0 C7.92 0 15.84 0 24 0 C24 36.96 24 73.92 24 112 C23.67 112 23.34 112 23 112 C23 83.62 23 55.24 23 26 C20.36 26 17.72 26 15 26 C9.97864646 25.59657501 4.9821622 24.71173746 0 24 C0 16.08 0 8.16 0 0 Z " fill="#92795D" transform="translate(299,232)"/>
<path d="M0 0 C13.2 0 26.4 0 40 0 C40 5.28 40 10.56 40 16 C26.8 16 13.6 16 0 16 C0 10.72 0 5.44 0 0 Z " fill="#D1B790" transform="translate(400,360)"/>
<path d="M0 0 C13.2 0 26.4 0 40 0 C40 5.28 40 10.56 40 16 C26.8 16 13.6 16 0 16 C0 10.72 0 5.44 0 0 Z " fill="#D0B68F" transform="translate(291,360)"/>
<path d="M0 0 C13.2 0 26.4 0 40 0 C40 5.28 40 10.56 40 16 C26.8 16 13.6 16 0 16 C0 10.72 0 5.44 0 0 Z " fill="#D0B68F" transform="translate(181,360)"/>
<path d="M0 0 C13.2 0 26.4 0 40 0 C40 5.28 40 10.56 40 16 C26.8 16 13.6 16 0 16 C0 10.72 0 5.44 0 0 Z " fill="#D1B790" transform="translate(72,360)"/>
<path d="M0 0 C13.2 0 26.4 0 40 0 C40 5.28 40 10.56 40 16 C26.8 16 13.6 16 0 16 C0 10.72 0 5.44 0 0 Z " fill="#977D5F" transform="translate(400,200)"/>
<path d="M0 0 C13.2 0 26.4 0 40 0 C40 5.28 40 10.56 40 16 C26.8 16 13.6 16 0 16 C0 10.72 0 5.44 0 0 Z " fill="#967C5F" transform="translate(291,200)"/>
<path d="M0 0 C13.2 0 26.4 0 40 0 C40 5.28 40 10.56 40 16 C26.8 16 13.6 16 0 16 C0 10.72 0 5.44 0 0 Z " fill="#967C5F" transform="translate(181,200)"/>
<path d="M0 0 C13.2 0 26.4 0 40 0 C40 5.28 40 10.56 40 16 C26.8 16 13.6 16 0 16 C0 10.72 0 5.44 0 0 Z " fill="#977E60" transform="translate(72,200)"/>
<path d="M0 0 C1.83691406 -0.00773438 1.83691406 -0.00773438 3.7109375 -0.015625 C5.61746094 0.00757813 5.61746094 0.00757813 7.5625 0.03125 C8.83351563 0.01578125 10.10453125 0.0003125 11.4140625 -0.015625 C12.63867188 -0.01046875 13.86328125 -0.0053125 15.125 0 C16.79755859 0.00676758 16.79755859 0.00676758 18.50390625 0.01367188 C22.21456754 0.64159348 23.89667575 1.92444994 26.5625 4.53125 C27.2265625 6.53125 27.2265625 6.53125 27.1875 8.53125 C27.20039063 9.19125 27.21328125 9.85125 27.2265625 10.53125 C26.18856721 13.65744758 24.26104228 14.72922804 21.5625 16.53125 C16.92648766 17.33981377 12.26147792 17.13425843 7.5625 17.09375 C6.29148437 17.11759766 5.02046875 17.14144531 3.7109375 17.16601562 C-6.64928961 17.14965737 -6.64928961 17.14965737 -9.7734375 14.21875 C-11.97962255 10.65570936 -12.18546143 8.64503785 -11.4375 4.53125 C-7.75915462 0.77557194 -5.18688762 0.02098741 0 0 Z " fill="#010101" transform="translate(305.4375,151.46875)"/>
<path d="M0 0 C1.2694043 -0.01063477 1.2694043 -0.01063477 2.56445312 -0.02148438 C7.34967288 0.02722969 10.70403645 0.30010121 14.5625 3.4375 C15.96707737 6.24665474 15.81145157 8.32560534 15.5625 11.4375 C13.78265595 14.5734157 13.03941793 15.27852736 9.5625 16.4375 C6.44311368 16.76219872 3.32166226 16.80676373 0.1875 16.875 C-1.08867187 16.94364258 -1.08867187 16.94364258 -2.390625 17.01367188 C-8.50264887 17.12315517 -8.50264887 17.12315517 -11.15112305 15.18066406 C-13.48812276 12.52087889 -14.42869752 10.87762405 -14.5 7.3125 C-11.72466673 -0.19722532 -7.1618444 -0.16832235 0 0 Z " fill="#030202" transform="translate(171.4375,415.5625)"/>
<path d="M0 0 C7.92 0 15.84 0 24 0 C24 3.96 24 7.92 24 12 C15.97914107 12.327382 9.29502686 11.10600358 1 10 C1 20.23 1 30.46 1 41 C0.67 41 0.34 41 0 41 C0 27.47 0 13.94 0 0 Z " fill="#937A5E" transform="translate(189,232)"/>
<path d="M0 0 C7.92 0 15.84 0 24 0 C24 1.98 24 3.96 24 6 C18.39258264 6.10103455 13.05193239 5.76082036 7.5 5 C6.40945312 4.85691406 6.40945312 4.85691406 5.296875 4.7109375 C3.53064133 4.47853833 1.76522594 4.23993362 0 4 C0 2.68 0 1.36 0 0 Z " fill="#987E61" transform="translate(80,232)"/>
</svg>
