<?xml version="1.0" encoding="UTF-8"?>
<svg version="1.1" xmlns="http://www.w3.org/2000/svg" width="512" height="512">
<path d="M0 0 C5.28416372 3.77343775 8.82244071 8.17573831 12.25 13.625 C13.29390341 15.23545841 14.33960102 16.84475468 15.38671875 18.453125 C15.95825684 19.33548828 16.52979492 20.21785156 17.11865234 21.12695312 C20.30463679 25.99233918 23.58252237 30.795483 26.85565186 35.60244751 C28.48051334 37.98895512 30.10285112 40.37717385 31.72528076 42.76533508 C32.55428894 43.98554948 33.38343205 45.20567221 34.21270752 46.42570496 C37.18829226 50.80355805 40.15954809 55.184328 43.12890625 59.56640625 C44.38944777 61.42614592 45.65002953 63.2858583 46.91061401 65.14556885 C47.70290639 66.31466452 48.49500919 67.48388869 49.28689575 68.65325928 C50.40159745 70.29919657 51.51719823 71.94452486 52.6328125 73.58984375 C53.34211914 74.63640137 54.05142578 75.68295898 54.78222656 76.76123047 C56.35863352 79.06336771 57.94641626 81.35300356 59.55371094 83.63330078 C60.1809053 84.52644737 60.1809053 84.52644737 60.82077026 85.43763733 C61.99117293 87.10113287 63.16706249 88.76076396 64.34326172 90.42016602 C66 93 66 93 66 95 C66.66 95 67.32 95 68 95 C68.2693335 94.26587891 68.53866699 93.53175781 68.81616211 92.77539062 C69.96360249 90.08533035 71.250136 87.97030121 72.94140625 85.59375 C73.52059814 84.77342285 74.09979004 83.9530957 74.6965332 83.10791016 C75.31230225 82.2472998 75.92807129 81.38668945 76.5625 80.5 C77.83932723 78.7062881 79.11536878 76.91201666 80.390625 75.1171875 C81.01130859 74.24416992 81.63199219 73.37115234 82.27148438 72.47167969 C83.76138051 70.34121239 85.20106678 68.19261169 86.609375 66.0078125 C91.13499507 59.01863352 95.72966987 52.99453841 103.96484375 50.375 C110.84773521 49.10675129 117.85755018 49.45720906 124 53 C129.59354046 57.00314407 132.9321872 61.85593731 136.6875 67.5625 C138.01934231 69.55090782 139.35138306 71.53918273 140.68359375 73.52734375 C141.38468262 74.58034668 142.08577148 75.63334961 142.80810547 76.71826172 C146.19457746 81.78853978 149.62675603 86.82750771 153.05606079 91.86886597 C155.07639669 94.84052533 157.09274851 97.81488519 159.109375 100.7890625 C163.51058446 107.27885338 167.91333736 113.7675959 172.31652832 120.25604248 C174.29441811 123.17065027 176.27220371 126.08532876 178.25 129 C179.04166617 130.166667 179.83333284 131.33333367 180.625 132.5 C185.37500002 139.50000002 185.37500002 139.50000002 186.56227112 141.24966431 C187.35469873 142.4174513 188.14712834 143.58523694 188.93955994 144.75302124 C190.90710034 147.65253586 192.87460717 150.55207323 194.84204102 153.45166016 C198.54308661 158.90615186 202.24448027 164.36040648 205.94699097 169.81390381 C207.69086036 172.38252386 209.4345484 174.95126701 211.17822266 177.52001953 C212.00739639 178.7414352 212.83665843 179.96279093 213.66601562 181.18408203 C214.81793398 182.88038079 215.9695443 184.5768883 217.12109375 186.2734375 C217.7752124 187.23685059 218.42933105 188.20026367 219.10327148 189.19287109 C221.08137956 192.12044049 223.04308335 195.05823698 225 198 C225.79921875 197.90460938 226.5984375 197.80921875 227.421875 197.7109375 C238.53021487 196.58967315 248.28942939 197.13701397 258 203 C268.71922493 224.43844986 253.59101599 268.6483207 246.6875 289.8125 C231.8300881 333.64040972 203.17047278 376.06172527 166 404 C165.37464355 404.47469727 164.74928711 404.94939453 164.10498047 405.43847656 C133.13220938 428.83365548 99.02984637 444.97529816 61 453 C59.54037842 453.31759277 59.54037842 453.31759277 58.05126953 453.64160156 C27.0735801 460.10446221 -8.11485583 459.7201655 -39 453 C-40.52343018 452.67854004 -40.52343018 452.67854004 -42.07763672 452.35058594 C-79.94692947 444.17067582 -114.81846122 427.2534549 -145 403 C-145.58797363 402.52771973 -146.17594727 402.05543945 -146.78173828 401.56884766 C-160.42220287 390.48858166 -173.43626903 378.0728533 -184 364 C-184.49064941 363.34805664 -184.98129883 362.69611328 -185.48681641 362.02441406 C-192.96495143 352.03411059 -199.88161482 341.87618633 -206 331 C-206.36013184 330.37399902 -206.72026367 329.74799805 -207.09130859 329.10302734 C-222.63276516 301.95856178 -231.65856272 271.86524314 -236 241 C-236.1023999 240.28497314 -236.2047998 239.56994629 -236.31030273 238.83325195 C-237.18732785 231.97070769 -237.25655867 225.09811954 -237.3125 218.1875 C-237.35600586 216.36702148 -237.35600586 216.36702148 -237.40039062 214.50976562 C-237.41295898 212.76276367 -237.41295898 212.76276367 -237.42578125 210.98046875 C-237.44765503 209.40108521 -237.44765503 209.40108521 -237.4699707 207.78979492 C-236.87551207 204.26102671 -235.79684795 203.17108035 -233 201 C-227.17516836 198.03994303 -221.06183835 197.47887904 -214.625 197.5625 C-213.79355469 197.57079834 -212.96210938 197.57909668 -212.10546875 197.58764648 C-201.51056223 197.87793205 -194.17415368 201.58559065 -185.44140625 207.38671875 C-181.10331799 210.25332747 -177.15982128 212.24120275 -172 213 C-171.76152344 212.31035156 -171.52304688 211.62070312 -171.27734375 210.91015625 C-169.75740627 207.44730175 -167.73816974 204.50718103 -165.5625 201.4375 C-164.57825462 200.02816184 -163.59528885 198.61792958 -162.61328125 197.20703125 C-162.05334473 196.40346191 -161.4934082 195.59989258 -160.91650391 194.77197266 C-156.56953026 188.48464287 -152.30456145 182.14083801 -148.02200317 175.80953979 C-146.83304337 174.05226195 -145.64312402 172.29563671 -144.453125 170.5390625 C-143.76379883 169.52021973 -143.07447266 168.50137695 -142.36425781 167.45166016 C-139.28887719 162.93588271 -136.13975864 158.47112058 -133 154 C-133.87981537 153.99635437 -134.75963074 153.99270874 -135.66610718 153.98895264 C-143.99255197 153.95095043 -152.31860994 153.89395981 -160.64478111 153.81609726 C-164.92449767 153.77673274 -169.20401187 153.74449063 -173.48388672 153.72900391 C-177.62090079 153.71376408 -181.75735812 153.67919062 -185.89412308 153.63169098 C-187.46556358 153.61695218 -189.0370836 153.60896333 -190.60859299 153.60811615 C-201.76645898 153.59606116 -211.82478006 152.80790572 -220.3984375 144.84375 C-228.43452116 135.59245368 -229.73081741 126.77315597 -229.18359375 114.953125 C-228.51217039 107.81032328 -224.97112491 101.97112491 -220 97 C-218.989375 96.46375 -217.97875 95.9275 -216.9375 95.375 C-213.56579908 92.64894394 -213.2630293 91.37069948 -212.0625 87.3125 C-209.47938884 78.59582859 -204.93404294 72.5995729 -197.08984375 67.97265625 C-191.65685674 65.44403239 -186.89297527 64.70684731 -180.9375 64.8125 C-180.24333984 64.81314453 -179.54917969 64.81378906 -178.83398438 64.81445312 C-175.87200489 64.83976919 -173.2084628 64.94367525 -170.33984375 65.71875 C-166.89150796 66.13324111 -165.3995474 64.67102314 -162.625 62.6875 C-153.28200445 56.0504729 -143.04555609 56.01239139 -132 57 C-121.20474132 59.13350083 -112.95379999 65.8099528 -106.5078125 74.51953125 C-103.78585747 78.99735883 -101 84.66071413 -101 90 C-100.0925 90.144375 -99.185 90.28875 -98.25 90.4375 C-95.78202269 90.86464992 -93.41933984 91.3741273 -91 92 C-90.52473877 91.28457031 -90.04947754 90.56914062 -89.55981445 89.83203125 C-84.47719221 82.19296551 -79.34517719 74.58864076 -74.1875 67 C-73.36241767 65.78527144 -72.53738628 64.57050828 -71.71240234 63.35571289 C-70.43204168 61.4703989 -69.15163686 59.58511505 -67.87103271 57.69996643 C-64.49978831 52.73707276 -61.13161777 47.77210135 -57.76568604 42.80560303 C-55.75661573 39.84160982 -53.74561623 36.87896676 -51.72998047 33.91943359 C-48.18496184 28.71216447 -44.65689342 23.49646225 -41.19921875 18.23046875 C-40.62091309 17.35914307 -40.04260742 16.48781738 -39.44677734 15.59008789 C-38.40580322 14.01991823 -37.37500938 12.44291702 -36.35791016 10.85717773 C-28.01034412 -1.65253303 -13.92780201 -7.41417528 0 0 Z " fill="#86A9FE" transform="translate(245,55)"/>
<path d="M0 0 C5.28416372 3.77343775 8.82244071 8.17573831 12.25 13.625 C13.29390341 15.23545841 14.33960102 16.84475468 15.38671875 18.453125 C15.95825684 19.33548828 16.52979492 20.21785156 17.11865234 21.12695312 C20.30463679 25.99233918 23.58252237 30.795483 26.85565186 35.60244751 C28.48051334 37.98895512 30.10285112 40.37717385 31.72528076 42.76533508 C32.55428894 43.98554948 33.38343205 45.20567221 34.21270752 46.42570496 C37.18829226 50.80355805 40.15954809 55.184328 43.12890625 59.56640625 C44.38944777 61.42614592 45.65002953 63.2858583 46.91061401 65.14556885 C47.70290639 66.31466452 48.49500919 67.48388869 49.28689575 68.65325928 C50.40159745 70.29919657 51.51719823 71.94452486 52.6328125 73.58984375 C53.34211914 74.63640137 54.05142578 75.68295898 54.78222656 76.76123047 C56.35863352 79.06336771 57.94641626 81.35300356 59.55371094 83.63330078 C60.1809053 84.52644737 60.1809053 84.52644737 60.82077026 85.43763733 C61.99117293 87.10113287 63.16706249 88.76076396 64.34326172 90.42016602 C66 93 66 93 66 95 C66.66 95 67.32 95 68 95 C68.2693335 94.26587891 68.53866699 93.53175781 68.81616211 92.77539062 C69.96360249 90.08533035 71.250136 87.97030121 72.94140625 85.59375 C73.52059814 84.77342285 74.09979004 83.9530957 74.6965332 83.10791016 C75.31230225 82.2472998 75.92807129 81.38668945 76.5625 80.5 C77.83932723 78.7062881 79.11536878 76.91201666 80.390625 75.1171875 C81.01130859 74.24416992 81.63199219 73.37115234 82.27148438 72.47167969 C83.76138051 70.34121239 85.20106678 68.19261169 86.609375 66.0078125 C91.13499507 59.01863352 95.72966987 52.99453841 103.96484375 50.375 C110.84773521 49.10675129 117.85755018 49.45720906 124 53 C129.59354046 57.00314407 132.9321872 61.85593731 136.6875 67.5625 C138.01934231 69.55090782 139.35138306 71.53918273 140.68359375 73.52734375 C141.38468262 74.58034668 142.08577148 75.63334961 142.80810547 76.71826172 C146.19457746 81.78853978 149.62675603 86.82750771 153.05606079 91.86886597 C155.07639669 94.84052533 157.09274851 97.81488519 159.109375 100.7890625 C163.51058446 107.27885338 167.91333736 113.7675959 172.31652832 120.25604248 C174.29441811 123.17065027 176.27220371 126.08532876 178.25 129 C179.04166617 130.166667 179.83333284 131.33333367 180.625 132.5 C185.37500002 139.50000002 185.37500002 139.50000002 186.56227112 141.24966431 C187.35469873 142.4174513 188.14712834 143.58523694 188.93955994 144.75302124 C190.90710034 147.65253586 192.87460717 150.55207323 194.84204102 153.45166016 C198.54308661 158.90615186 202.24448027 164.36040648 205.94699097 169.81390381 C207.69086036 172.38252386 209.4345484 174.95126701 211.17822266 177.52001953 C212.00739639 178.7414352 212.83665843 179.96279093 213.66601562 181.18408203 C214.81793398 182.88038079 215.9695443 184.5768883 217.12109375 186.2734375 C217.7752124 187.23685059 218.42933105 188.20026367 219.10327148 189.19287109 C221.08137956 192.12044049 223.04308335 195.05823698 225 198 C225.79921875 197.90460938 226.5984375 197.80921875 227.421875 197.7109375 C238.53021487 196.58967315 248.28942939 197.13701397 258 203 C268.71922493 224.43844986 253.59101599 268.6483207 246.6875 289.8125 C231.8300881 333.64040972 203.17047278 376.06172527 166 404 C165.37464355 404.47469727 164.74928711 404.94939453 164.10498047 405.43847656 C133.13220938 428.83365548 99.02984637 444.97529816 61 453 C59.54037842 453.31759277 59.54037842 453.31759277 58.05126953 453.64160156 C27.0735801 460.10446221 -8.11485583 459.7201655 -39 453 C-40.52343018 452.67854004 -40.52343018 452.67854004 -42.07763672 452.35058594 C-79.94692947 444.17067582 -114.81846122 427.2534549 -145 403 C-145.58797363 402.52771973 -146.17594727 402.05543945 -146.78173828 401.56884766 C-160.42220287 390.48858166 -173.43626903 378.0728533 -184 364 C-184.49064941 363.34805664 -184.98129883 362.69611328 -185.48681641 362.02441406 C-192.96495143 352.03411059 -199.88161482 341.87618633 -206 331 C-206.36013184 330.37399902 -206.72026367 329.74799805 -207.09130859 329.10302734 C-222.63276516 301.95856178 -231.65856272 271.86524314 -236 241 C-236.1023999 240.28497314 -236.2047998 239.56994629 -236.31030273 238.83325195 C-237.18732785 231.97070769 -237.25655867 225.09811954 -237.3125 218.1875 C-237.35600586 216.36702148 -237.35600586 216.36702148 -237.40039062 214.50976562 C-237.41295898 212.76276367 -237.41295898 212.76276367 -237.42578125 210.98046875 C-237.44765503 209.40108521 -237.44765503 209.40108521 -237.4699707 207.78979492 C-236.87551207 204.26102671 -235.79684795 203.17108035 -233 201 C-227.17516836 198.03994303 -221.06183835 197.47887904 -214.625 197.5625 C-213.79355469 197.57079834 -212.96210938 197.57909668 -212.10546875 197.58764648 C-201.51056223 197.87793205 -194.17415368 201.58559065 -185.44140625 207.38671875 C-181.10331799 210.25332747 -177.15982128 212.24120275 -172 213 C-171.76152344 212.31035156 -171.52304688 211.62070312 -171.27734375 210.91015625 C-169.75740627 207.44730175 -167.73816974 204.50718103 -165.5625 201.4375 C-164.57825462 200.02816184 -163.59528885 198.61792958 -162.61328125 197.20703125 C-162.05334473 196.40346191 -161.4934082 195.59989258 -160.91650391 194.77197266 C-156.56953026 188.48464287 -152.30456145 182.14083801 -148.02200317 175.80953979 C-146.83304337 174.05226195 -145.64312402 172.29563671 -144.453125 170.5390625 C-143.76379883 169.52021973 -143.07447266 168.50137695 -142.36425781 167.45166016 C-139.28887719 162.93588271 -136.13975864 158.47112058 -133 154 C-133.87981537 153.99635437 -134.75963074 153.99270874 -135.66610718 153.98895264 C-143.99255197 153.95095043 -152.31860994 153.89395981 -160.64478111 153.81609726 C-164.92449767 153.77673274 -169.20401187 153.74449063 -173.48388672 153.72900391 C-177.62090079 153.71376408 -181.75735812 153.67919062 -185.89412308 153.63169098 C-187.46556358 153.61695218 -189.0370836 153.60896333 -190.60859299 153.60811615 C-201.76645898 153.59606116 -211.82478006 152.80790572 -220.3984375 144.84375 C-228.43452116 135.59245368 -229.73081741 126.77315597 -229.18359375 114.953125 C-228.51217039 107.81032328 -224.97112491 101.97112491 -220 97 C-218.989375 96.46375 -217.97875 95.9275 -216.9375 95.375 C-213.56579908 92.64894394 -213.2630293 91.37069948 -212.0625 87.3125 C-209.47938884 78.59582859 -204.93404294 72.5995729 -197.08984375 67.97265625 C-191.65685674 65.44403239 -186.89297527 64.70684731 -180.9375 64.8125 C-180.24333984 64.81314453 -179.54917969 64.81378906 -178.83398438 64.81445312 C-175.87200489 64.83976919 -173.2084628 64.94367525 -170.33984375 65.71875 C-166.89150796 66.13324111 -165.3995474 64.67102314 -162.625 62.6875 C-153.28200445 56.0504729 -143.04555609 56.01239139 -132 57 C-121.20474132 59.13350083 -112.95379999 65.8099528 -106.5078125 74.51953125 C-103.78585747 78.99735883 -101 84.66071413 -101 90 C-100.0925 90.144375 -99.185 90.28875 -98.25 90.4375 C-95.78202269 90.86464992 -93.41933984 91.3741273 -91 92 C-90.52473877 91.28457031 -90.04947754 90.56914062 -89.55981445 89.83203125 C-84.47719221 82.19296551 -79.34517719 74.58864076 -74.1875 67 C-73.36241767 65.78527144 -72.53738628 64.57050828 -71.71240234 63.35571289 C-70.43204168 61.4703989 -69.15163686 59.58511505 -67.87103271 57.69996643 C-64.49978831 52.73707276 -61.13161777 47.77210135 -57.76568604 42.80560303 C-55.75661573 39.84160982 -53.74561623 36.87896676 -51.72998047 33.91943359 C-48.18496184 28.71216447 -44.65689342 23.49646225 -41.19921875 18.23046875 C-40.62091309 17.35914307 -40.04260742 16.48781738 -39.44677734 15.59008789 C-38.40580322 14.01991823 -37.37500938 12.44291702 -36.35791016 10.85717773 C-28.01034412 -1.65253303 -13.92780201 -7.41417528 0 0 Z M-221 214 C-221.32390485 223.27827452 -220.52464721 232.17052678 -219.08349609 241.31079102 C-218.7511878 243.42992538 -218.43908192 245.55135436 -218.12890625 247.67382812 C-216.76914083 256.69044259 -214.70100944 265.27578668 -212 274 C-211.60735962 275.36282104 -211.60735962 275.36282104 -211.20678711 276.75317383 C-203.42683346 303.7489592 -189.6740143 329.2529528 -172.35498047 351.27050781 C-171.19848515 352.74665427 -170.0672281 354.24251589 -168.94140625 355.7421875 C-157.88544214 370.0237347 -144.27311561 383.22993615 -129.64013672 393.81298828 C-127.95514622 395.0324619 -126.29189054 396.2780705 -124.62890625 397.52734375 C-85.34676416 426.70035826 -37.27456729 441.17827699 11.375 441.3125 C12.12496246 441.31626648 12.87492493 441.32003296 13.64761353 441.32391357 C24.56709992 441.35174994 35.1877596 440.50320334 46 439 C46.86753906 438.88599854 47.73507812 438.77199707 48.62890625 438.65454102 C60.86926045 436.922073 72.54604006 433.09797176 84.25 429.25 C85.38823715 428.88107635 85.38823715 428.88107635 86.54946899 428.50469971 C96.90053938 425.12842933 106.56075132 421.03835093 116.18670654 415.95098877 C118.09685509 414.94920397 120.01975656 413.97622527 121.94750977 413.00878906 C140.58804113 403.61484797 156.92731997 390.31904603 172 376 C172.58974609 375.44425293 173.17949219 374.88850586 173.78710938 374.31591797 C201.40088424 348.13520781 220.29443062 315.3727283 232.375 279.5 C232.69670166 278.54609375 233.01840332 277.5921875 233.34985352 276.609375 C237.1595193 264.94372118 239.46630593 253.1354228 241.1875 241 C241.45336914 239.24816406 241.45336914 239.24816406 241.72460938 237.4609375 C242.85466985 229.58978267 243.21535473 221.94749719 243 214 C231.03067366 213.15441896 223.7594806 216.1902863 213.875 222.6875 C203.9786305 228.91036926 192.3838722 229.30237097 181 228 C173.34875963 226.08292975 166.94247218 221.95181743 160.47265625 217.55078125 C153.60750336 213.24514824 146.94148711 213.15719447 139 214 C133.60921432 215.73968568 129.26243965 218.80534188 124.6875 222.0625 C115.22669399 228.48588935 104.23830923 230.28213539 93 229 C86.21507583 227.43357133 80.71674027 224.44966441 75.06640625 220.45703125 C66.76410693 214.60304704 60.10549701 213.30802152 50 214 C44.97890569 214.96695986 41.38595142 217.37385361 37.3125 220.375 C26.54595035 228.09348537 15.94345603 230.41298284 3 229 C-6.11088067 227.03195716 -13.36990015 221.74975582 -21.01171875 216.66015625 C-27.66471286 212.74088718 -35.33274184 212.86180862 -42.70703125 214.66015625 C-47.27725629 216.32271056 -50.92861267 218.59645079 -54.8125 221.5 C-64.36694625 228.43107255 -75.39179883 230.31388041 -87 229 C-96.10367417 226.95681151 -103.35833282 221.75745989 -111.01171875 216.66015625 C-117.68298101 212.73012544 -125.39311326 212.84665845 -132.77734375 214.6953125 C-137.84856532 216.55502087 -141.7375866 219.18363152 -145.921875 222.54296875 C-155.79259251 229.4636034 -168.2189186 230.32567572 -179.8203125 228.57421875 C-185.69030028 227.03594221 -190.37246615 224.07163387 -195.3828125 220.71484375 C-203.03497661 215.70096309 -209.20569674 213.87317953 -218.2980957 213.97094727 C-219.18972412 213.98053467 -220.08135254 213.99012207 -221 214 Z " fill="#010101" transform="translate(245,55)"/>
<path d="M0 0 C0.23693533 9.09004289 -0.38964323 17.76515853 -1.75 26.75 C-2.02614136 28.59621948 -2.02614136 28.59621948 -2.30786133 30.47973633 C-5.14393894 48.91363457 -10.28031567 65.5820282 -17 83 C-17.29777344 83.77263184 -17.59554688 84.54526367 -17.90234375 85.34130859 C-24.75812889 102.78009699 -34.57121519 119.18710748 -46 134 C-46.45358887 134.60021973 -46.90717773 135.20043945 -47.37451172 135.81884766 C-59.87712074 152.28040335 -74.57284038 167.67223003 -91.35546875 179.80859375 C-93.05489013 181.03976601 -94.7306622 182.2991297 -96.40625 183.5625 C-104.84549078 189.84663522 -113.71187123 195.07628095 -123 200 C-123.64694824 200.34804688 -124.29389648 200.69609375 -124.96044922 201.0546875 C-157.6493157 218.54573801 -194.63839966 227.48946462 -231.625 227.3125 C-232.79322296 227.31026428 -232.79322296 227.31026428 -233.98504639 227.3079834 C-247.1802025 227.26285563 -260.00096239 226.3848774 -273 224 C-274.09610596 223.8151001 -274.09610596 223.8151001 -275.21435547 223.62646484 C-320.04254059 215.93368876 -361.8698212 192.77547582 -394 161 C-394.49838379 160.50999512 -394.99676758 160.01999023 -395.51025391 159.51513672 C-398.03058589 157.03305745 -400.52904355 154.53122368 -403 152 C-399.30250113 152 -398.37277085 152.95656517 -395.4453125 155.13671875 C-358.39321755 181.81610453 -310.22058641 194.52815907 -264.9375 194.3125 C-264.13529022 194.31067719 -263.33308044 194.30885437 -262.50656128 194.30697632 C-248.83391309 194.2549852 -235.47300564 193.47936492 -222 191 C-220.64044189 190.75056641 -220.64044189 190.75056641 -219.25341797 190.49609375 C-192.41888428 185.36393572 -166.68413981 175.59706064 -143 162 C-143 161.34 -143 160.68 -143 160 C-144.55855981 158.64287834 -144.55855981 158.64287834 -146.5 157.375 C-147.47453125 156.70597656 -147.47453125 156.70597656 -148.46875 156.0234375 C-148.9740625 155.68570313 -149.479375 155.34796875 -150 155 C-153.03602724 156.38307908 -155.33954804 158.03187255 -157.875 160.1875 C-163.75725269 164.82934356 -170.20033502 167.96485543 -177 171 C-177.79792969 171.36480469 -178.59585938 171.72960937 -179.41796875 172.10546875 C-190.0039688 176.09629709 -205.2802224 175.8594207 -215.56640625 171.25390625 C-216.36949219 170.84011719 -217.17257812 170.42632812 -218 170 C-219.34384766 169.36384766 -219.34384766 169.36384766 -220.71484375 168.71484375 C-230.10878875 163.98493315 -243.12736878 155.74526244 -248 146 C-248.60105815 142.84444469 -248.54767566 140.83095618 -246.75390625 138.109375 C-244.92571562 135.96452317 -243.00767583 133.97782192 -241 132 C-240.02160156 131.00613281 -240.02160156 131.00613281 -239.0234375 129.9921875 C-232.76693499 124.01687611 -225.64378781 119.90836209 -218 116 C-216.69289063 115.31164062 -216.69289063 115.31164062 -215.359375 114.609375 C-204.33568872 109.68684842 -190.31977062 110.54545193 -179 114.0625 C-168.74847618 118.01395598 -159.89753565 123.35797285 -152 131 C-148.44404805 129.71984177 -145.73475121 128.2373893 -142.78515625 125.8828125 C-141.63176758 124.97208984 -141.63176758 124.97208984 -140.45507812 124.04296875 C-139.66552734 123.41003906 -138.87597656 122.77710938 -138.0625 122.125 C-124.34947201 111.21307453 -124.34947201 111.21307453 -119.4375 110.4375 C-114.86117889 111.18635254 -113.77306346 112.27825693 -111 116 C-108.08476788 121.41870829 -105.50340153 126.79138116 -105 133 C-94.47464275 126.35808349 -86.63410157 116.68794615 -79 107 C-78.11728183 105.91812997 -77.23310865 104.83744585 -76.34765625 103.7578125 C-69.94997949 95.88887333 -64.36164386 87.71679377 -59.18652344 78.99707031 C-58.41604522 77.70025719 -57.63843341 76.40764623 -56.85253906 75.12011719 C-45.60308267 56.67022816 -34.90285395 33.85200774 -31.59301758 12.35693359 C-30.81498472 9.26466137 -29.19452967 8.40702043 -26.53515625 6.81445312 C-25.94605469 6.48380859 -25.35695313 6.15316406 -24.75 5.8125 C-24.17636719 5.47025391 -23.60273438 5.12800781 -23.01171875 4.77539062 C-14.97191469 0.05956022 -9.18460185 -0.18554751 0 0 Z " fill="#7E8BEE" transform="translate(488,269)"/>
<path d="M0 0 C3.84774864 1.28258288 4.88856664 3.07619086 7.375 6.25 C8.89560663 8.18341736 10.43759599 10.10019977 12 12 C13.16402344 13.41539062 13.16402344 13.41539062 14.3515625 14.859375 C16.87220976 17.19830272 16.87220976 17.19830272 20.1484375 17.81640625 C26.13699212 16.54702703 29.99413287 12.79979884 34.625 8.9375 C36.46006747 7.41210016 38.30602909 5.89968443 40.1640625 4.40234375 C41.37763428 3.38901978 41.37763428 3.38901978 42.61572266 2.35522461 C45 1 45 1 47.51367188 1.07617188 C50.36351411 2.13506848 52.25821757 3.46264576 54.6171875 5.37890625 C55.47183594 6.05244141 56.32648438 6.72597656 57.20703125 7.41992188 C58.9828455 8.84603332 60.7537163 10.2783228 62.51953125 11.71679688 C66.33506242 14.70897658 69.01686725 16.79995561 73.8203125 17.77734375 C77.94155271 16.76981697 79.30905552 15.25283827 82 12 C82.43650879 11.49259277 82.87301758 10.98518555 83.32275391 10.46240234 C84.67477047 8.88789587 85.9964334 7.29212639 87.3125 5.6875 C87.76689453 5.13771484 88.22128906 4.58792969 88.68945312 4.02148438 C89.79525852 2.68287784 90.89795939 1.34170769 92 0 C95.8780331 1.2926777 96.91480922 3.5129792 99 6.8125 C99.89543372 8.19121087 100.79273321 9.5687109 101.69140625 10.9453125 C102.20590332 11.73583008 102.72040039 12.52634766 103.25048828 13.34082031 C106.35662131 18.06200382 109.54302276 22.72904367 112.72216797 27.4012146 C114.37266851 29.82710723 116.0209894 32.25447793 117.66946411 34.68174744 C118.9393925 36.55150644 120.20965932 38.42103516 121.47998047 40.29052734 C125.09627181 45.61306636 128.70884677 50.93812657 132.32156372 56.26309204 C134.29754372 59.17550695 136.27378561 62.08774414 138.25 65 C139.04166791 66.16666582 139.83333458 67.33333249 140.625 68.5 C141.2128125 69.36625 141.2128125 69.36625 141.8125 70.25 C154.875 89.5 167.9375 108.75 181 128 C178.67118402 133.2261692 175.02455501 135.221325 169.75 137.25 C160.95727041 139.00854592 153.95160165 138.27492063 146 134 C144.35573478 132.8606458 142.73087116 131.69285956 141.125 130.5 C130.27035613 122.66240776 118.11014101 121.45097703 105.14453125 123.4375 C98.29622795 125.17951674 92.79773065 129.09631326 87 133 C79.51534415 137.64325872 72.79911699 139.32278541 63.9921875 137.609375 C59.56149002 136.16337331 56.05682782 133.71739161 52.25 131.0625 C40.63959083 123.18193478 28.87868157 121.33322526 15.14453125 123.4375 C8.29622795 125.17951674 2.79773065 129.09631326 -3 133 C-10.37495584 137.57520409 -16.31755712 138.82915553 -25 138 C-31.44817417 136.20704035 -36.9371787 132.22885293 -42.48828125 128.61328125 C-52.29751488 122.31279371 -62.61757543 121.93982284 -74 123 C-77.88741157 123.95928583 -81.41224633 125.22983079 -85 127 C-83.70567394 123.481959 -82.18093159 120.55275182 -80.05078125 117.47265625 C-79.45668457 116.60793701 -78.86258789 115.74321777 -78.25048828 114.85229492 C-77.61095215 113.9316626 -76.97141602 113.01103027 -76.3125 112.0625 C-74.96205439 110.10169003 -73.6117999 108.14074843 -72.26171875 106.1796875 C-71.56353027 105.16874023 -70.8653418 104.15779297 -70.14599609 103.11621094 C-65.95448213 97.02969395 -61.81234924 90.90937323 -57.66137695 84.79516602 C-57.06413818 83.91787842 -56.46689941 83.04059082 -55.8515625 82.13671875 C-55.32385254 81.36030029 -54.79614258 80.58388184 -54.25244141 79.78393555 C-53 78 -53 78 -52 77 C-50.23186888 76.75084061 -48.46025018 76.52633368 -46.6875 76.3125 C-38.18571554 74.92424676 -29.91375584 72.02613397 -24.4375 65.0625 C-19.32510008 57.18338953 -17.2923445 49.36035235 -18 40 C-18.66152556 37.6652039 -19.32741333 35.33163378 -20 33 C-19.58963825 28.77814269 -18.01875769 26.14135038 -15.625 22.6875 C-14.91601562 21.65496094 -14.20703125 20.62242187 -13.4765625 19.55859375 C-13.08500977 18.99640137 -12.69345703 18.43420898 -12.29003906 17.85498047 C-10.85841492 15.79641116 -9.44021087 13.72897252 -8.0234375 11.66015625 C-5.35667038 7.76808298 -2.68042692 3.88267723 0 0 Z " fill="#5ABC44" transform="translate(185,131)"/>
<path d="M0 0 C2.33864096 1.07730838 4.28087417 2.27454838 6.34375 3.80859375 C10.63877508 6.89817547 15.96738087 6.7579657 21 6 C24.02077789 4.68500351 24.02077789 4.68500351 27 3 C32.47291541 0.03843524 36.81924121 -1.4017078 43 0 C48.22691115 2.71025023 49.33854795 5.40636963 51.125 10.9375 C51.44210937 11.989375 51.75921875 13.04125 52.0859375 14.125 C54.06312065 20.34383248 57.24021925 23.68826501 62.71484375 26.921875 C65.17645677 28.0832514 67.55345235 28.76230448 70.1875 29.4375 C73.42038314 30.34410205 75.74608791 31.14989227 78.125 33.5625 C80.69282991 38.27018816 81.08669986 41.7513136 80 47 C79.06925543 49.03315384 78.06418709 51.03340247 77 53 C74.01836123 58.53834089 72.63583856 62.76242126 74 69 C76.28279753 74.92931706 76.28279753 74.92931706 80 80 C80.63032024 85.28568545 80.68827908 89.64802323 78.25 94.4375 C74.88222632 97.80527368 70.32276649 98.74506672 65.875 100.0859375 C59.65616752 102.06312065 56.31173499 105.24021925 53.078125 110.71484375 C51.9167486 113.17645677 51.23769552 115.55345235 50.5625 118.1875 C49.65589795 121.42038314 48.85010773 123.74608791 46.4375 126.125 C41.72981184 128.69282991 38.2486864 129.08669986 33 128 C30.96684616 127.06925543 28.96659753 126.06418709 27 125 C21.45185749 122.0277808 17.2429461 120.51539696 11 122 C7.91278297 123.42865895 4.95224618 125.02584108 1.9609375 126.64453125 C-2.47205894 128.6738845 -6.24914206 129.07742671 -11 128 C-16.22691115 125.28974977 -17.33854795 122.59363037 -19.125 117.0625 C-19.44210937 116.010625 -19.75921875 114.95875 -20.0859375 113.875 C-22.06312065 107.65616752 -25.24021925 104.31173499 -30.71484375 101.078125 C-33.17645677 99.9167486 -35.55345235 99.23769552 -38.1875 98.5625 C-41.38456878 97.66101527 -43.74759169 96.86393858 -46.125 94.5 C-48.76059263 89.58022709 -48.99892413 85.46698013 -48 80 C-46.92269162 77.66135904 -45.72545162 75.71912583 -44.19140625 73.65625 C-41.10182453 69.36122492 -41.2420343 64.03261913 -42 59 C-43.31499649 55.97922211 -43.31499649 55.97922211 -45 53 C-47.96156476 47.52708459 -49.4017078 43.18075879 -48 37 C-45.28974977 31.77308885 -42.59363037 30.66145205 -37.0625 28.875 C-36.010625 28.55789062 -34.95875 28.24078125 -33.875 27.9140625 C-27.65616752 25.93687935 -24.31173499 22.75978075 -21.078125 17.28515625 C-19.9167486 14.82354323 -19.23769552 12.44654765 -18.5625 9.8125 C-17.66101527 6.61543122 -16.86393858 4.25240831 -14.5 1.875 C-9.58022709 -0.76059263 -5.46698013 -0.99892413 0 0 Z " fill="#010100" transform="translate(432,0)"/>
<path d="M0 0 C3.77350373 2.93946786 7.41231391 5.98233082 10.8984375 9.2578125 C14.45438945 7.97765427 17.16368629 6.4952018 20.11328125 4.140625 C20.88220703 3.53347656 21.65113281 2.92632812 22.44335938 2.30078125 C23.23291016 1.66785156 24.02246094 1.03492188 24.8359375 0.3828125 C38.54896549 -10.52911297 38.54896549 -10.52911297 43.4609375 -11.3046875 C48.03725861 -10.55583496 49.12537404 -9.46393057 51.8984375 -5.7421875 C58.51654698 6.70753149 61.40588146 20.08802047 57.65625 34.00390625 C52.42040325 49.576502 52.42040325 49.576502 46.8984375 53.2578125 C41.98727822 54.09402005 39.30068598 53.16478229 35.33984375 50.40625 C33.70065306 49.16528077 32.0745883 47.9068148 30.4609375 46.6328125 C29.65333984 46.01535156 28.84574219 45.39789063 28.01367188 44.76171875 C26.41295687 43.53635271 24.81728846 42.30436254 23.22705078 41.06542969 C19.81729654 38.41856238 16.35992709 35.83644591 12.8984375 33.2578125 C9.63605637 34.79070156 7.05653738 36.68363465 4.2800293 38.99023438 C-11.17824616 51.79514358 -27.87382728 58.36618155 -48.1015625 57.2578125 C-68.5944556 54.78581092 -86.72586374 41.35940788 -100.1015625 26.2578125 C-101.61045719 23.24002313 -101.60182526 21.63458613 -101.1015625 18.2578125 C-99.12766481 15.23329184 -96.67166611 12.7818569 -94.1015625 10.2578125 C-93.34101562 9.51015625 -92.58046875 8.7625 -91.796875 7.9921875 C-64.69735431 -17.46231436 -30.37626522 -22.12592158 0 0 Z " fill="#020203" transform="translate(181.1015625,326.7421875)"/>
<path d="M0 0 C7.08140652 4.88954259 10.05946956 14.95941648 12 23 C12.95099362 36.06217707 11.6175221 51.80324165 2.625 62.25 C-0.99037437 64.66024958 -2.67809305 64.57625426 -7 64 C-10.40674355 62.12351829 -13.38984234 59.78117292 -16.4375 57.375 C-17.24509766 56.75753906 -18.05269531 56.14007813 -18.88476562 55.50390625 C-20.48548063 54.27854021 -22.08114904 53.04655004 -23.67138672 51.80761719 C-27.08114096 49.16074988 -30.53851041 46.57863341 -34 44 C-37.00979442 45.45027299 -39.32707227 47.02126572 -41.875 49.1875 C-47.75725269 53.82934356 -54.20033502 56.96485543 -61 60 C-61.79792969 60.36480469 -62.59585938 60.72960937 -63.41796875 61.10546875 C-74.0039688 65.09629709 -89.2802224 64.8594207 -99.56640625 60.25390625 C-100.77103516 59.63322266 -100.77103516 59.63322266 -102 59 C-102.89589844 58.57589844 -103.79179687 58.15179688 -104.71484375 57.71484375 C-114.10878875 52.98493315 -127.12736878 44.74526244 -132 35 C-132.60105815 31.84444469 -132.54767566 29.83095618 -130.75390625 27.109375 C-128.92571562 24.96452317 -127.00767583 22.97782192 -125 21 C-124.34773437 20.33742188 -123.69546875 19.67484375 -123.0234375 18.9921875 C-116.76693499 13.01687611 -109.64378781 8.90836209 -102 5 C-101.12859375 4.54109375 -100.2571875 4.0821875 -99.359375 3.609375 C-88.33568872 -1.31315158 -74.31977062 -0.45454807 -63 3.0625 C-52.74847618 7.01395598 -43.89753565 12.35797285 -36 20 C-32.44404805 18.71984177 -29.73475121 17.2373893 -26.78515625 14.8828125 C-26.01623047 14.27566406 -25.24730469 13.66851562 -24.45507812 13.04296875 C-23.66552734 12.41003906 -22.87597656 11.77710938 -22.0625 11.125 C-6.70323456 -1.09689293 -6.70323456 -1.09689293 0 0 Z " fill="#020203" transform="translate(372,380)"/>
<path d="M0 0 C3.21300201 0.57654914 6.09261711 1.3691478 9.125 2.5625 C17.22002623 5.28769125 24.74040799 4.5129357 32.7109375 1.75390625 C35.12116818 0.96009307 37.50552892 0.45394085 40 0 C40.35191406 0.78503906 40.70382812 1.57007812 41.06640625 2.37890625 C46.81113005 14.6033185 52.71684921 19.49375999 65 25 C64.50542414 27.10794952 63.95089094 29.14274707 63.24609375 31.19140625 C59.73793215 41.47862409 60.50979964 49.85490984 64 60 C64.34775337 61.32964525 64.68606503 62.66196647 65 64 C64.21496094 64.42410156 63.42992187 64.84820312 62.62109375 65.28515625 C51.69001096 71.38778529 44.05599045 77.83202866 40 90 C36.66445129 89.39300085 33.57514831 88.54524364 30.375 87.4375 C21.27192018 84.71331907 13.99021822 85.47660638 5.3125 89.22265625 C3 90 3 90 0 89 C-1.359375 86.7421875 -1.359375 86.7421875 -2.75 83.875 C-8.12209222 73.74664076 -14.62262284 69.65192769 -25 65 C-24.39300085 61.66445129 -23.54524364 58.57514831 -22.4375 55.375 C-19.72285108 46.30377219 -20.49011708 38.99583143 -24.125 30.3125 C-25 28 -25 28 -25 25 C-24.21496094 24.64808594 -23.42992187 24.29617187 -22.62109375 23.93359375 C-10.3966815 18.18886995 -5.50624001 12.28315079 0 0 Z " fill="#030300" transform="translate(428,19)"/>
<path d="M0 0 C6.63411029 3.75666486 11.58024239 8.7913458 13.9453125 16.1015625 C14.52085201 18.99100577 14.99304661 21.85743989 15.35546875 24.78125 C15.76136072 27.46262867 15.76136072 27.46262867 18.9453125 29.1015625 C20.52043082 29.39896246 22.10582794 29.64423843 23.6953125 29.8515625 C29.03751145 30.83565178 32.45110849 32.95219523 35.9453125 37.1015625 C38.52331822 41.34363212 38.47630759 45.26360724 37.9453125 50.1015625 C36.11996659 55.37478403 33.33812047 57.89847336 28.9453125 61.1015625 C26.25716553 61.99761149 24.69984786 62.23201308 21.94242859 62.24873352 C21.13080261 62.25588882 20.31917664 62.26304413 19.48295593 62.27041626 C18.15274162 62.27444962 18.15274162 62.27444962 16.7956543 62.27856445 C15.85875763 62.28513565 14.92186096 62.29170685 13.95657349 62.29847717 C10.85255861 62.31820645 7.74859208 62.32987139 4.64453125 62.33984375 C3.58461283 62.34391928 2.5246944 62.3479948 1.43265724 62.35219383 C-4.17632223 62.37305204 -9.78527724 62.38735539 -15.39428711 62.39672852 C-21.18824685 62.40779809 -26.98182308 62.44220529 -32.77564716 62.48190022 C-37.23063371 62.50803918 -41.68552845 62.5164179 -46.14058495 62.52000999 C-48.27641582 62.52488223 -50.41224242 62.53651426 -52.54799843 62.55504799 C-55.53792401 62.57938321 -58.5268515 62.5784846 -61.5168457 62.5715332 C-62.39758255 62.58434326 -63.2783194 62.59715332 -64.18574524 62.61035156 C-69.63740828 62.56419131 -72.72788089 61.72592658 -77.0546875 58.1015625 C-81.24403445 53.34608759 -82.36532102 50.63509387 -82.265625 44.4140625 C-81.81219177 39.44309076 -79.74968168 36.75123097 -76.1796875 33.4140625 C-73.53667647 31.45823434 -70.86793222 29.78950933 -68.0546875 28.1015625 C-66.92689381 25.84597512 -66.89120486 24.35505418 -66.7421875 21.8515625 C-66.13380717 16.020471 -63.8189965 12.65583471 -59.4296875 8.7890625 C-55.00806859 5.64738591 -51.38976638 5.3612884 -46.0546875 6.1015625 C-40.88690642 8.11980275 -37.27848129 11.17491981 -34.78515625 16.12890625 C-33.69204823 19.08088245 -33.12036659 22.07729786 -32.64453125 25.18359375 C-32.15631409 27.4904275 -32.15631409 27.4904275 -29.0546875 29.1015625 C-24.97977998 29.44113813 -23.52467479 29.41488736 -20.0546875 27.1015625 C-17.8115282 20.37208461 -19.38167887 14.42850035 -22.0546875 8.1015625 C-22.7146875 7.1115625 -23.3746875 6.1215625 -24.0546875 5.1015625 C-24.0546875 4.1115625 -24.0546875 3.1215625 -24.0546875 2.1015625 C-16.17495524 -2.56790847 -8.61305189 -3.73116013 0 0 Z " fill="#E2F5FD" transform="translate(114.0546875,129.8984375)"/>
<path d="M0 0 C4.29498163 1.43166054 5.66219131 4.65190539 8 8.3125 C9.0805535 9.96841315 10.16269192 11.62329275 11.24609375 13.27734375 C11.84276855 14.19112793 12.43944336 15.10491211 13.05419922 16.04638672 C16.2742365 20.93421746 19.56908854 25.77118998 22.8621521 30.60995483 C24.06793542 32.38299248 25.27122966 34.15769531 26.47387695 35.93286133 C30.32074533 41.60787211 34.18112066 47.27263999 38.0818634 52.91079712 C39.86094273 55.48395647 41.63325971 58.06173653 43.40499878 60.63995361 C44.25522148 61.87305471 45.10880708 63.10384431 45.96585083 64.33221436 C47.15622311 66.03875646 48.33504549 67.75274548 49.51171875 69.46875 C50.18678467 70.44263672 50.86185059 71.41652344 51.55737305 72.41992188 C53 75 53 75 53 79 C45.10759191 85.29593808 36.58645293 85.00312341 27 84 C23.85626478 83.16101258 21.63604783 81.87512681 19 80 C17.10687503 78.7874278 15.21084639 77.57938135 13.3125 76.375 C12.42175781 75.78460938 11.53101563 75.19421875 10.61328125 74.5859375 C4.78558597 71.04924948 -0.83659492 69.41531081 -7.65625 70.67578125 C-12.1626765 71.42227263 -15.74070199 71.84479785 -20 70 C-25.59459973 64.96529315 -29.13247307 57.87164003 -32.90771484 51.45458984 C-36.29685483 45.77124399 -40.10838493 40.36060264 -43.85678101 34.91101074 C-45.10067538 33.09795469 -46.33587097 31.27932781 -47.56762695 29.45800781 C-47.95535782 28.88486847 -48.34308868 28.31172913 -48.74256897 27.72122192 C-49.11884933 27.16482025 -49.4951297 26.60841858 -49.8828125 26.03515625 C-52.21146968 22.59468869 -54.57187287 19.20155001 -57.0546875 15.87109375 C-59 13 -59 13 -59 10 C-57.13849071 8.25427837 -55.3481406 6.76300837 -53.3125 5.25 C-52.78205078 4.82589844 -52.25160156 4.40179688 -51.70507812 3.96484375 C-47.7006719 0.94802728 -47.7006719 0.94802728 -44.59399414 1.1784668 C-41.60224955 2.12596991 -39.81490127 3.40324918 -37.3828125 5.37890625 C-36.52816406 6.05244141 -35.67351562 6.72597656 -34.79296875 7.41992188 C-33.0171545 8.84603332 -31.2462837 10.2783228 -29.48046875 11.71679688 C-25.66493758 14.70897658 -22.98313275 16.79995561 -18.1796875 17.77734375 C-14.05844729 16.76981697 -12.69094448 15.25283827 -10 12 C-9.56349121 11.49259277 -9.12698242 10.98518555 -8.67724609 10.46240234 C-7.32522953 8.88789587 -6.0035666 7.29212639 -4.6875 5.6875 C-4.23310547 5.13771484 -3.77871094 4.58792969 -3.31054688 4.02148438 C-2.20474148 2.68287784 -1.10204061 1.34170769 0 0 Z " fill="#5ABB44" transform="translate(401,184)"/>
<path d="M0 0 C3.21300201 0.57654914 6.09261711 1.3691478 9.125 2.5625 C17.22002623 5.28769125 24.74040799 4.5129357 32.7109375 1.75390625 C35.12116818 0.96009307 37.50552892 0.45394085 40 0 C40.35191406 0.78503906 40.70382812 1.57007812 41.06640625 2.37890625 C46.81113005 14.6033185 52.71684921 19.49375999 65 25 C64.50542414 27.10794952 63.95089094 29.14274707 63.24609375 31.19140625 C59.73793215 41.47862409 60.50979964 49.85490984 64 60 C64.34775337 61.32964525 64.68606503 62.66196647 65 64 C64.21496094 64.42410156 63.42992187 64.84820312 62.62109375 65.28515625 C51.69001096 71.38778529 44.05599045 77.83202866 40 90 C36.66445129 89.39300085 33.57514831 88.54524364 30.375 87.4375 C21.27192018 84.71331907 13.99021822 85.47660638 5.3125 89.22265625 C3 90 3 90 0 89 C-1.359375 86.7421875 -1.359375 86.7421875 -2.75 83.875 C-8.12209222 73.74664076 -14.62262284 69.65192769 -25 65 C-24.39300085 61.66445129 -23.54524364 58.57514831 -22.4375 55.375 C-19.72285108 46.30377219 -20.49011708 38.99583143 -24.125 30.3125 C-25 28 -25 28 -25 25 C-24.21496094 24.64808594 -23.42992187 24.29617187 -22.62109375 23.93359375 C-10.3966815 18.18886995 -5.50624001 12.28315079 0 0 Z M4 17 C2.95199219 17.63615234 2.95199219 17.63615234 1.8828125 18.28515625 C-4.88453701 22.8690779 -10.40477864 29.86437105 -12 38 C-12.89368104 49.16288858 -11.32321647 58.24208815 -4.02734375 66.95703125 C2.46309691 73.49749457 9.48984609 76.99669033 18.6875 77.375 C28.19614828 77.18647661 37.2820802 73.89432032 44 67 C50.17717909 58.67662951 53.00280394 50.36230738 52 40 C50.2754889 31.37744448 45.87517805 23.68762433 38.625 18.625 C37.10361118 17.71519938 35.56233413 16.83753995 34 16 C33.37351562 15.6596875 32.74703125 15.319375 32.1015625 14.96875 C23.00227824 10.82224072 12.39461451 11.87705084 4 17 Z " fill="#F8C337" transform="translate(428,19)"/>
<path d="M0 0 C4.35512227 0.52561821 5.46114179 1.45416223 8.625 4.4375 C10.5331211 6.90075833 12.19991929 9.49946522 13.875 12.125 C14.9151906 13.72101507 15.95695586 15.31600459 17 16.91015625 C17.56847656 17.78172363 18.13695312 18.65329102 18.72265625 19.55126953 C22.37784413 25.09691008 26.13268973 30.57546929 29.875 36.0625 C30.64625488 37.1948402 31.41741579 38.32724441 32.18847656 39.4597168 C33.99984977 42.11952531 35.81203042 44.77877946 37.625 47.4375 C36.68592525 48.69868382 35.74556785 49.95891264 34.8046875 51.21875 C34.28116699 51.92064453 33.75764648 52.62253906 33.21826172 53.34570312 C31.10516216 56.11999626 28.88337346 58.78059004 26.625 61.4375 C23.64838904 60.05185782 21.14648043 58.42910153 18.54296875 56.43359375 C17.77533203 55.85802734 17.00769531 55.28246094 16.21679688 54.68945312 C14.61949982 53.48401936 13.02826953 52.27050248 11.44335938 51.04882812 C5.18974491 46.26176721 5.18974491 46.26176721 -2.375 45.4375 C-6.33037884 47.71041 -9.78766141 50.49104115 -13.3125 53.375 C-14.28251953 54.14263672 -15.25253906 54.91027344 -16.25195312 55.70117188 C-18.64105713 57.5959785 -21.01392628 59.5079624 -23.375 61.4375 C-27.40000075 59.61808084 -29.37602792 57.28914116 -32.125 53.8125 C-32.92421875 52.80960938 -33.7234375 51.80671875 -34.546875 50.7734375 C-35.15015625 50.00257812 -35.7534375 49.23171875 -36.375 48.4375 C-30.86602264 39.66326785 -25.16708979 31.02663283 -19.375 22.4375 C-18.82376465 21.61958984 -18.2725293 20.80167969 -17.70458984 19.95898438 C-15.95332457 17.3654555 -14.196361 14.77588252 -12.4375 12.1875 C-11.88175293 11.36507812 -11.32600586 10.54265625 -10.75341797 9.6953125 C-10.2276416 8.92445312 -9.70186523 8.15359375 -9.16015625 7.359375 C-8.69488525 6.67456055 -8.22961426 5.98974609 -7.75024414 5.28417969 C-4.22269867 0.54738686 -4.22269867 0.54738686 0 0 Z " fill="#E0F4FC" transform="translate(231.375,68.5625)"/>
<path d="M0 0 C4.41369173 0.53268693 5.42889246 1.37689995 8.625 4.4375 C10.91076596 7.45973991 12.95126731 10.62639155 15 13.8125 C16.22795181 15.68959737 17.45716402 17.56587071 18.6875 19.44140625 C19.32558594 20.4173877 19.96367187 21.39336914 20.62109375 22.39892578 C24.02204898 27.55588104 27.5113641 32.65212519 31 37.75 C31.6604834 38.71663574 32.3209668 39.68327148 33.00146484 40.67919922 C34.54162656 42.93266448 36.08276862 45.18545092 37.625 47.4375 C36.68592525 48.69868382 35.74556785 49.95891264 34.8046875 51.21875 C34.28116699 51.92064453 33.75764648 52.62253906 33.21826172 53.34570312 C31.10516216 56.11999626 28.88337346 58.78059004 26.625 61.4375 C23.64838904 60.05185782 21.14648043 58.42910153 18.54296875 56.43359375 C17.77533203 55.85802734 17.00769531 55.28246094 16.21679688 54.68945312 C14.61949982 53.48401936 13.02826953 52.27050248 11.44335938 51.04882812 C5.19263627 46.28332191 5.19263627 46.28332191 -2.375 45.4375 C-6.15747432 47.54863957 -9.44998353 50.15642117 -12.8125 52.875 C-13.73482422 53.59494141 -14.65714844 54.31488281 -15.60742188 55.05664062 C-17.8778627 56.83299588 -20.13221229 58.62644496 -22.375 60.4375 C-27.85066372 53.62334071 -27.85066372 53.62334071 -30.25 50.4375 C-30.88679688 49.6125 -31.52359375 48.7875 -32.1796875 47.9375 C-33.375 45.4375 -33.375 45.4375 -32.83203125 43.02734375 C-31.08352868 39.91941559 -29.19850454 36.94167405 -27.1875 34 C-26.76331787 33.37254883 -26.33913574 32.74509766 -25.90209961 32.09863281 C-24.94406069 30.6835896 -23.98370627 29.2701123 -23.02148438 27.85791016 C-21.16797116 25.13315779 -19.32621215 22.40062616 -17.484375 19.66796875 C-16.13585317 17.67418386 -14.78689643 15.68069306 -13.4375 13.6875 C-12.78692627 12.72271729 -12.13635254 11.75793457 -11.46606445 10.76391602 C-10.84948975 9.85697998 -10.23291504 8.95004395 -9.59765625 8.015625 C-9.04859619 7.20512695 -8.49953613 6.39462891 -7.93383789 5.55957031 C-4.25505124 0.55158072 -4.25505124 0.55158072 0 0 Z " fill="#E0F4FC" transform="translate(355.375,121.5625)"/>
<path d="M0 0 C14.37165337 -0.94395096 27.92755822 7.17431421 38.37890625 16.21875 C39.49008357 17.23194775 40.59719926 18.24974828 41.69140625 19.28125 C37.53268778 29.34266564 24.59052938 34.41562676 15.19921875 38.31640625 C4.57077385 42.06249749 -5.95612973 41.25912376 -16.20703125 36.83203125 C-24.47065623 32.70021876 -31.59413024 27.6109305 -38.30859375 21.28125 C-34.2145254 11.45984136 -21.58177361 6.13795268 -12.30859375 2.28125 C-8.20892969 0.97839066 -4.24671712 0.51736655 0 0 Z " fill="#A2EDFC" transform="translate(138.30859375,327.71875)"/>
<path d="M0 0 C7.15641548 1.58510382 12.49012475 4.67378904 18.02734375 9.4140625 C19.94212983 10.95347468 21.76829751 11.99149015 24 13 C24.46148437 12.55269531 24.92296875 12.10539062 25.3984375 11.64453125 C33.38770115 4.23946277 41.55173272 -0.0739483 52.5 -0.3125 C53.6240625 -0.34988281 54.748125 -0.38726563 55.90625 -0.42578125 C59 -0 59 -0 61.375 1.76953125 C63.08980969 4.12327243 63.54476004 5.13535725 63.5 8 C63.51546875 8.99 63.51546875 8.99 63.53125 10 C62.74322942 12.9666657 61.4063977 14.12571004 59 16 C55.9765625 16.90625 55.9765625 16.90625 52.625 17.5 C44.41670382 19.21694786 39.89459199 22.33791645 35 29 C32.89221095 33.62303175 31.94600154 38.41024431 30.87890625 43.35546875 C30 46 30 46 27 48 C19.89900427 48.67628531 19.89900427 48.67628531 16.83984375 46.375 C14.58374551 43.46266936 14.13995477 41.23737627 13.5 37.625 C11.78305214 29.41670382 8.66208355 24.89459199 2 20 C-2.62303175 17.89221095 -7.41024431 16.94600154 -12.35546875 15.87890625 C-15 15 -15 15 -17 12 C-17.67501754 4.91231586 -17.67501754 4.91231586 -15.35546875 1.77734375 C-10.84064121 -1.62936692 -5.38621584 -0.59169075 0 0 Z " fill="#000000" transform="translate(89,8)"/>
<path d="M0 0 C5.77324169 1.56076603 10.59324396 3.8870277 15 8 C17.97810526 6.94890403 20.31187401 5.78766025 22.9375 4 C29.36018601 -0.19440719 36.42371799 -1.24512713 44 0 C46.42490058 1.84097803 47.74344872 3.03415989 48.53125 6 C48.5209375 6.66 48.510625 7.32 48.5 8 C48.51546875 8.99 48.51546875 8.99 48.53125 10 C47.75217617 12.93298382 46.35042697 14.12284005 44 16 C41.37890625 16.90625 41.37890625 16.90625 38.5625 17.5 C32.58605329 19.00935652 32.58605329 19.00935652 28 23 C27.07028258 25.1963508 26.35323111 27.38690778 25.68359375 29.67578125 C24.72124035 32.9477828 23.47395635 35.92391718 22 39 C18.87057535 40.56471233 15.38917777 40.69701958 12 40 C8.45074694 37.24516459 7.41290125 34.89277499 6.5 30.5625 C4.99064348 24.58605329 4.99064348 24.58605329 1 20 C-1.1963508 19.07028258 -3.38690778 18.35323111 -5.67578125 17.68359375 C-8.9477828 16.72124035 -11.92391718 15.47395635 -15 14 C-16.56471233 10.87057535 -16.69701958 7.38917777 -16 4 C-11.76233044 -1.65684228 -6.48982918 -0.79825697 0 0 Z " fill="#000000" transform="translate(32,48)"/>
<path d="M0 0 C5.36092714 2.98347249 10.44803385 6.02778759 14.6953125 10.5 C11.7185909 17.35235417 5.30287282 20.41460386 -1.3046875 23.25 C-12.15240477 27.4640255 -20.29945492 28.67208971 -31.3671875 24.3125 C-38.02305434 21.35338394 -44.25683578 17.81518344 -49.3046875 12.5 C-45.69606542 4.15169519 -36.24262936 0.71877772 -28.3046875 -2.5 C-19.12670056 -5.55932898 -8.54827845 -4.09944689 0 0 Z " fill="#A1ECFB" transform="translate(309.3046875,400.5)"/>
<path d="M0 0 C3.01007752 1.25839361 5.65038273 2.72230979 8 5 C8.71875 7.171875 8.71875 7.171875 9 9 C8.12988281 9.51046875 8.12988281 9.51046875 7.2421875 10.03125 C1.65682074 13.49675809 -3.04730611 16.9917309 -6 23 C-6.35732556 24.88456147 -6.64716963 26.78294052 -6.875 28.6875 C-7.53281123 33.57409768 -7.53281123 33.57409768 -9.6796875 35.53125 C-11.07006993 36.30776547 -12.47715328 37.05504293 -13.8984375 37.7734375 C-18.26421962 40.32149621 -21.14155225 44.57736139 -22.8125 49.29296875 C-23.29238888 51.1758661 -23.6584231 53.08716938 -24 55 C-26.86009035 54.9158797 -28.54648827 54.43181261 -30.6328125 52.4453125 C-34.8171556 47.57368599 -36.31448846 44.77408012 -36.2109375 38.3125 C-35.75750427 33.34152826 -33.69499418 30.64966847 -30.125 27.3125 C-27.48198897 25.35667184 -24.81324472 23.68794683 -22 22 C-20.87220631 19.74441262 -20.83651736 18.25349168 -20.6875 15.75 C-20.07911967 9.9189085 -17.764309 6.55427221 -13.375 2.6875 C-8.96418002 -0.44650367 -5.32429236 -0.76061319 0 0 Z " fill="#F9FAFA" transform="translate(68,136)"/>
<path d="M0 0 C4.22468179 0.50987539 5.72533463 1.37213947 8.625 4.4375 C9.9375 7.1875 9.9375 7.1875 10.625 9.4375 C9.73006836 9.96496826 8.83513672 10.49243652 7.91308594 11.03588867 C4.41471743 13.37721197 2.25576868 16.34896189 0.015625 19.86328125 C-0.60194672 20.80025093 -0.60194672 20.80025093 -1.23199463 21.75614929 C-2.54077706 23.74708021 -3.83316414 25.74804207 -5.125 27.75 C-5.97547104 29.05084444 -6.82702631 30.3509807 -7.6796875 31.65039062 C-11.18907812 37.00676277 -14.69209192 42.36611826 -18.13867188 47.76318359 C-19.03486796 49.14829855 -19.93134301 50.53323306 -20.828125 51.91796875 C-21.24028259 52.57267654 -21.65244019 53.22738434 -22.0770874 53.90193176 C-23.0982586 55.46762264 -24.22839281 56.96119703 -25.375 58.4375 C-26.365 58.4375 -27.355 58.4375 -28.375 58.4375 C-30.41796875 56.25 -30.41796875 56.25 -32.5625 53.4375 C-33.63564453 52.0453125 -33.63564453 52.0453125 -34.73046875 50.625 C-35.27316406 49.903125 -35.81585938 49.18125 -36.375 48.4375 C-30.86602264 39.66326785 -25.16708979 31.02663283 -19.375 22.4375 C-18.82376465 21.61958984 -18.2725293 20.80167969 -17.70458984 19.95898438 C-15.95332457 17.3654555 -14.196361 14.77588252 -12.4375 12.1875 C-11.88175293 11.36507812 -11.32600586 10.54265625 -10.75341797 9.6953125 C-10.2276416 8.92445312 -9.70186523 8.15359375 -9.16015625 7.359375 C-8.69488525 6.67456055 -8.22961426 5.98974609 -7.75024414 5.28417969 C-4.22269867 0.54738686 -4.22269867 0.54738686 0 0 Z " fill="#FAFCFC" transform="translate(231.375,68.5625)"/>
<path d="M0 0 C-7.43571751 11.23959357 -15.00007535 22.3910741 -22.57348633 33.53808594 C-22.98182205 34.13911133 -23.39015778 34.74013672 -23.81086731 35.359375 C-24.9361815 37.01545581 -26.06183069 38.67130898 -27.1875 40.32714844 C-28.46618639 42.21279749 -29.7362192 44.1043288 -31 46 C-33.62421691 46.81842947 -36.13642655 47.48343869 -38.8125 48.0625 C-43.37231842 49.09000659 -47.70316105 50.10061146 -52 52 C-50.70567394 48.481959 -49.18093159 45.55275182 -47.05078125 42.47265625 C-46.45668457 41.60793701 -45.86258789 40.74321777 -45.25048828 39.85229492 C-44.61095215 38.9316626 -43.97141602 38.01103027 -43.3125 37.0625 C-41.96205439 35.10169003 -40.6117999 33.14074843 -39.26171875 31.1796875 C-38.56353027 30.16874023 -37.8653418 29.15779297 -37.14599609 28.11621094 C-32.95448213 22.02969395 -28.81234924 15.90937323 -24.66137695 9.79516602 C-24.06413818 8.91787842 -23.46689941 8.04059082 -22.8515625 7.13671875 C-22.05999756 5.97209106 -22.05999756 5.97209106 -21.25244141 4.78393555 C-19.34408417 2.06573548 -19.34408417 2.06573548 -16.3828125 1.5 C-14.77019531 1.2525 -14.77019531 1.2525 -13.125 1 C-2.2044357 -0.68413522 -2.2044357 -0.68413522 0 0 Z " fill="#69D458" transform="translate(152,206)"/>
<path d="M0 0 C4.68009184 2.01728096 8.27570198 4.6539058 11 9 C12.42034962 14.00099147 12.57663196 18.61519649 10.375 23.375 C7.82143859 27.74874705 4.83737879 30.3875404 0 32 C-4.66694522 32.54225459 -8.07771048 32.4698456 -12.3125 30.3125 C-15.95431017 27.17884939 -19.69206795 23.80672488 -20.23828125 18.828125 C-20.40659218 12.98153463 -20.02425335 9.56807137 -16 5 C-10.71430336 0.34355296 -6.99456821 -1.00240627 0 0 Z " fill="#FAEB53" transform="translate(452,48)"/>
<path d="M0 0 C3.52581642 1.17527214 4.49592586 2.40028354 6.8125 5.25 C7.78123047 6.40242187 7.78123047 6.40242187 8.76953125 7.578125 C10 10 10 10 9.30615234 12.30102539 C7.86790247 15.27296041 6.20061393 17.88288628 4.33203125 20.60546875 C3.60306641 21.67216797 2.87410156 22.73886719 2.12304688 23.83789062 C1.35293677 24.95447687 0.58275415 26.07101311 -0.1875 27.1875 C-0.93064453 28.27353516 -1.67378906 29.35957031 -2.43945312 30.47851562 C-4.61827657 33.65795562 -6.80804203 36.82960573 -9 40 C-9.68529785 40.9998291 -10.3705957 41.9996582 -11.07666016 43.02978516 C-12.0229126 44.40142822 -12.0229126 44.40142822 -12.98828125 45.80078125 C-13.54684814 46.61329346 -14.10541504 47.42580566 -14.6809082 48.26293945 C-15.1162085 48.83616943 -15.55150879 49.40939941 -16 50 C-16.33 50 -16.66 50 -17 50 C-17.13277344 48.98679688 -17.26554688 47.97359375 -17.40234375 46.9296875 C-17.58067584 45.57811796 -17.75906425 44.22655586 -17.9375 42.875 C-18.02451172 42.20984375 -18.11152344 41.5446875 -18.20117188 40.859375 C-18.59453247 37.88731714 -18.99874548 35.00494083 -19.73730469 32.09619141 C-20.07607404 28.10337275 -19.07072677 26.80118778 -16.73828125 23.59375 C-16.03123047 22.60246094 -15.32417969 21.61117187 -14.59570312 20.58984375 C-13.84224609 19.57019531 -13.08878906 18.55054688 -12.3125 17.5 C-10.85012273 15.46884913 -9.38787918 13.43760196 -7.92578125 11.40625 C-7.2395166 10.46523437 -6.55325195 9.52421875 -5.84619141 8.5546875 C-3.81843188 5.74875313 -1.88428559 2.90349019 0 0 Z " fill="#69D458" transform="translate(185,131)"/>
<path d="M0 0 C0.66 0.33 1.32 0.66 2 1 C1.34 2.32 0.68 3.64 0 5 C0.41137207 5.58676514 0.82274414 6.17353027 1.24658203 6.77807617 C9.349816 18.3488293 17.37466693 29.96064996 25.16894531 41.7421875 C29.18325094 47.80451293 33.30102191 53.78015981 37.5234375 59.69921875 C39 62 39 62 39 64 C40.32 64.33 41.64 64.66 43 65 C37.06 65.495 37.06 65.495 31 66 C28.8953689 62.91698284 26.79120269 59.83365065 24.6875 56.75 C24.02830566 55.78376709 23.36911133 54.81753418 22.68994141 53.82202148 C18.76830218 48.07037479 14.85416396 42.31376995 10.94921875 36.55078125 C10.52680405 35.9275296 10.10438934 35.30427795 9.66917419 34.66213989 C7.59041878 31.59485461 5.51262384 28.52692559 3.4362793 25.45800781 C2.66328345 24.31703375 1.8902539 23.17608252 1.1171875 22.03515625 C0.40272461 20.9795752 -0.31173828 19.92399414 -1.04785156 18.83642578 C-2.67252268 16.47581685 -4.34236047 14.16801524 -6.0546875 11.87109375 C-8 9 -8 9 -8 6 C-6.25 4.39453125 -6.25 4.39453125 -4 2.8125 C-3.2575 2.28269531 -2.515 1.75289062 -1.75 1.20703125 C-1.1725 0.80871094 -0.595 0.41039062 0 0 Z " fill="#4EA02E" transform="translate(350,188)"/>
<path d="M0 0 C2.80023953 1.58949295 4.66168032 3.57183056 6.76171875 6 C5.96121094 6.22042969 5.96121094 6.22042969 5.14453125 6.4453125 C-2.62832896 8.78523927 -10.59302818 12.06208976 -15.23828125 19 C-17.83683826 18.01083735 -18.99964416 17.503047 -20.21484375 14.94140625 C-20.42882812 14.15636719 -20.6428125 13.37132812 -20.86328125 12.5625 C-21.72624498 9.48121185 -22.41849394 7.72968097 -24.23828125 5 C-24.23828125 4.01 -24.23828125 3.02 -24.23828125 2 C-16.17891064 -2.77592332 -8.78171926 -3.70506614 0 0 Z " fill="#F8F9F9" transform="translate(114.23828125,130)"/>
<path d="M0 0 C2 1 2 1 2.61328125 2.62890625 C3.12260136 5.75170731 3.17061746 8.77371148 3.1875 11.9375 C3.20167969 13.14277344 3.21585938 14.34804688 3.23046875 15.58984375 C3.00944874 18.86019062 2.40750326 21.06816515 1 24 C-4.83096952 20.89842047 -9.86601899 17.14443819 -15 13 C-13.91999975 9.75999925 -13.50216138 9.3663642 -10.83984375 7.51953125 C-10.21142578 7.07802734 -9.58300781 6.63652344 -8.93554688 6.18164062 C-8.27619141 5.72982422 -7.61683594 5.27800781 -6.9375 4.8125 C-6.27427734 4.34908203 -5.61105469 3.88566406 -4.92773438 3.40820312 C-3.28992495 2.26527137 -1.64557103 1.1317282 0 0 Z " fill="#9DE6F5" transform="translate(221,336)"/>
<path d="M0 0 C2 1 2 1 2.61328125 2.6640625 C3.09807316 5.5924015 3.17020126 8.40653539 3.1875 11.375 C3.20167969 12.47585938 3.21585937 13.57671875 3.23046875 14.7109375 C2.99195913 18.11475276 2.21372666 20.82416186 1 24 C-4.83096952 20.89842047 -9.86601899 17.14443819 -15 13 C-13.91999975 9.75999925 -13.50216138 9.3663642 -10.83984375 7.51953125 C-10.21142578 7.07802734 -9.58300781 6.63652344 -8.93554688 6.18164062 C-8.27619141 5.72982422 -7.61683594 5.27800781 -6.9375 4.8125 C-6.27427734 4.34908203 -5.61105469 3.88566406 -4.92773438 3.40820312 C-3.28992495 2.26527137 -1.64557103 1.1317282 0 0 Z " fill="#9EE8F6" transform="translate(365,400)"/>
<path d="M0 0 C3.25672028 3.05822943 5.79246989 6.31439838 8.3125 10 C9.03050781 11.03125 9.74851562 12.0625 10.48828125 13.125 C12 16 12 16 12.04296875 18.1875 C10.56480901 20.75628697 8.59287368 21.67032119 6 23 C4.26836783 20.61825679 2.56572209 18.22301227 0.875 15.8125 C0.38128906 15.13896484 -0.11242187 14.46542969 -0.62109375 13.77148438 C-1.93263939 11.87805581 -3.08668364 10.11525898 -4 8 C-3.31162511 4.61941919 -1.92281889 2.88422833 0 0 Z " fill="#BFE5EF" transform="translate(326,159)"/>
<path d="M0 0 C1 2 1 2 0.0625 5.125 C-0.288125 6.07375 -0.63875 7.0225 -1 8 C-2.32 7.34 -3.64 6.68 -5 6 C-3.86695008 2.60085025 -2.87481525 1.94745549 0 0 Z " fill="#79CBDF" transform="translate(367,416)"/>
</svg>
