<?xml version="1.0" encoding="UTF-8"?>
<svg version="1.1" xmlns="http://www.w3.org/2000/svg" width="512" height="512">
<path d="M0 0 C1.02148636 -0.00960754 2.04297272 -0.01921509 3.09541321 -0.02911377 C4.75010872 -0.03548859 4.75010872 -0.03548859 6.43823242 -0.04199219 C7.57395187 -0.04769226 8.70967133 -0.05339233 9.87980652 -0.05926514 C12.28477038 -0.06871672 14.68974721 -0.07524974 17.09472656 -0.07910156 C20.76870405 -0.08880119 24.44212077 -0.11982145 28.1159668 -0.15136719 C30.45255202 -0.15789791 32.78914124 -0.16314811 35.12573242 -0.16699219 C36.22279007 -0.17933899 37.31984772 -0.19168579 38.45014954 -0.20440674 C45.57702386 -0.18366024 50.00228009 0.67869858 55.60620117 5.34863281 C60.6952673 11.37515849 62.73519453 18.10842468 64.41870117 25.70019531 C64.84311823 27.515314 65.26759931 29.33041772 65.69213867 31.14550781 C66.34051362 33.97317033 66.98474164 36.80173549 67.62670898 39.63085938 C68.25552023 42.38560606 68.89904138 45.13662158 69.54370117 47.88769531 C69.82201782 49.14883652 69.82201782 49.14883652 70.10595703 50.43545532 C71.8240902 57.73613329 74.65781245 62.82805661 80.98120117 67.16113281 C83.26865418 68.36596393 85.52376848 69.48394246 87.87182617 70.55175781 C88.52963074 70.85743683 89.1874353 71.16311584 89.86517334 71.47805786 C91.26396134 72.12708479 92.66416693 72.77306404 94.06567383 73.41619873 C96.24836531 74.41901874 98.42584197 75.43244934 100.60229492 76.44873047 C106.57159673 79.23117266 112.54373691 81.99562275 118.59057617 84.60644531 C132.92030599 90.84032545 139.0093896 100.28452961 146.8425293 113.31884766 C147.93883482 115.09258725 149.09414439 116.80833719 150.27807617 118.52441406 C151.98120117 121.16113281 151.98120117 121.16113281 151.98120117 123.16113281 C152.52719971 123.15447098 153.07319824 123.14780914 153.63574219 123.14094543 C159.34637532 123.07429517 165.05689696 123.02920968 170.76782227 122.99633789 C172.89579765 122.98130205 175.02374231 122.96086799 177.15161133 122.93481445 C180.21988534 122.89820192 183.28774766 122.88135401 186.35620117 122.86816406 C187.29923096 122.85268021 188.24226074 122.83719635 189.21386719 122.82124329 C196.29605834 122.81946086 202.00620567 123.73962485 207.66870117 128.34863281 C213.374159 135.28770315 216.97788112 143.14716168 220.66870117 151.28613281 C221.82049907 153.80060436 222.97697859 156.31291414 224.13354492 158.82519531 C224.43898224 159.48976746 224.74441956 160.1543396 225.05911255 160.83905029 C229.25300614 169.94922031 233.5680657 179.00227457 237.87127686 188.06115723 C239.02142391 190.48239679 240.17133215 192.9037495 241.32104492 195.32519531 C241.70309082 196.12973145 242.08513672 196.93426758 242.47875977 197.76318359 C245.24929243 203.60341989 247.99618636 209.45445348 250.73510742 215.30957031 C251.8853381 217.76356007 253.03593848 220.21737615 254.18664551 222.67114258 C254.91559872 224.22839691 255.64277787 225.78648311 256.36804199 227.34545898 C261.95607074 241.48346062 261.95607074 241.48346062 271.91870117 252.09863281 C272.54647461 252.47890625 273.17424805 252.85917969 273.82104492 253.25097656 C280.05963434 255.87953232 287.24087686 255.42440472 293.9050293 255.50292969 C300.40051442 255.72583939 304.81759279 257.0854977 309.53133965 261.66816521 C313.11144712 265.66528731 315.10642292 269.24359574 316.32543945 274.50146484 C316.61556254 275.63746722 316.61556254 275.63746722 316.91154671 276.79641914 C317.35982929 278.56199846 317.79881223 280.32995416 318.23056793 282.09964752 C319.06959424 285.52164721 319.94090562 288.93454345 320.81561279 292.34759521 C322.85759583 300.32882997 324.86496632 308.31861341 326.86943197 316.30933905 C327.9004786 320.41757131 328.93406014 324.52516587 329.96731567 328.63284302 C331.71201483 335.57029112 333.45510146 342.50814265 335.19702148 349.44628906 C336.95070702 356.43129091 338.70547886 363.41601829 340.46166992 370.40039062 C340.67523974 371.24977825 340.88880956 372.09916587 341.10885119 372.97429252 C341.96841925 376.39279472 342.82801744 379.81128933 343.68769693 383.22976351 C346.02255342 392.51452901 348.35514622 401.79985073 350.68109131 411.08685303 C351.50854886 414.38996287 352.33614056 417.69303908 353.16381836 420.99609375 C353.36595617 421.80290824 353.56809398 422.60972274 353.77635717 423.44098616 C356.32285788 433.60145705 358.89268544 443.75559747 361.49236107 453.90259361 C362.76303265 458.86230998 364.02569722 463.82405291 365.28622687 468.78635561 C366.11664953 472.05275695 366.95331334 475.31725797 367.79873276 478.57983017 C368.71246642 482.10685262 369.61052268 485.63751917 370.50512695 489.16943359 C370.7744315 490.19107227 371.04373604 491.21271095 371.32120132 492.26530838 C372.63052649 497.50461128 373.62284076 501.85645377 371.98120117 507.16113281 C369.1965417 510.79240294 367.74393203 512.03561169 363.17277145 512.78787863 C361.64956786 512.81422143 360.12573978 512.81307061 358.60247803 512.79033852 C357.75739669 512.79760572 356.91231536 512.80487292 356.0416255 512.81236035 C353.19649123 512.83067646 350.35269385 512.81322444 347.50756836 512.79605103 C345.45265893 512.80180959 343.39775464 512.80974893 341.34286118 512.81968725 C335.68568784 512.84061995 330.02893455 512.83021608 324.37175941 512.81475616 C318.27486911 512.80347288 312.17805255 512.82089033 306.08117676 512.83465576 C294.82430468 512.85563705 283.5675676 512.85377251 272.31069827 512.84009842 C261.91207382 512.82752864 251.51349865 512.82423338 241.11486816 512.83021164 C240.0808711 512.83078453 240.0808711 512.83078453 239.02598521 512.83136899 C236.2278782 512.83292564 233.42977122 512.83451764 230.63166426 512.83616781 C204.37458365 512.85146839 178.11758866 512.83758669 151.86052126 512.81068332 C128.52439994 512.78695465 105.18841504 512.78907776 81.85229492 512.81298828 C55.6437432 512.83975207 29.43526714 512.85038335 3.22670364 512.83492696 C0.43364717 512.83332334 -2.35940932 512.83175914 -5.15246582 512.83021164 C-6.1840748 512.82961856 -6.1840748 512.82961856 -7.23652437 512.8290135 C-17.62950541 512.82332225 -28.0224318 512.82998472 -38.41540527 512.84260941 C-50.23078829 512.85689023 -62.04604101 512.85288226 -73.86141396 512.82620569 C-79.89340488 512.81303701 -85.92511848 512.80796723 -91.95710754 512.82445145 C-97.47409197 512.83930058 -102.99054081 512.83124589 -108.50747633 512.80456369 C-110.50807014 512.79895733 -112.50870878 512.80186705 -114.50927401 512.81394263 C-117.22019272 512.8290565 -119.92925538 512.81364998 -122.64007568 512.79033852 C-123.42447541 512.80204435 -124.20887513 512.81375018 -125.01704454 512.82581073 C-129.00669607 512.75681235 -130.81653962 512.32177145 -133.97996902 509.80930746 C-136.56206442 506.45550149 -137.16392002 504.19853223 -136.97213745 500.08915806 C-136.93485598 499.24659157 -136.8975745 498.40402509 -136.85916328 497.53592628 C-136.81113501 496.60001925 -136.76310673 495.66411221 -136.71362305 494.69984436 C-136.6655998 493.69203291 -136.61757656 492.68422146 -136.56809807 491.64587027 C-135.85239509 477.1215132 -134.94574667 462.60688552 -134.05744648 448.0922879 C-133.78878084 443.69506157 -133.5224448 439.297694 -133.25579834 434.90034485 C-132.73519072 426.32074165 -132.21249686 417.74126681 -131.68907213 409.16183507 C-131.07842293 399.15133144 -130.46991949 389.14069771 -129.86149716 379.13005853 C-128.77556815 361.26393492 -127.68776922 343.39792566 -126.59887695 325.53198242 C-125.54417916 308.22704908 -124.49073533 290.92204003 -123.4387207 273.61694336 C-123.34139204 272.01594219 -123.34139204 272.01594219 -123.24209714 270.38259756 C-123.17731947 269.31703628 -123.11254179 268.25147501 -123.04580116 267.153624 C-122.91535103 265.00778573 -122.78490046 262.86194749 -122.65444946 260.71610928 C-122.5579301 259.12841981 -122.5579301 259.12841981 -122.45946085 257.50865581 C-121.45368868 240.96508903 -120.44680064 224.42159014 -119.43978798 207.87809883 C-119.07589027 201.89967562 -118.71215051 195.92124282 -118.34852552 189.94280302 C-117.77202077 180.46445686 -117.19502983 170.98614057 -116.6170516 161.50788414 C-116.35327428 157.18206761 -116.08971916 152.85623789 -115.82680511 148.5303688 C-115.58564544 144.56259109 -115.34378982 140.5948564 -115.10140204 136.62715352 C-115.01435068 135.20029516 -114.92753998 133.77342208 -114.84100938 132.34653204 C-114.574357 127.95090988 -114.29971572 123.55586568 -114.01879883 119.16113281 C-113.9390897 117.89213328 -113.85938057 116.62313374 -113.77725601 115.31567967 C-113.65477304 113.46733535 -113.65477304 113.46733535 -113.52981567 111.58165073 C-113.45861574 110.48968846 -113.38741581 109.39772618 -113.3140583 108.27267414 C-111.85872094 92.93585101 -104.97786899 79.83180639 -94.01879883 69.16113281 C-93.4284082 68.53851563 -92.83801758 67.91589844 -92.22973633 67.27441406 C-84.8812309 60.07158385 -74.68968839 56.12175956 -65.33129883 52.15722656 C-52.64403369 46.77682538 -43.92391019 41.02417109 -35.30004883 30.01660156 C-32.98100085 27.11382062 -30.54041257 24.38898966 -28.01879883 21.66113281 C-24.60061883 17.96164297 -21.39460573 14.17284858 -18.26879883 10.22363281 C-13.07585757 3.79209249 -8.55807118 0.06499837 0 0 Z " fill="#9EABB9" transform="translate(138.018798828125,-0.1611328125)"/>
<path d="M0 0 C1.02148636 -0.00960754 2.04297272 -0.01921509 3.09541321 -0.02911377 C4.75010872 -0.03548859 4.75010872 -0.03548859 6.43823242 -0.04199219 C7.57395187 -0.04769226 8.70967133 -0.05339233 9.87980652 -0.05926514 C12.28477038 -0.06871672 14.68974721 -0.07524974 17.09472656 -0.07910156 C20.76870405 -0.08880119 24.44212077 -0.11982145 28.1159668 -0.15136719 C30.45255202 -0.15789791 32.78914124 -0.16314811 35.12573242 -0.16699219 C36.22279007 -0.17933899 37.31984772 -0.19168579 38.45014954 -0.20440674 C45.57702386 -0.18366024 50.00228009 0.67869858 55.60620117 5.34863281 C60.6952673 11.37515849 62.73519453 18.10842468 64.41870117 25.70019531 C64.84311823 27.515314 65.26759931 29.33041772 65.69213867 31.14550781 C66.34051362 33.97317033 66.98474164 36.80173549 67.62670898 39.63085938 C68.25552023 42.38560606 68.89904138 45.13662158 69.54370117 47.88769531 C69.82201782 49.14883652 69.82201782 49.14883652 70.10595703 50.43545532 C71.8240902 57.73613329 74.65781245 62.82805661 80.98120117 67.16113281 C83.26865418 68.36596393 85.52376848 69.48394246 87.87182617 70.55175781 C88.52963074 70.85743683 89.1874353 71.16311584 89.86517334 71.47805786 C91.26396134 72.12708479 92.66416693 72.77306404 94.06567383 73.41619873 C96.24836531 74.41901874 98.42584197 75.43244934 100.60229492 76.44873047 C106.57159673 79.23117266 112.54373691 81.99562275 118.59057617 84.60644531 C132.92030599 90.84032545 139.0093896 100.28452961 146.8425293 113.31884766 C147.93883482 115.09258725 149.09414439 116.80833719 150.27807617 118.52441406 C151.98120117 121.16113281 151.98120117 121.16113281 151.98120117 123.16113281 C151.05895752 123.17047852 150.13671387 123.17982422 149.18652344 123.18945312 C145.72501463 123.23378408 142.26468658 123.29553579 138.80371094 123.36865234 C137.31326414 123.39666766 135.82267415 123.41797775 134.33203125 123.43212891 C120.89558796 123.34528958 120.89558796 123.34528958 109.42431641 129.60284424 C105.37529208 134.16131799 103.25196001 138.62169225 101.26635742 144.34863281 C100.93779755 145.25521133 100.60923767 146.16178986 100.27072144 147.09584045 C99.18091174 150.11272561 98.11259908 153.13678207 97.04370117 156.16113281 C96.27194317 158.30811094 95.49854617 160.45450052 94.72363281 162.6003418 C93.04266938 167.25998488 91.36947015 171.92232118 89.70092773 176.58642578 C85.57894615 188.08984465 81.37492999 199.56342621 77.17851543 211.03985023 C75.46155174 215.73591242 73.74871287 220.43346216 72.03808594 225.13183594 C69.78989356 231.3060043 67.53238325 237.4767122 65.26898193 243.64532471 C64.40893277 245.99337019 63.55172316 248.34245767 62.69732666 250.69256592 C61.48816726 254.01688936 60.2690923 257.33741571 59.04760742 260.65722656 C58.69391586 261.63659683 58.3402243 262.6159671 57.97581482 263.62501526 C54.74530683 272.34522611 51.46687209 277.94726108 42.98120117 282.16113281 C39.92324356 283.40681263 36.82055827 284.39861649 33.66088867 285.35253906 C32.36745041 285.76051979 32.36745041 285.76051979 31.04788208 286.17674255 C28.32052391 287.03638112 25.58902797 287.88155488 22.85620117 288.72363281 C20.11644885 289.56988184 17.37804634 290.41958143 14.64309692 291.28123474 C12.94971911 291.81467065 11.25359241 292.33948498 9.55441284 292.85414124 C1.82495221 295.28736712 -3.79752542 298.73250269 -8.02636719 305.85913086 C-9.37068746 308.97735862 -9.99091612 312.17886034 -10.64770508 315.49316406 C-10.7977449 316.22391144 -10.94778473 316.95465881 -11.10237122 317.70755005 C-11.42805691 319.29383829 -11.75149184 320.88058994 -12.07293701 322.46774292 C-14.96624263 336.72983947 -18.06822912 350.93154128 -21.39379883 365.09863281 C-25.02068981 380.57540616 -28.37688075 396.09956972 -31.64846802 411.6550293 C-34.73608787 426.32013647 -37.98741994 440.93735681 -41.39990234 455.53015137 C-43.95182065 466.44359123 -46.39635173 477.36435626 -48.61181641 488.35229492 C-48.78737061 489.22249268 -48.9629248 490.09269043 -49.14379883 490.98925781 C-49.29075195 491.73079102 -49.43770508 492.47232422 -49.58911133 493.23632812 C-50.01879883 495.16113281 -50.01879883 495.16113281 -51.01879883 498.16113281 C-51.40557429 502.33830782 -51.50247125 504.43562417 -49.14379883 507.97363281 C-47.77856544 509.37902012 -46.40425465 510.77567699 -45.01879883 512.16113281 C-56.14534054 512.27698886 -67.27173872 512.36582917 -78.3987608 512.42019367 C-83.56553644 512.44628622 -88.73189938 512.48167832 -93.8984375 512.53833008 C-98.88458626 512.59266162 -103.87033809 512.62255593 -108.85676003 512.63551903 C-110.75900331 512.64475683 -112.6612249 512.66279635 -114.56329918 512.6897831 C-117.2282236 512.72608907 -119.89150864 512.73107759 -122.55664062 512.72875977 C-123.34282776 512.74673615 -124.12901489 512.76471252 -124.93902588 512.78323364 C-128.96031027 512.74539663 -130.79285956 512.33997007 -133.98518372 509.81315613 C-136.55941453 506.45611964 -137.16385305 504.19709721 -136.97213745 500.08915806 C-136.93485598 499.24659157 -136.8975745 498.40402509 -136.85916328 497.53592628 C-136.81113501 496.60001925 -136.76310673 495.66411221 -136.71362305 494.69984436 C-136.6655998 493.69203291 -136.61757656 492.68422146 -136.56809807 491.64587027 C-135.85239509 477.1215132 -134.94574667 462.60688552 -134.05744648 448.0922879 C-133.78878084 443.69506157 -133.5224448 439.297694 -133.25579834 434.90034485 C-132.73519072 426.32074165 -132.21249686 417.74126681 -131.68907213 409.16183507 C-131.07842293 399.15133144 -130.46991949 389.14069771 -129.86149716 379.13005853 C-128.77556815 361.26393492 -127.68776922 343.39792566 -126.59887695 325.53198242 C-125.54417916 308.22704908 -124.49073533 290.92204003 -123.4387207 273.61694336 C-123.34139204 272.01594219 -123.34139204 272.01594219 -123.24209714 270.38259756 C-123.17731947 269.31703628 -123.11254179 268.25147501 -123.04580116 267.153624 C-122.91535103 265.00778573 -122.78490046 262.86194749 -122.65444946 260.71610928 C-122.5579301 259.12841981 -122.5579301 259.12841981 -122.45946085 257.50865581 C-121.45368868 240.96508903 -120.44680064 224.42159014 -119.43978798 207.87809883 C-119.07589027 201.89967562 -118.71215051 195.92124282 -118.34852552 189.94280302 C-117.77202077 180.46445686 -117.19502983 170.98614057 -116.6170516 161.50788414 C-116.35327428 157.18206761 -116.08971916 152.85623789 -115.82680511 148.5303688 C-115.58564544 144.56259109 -115.34378982 140.5948564 -115.10140204 136.62715352 C-115.01435068 135.20029516 -114.92753998 133.77342208 -114.84100938 132.34653204 C-114.574357 127.95090988 -114.29971572 123.55586568 -114.01879883 119.16113281 C-113.9390897 117.89213328 -113.85938057 116.62313374 -113.77725601 115.31567967 C-113.65477304 113.46733535 -113.65477304 113.46733535 -113.52981567 111.58165073 C-113.45861574 110.48968846 -113.38741581 109.39772618 -113.3140583 108.27267414 C-111.85872094 92.93585101 -104.97786899 79.83180639 -94.01879883 69.16113281 C-93.4284082 68.53851563 -92.83801758 67.91589844 -92.22973633 67.27441406 C-84.8812309 60.07158385 -74.68968839 56.12175956 -65.33129883 52.15722656 C-52.64403369 46.77682538 -43.92391019 41.02417109 -35.30004883 30.01660156 C-32.98100085 27.11382062 -30.54041257 24.38898966 -28.01879883 21.66113281 C-24.60061883 17.96164297 -21.39460573 14.17284858 -18.26879883 10.22363281 C-13.07585757 3.79209249 -8.55807118 0.06499837 0 0 Z " fill="#798B97" transform="translate(138.018798828125,-0.1611328125)"/>
<path d="M0 0 C2.24313268 0.02138631 4.48304053 0.00014862 6.72607422 -0.02539062 C19.6719573 -0.05148417 30.78176337 2.17693103 40.37841797 11.52148438 C45.69255882 17.01440554 49.36911736 22.62802253 52.74951172 29.45898438 C53.22919907 30.40465271 53.70888641 31.35032104 54.20310974 32.324646 C55.75189865 35.38476056 57.28400943 38.45288997 58.81591797 41.52148438 C59.88733495 43.64601817 60.95977139 45.77003814 62.03320312 47.89355469 C65.1636575 54.0952041 68.27323047 60.30715457 71.37841797 66.52148438 C72.21668071 68.19667272 73.05505128 69.87180711 73.89355469 71.546875 C76.65998088 77.07538295 79.42616226 82.60397843 82.17578125 88.14086914 C86.10239787 96.03897542 90.1168821 103.8834154 94.37597656 111.60839844 C110.95559237 142.22955289 100.37841797 178.44969397 100.37841797 212.52148438 C38.00841797 212.52148438 -24.36158203 212.52148438 -88.62158203 212.52148438 C-88.70408203 195.77398437 -88.78658203 179.02648437 -88.87158203 161.77148438 C-88.90799805 156.5034082 -88.94441406 151.23533203 -88.98193359 145.80761719 C-89 139.32373047 -89 139.32373047 -89.00335693 136.27850342 C-89.00945815 134.17316293 -89.02344037 132.06783552 -89.04388428 129.96258545 C-89.19993364 113.03170037 -87.47221094 101.58174929 -78.74658203 86.83398438 C-77.57920526 84.81486351 -76.41256381 82.79531738 -75.24658203 80.77539062 C-74.64716797 79.74430176 -74.04775391 78.71321289 -73.43017578 77.65087891 C-70.4840672 72.55325205 -67.61687393 67.41205676 -64.74658203 62.27148438 C-64.17294922 61.24885498 -63.59931641 60.22622559 -63.00830078 59.17260742 C-60.20899728 54.17800756 -57.4255935 49.17556947 -54.68093872 44.15075684 C-53.35970558 41.73245324 -52.03330439 39.31699798 -50.70697021 36.90148926 C-49.7812269 35.2097941 -48.86359626 33.51366719 -47.94628906 31.81738281 C-41.93947836 20.88040658 -35.92995732 10.54342406 -24.62158203 4.52148438 C-23.97656738 4.17134277 -23.33155273 3.82120117 -22.66699219 3.46044922 C-15.2962624 -0.04504682 -7.98715267 -0.09042716 0 0 Z " fill="#596C76" transform="translate(332.62158203125,299.478515625)"/>
<path d="M0 0 C1.02148636 -0.00960754 2.04297272 -0.01921509 3.09541321 -0.02911377 C4.75010872 -0.03548859 4.75010872 -0.03548859 6.43823242 -0.04199219 C7.57395187 -0.04769226 8.70967133 -0.05339233 9.87980652 -0.05926514 C12.28477038 -0.06871672 14.68974721 -0.07524974 17.09472656 -0.07910156 C20.76870405 -0.08880119 24.44212077 -0.11982145 28.1159668 -0.15136719 C30.45255202 -0.15789791 32.78914124 -0.16314811 35.12573242 -0.16699219 C36.22279007 -0.17933899 37.31984772 -0.19168579 38.45014954 -0.20440674 C45.57702386 -0.18366024 50.00228009 0.67869858 55.60620117 5.34863281 C60.6952673 11.37515849 62.73519453 18.10842468 64.41870117 25.70019531 C64.84311823 27.515314 65.26759931 29.33041772 65.69213867 31.14550781 C66.34051362 33.97317033 66.98474164 36.80173549 67.62670898 39.63085938 C68.25552023 42.38560606 68.89904138 45.13662158 69.54370117 47.88769531 C69.82201782 49.14883652 69.82201782 49.14883652 70.10595703 50.43545532 C71.82586841 57.74368925 74.66216727 62.80836255 80.98120117 67.16113281 C82.8507917 68.13304154 84.75496992 69.04060631 86.68432617 69.88769531 C87.74651367 70.36207031 88.80870117 70.83644531 89.90307617 71.32519531 C91.00135742 71.80730469 92.09963867 72.28941406 93.23120117 72.78613281 C95.42648538 73.75165133 97.6193421 74.72271462 99.80932617 75.70019531 C100.77773437 76.12510254 101.74614258 76.55000977 102.74389648 76.98779297 C104.98120117 78.16113281 104.98120117 78.16113281 105.98120117 80.16113281 C105.05269852 80.16921967 104.12419586 80.17730652 103.16755676 80.18563843 C94.41288923 80.26361238 85.65837488 80.35091168 76.90390491 80.4486599 C72.40325306 80.49858377 67.90262423 80.54491417 63.40185547 80.58300781 C59.05752927 80.61990998 54.71339756 80.66628335 50.3692379 80.71919632 C48.71270856 80.73771406 47.05613758 80.75283169 45.39954567 80.76447678 C43.07735957 80.78138419 40.7556163 80.8104296 38.43359375 80.84228516 C37.40860023 80.84552544 37.40860023 80.84552544 36.36289978 80.84883118 C32.49442973 80.91652711 29.41674943 81.33014501 25.98120117 83.16113281 C24.80109028 85.44855411 24.80109028 85.44855411 23.98120117 88.16113281 C22.87405728 90.17598965 21.72952378 92.17051204 20.55932617 94.14941406 C19.86264695 95.32784265 19.16603527 96.50631116 18.46948242 97.68481445 C18.10419434 98.30067413 17.73890625 98.91653381 17.36254883 99.55105591 C16.20850617 101.5122 15.07535264 103.48423888 13.94604492 105.4597168 C10.50588661 111.4412472 7.10866434 117.18731788 2.77807617 122.58300781 C-9.53440042 138.73560596 -8.40279873 155.78870718 -8.02661133 175.36254883 C-8.00782928 176.48628403 -7.98904724 177.61001923 -7.96969604 178.76780701 C-7.92536062 180.90116381 -7.85996129 183.03422033 -7.77029419 185.16615295 C-7.61953123 191.02074054 -7.84715321 194.64071473 -12.01879883 199.16113281 C-15.4680041 201.78957344 -19.46051839 201.50043093 -23.63598633 201.53222656 C-24.37076202 201.54125504 -25.10553772 201.55028351 -25.86257935 201.55958557 C-27.41412294 201.57406357 -28.96572725 201.58296872 -30.51733398 201.58666992 C-32.8795562 201.59856112 -35.23915921 201.64775809 -37.60083008 201.69824219 C-39.11253615 201.70770826 -40.62425819 201.71494242 -42.13598633 201.71972656 C-42.83617889 201.73925888 -43.53637146 201.7587912 -44.25778198 201.77891541 C-48.06238043 201.74426551 -50.48750682 201.15849601 -53.41748047 198.82226562 C-56.40757624 195.76341589 -57.36476989 193.55416714 -58.58129883 189.47363281 C-58.87907227 188.5028479 -58.87907227 188.5028479 -59.18286133 187.51245117 C-59.82088757 185.40199879 -60.42413346 183.28418832 -61.01879883 181.16113281 C-61.22359863 180.43603516 -61.42839844 179.7109375 -61.6394043 178.96386719 C-62.69544016 175.20797383 -63.73224159 171.44694842 -64.76489258 167.68457031 C-65.99536147 163.22640546 -67.25522186 158.77935659 -68.58129883 154.34863281 C-68.95383789 153.0840625 -69.32637695 151.81949219 -69.71020508 150.51660156 C-71.05568018 147.06656242 -72.45792001 144.82031792 -75.01879883 142.16113281 C-78.7530048 140.91639749 -82.29245121 140.92903496 -86.18676758 140.84472656 C-86.98158035 140.82394547 -87.77639313 140.80316437 -88.59529114 140.78175354 C-91.13220645 140.71641194 -93.66922455 140.65744473 -96.20629883 140.59863281 C-97.92701255 140.55543295 -99.6477159 140.51181818 -101.3684082 140.46777344 C-105.58509996 140.36074633 -109.80189502 140.25943557 -114.01879883 140.16113281 C-114.48526736 90.02653032 -114.48526736 90.02653032 -96.24536133 71.32910156 C-95.5105957 70.61367187 -94.77583008 69.89824219 -94.01879883 69.16113281 C-93.4284082 68.53851563 -92.83801758 67.91589844 -92.22973633 67.27441406 C-84.8812309 60.07158385 -74.68968839 56.12175956 -65.33129883 52.15722656 C-52.64403369 46.77682538 -43.92391019 41.02417109 -35.30004883 30.01660156 C-32.98100085 27.11382062 -30.54041257 24.38898966 -28.01879883 21.66113281 C-24.60061883 17.96164297 -21.39460573 14.17284858 -18.26879883 10.22363281 C-13.07585757 3.79209249 -8.55807118 0.06499837 0 0 Z " fill="#9DC53D" transform="translate(138.018798828125,-0.1611328125)"/>
<path d="M0 0 C0.66032227 0.37737305 1.32064453 0.75474609 2.00097656 1.14355469 C9.98969435 5.74677527 14.4400259 12.29608394 19.125 20.0625 C19.9600946 21.42890092 20.79602012 22.7947944 21.6328125 24.16015625 C22.02758789 24.80871582 22.42236328 25.45727539 22.82910156 26.12548828 C23.943091 27.90889339 25.11099732 29.64040047 26.3046875 31.37109375 C28 34 28 34 28 36 C27.07775635 36.0093457 26.1555127 36.01869141 25.20532227 36.02832031 C21.74381346 36.07265127 18.28348541 36.13440298 14.82250977 36.20751953 C13.33206297 36.23553484 11.84147297 36.25684494 10.35083008 36.27099609 C-3.08561321 36.18415676 -3.08561321 36.18415676 -14.55688477 42.44171143 C-18.60590909 47.00018518 -20.72924116 51.46055943 -22.71484375 57.1875 C-23.04340363 58.09407852 -23.3719635 59.00065704 -23.71047974 59.93470764 C-24.80028943 62.9515928 -25.8686021 65.97564925 -26.9375 69 C-27.709258 71.14697813 -28.48265501 73.2933677 -29.25756836 75.43920898 C-30.93853179 80.09885207 -32.61173102 84.76118836 -34.28027344 89.42529297 C-38.40225502 100.92871184 -42.60627118 112.4022934 -46.80268574 123.87871742 C-48.51964943 128.57477961 -50.2324883 133.27232934 -51.94311523 137.97070312 C-54.19130761 144.14487148 -56.44881792 150.31557939 -58.71221924 156.48419189 C-59.5722684 158.83223738 -60.42947801 161.18132485 -61.28387451 163.53143311 C-62.49303391 166.85575655 -63.71210887 170.1762829 -64.93359375 173.49609375 C-65.28728531 174.47546402 -65.64097687 175.45483429 -66.00538635 176.46388245 C-69.23589435 185.1840933 -72.51432908 190.78612827 -81 195 C-84.05795762 196.24567982 -87.1606429 197.23748368 -90.3203125 198.19140625 C-91.18260468 198.4633934 -92.04489685 198.73538055 -92.93331909 199.01560974 C-95.66067726 199.87524831 -98.3921732 200.72042207 -101.125 201.5625 C-103.86475233 202.40874902 -106.60315483 203.25844862 -109.33810425 204.12010193 C-111.03148206 204.65353784 -112.72760876 205.17835217 -114.42678833 205.69300842 C-122.15624896 208.12623431 -127.77872659 211.57136987 -132.00756836 218.69799805 C-133.35188863 221.81622581 -133.9721173 225.01772752 -134.62890625 228.33203125 C-134.77894608 229.06277863 -134.9289859 229.793526 -135.08357239 230.54641724 C-135.40925808 232.13270548 -135.73269301 233.71945713 -136.05413818 235.30661011 C-138.9474438 249.56870666 -142.04943029 263.77040846 -145.375 277.9375 C-149.00189098 293.41427335 -152.35808192 308.93843691 -155.62966919 324.49389648 C-158.71728904 339.15900365 -161.96862111 353.776224 -165.38110352 368.36901855 C-167.93302182 379.28245842 -170.3775529 390.20322345 -172.59301758 401.19116211 C-172.76857178 402.06135986 -172.94412598 402.93155762 -173.125 403.828125 C-173.27195312 404.5696582 -173.41890625 405.31119141 -173.5703125 406.07519531 C-174 408 -174 408 -175 411 C-175.38677546 415.17717501 -175.48367243 417.27449136 -173.125 420.8125 C-171.75976661 422.21788731 -170.38545583 423.61454417 -169 425 C-180.88 425 -192.76 425 -205 425 C-205 418.8632143 -204.57573728 414.36261657 -203.0625 408.625 C-200.29049826 397.57731682 -197.923865 386.45322998 -195.5625 375.3125 C-193.1285139 363.85388899 -190.68533749 352.40294105 -188 341 C-185.38505297 329.8867046 -182.99847281 318.72922991 -180.625 307.5625 C-177.52927722 292.99993587 -174.32286691 278.47007099 -170.95849609 263.96728516 C-169.18687575 256.31042252 -167.48305274 248.64365828 -165.86328125 240.953125 C-165.68566757 240.11384964 -165.50805389 239.27457428 -165.32505798 238.40986633 C-164.46844708 234.35967832 -163.6206426 230.30803644 -162.78881836 226.25268555 C-159.28713294 209.45552934 -153.92372224 196.24453332 -139.3984375 186 C-128.38738252 179.51993086 -115.04133272 175.91117602 -102.63671875 173.2890625 C-96.77904438 171.92848828 -96.77904438 171.92848828 -92.64990234 167.88452148 C-92.31941895 166.99321533 -91.98893555 166.10190918 -91.6484375 165.18359375 C-91.23940186 164.1064209 -90.83036621 163.02924805 -90.40893555 161.91943359 C-89.93861947 160.61319709 -89.46903534 159.30669693 -89 158 C-88.41359556 156.41057144 -87.82603614 154.8215687 -87.23754883 153.23291016 C-85.19330297 147.68599148 -83.18903871 142.12494307 -81.1875 136.5625 C-79.82910696 132.79214052 -78.46859095 129.02255861 -77.10546875 125.25390625 C-76.76927521 124.3241951 -76.43308167 123.39448395 -76.08670044 122.43659973 C-73.3719152 114.95912229 -70.54814505 107.52608582 -67.69993591 100.09860229 C-65.42983683 94.16616868 -63.27610678 88.20794899 -61.25 82.1875 C-58.1564655 73.19268624 -54.95665368 64.23858303 -51.6595459 55.31655884 C-51.14398867 53.91746712 -50.63191654 52.51708531 -50.12365723 51.11532593 C-45.68423696 38.88998427 -40.94986728 29.18471165 -31.07421875 20.51953125 C-28.35781914 17.2199498 -27.87416436 15.26443002 -28 11 C-31.2680031 5.6648865 -35.29884587 3.38169999 -40.875 0.8125 C-41.89787109 0.3184668 -41.89787109 0.3184668 -42.94140625 -0.18554688 C-47.24313214 -2.24627842 -51.60538773 -4.14691937 -56 -6 C-56 -6.33 -56 -6.66 -56 -7 C-14.61127441 -9.82697806 -14.61127441 -9.82697806 0 0 Z " fill="#596C76" transform="translate(262,87)"/>
<path d="M0 0 C0.73905075 -0.00511093 1.4781015 -0.01022186 2.23954773 -0.01548767 C4.66840853 -0.02932069 7.09698353 -0.02843155 9.52587891 -0.02612305 C11.22449854 -0.0300137 12.9231172 -0.03434913 14.62173462 -0.03910828 C18.17737993 -0.04655716 21.73292593 -0.04628908 25.28857422 -0.04101562 C29.83007591 -0.03522561 34.37116916 -0.05214702 38.91260338 -0.0753603 C42.41977285 -0.0901408 45.92684496 -0.09096343 49.43404007 -0.08785057 C51.10767042 -0.08836171 52.78130652 -0.09356025 54.45490646 -0.10366249 C56.8022335 -0.11609255 59.14877787 -0.10919649 61.49609375 -0.09765625 C62.17791214 -0.10529999 62.85973053 -0.11294373 63.56221008 -0.12081909 C69.85675019 -0.05291572 75.18862481 1.4930633 80.06494141 5.4621582 C86.09893593 12.80080019 89.83985133 21.23864338 93.75244141 29.8371582 C94.32770114 31.09178452 94.90346877 32.34617807 95.47973633 33.6003418 C96.60529952 36.05063526 97.72861085 38.50191364 98.85058594 40.95385742 C100.14446677 43.76795513 101.45339557 46.57344188 102.77978516 49.37231445 C103.11123535 50.07219482 103.44268555 50.7720752 103.78417969 51.49316406 C104.62219366 53.25705923 105.46260315 55.01981576 106.30322266 56.7824707 C107.37744141 59.2746582 107.37744141 59.2746582 107.37744141 61.2746582 C106.37599091 61.28012665 106.37599091 61.28012665 105.35430908 61.28570557 C98.41114377 61.32748651 91.46864221 61.39680146 84.52587891 61.48217773 C81.93414953 61.51041927 79.34233352 61.53161786 76.75048828 61.5456543 C73.02672869 61.56703883 69.3040144 61.61366906 65.58056641 61.6652832 C64.42002747 61.66651184 63.25948853 61.66774048 62.06378174 61.66900635 C60.44255402 61.69858429 60.44255402 61.69858429 58.78857422 61.72875977 C57.36294159 61.74208344 57.36294159 61.74208344 55.9085083 61.75567627 C52.63958429 62.42595192 51.47630116 63.73668385 49.37744141 66.2746582 C47.8365138 68.78627359 47.8365138 68.78627359 46.50244141 71.5559082 C45.73673828 73.06604492 45.73673828 73.06604492 44.95556641 74.60668945 C44.43478516 75.65211914 43.91400391 76.69754883 43.37744141 77.7746582 C42.34301301 79.85119639 41.30158427 81.92426534 40.25244141 83.9934082 C39.79611328 84.91057617 39.33978516 85.82774414 38.86962891 86.77270508 C36.60102263 90.57648078 34.61283431 92.86286057 30.37744141 94.2746582 C28.87117293 94.39839672 27.36075893 94.4753817 25.85009766 94.52075195 C24.97546875 94.55362305 24.10083984 94.58649414 23.19970703 94.62036133 C21.36389113 94.68142527 19.52794636 94.73873375 17.69189453 94.79223633 C16.81597656 94.82639648 15.94005859 94.86055664 15.03759766 94.89575195 C14.23974854 94.92080811 13.44189941 94.94586426 12.61987305 94.97167969 C10.1017375 95.311909 8.50807505 95.89257184 6.37744141 97.2746582 C2.21002972 104.45186722 -0.4110109 112.36901483 -3.26708984 120.13793945 C-3.64220703 121.12665039 -4.01732422 122.11536133 -4.40380859 123.1340332 C-4.89977539 124.47159668 -4.89977539 124.47159668 -5.40576172 125.83618164 C-6.78543451 128.60106363 -8.27416317 130.2788579 -10.62255859 132.2746582 C-13.65110049 133.28417217 -15.66261202 133.39570321 -18.82836914 133.38818359 C-20.41967903 133.3880703 -20.41967903 133.3880703 -22.0431366 133.38795471 C-23.18696304 133.38279343 -24.33078949 133.37763214 -25.50927734 133.37231445 C-26.68142288 133.37089951 -27.85356842 133.36948456 -29.06123352 133.36802673 C-32.81086767 133.36242209 -36.56044245 133.34986877 -40.31005859 133.3371582 C-42.84977127 133.3321438 -45.38948489 133.32758079 -47.92919922 133.32348633 C-54.16033932 133.31245114 -60.39144472 133.29570846 -66.62255859 133.2746582 C-66.05888807 128.36300637 -65.01225535 124.11526123 -63.27099609 119.4934082 C-62.90078842 118.49991112 -62.90078842 118.49991112 -62.52310181 117.48634338 C-61.9775795 116.02443904 -61.42888412 114.56371584 -60.87744141 113.10403442 C-59.30688282 108.9461832 -57.75975601 104.77958281 -56.20849609 100.61450195 C-55.86042908 99.68198105 -55.51236206 98.74946014 -55.15374756 97.78868103 C-51.99040896 89.30017465 -48.88399247 80.79128906 -45.78662109 72.27856445 C-45.27477773 70.87246426 -44.76292671 69.46636686 -44.25106812 68.06027222 C-42.20181669 62.42983886 -40.15329909 56.79914063 -38.10809326 51.16723633 C-34.96987913 42.5275677 -31.8129724 33.89522332 -28.62255859 25.2746582 C-28.29763428 24.39232513 -27.97270996 23.50999207 -27.63793945 22.60092163 C-26.84437803 20.46058747 -26.0353119 18.32723429 -25.21630859 16.1965332 C-24.81089844 15.13144531 -24.40548828 14.06635742 -23.98779297 12.96899414 C-21.17978341 7.42729288 -16.68493004 3.50353743 -10.95248413 1.20320129 C-7.23874182 0.16763166 -3.82024693 -0.0137991 0 0 Z " fill="#B6E446" transform="translate(265.62255859375,122.725341796875)"/>
<path d="M0 0 C-1.24739861 4.05784741 -2.73931599 7.59339637 -4.86328125 11.265625 C-5.42080078 12.23886719 -5.97832031 13.21210938 -6.55273438 14.21484375 C-7.42381836 15.71724609 -7.42381836 15.71724609 -8.3125 17.25 C-19.05994472 35.61781669 -19.05994472 35.61781669 -22.31884766 56.24975586 C-22.32889328 57.25539581 -22.3389389 58.26103577 -22.34928894 59.29714966 C-22.38004488 62.60304217 -22.3971351 65.90885396 -22.4140625 69.21484375 C-22.43278023 71.51413158 -22.4523541 73.81341258 -22.4727478 76.11268616 C-22.52401091 82.15092948 -22.5636679 88.18919505 -22.60089111 94.22753906 C-22.64801899 101.47974447 -22.70959193 108.73183995 -22.76873779 115.98395538 C-22.85687905 126.98925907 -22.92669459 137.99454245 -23 149 C-52.7 149 -82.4 149 -113 149 C-112.31977033 142.87793295 -111.57803444 137.8952161 -109.75 132.1875 C-107.79548514 125.83390215 -106.07043471 119.45906606 -104.5 113 C-102.81349867 106.09233865 -100.94524783 99.27592632 -98.88598633 92.47094727 C-96.27162467 83.7312139 -94.15368867 74.86219975 -92 66 C-97.28 67.65 -102.56 69.3 -108 71 C-106.72044614 63.65617758 -105.38932509 56.32386748 -104 49 C-103.83983398 48.14809082 -103.67966797 47.29618164 -103.51464844 46.41845703 C-103.07645401 44.14794007 -102.60730314 41.886506 -102.125 39.625 C-101.72667969 37.69527344 -101.72667969 37.69527344 -101.3203125 35.7265625 C-98.30838016 27.22542803 -92.39823288 22.25499237 -85.1875 17.1875 C-84.43146484 16.62869141 -83.67542969 16.06988281 -82.89648438 15.49414062 C-73.59179681 8.83886964 -64.20745358 7.36719041 -52.98828125 5.95703125 C-51.64779534 5.78263022 -50.30739851 5.60754326 -48.96708679 5.43180847 C-46.17494449 5.06759106 -43.38213351 4.70928078 -40.58862305 4.35571289 C-37.02013777 3.90391159 -33.45323356 3.44082851 -29.88671589 2.97377491 C-27.12553178 2.6128248 -24.36382489 2.25602321 -21.60191917 1.90064049 C-19.65088575 1.64937419 -17.70011189 1.39609507 -15.74934387 1.14277649 C-14.55758041 0.99229355 -13.36581696 0.84181061 -12.13793945 0.68676758 C-11.09475052 0.55369705 -10.05156158 0.42062653 -8.97676086 0.28352356 C-5.96533547 -0.00330165 -3.02309902 -0.04959542 0 0 Z " fill="#9EACB9" transform="translate(267,363)"/>
<path d="M0 0 C9.57 0 19.14 0 29 0 C32.76953125 7.94140625 32.76953125 7.94140625 34.05622864 10.65275574 C36.18243501 15.13236261 38.31116113 19.6107488 40.4440918 24.0871582 C44.16877214 31.90764894 47.89238495 39.72624342 51.5 47.6015625 C51.98750732 48.65529053 52.47501465 49.70901855 52.97729492 50.79467773 C53.83869533 52.66096653 54.68870387 54.53257589 55.5246582 56.41040039 C58.47626781 62.75996058 62.19865171 67.44949439 69 70 C72.5136907 70.73089098 75.91844897 71.07352017 79.49609375 71.17578125 C80.30240234 71.19962891 81.10871094 71.22347656 81.93945312 71.24804688 C83.60065247 71.29090816 85.26219128 71.32221749 86.92382812 71.34179688 C93.41931325 71.56470658 97.83639161 72.92436489 102.55013847 77.50703239 C106.13024595 81.5041545 108.12522175 85.08246292 109.34423828 90.34033203 C109.53765368 91.09766695 109.73106907 91.85500187 109.93034554 92.63528633 C110.37862812 94.40086564 110.81761106 96.16882135 111.24936676 97.93851471 C112.08839307 101.36051439 112.95970445 104.77341064 113.83441162 108.1864624 C115.87639466 116.16769716 117.88376515 124.1574806 119.8882308 132.14820623 C120.91927743 136.2564385 121.95285897 140.36403306 122.9861145 144.47171021 C124.73081366 151.40915831 126.47390029 158.34700983 128.21582031 165.28515625 C129.96950585 172.2701581 131.72427769 179.25488548 133.48046875 186.23925781 C133.69403857 187.08864544 133.90760839 187.93803306 134.12765002 188.8131597 C134.98721808 192.2316619 135.84681627 195.65015652 136.70649576 199.0686307 C139.04135225 208.35339619 141.37394505 217.63871792 143.69989014 226.92572021 C144.52734769 230.22883006 145.35493939 233.53190627 146.18261719 236.83496094 C146.384755 237.64177543 146.58689281 238.44858993 146.795156 239.27985334 C149.34165671 249.44032423 151.91148427 259.59446466 154.5111599 269.7414608 C155.78183148 274.70117717 157.04449605 279.66292009 158.3050257 284.6252228 C159.13544836 287.89162414 159.97211217 291.15612515 160.81753159 294.41869736 C161.73126525 297.94571981 162.62932151 301.47638636 163.52392578 305.00830078 C163.9278826 306.5407588 163.9278826 306.5407588 164.34000015 308.10417557 C165.68469643 313.485017 166.39969372 317.5875532 165 323 C163.08203125 325.91796875 163.08203125 325.91796875 160 328 C156.53563496 328.58443105 153.18780394 328.47329135 149.6875 328.3125 C148.75615234 328.28994141 147.82480469 328.26738281 146.86523438 328.24414062 C144.5751604 328.18542078 142.28842125 328.10336858 140 328 C138.48144532 322.001709 138.48144532 322.001709 137.98633194 320.0460043 C137.0402566 316.30899709 136.09417136 312.5719924 135.14807129 308.83499146 C133.16956718 301.02005526 131.19113914 293.20509982 129.21300125 285.39007092 C128.0482955 280.7886818 126.88353607 276.18730628 125.71875 271.5859375 C125.48219444 270.65144587 125.24563889 269.71695423 125.00191498 268.75414467 C121.80963124 256.1437112 118.61488843 243.53390373 115.41778946 230.92469025 C113.73590813 224.29104349 112.05467582 217.65723223 110.37361908 211.02337646 C109.95741724 209.38099356 109.54118283 207.7386189 109.12491608 206.09625244 C104.52145654 187.93310026 99.93185499 169.76671355 95.3984375 151.5859375 C95.21495255 150.85036306 95.03146759 150.11478863 94.84242249 149.35692406 C91.70086479 136.76211446 91.70086479 136.76211446 90.14489746 130.4861145 C88.3868859 123.39597794 86.61722898 116.30910884 84.81848145 109.22918701 C84.27244165 107.07487476 83.73069753 104.91946919 83.1932373 102.76300049 C82.43301138 99.72461641 81.65301555 96.69200496 80.8671875 93.66015625 C80.54175461 92.33751015 80.54175461 92.33751015 80.20974731 90.98814392 C78.4432734 84.31336744 76.05367384 78.86959623 69.9375 75.125 C65.64809248 73.48224818 62.17931523 72.87626068 57.57641602 72.87402344 C56.49171524 72.87021667 55.40701447 72.86640991 54.28944397 72.86248779 C53.12271652 72.86146057 51.95598907 72.86043335 50.75390625 72.859375 C48.28319386 72.84105359 45.81249046 72.8214839 43.34179688 72.80078125 C39.446378 72.77176418 35.55154002 72.74999863 31.65600586 72.74951172 C27.8964482 72.74618362 24.13823162 72.71167668 20.37890625 72.671875 C18.63185143 72.68247955 18.63185143 72.68247955 16.84950256 72.69329834 C7.85057655 72.55750699 7.85057655 72.55750699 4.73022461 69.68457031 C3 67 3 67 2.9375 63.375 C4.14913776 59.52626829 4.5117683 58.84990203 8 57 C11.07693178 56.4985575 14.1370496 56.39761974 17.25 56.3125 C18.09046875 56.27833984 18.9309375 56.24417969 19.796875 56.20898438 C21.86412204 56.12676432 23.93203874 56.06169843 26 56 C25.67427002 55.3287207 25.34854004 54.65744141 25.01293945 53.96582031 C18.47609355 40.47937109 12.00625122 26.96509585 5.6875 13.375 C5.39960602 12.75741821 5.11171204 12.13983643 4.81509399 11.50354004 C4.00344382 9.76119185 3.19499912 8.0173515 2.38671875 6.2734375 C1.69388794 4.77949463 1.69388794 4.77949463 0.98706055 3.25537109 C0 1 0 1 0 0 Z " fill="#8D9CA8" transform="translate(345,184)"/>
<path d="M0 0 C-1.24739861 4.05784741 -2.73931599 7.59339637 -4.86328125 11.265625 C-5.42080078 12.23886719 -5.97832031 13.21210938 -6.55273438 14.21484375 C-7.42381836 15.71724609 -7.42381836 15.71724609 -8.3125 17.25 C-18.56687959 34.27091978 -18.56687959 34.27091978 -22.4140625 53.46484375 C-22.43342865 54.14301651 -22.4527948 54.82118927 -22.4727478 55.51991272 C-22.53191999 57.65898566 -22.57867519 59.79811428 -22.625 61.9375 C-22.66323745 63.39911036 -22.70229242 64.86069957 -22.7421875 66.32226562 C-22.83756819 69.88131543 -22.92182567 73.44052587 -23 77 C-25.4556793 75.93322554 -27.91122754 74.86615386 -30.36645508 73.79833984 C-32.46684483 72.88617993 -34.56825798 71.97637316 -36.6706543 71.06884766 C-41.3883702 69.02842197 -46.09359032 66.97969883 -50.73828125 64.77734375 C-64.21464384 58.42341559 -72.6813358 59.74529411 -86.59277344 64.22509766 C-89.16449689 65.05295265 -91.74169458 65.86185858 -94.3203125 66.66796875 C-98.88485905 68.09762394 -103.44361378 69.5445572 -108 71 C-106.72519035 63.65549781 -105.3892953 56.32371044 -104 49 C-103.83983398 48.14809082 -103.67966797 47.29618164 -103.51464844 46.41845703 C-103.07645401 44.14794007 -102.60730314 41.886506 -102.125 39.625 C-101.72667969 37.69527344 -101.72667969 37.69527344 -101.3203125 35.7265625 C-98.30838016 27.22542803 -92.39823288 22.25499237 -85.1875 17.1875 C-84.43146484 16.62869141 -83.67542969 16.06988281 -82.89648438 15.49414062 C-73.59179681 8.83886964 -64.20745358 7.36719041 -52.98828125 5.95703125 C-51.64779534 5.78263022 -50.30739851 5.60754326 -48.96708679 5.43180847 C-46.17494449 5.06759106 -43.38213351 4.70928078 -40.58862305 4.35571289 C-37.02013777 3.90391159 -33.45323356 3.44082851 -29.88671589 2.97377491 C-27.12553178 2.6128248 -24.36382489 2.25602321 -21.60191917 1.90064049 C-19.65088575 1.64937419 -17.70011189 1.39609507 -15.74934387 1.14277649 C-14.55758041 0.99229355 -13.36581696 0.84181061 -12.13793945 0.68676758 C-11.09475052 0.55369705 -10.05156158 0.42062653 -8.97676086 0.28352356 C-5.96533547 -0.00330165 -3.02309902 -0.04959542 0 0 Z " fill="#B6E446" transform="translate(267,363)"/>
<path d="M0 0 C5.87155408 -0.07433795 11.74283219 -0.12869117 17.61474609 -0.16479492 C19.61088841 -0.17985098 21.60699781 -0.20030027 23.60302734 -0.22631836 C26.47762185 -0.26284161 29.35177772 -0.27975837 32.2265625 -0.29296875 C33.55815903 -0.31619453 33.55815903 -0.31619453 34.91665649 -0.33988953 C41.42132071 -0.34164331 45.52728434 0.93940362 50.625 5.1875 C55.71406612 11.21402567 57.75399336 17.94729187 59.4375 25.5390625 C59.86191706 27.35418119 60.28639814 29.16928491 60.7109375 30.984375 C61.35931245 33.81203752 62.00354046 36.64060268 62.64550781 39.46972656 C63.27431906 42.22447325 63.91784021 44.97548877 64.5625 47.7265625 C64.84081665 48.9877037 64.84081665 48.9877037 65.12475586 50.27432251 C66.84466723 57.58255644 69.6809661 62.64722974 76 67 C77.86959053 67.97190872 79.77376875 68.87947349 81.703125 69.7265625 C82.7653125 70.2009375 83.8275 70.6753125 84.921875 71.1640625 C86.02015625 71.64617187 87.1184375 72.12828125 88.25 72.625 C90.44528421 73.59051852 92.63814093 74.5615818 94.828125 75.5390625 C95.7965332 75.96396973 96.76494141 76.38887695 97.76269531 76.82666016 C100 78 100 78 101 80 C75.51238195 81.4891642 51.71536617 82.59133963 31.06640625 64.91015625 C26.66344654 60.13668284 25.48371285 54.17006425 24 48 C23.84170715 47.3485199 23.68341431 46.69703979 23.52032471 46.02581787 C22.14980382 40.35978662 20.83607239 34.68001456 19.57543945 28.98852539 C17.49911435 19.66325759 15.66723527 11.54756257 8.5625 4.625 C5.78231739 2.86195737 3.16285489 1.88265718 0 1 C0 0.67 0 0.34 0 0 Z " fill="#91B638" transform="translate(143,0)"/>
<path d="M0 0 C9.57 0 19.14 0 29 0 C32.76953125 7.94140625 32.76953125 7.94140625 34.05622864 10.65275574 C36.18243501 15.13236261 38.31116113 19.6107488 40.4440918 24.0871582 C44.16877214 31.90764894 47.89238495 39.72624342 51.5 47.6015625 C51.98750732 48.65529053 52.47501465 49.70901855 52.97729492 50.79467773 C53.83869533 52.66096653 54.68870387 54.53257589 55.5246582 56.41040039 C58.91218446 63.69771297 63.07987968 66.92934099 70 71 C70 71.33 70 71.66 70 72 C62.00265109 72.11597526 54.00565491 72.20475511 46.00767231 72.25906086 C42.29363057 72.28512841 38.58016514 72.32047209 34.86645508 72.37719727 C31.28080287 72.43162214 27.69570409 72.46144192 24.10967064 72.47438622 C22.74329098 72.48360764 21.37694081 72.50161581 20.0107975 72.52865028 C7.95551468 72.75767046 7.95551468 72.75767046 4.62573242 69.69604492 C3 67 3 67 2.9375 63.375 C4.14913776 59.52626829 4.5117683 58.84990203 8 57 C11.07693178 56.4985575 14.1370496 56.39761974 17.25 56.3125 C18.09046875 56.27833984 18.9309375 56.24417969 19.796875 56.20898438 C21.86412204 56.12676432 23.93203874 56.06169843 26 56 C25.67427002 55.3287207 25.34854004 54.65744141 25.01293945 53.96582031 C18.47609355 40.47937109 12.00625122 26.96509585 5.6875 13.375 C5.39960602 12.75741821 5.11171204 12.13983643 4.81509399 11.50354004 C4.00344382 9.76119185 3.19499912 8.0173515 2.38671875 6.2734375 C1.69388794 4.77949463 1.69388794 4.77949463 0.98706055 3.25537109 C0 1 0 1 0 0 Z " fill="#8D9CA8" transform="translate(345,184)"/>
<path d="M0 0 C3.31024555 0.96575302 4.23292935 2.69014939 6.03515625 5.59375 C6.623904 8.83694931 6.59592809 12.03108757 6.56640625 15.3203125 C6.57023315 16.26377533 6.57406006 17.20723816 6.57800293 18.17929077 C6.5807209 20.17471382 6.57336776 22.17017256 6.55664062 24.16552734 C6.53537259 27.18800557 6.55637168 30.20806774 6.58203125 33.23046875 C6.61531072 52.0090408 6.61531072 52.0090408 2.03515625 60.59375 C1.5565918 61.51752441 1.07802734 62.44129883 0.58496094 63.39306641 C-0.99821848 66.33094032 -2.65326745 69.21413471 -4.33984375 72.09375 C-5.45264785 74.02035709 -6.56462986 75.94743925 -7.67578125 77.875 C-8.16353027 78.71095703 -8.6512793 79.54691406 -9.15380859 80.40820312 C-9.7514502 81.45943359 -10.3490918 82.51066406 -10.96484375 83.59375 C-11.7168531 84.73887558 -11.7168531 84.73887558 -12.48405457 85.90713501 C-17.20772819 93.55762991 -17.77100216 99.74737562 -17.59375 108.6171875 C-17.59657335 110.6099487 -17.59942361 112.60271029 -17.60387325 114.59546852 C-17.60326972 118.05345198 -17.56296387 121.51098261 -17.52734375 124.96875 C-17.48863076 129.12330298 -17.45896741 133.27728556 -17.46604919 137.43203735 C-17.46781757 140.00860845 -17.44661252 142.58532218 -17.39979553 145.16146851 C-17.40208601 154.79955183 -17.40208601 154.79955183 -20.26928711 157.91650391 C-22.96484375 159.59375 -22.96484375 159.59375 -26.58984375 159.65625 C-30.35446627 158.47109106 -31.06022782 157.92533419 -32.96484375 154.59375 C-33.34579468 151.89546204 -33.34579468 151.89546204 -33.35302734 148.7746582 C-33.36721207 147.01681755 -33.36721207 147.01681755 -33.38168335 145.22346497 C-33.37561066 143.95991684 -33.36953796 142.69636871 -33.36328125 141.39453125 C-33.36615143 140.08977341 -33.36902161 138.78501556 -33.37197876 137.4407196 C-33.37639904 134.67757516 -33.36998622 131.91472186 -33.35595703 129.15161133 C-33.3389488 125.63242518 -33.34865403 122.11392974 -33.36667442 118.59476948 C-33.38021897 115.21547042 -33.37068785 111.83634985 -33.36328125 108.45703125 C-33.36935394 107.20360428 -33.37542664 105.95017731 -33.38168335 104.6587677 C-33.30448917 94.96382822 -31.47053847 87.90137555 -26.8203125 79.4140625 C-26.22541016 78.31964844 -25.63050781 77.22523438 -25.01757812 76.09765625 C-24.40205078 74.98261719 -23.78652344 73.86757813 -23.15234375 72.71875 C-22.54841797 71.61144531 -21.94449219 70.50414062 -21.32226562 69.36328125 C-20.72349609 68.26628906 -20.12472656 67.16929687 -19.5078125 66.0390625 C-18.91830811 64.93852539 -18.32880371 63.83798828 -17.72143555 62.70410156 C-15.96484375 59.59375 -15.96484375 59.59375 -14.20239258 57.13183594 C-7.81612309 47.72648197 -9.18052778 36.50396712 -9.27734375 25.59375 C-9.28864874 22.48848705 -9.29132883 19.38381717 -9.27690125 16.27856445 C-9.2695163 14.35652074 -9.27772584 12.43433894 -9.30329895 10.51245117 C-9.30265694 9.21464722 -9.30265694 9.21464722 -9.30200195 7.890625 C-9.30899612 7.13104492 -9.3159903 6.37146484 -9.32319641 5.58886719 C-8.39151591 0.40176526 -4.69649351 0.21717889 0 0 Z " fill="#596C76" transform="translate(81.96484375,242.40625)"/>
<path d="M0 0 C9.90134192 -0.06966027 19.80262507 -0.12289249 29.7041626 -0.15543652 C34.30237515 -0.17105987 38.90041943 -0.19223702 43.49853516 -0.22631836 C47.94002933 -0.25903098 52.38136213 -0.27687804 56.82296753 -0.28463173 C58.513362 -0.29015394 60.20374813 -0.30093734 61.89407349 -0.31719017 C64.27071889 -0.33912318 66.64670639 -0.34196039 69.0234375 -0.34057617 C69.71468216 -0.351362 70.40592682 -0.36214783 71.11811829 -0.3732605 C77.45119137 -0.33362162 82.78182338 1.1945074 87.6875 5.1875 C93.72149452 12.52614199 97.46240992 20.96398518 101.375 29.5625 C101.95025973 30.81712631 102.52602737 32.07151987 103.10229492 33.32568359 C104.22785811 35.77597706 105.35116945 38.22725544 106.47314453 40.67919922 C107.76702536 43.49329693 109.07595417 46.29878368 110.40234375 49.09765625 C110.73379395 49.79753662 111.06524414 50.49741699 111.40673828 51.21850586 C112.24475225 52.98240103 113.08516175 54.74515756 113.92578125 56.5078125 C115 59 115 59 115 61 C97.84 61 80.68 61 63 61 C63 60.67 63 60.34 63 60 C70.59 60 78.18 60 86 60 C83.86974351 55.4499376 81.73817227 50.9005331 79.60351562 46.35253906 C78.88143526 44.81316596 78.16005305 43.27346512 77.43945312 41.73339844 C75.33184834 37.22971782 73.21124216 32.73257224 71.0703125 28.24462891 C70.35298764 26.74027562 69.63816801 25.23472535 68.92578125 23.72802734 C67.88871616 21.54230819 66.83712784 19.36418225 65.78125 17.1875 C65.47449341 16.53587891 65.16773682 15.88425781 64.85168457 15.21289062 C61.72607145 8.84873577 57.74755294 4.40502547 51 2 C47.08601562 1.54935067 43.19480871 1.51147618 39.2578125 1.48828125 C38.13430389 1.47033005 37.01079529 1.45237885 35.85324097 1.43388367 C32.27719841 1.37985386 28.70128881 1.34590754 25.125 1.3125 C22.69529403 1.27932056 20.26560559 1.24483033 17.8359375 1.20898438 C11.89074422 1.12413146 5.94553358 1.05575044 0 1 C0 0.67 0 0.34 0 0 Z " fill="#AAD445" transform="translate(258,123)"/>
<path d="M0 0 C-0.55245023 6.43668761 -1.74349209 12.20810388 -3.625 18.375 C-6.08979408 26.70949931 -8.35056041 35.0787772 -10.5 43.5 C-12.8965566 52.8681158 -15.41454817 62.18728901 -18.13476562 71.46679688 C-18.36615234 72.25892578 -18.59753906 73.05105469 -18.8359375 73.8671875 C-19.03751465 74.54894043 -19.2390918 75.23069336 -19.44677734 75.93310547 C-20.07038082 78.2629497 -20.52699588 80.63497938 -21 83 C-26.28 83 -31.56 83 -37 83 C-35.72778014 74.90405543 -33.72223816 67.13416316 -31.484375 59.265625 C-29.77760445 53.2572376 -28.17432676 47.22190354 -26.5625 41.1875 C-24.31008252 32.80151969 -22.03800903 24.4215756 -19.6875 16.0625 C-19.44523682 15.18682373 -19.20297363 14.31114746 -18.95336914 13.40893555 C-18.72512451 12.60496338 -18.49687988 11.80099121 -18.26171875 10.97265625 C-18.06537842 10.27406494 -17.86903809 9.57547363 -17.66674805 8.85571289 C-17 7 -17 7 -15 4 C-12.28515625 2.83203125 -12.28515625 2.83203125 -9.0625 1.8125 C-7.47115234 1.29623047 -7.47115234 1.29623047 -5.84765625 0.76953125 C-3 0 -3 0 0 0 Z " fill="#7A8C98" transform="translate(175,429)"/>
<path d="M0 0 C1.31478333 0.00848969 1.31478333 0.00848969 2.65612793 0.01715088 C5.42758188 0.03935864 8.19769365 0.0895234 10.96875 0.140625 C12.85935619 0.16071026 14.74998286 0.17895746 16.640625 0.1953125 C21.25050906 0.23917193 25.8594028 0.30808848 30.46875 0.390625 C29.09375 1.890625 29.09375 1.890625 27.46875 3.390625 C26.80875 3.390625 26.14875 3.390625 25.46875 3.390625 C25.22125 4.07125 24.97375 4.751875 24.71875 5.453125 C24.1 6.9071875 24.1 6.9071875 23.46875 8.390625 C23.04207031 9.59847656 22.61539063 10.80632812 22.17578125 12.05078125 C21.09716797 13.9128418 21.09716797 13.9128418 19.46875 15.390625 C15.2845168 16.22391563 11.15283406 15.93161526 6.90625 15.765625 C-4.01710993 15.54880277 -4.01710993 15.54880277 -13.21875 20.640625 C-14.69594699 22.1869884 -16.1390539 23.76731335 -17.53125 25.390625 C-20.81091606 28.28139785 -23.24306241 30.390625 -27.78125 30.390625 C-32.06613372 28.83248547 -32.06613372 28.83248547 -33.53125 26.390625 C-34.03125 23.015625 -34.03125 23.015625 -33.53125 19.390625 C-31.33203125 16.98046875 -31.33203125 16.98046875 -28.53125 14.390625 C-27.66886719 13.55402344 -26.80648437 12.71742187 -25.91796875 11.85546875 C-25.02722656 11.02144531 -24.13648437 10.18742187 -23.21875 9.328125 C-21.89423828 8.07322266 -21.89423828 8.07322266 -20.54296875 6.79296875 C-13.91158792 1.50334591 -8.43259085 -0.20882836 0 0 Z " fill="#92B738" transform="translate(138.53125,79.609375)"/>
<path d="M0 0 C0.94455551 -0.02559494 1.88911102 -0.05118988 2.86228943 -0.07756042 C3.87590042 -0.087173 4.88951141 -0.09678558 5.93383789 -0.10668945 C6.98172989 -0.121418 8.02962189 -0.13614655 9.10926819 -0.15132141 C11.32407341 -0.17525885 13.53898455 -0.19068931 15.75390625 -0.19824219 C19.14188941 -0.21987744 22.52536439 -0.3000951 25.91235352 -0.38208008 C28.06532445 -0.39807207 30.21832486 -0.41055859 32.37133789 -0.41918945 C33.38292465 -0.45106857 34.39451141 -0.48294769 35.43675232 -0.51579285 C38.25213704 -0.48882209 40.5357665 -0.39138525 43.21899414 0.4675293 C45.05411156 2.38155058 46.13131849 4.15840061 47.2666626 6.54766846 C48.60918393 9.2541357 50.46377965 10.40187305 53.03149414 11.9050293 C54.43554168 12.74562546 55.83418086 13.59560982 57.21899414 14.4675293 C57.21899414 14.7975293 57.21899414 15.1275293 57.21899414 15.4675293 C49.22164524 15.58350456 41.22464905 15.6722844 33.22666645 15.72659016 C29.51262471 15.75265771 25.79915928 15.78800139 22.08544922 15.84472656 C18.49979701 15.89915144 14.91469823 15.92897122 11.32866478 15.94191551 C9.96228512 15.95113694 8.59593495 15.96914511 7.22979164 15.99617958 C-4.82549118 16.22519976 -4.82549118 16.22519976 -8.15527344 13.16357422 C-9.78100586 10.4675293 -9.78100586 10.4675293 -9.84350586 6.8425293 C-8.17787257 1.55169416 -5.40121804 0.11384285 0 0 Z " fill="#7A8C98" transform="translate(357.781005859375,240.532470703125)"/>
<path d="M0 0 C1.11503906 0.00966797 2.23007812 0.01933594 3.37890625 0.02929688 C5.11720703 0.06700195 5.11720703 0.06700195 6.890625 0.10546875 C8.65212891 0.12577148 8.65212891 0.12577148 10.44921875 0.14648438 C13.34681798 0.18182095 16.24348927 0.23115896 19.140625 0.29296875 C18.37363281 0.99808594 17.60664063 1.70320312 16.81640625 2.4296875 C14.15608699 5.27642329 12.8293746 7.54536255 11.328125 11.10546875 C10.90917969 12.08128906 10.49023438 13.05710938 10.05859375 14.0625 C9.60419922 15.16658203 9.60419922 15.16658203 9.140625 16.29296875 C6.74116692 16.2597687 4.35074393 16.19245213 1.953125 16.10546875 C1.27958984 16.09966797 0.60605469 16.09386719 -0.08789062 16.08789062 C-3.95384135 15.91816596 -5.76367311 15.36750098 -8.84375 12.96875 C-10.859375 10.29296875 -10.859375 10.29296875 -10.921875 6.66796875 C-9.05930947 0.75158412 -5.90160285 -0.09033066 0 0 Z " fill="#ABD541" transform="translate(256.859375,216.70703125)"/>
<path d="M0 0 C0.66 0.33 1.32 0.66 2 1 C-2.29 5.29 -6.58 9.58 -11 14 C-11 10.09572976 -9.78171026 9.2747714 -7.1875 6.4375 C-6.47980469 5.65246094 -5.77210937 4.86742187 -5.04296875 4.05859375 C-3 2 -3 2 0 0 Z " fill="#92BB53" transform="translate(128,2)"/>
</svg>
