<?xml version="1.0" encoding="UTF-8"?>
<svg version="1.1" xmlns="http://www.w3.org/2000/svg" width="512" height="512">
<path d="M0 0 C1.84204982 1.18029466 3.66772317 2.38691374 5.46875 3.62890625 C10.49430012 6.66103907 14.98593459 7.38400727 20.7890625 7.5546875 C30.55085414 8.16158498 38.3034211 10.90145276 45.0390625 18.1796875 C48.0390625 22.43775202 48.0390625 22.43775202 48.0390625 25.1796875 C48.64153809 25.01364014 49.24401367 24.84759277 49.86474609 24.67651367 C69.3425332 19.34775487 88.55749985 15.08293324 108.83203125 14.9765625 C109.73266296 14.96954819 110.63329468 14.96253387 111.56121826 14.95530701 C114.44971785 14.93791034 117.33801245 14.93145537 120.2265625 14.9296875 C121.21326935 14.92901276 122.1999762 14.92833801 123.21658325 14.92764282 C146.00969571 14.9524323 168.26442177 16.92147392 190.0390625 24.1796875 C190.0803125 23.3959375 190.1215625 22.6121875 190.1640625 21.8046875 C193.00065397 10.05309426 202.17600121 2.00137603 212.109375 -4.08984375 C221.65053687 -8.79393575 235.17003034 -8.51397813 245.1640625 -5.2578125 C254.21302114 -1.23605311 260.08860148 5.02288561 265.99609375 12.82421875 C269.94973463 17.38262305 273.9473163 17.52613063 279.7265625 18.0546875 C292.6548549 19.48017429 302.09928194 25.03470879 310.5 35.02734375 C315.82165422 42.46955561 317.23111345 49.94732969 317.2265625 58.8671875 C317.22938232 59.67865234 317.23220215 60.49011719 317.23510742 61.32617188 C317.20722222 65.46483542 317.01937892 69.17883494 315.8515625 73.1796875 C314.6541349 77.45739437 315.85278725 80.21275195 317.296875 84.30859375 C318.91985767 90.58697406 318.81286539 98.01305654 317.62963867 104.38427734 C316.88089715 108.60004692 316.6504478 111.2640701 318.99609375 114.9609375 C319.92643155 116.21672621 320.8796616 117.45578295 321.8515625 118.6796875 C322.88342368 120.08132095 323.91064868 121.48637742 324.93359375 122.89453125 C325.71790771 123.9616333 325.71790771 123.9616333 326.51806641 125.05029297 C346.67416228 153.26882719 358.8567112 188.11042675 364.0390625 222.1796875 C364.22162598 223.34628906 364.40418945 224.51289063 364.59228516 225.71484375 C366.187553 236.95416625 366.43820907 248.08872821 366.4140625 259.4296875 C366.41324677 260.87618179 366.41324677 260.87618179 366.41241455 262.35189819 C366.34939585 286.74794926 363.11623135 309.78631684 356.0390625 333.1796875 C355.67868896 334.39833496 355.67868896 334.39833496 355.31103516 335.64160156 C348.56794796 357.98464065 337.69543888 380.26037249 324.0390625 399.1796875 C323.56259277 399.84709961 323.08612305 400.51451172 322.59521484 401.20214844 C309.20729021 419.84378583 294.20718481 437.05740756 276.0390625 451.1796875 C274.56566406 452.36111328 274.56566406 452.36111328 273.0625 453.56640625 C251.25724373 470.91866965 226.45946216 484.34043432 200.0390625 493.1796875 C199.20568359 493.45893066 198.37230469 493.73817383 197.51367188 494.02587891 C188.40998394 497.0210698 179.24140041 499.50722873 169.8515625 501.4296875 C169.11736084 501.58083008 168.38315918 501.73197266 167.62670898 501.88769531 C152.24748751 504.83736308 137.03704724 505.55470017 121.4140625 505.4921875 C120.44350922 505.49003235 119.47295593 505.4878772 118.47299194 505.48565674 C104.14130279 505.43460861 90.1221554 505.07444352 76.0390625 502.1796875 C74.58040771 501.88964844 74.58040771 501.88964844 73.09228516 501.59375 C19.75018845 490.69147002 -32.56447253 461.9482438 -66.78515625 418.9140625 C-68.21957165 417.11138605 -69.68024384 415.32925097 -71.16796875 413.5703125 C-81.88222652 400.88583219 -90.2790025 386.85678256 -97.9609375 372.1796875 C-98.34636719 371.44830566 -98.73179688 370.71692383 -99.12890625 369.96337891 C-109.64276263 349.73855876 -116.63825324 327.52870074 -120.9609375 305.1796875 C-121.12319824 304.37966309 -121.28545898 303.57963867 -121.45263672 302.75537109 C-126.73972588 275.50149045 -126.59062598 243.35537338 -120.9609375 216.1796875 C-120.79996582 215.33067871 -120.63899414 214.48166992 -120.47314453 213.60693359 C-113.55394296 177.32266716 -98.72499923 142.31255001 -75.97265625 113.08984375 C-74.77456727 111.25895042 -74.77456727 111.25895042 -75.1640625 109.296875 C-75.55851562 108.24886719 -75.55851562 108.24886719 -75.9609375 107.1796875 C-80.16426517 95.1774145 -82.59823061 83.17206571 -76.9609375 71.1796875 C-75.15510309 68.09982538 -73.21619256 65.11227953 -71.18579102 62.17602539 C-67.35567877 56.59482142 -65.71999402 51.87250694 -65.72265625 45.109375 C-65.70654297 43.9646875 -65.69042969 42.82 -65.67382812 41.640625 C-65.65706737 39.27349111 -65.65162761 36.9062466 -65.65820312 34.5390625 C-65.44779793 22.40343397 -61.58634159 11.90922122 -52.9609375 3.1796875 C-50.12255106 0.81700828 -47.19690451 -1.04887631 -43.9609375 -2.8203125 C-43.25839844 -3.23410156 -42.55585937 -3.64789063 -41.83203125 -4.07421875 C-28.35995584 -10.79854161 -12.21816283 -7.51142992 0 0 Z " fill="#89E3FC" transform="translate(134.9609375,6.8203125)"/>
<path d="M0 0 C5.5274177 3.93733863 9.53460613 8.82080272 13.61328125 14.20703125 C17.56692213 18.76543555 21.5645038 18.90894313 27.34375 19.4375 C40.2720424 20.86298679 49.71646944 26.41752129 58.1171875 36.41015625 C63.43884172 43.85236811 64.84830095 51.33014219 64.84375 60.25 C64.84656982 61.06146484 64.84938965 61.87292969 64.85229492 62.70898438 C64.82440972 66.84764792 64.63656642 70.56164744 63.46875 74.5625 C62.2713224 78.84020687 63.46997475 81.59556445 64.9140625 85.69140625 C66.53704517 91.96978656 66.43005289 99.39586904 65.24682617 105.76708984 C64.49808465 109.98285942 64.2676353 112.6468826 66.61328125 116.34375 C67.54361905 117.59953871 68.4968491 118.83859545 69.46875 120.0625 C70.50061118 121.46413345 71.52783618 122.86918992 72.55078125 124.27734375 C73.07365723 124.98874512 73.5965332 125.70014648 74.13525391 126.43310547 C94.29134978 154.65163969 106.4738987 189.49323925 111.65625 223.5625 C111.83881348 224.72910156 112.02137695 225.89570313 112.20947266 227.09765625 C113.8047405 238.33697875 114.05539657 249.47154071 114.03125 260.8125 C114.03070618 261.77682953 114.03016235 262.74115906 114.02960205 263.73471069 C113.96658335 288.13076176 110.73341885 311.16912934 103.65625 334.5625 C103.41600098 335.37493164 103.17575195 336.18736328 102.92822266 337.02441406 C96.18576602 359.36536383 85.31488797 381.64682977 71.65625 400.5625 C71.16382813 401.25118164 70.67140625 401.93986328 70.1640625 402.64941406 C64.1614787 410.99437669 57.98632458 419.31948094 50.65625 426.5625 C50.32625 426.5625 49.99625 426.5625 49.65625 426.5625 C49.55828125 425.7890625 49.4603125 425.015625 49.359375 424.21875 C48.41768635 417.65940149 47.29221588 412.14976757 43.65625 406.5625 C43.26953125 405.95792969 42.8828125 405.35335938 42.484375 404.73046875 C38.22570773 398.98126794 32.44876742 395.60098325 25.65625 393.5625 C18.91599711 392.75873686 11.1196008 392.40804973 4.65625 394.5625 C-1.66826805 395.13745619 -6.7332189 394.78336045 -12.34375 391.5625 C-13.57015735 390.4784435 -14.77709286 389.37214381 -15.96875 388.25 C-26.42494893 378.66684293 -39.86314169 376.02134946 -53.5703125 376.25390625 C-63.22638059 377.0435847 -70.90782231 381.14939808 -79.04296875 386.171875 C-81.34375 387.5625 -81.34375 387.5625 -82.34375 387.5625 C-82.20335448 383.58312229 -82.05543681 379.60405706 -81.90625 375.625 C-81.86693359 374.50802734 -81.82761719 373.39105469 -81.78710938 372.24023438 C-81.5758962 366.69995025 -81.25181561 361.23482672 -80.57788086 355.73217773 C-80.1414523 351.68781835 -80.01251281 347.62530832 -79.84375 343.5625 C-79.61069824 337.95199469 -79.2415926 332.41616577 -78.58007812 326.83984375 C-78.15645459 322.75765336 -78.01402682 318.66175675 -77.84375 314.5625 C-77.64245699 309.71655719 -77.41792356 304.90692216 -76.8359375 300.08984375 C-76.13905223 294.23575034 -76.03524493 288.35712856 -75.9140625 282.46679688 C-75.44596384 269.23325764 -70.66625548 258.21803927 -61.0546875 249.03515625 C-59.34375 247.5625 -59.34375 247.5625 -57.24975586 246.25708008 C-55.15037872 244.74262185 -55.15037872 244.74262185 -54.96557617 242.44384766 C-55.02205322 241.62964355 -55.07853027 240.81543945 -55.13671875 239.9765625 C-55.18965088 239.0575415 -55.24258301 238.13852051 -55.29711914 237.19165039 C-55.37438232 236.20028076 -55.45164551 235.20891113 -55.53125 234.1875 C-55.59368896 233.15165771 -55.65612793 232.11581543 -55.72045898 231.04858398 C-55.9117876 227.88526805 -56.12702516 224.72416258 -56.34375 221.5625 C-57.08355627 209.67022503 -57.52764247 197.76529943 -57.68478394 185.8510437 C-57.70721464 184.42227014 -57.73823696 182.99360254 -57.77835083 181.56521606 C-58.12272252 168.76666385 -58.12272252 168.76666385 -54.8203125 164.1171875 C-54.00304687 163.27414063 -53.18578125 162.43109375 -52.34375 161.5625 C-47.64156772 163.39112644 -47.64156772 163.39112644 -45.53125 164.60546875 C-40.50265361 166.80547967 -33.99189125 166.59612933 -28.921875 164.6171875 C-23.37519183 161.30168892 -19.04076177 156.92629414 -17.34375 150.5625 C-16.56076058 143.70541083 -17.25260883 138.23201353 -21.34375 132.5625 C-25.28617878 128.21032441 -29.71935637 125.79914426 -35.6171875 125.4140625 C-39.18908055 125.35626488 -41.92648907 125.42341302 -45.34375 126.5625 C-49.55121091 127.14283944 -51.97111359 127.41951484 -55.62109375 125.140625 C-57.16206594 123.90784725 -58.67517536 122.63952373 -60.16015625 121.33984375 C-62.22714744 119.65740906 -63.89533604 118.84134743 -66.34375 117.875 C-69.34375 115.5625 -69.34375 115.5625 -69.75 112.86328125 C-69.8130728 110.72669002 -69.87158616 108.58995984 -69.92578125 106.453125 C-70.40393969 103.14623482 -70.92156266 102.40750259 -73.53125 100.4375 C-74.47291016 99.77621094 -74.47291016 99.77621094 -75.43359375 99.1015625 C-81.60017885 94.13298473 -85.0842798 85.2019094 -86.34375 77.5625 C-87.41390896 66.0999085 -86.4460422 56.27654432 -79.25390625 46.8125 C-75.436055 42.42686574 -71.36063854 38.46440464 -66.75390625 34.9140625 C-63.7738023 32.05778559 -63.13657 28.90525572 -62.59375 24.9375 C-60.55659471 14.07801867 -53.29229311 6.23828171 -44.5390625 -0.01171875 C-31.43574738 -8.52187893 -13.23279458 -8.11611401 0 0 Z " fill="#945A44" transform="translate(387.34375,5.4375)"/>
<path d="M0 0 C1.84204982 1.18029466 3.66772317 2.38691374 5.46875 3.62890625 C10.49430012 6.66103907 14.98593459 7.38400727 20.7890625 7.5546875 C30.57848964 8.1633031 38.26745968 10.91629229 45.0390625 18.1796875 C50.08462309 24.96509657 50.87434664 32.9735852 50.0390625 41.1796875 C49.47910318 42.94432994 48.87574914 44.69588415 48.2265625 46.4296875 C47.01859522 49.77711964 47.01859522 49.77711964 47.84765625 53.078125 C49.11092601 54.80810526 49.11092601 54.80810526 50.546875 56.21875 C54.70713126 61.68589304 55.43855469 68.08957108 55.9140625 74.7421875 C56.6995234 83.00064618 58.47611368 86.7058124 64.5390625 92.6171875 C70.68301045 98.91473414 72.8409201 104.38937026 73.0390625 113.1796875 C72.0490625 113.27765625 71.0590625 113.375625 70.0390625 113.4765625 C61.11947763 114.44905365 53.77843044 115.55959457 47.1015625 121.9296875 C43.01319761 124.93338416 39.95871072 124.90614023 35.0390625 124.1796875 C33.37239583 123.51302083 31.70572917 122.84635417 30.0390625 122.1796875 C23.12435874 121.20968898 17.08064988 122.75153634 11.0390625 126.1796875 C8.8238929 128.06178864 7.68274466 129.68925999 6.0390625 132.1796875 C5.4409375 133.0459375 4.8428125 133.9121875 4.2265625 134.8046875 C2.15622883 140.68879371 1.92098903 146.77888071 3.8828125 152.74609375 C7.10499397 159.17957094 12.17857565 163.89285855 19.0390625 166.1796875 C25.1723631 166.59370936 30.2397359 166.28853354 36.0390625 164.1796875 C42.39290865 163.74891827 42.39290865 163.74891827 46.0390625 166.1796875 C47.27549326 169.88897978 47.23009873 173.3145931 47.2265625 177.1796875 C47.22648193 178.02184814 47.22640137 178.86400879 47.22631836 179.73168945 C47.15020748 188.95712869 46.63059137 198.15890213 46.1015625 207.3671875 C46.05808685 208.13071533 46.01461121 208.89424316 45.96981812 209.6809082 C45.17601814 223.44084629 45.17601814 223.44084629 44.53515625 228.63671875 C43.64430084 235.94313463 43.42792042 243.33239937 43.0390625 250.6796875 C42.12493383 267.95172026 42.12493383 267.95172026 41.5390625 272.671875 C40.53254845 280.79082619 40.34160761 289.0256032 39.9140625 297.19238281 C39.79163002 299.51381742 39.66547446 301.8350292 39.5390625 304.15625 C39.50361328 304.85746979 39.46816406 305.55868958 39.43164062 306.28115845 C39.19318416 310.6373685 38.71201259 314.87490989 38.0390625 319.1796875 C38.5959375 319.3859375 39.1528125 319.5921875 39.7265625 319.8046875 C47.05245131 324.16062138 48.54823777 331.02703387 50.5390625 338.8046875 C50.83312988 339.90466064 51.12719727 341.00463379 51.43017578 342.13793945 C52.31783578 345.48078302 53.1815494 348.82899748 54.0390625 352.1796875 C54.2978418 353.17758301 54.55662109 354.17547852 54.82324219 355.20361328 C59.03031944 371.45115669 59.03031944 371.45115669 60.0390625 378.1796875 C59.12640625 377.85484375 59.12640625 377.85484375 58.1953125 377.5234375 C44.35844122 373.12819603 30.3103034 373.91086652 17.328125 380.5703125 C14.83472259 382.02799391 12.43277412 383.5640314 10.0390625 385.1796875 C9.21019531 385.73527344 8.38132813 386.29085938 7.52734375 386.86328125 C5.99463854 387.8924891 4.46774493 388.93045337 2.94921875 389.98046875 C-1.43111471 392.73049405 -5.9581101 392.67163219 -10.9609375 392.1796875 C-13.43527191 391.37945633 -15.60408472 390.3127898 -17.9609375 389.1796875 C-28.37919853 386.65197827 -38.06281342 387.9961574 -47.25390625 393.5703125 C-57.11333654 400.59954986 -61.90303386 409.48212998 -63.9609375 421.1796875 C-78.35452811 407.06241363 -88.6705146 389.92995747 -97.9609375 372.1796875 C-98.34636719 371.44830566 -98.73179688 370.71692383 -99.12890625 369.96337891 C-109.64276263 349.73855876 -116.63825324 327.52870074 -120.9609375 305.1796875 C-121.12319824 304.37966309 -121.28545898 303.57963867 -121.45263672 302.75537109 C-126.73972588 275.50149045 -126.59062598 243.35537338 -120.9609375 216.1796875 C-120.79996582 215.33067871 -120.63899414 214.48166992 -120.47314453 213.60693359 C-113.55394296 177.32266716 -98.72499923 142.31255001 -75.97265625 113.08984375 C-74.77456727 111.25895042 -74.77456727 111.25895042 -75.1640625 109.296875 C-75.55851562 108.24886719 -75.55851562 108.24886719 -75.9609375 107.1796875 C-80.16426517 95.1774145 -82.59823061 83.17206571 -76.9609375 71.1796875 C-75.15510309 68.09982538 -73.21619256 65.11227953 -71.18579102 62.17602539 C-67.35567877 56.59482142 -65.71999402 51.87250694 -65.72265625 45.109375 C-65.70654297 43.9646875 -65.69042969 42.82 -65.67382812 41.640625 C-65.65706737 39.27349111 -65.65162761 36.9062466 -65.65820312 34.5390625 C-65.44779793 22.40343397 -61.58634159 11.90922122 -52.9609375 3.1796875 C-50.12255106 0.81700828 -47.19690451 -1.04887631 -43.9609375 -2.8203125 C-43.25839844 -3.23410156 -42.55585937 -3.64789063 -41.83203125 -4.07421875 C-28.35995584 -10.79854161 -12.21816283 -7.51142992 0 0 Z " fill="#935B44" transform="translate(134.9609375,6.8203125)"/>
<path d="M0 0 C5.21471124 3.29075267 9.65200852 3.87656167 15.6875 2.625 C19.89495373 0.96121601 23.76371687 -1.13283821 27.6875 -3.375 C40.17755383 -10.02499453 52.94141607 -11.38048141 66.6875 -7.375 C72.1591431 -5.58553182 76.7976815 -3.35228921 81.5625 -0.125 C87.30899441 3.34609678 92.11692964 4.19088359 98.6875 2.625 C102.96970964 0.71747025 106.934155 -1.75341657 110.94140625 -4.171875 C121.68266615 -10.62144405 133.82801559 -10.89206933 145.9375 -8.25 C155.47043015 -5.50257375 163.04981694 -0.45207349 170.49609375 5.98828125 C174.1330858 8.70467994 177.30321355 8.76341414 181.75 8.75 C183.03583984 8.75386719 183.03583984 8.75386719 184.34765625 8.7578125 C186.84314201 8.71865135 186.84314201 8.71865135 189.6875 7.625 C200.83261568 6.72195986 210.31185942 6.7073374 219.6875 13.625 C224.71710929 18.07744101 228.38728943 23.32349291 230.6875 29.625 C231.09871094 30.55957031 231.50992187 31.49414062 231.93359375 32.45703125 C233.16682803 36.34867717 233.47984819 38.58965293 232.6875 42.625 C228.54093883 48.94562088 222.4159224 53.7926588 216.6875 58.625 C215.66638042 59.51269167 214.6455048 60.40066414 213.625 61.2890625 C211.02956471 63.47509877 208.37784122 65.55731417 205.6875 67.625 C204.21990234 68.800625 204.21990234 68.800625 202.72265625 70 C180.92180889 87.36341599 156.11005333 100.78502628 129.6875 109.625 C128.85412109 109.90424316 128.02074219 110.18348633 127.16210938 110.47119141 C118.05842144 113.4663823 108.88983791 115.95254123 99.5 117.875 C98.76579834 118.02614258 98.03159668 118.17728516 97.27514648 118.33300781 C81.89592501 121.28267558 66.68548474 122.00001267 51.0625 121.9375 C50.09194672 121.93534485 49.12139343 121.9331897 48.12142944 121.93096924 C33.78974029 121.87992111 19.7705929 121.51975602 5.6875 118.625 C4.22884521 118.33496094 4.22884521 118.33496094 2.74072266 118.0390625 C-46.61370893 107.95179814 -103.80155496 80.77556064 -134.3125 38.625 C-135.43561566 31.32474824 -132.03769761 25.75591419 -128.625 19.5625 C-122.25647741 11.47275508 -114.50971547 5.69540238 -104.3125 3.625 C-96.18588883 2.94994604 -88.65774165 3.95237917 -81.3125 7.625 C-73.0896749 8.86551241 -66.77906541 5.88325947 -60.21875 1.09765625 C-58.91444325 0.08060754 -57.6110451 -0.93760756 -56.30859375 -1.95703125 C-38.98346897 -14.26431167 -16.81689593 -11.15813 0 0 Z " fill="#0395FC" transform="translate(205.3125,390.375)"/>
<path d="M0 0 C2.39353134 1.59764546 4.32627578 3.09709982 6.4375 5 C19.9217337 16.32045903 35.28156845 22.77993346 53.07421875 22.34375 C69.34418171 20.91911643 83.45041693 14.66912708 95.79296875 3.91796875 C98.47231181 1.5895485 100.24434601 0.10075386 103.8125 -0.375 C108.45284311 0.17092272 111.26192769 2.31730745 114.59375 5.54296875 C126.42042629 16.87686686 142.1376492 21.81509667 158.25 22.5 C176.43780213 22.06470401 191.17398475 14.48891159 204.8203125 2.8203125 C207.32971478 0.7246468 208.486073 0.07068337 211.7265625 -0.375 C216.04158104 0.11932193 218.24647301 2.22271755 221.375 5 C236.03881021 17.21786612 252.72339095 23.68790209 272 22 C286.77986707 19.83762003 299.51168311 13.74469582 310.79296875 3.91796875 C313.47231181 1.5895485 315.24434601 0.10075386 318.8125 -0.375 C323.71962205 0.20230848 326.75005464 2.50006557 329.875 6.25 C330.24625 6.8275 330.6175 7.405 331 8 C325.44243619 13.89898411 319.3434989 18.96980361 313 24 C312.01 24.79535156 311.02 25.59070313 310 26.41015625 C288.10249281 43.68181504 263.4602815 57.14740388 237 66 C236.16662109 66.27924316 235.33324219 66.55848633 234.47460938 66.84619141 C225.37092144 69.8413823 216.20233791 72.32754123 206.8125 74.25 C206.07829834 74.40114258 205.34409668 74.55228516 204.58764648 74.70800781 C189.20842501 77.65767558 173.99798474 78.37501267 158.375 78.3125 C157.40444672 78.31034485 156.43389343 78.3081897 155.43392944 78.30596924 C141.10224029 78.25492111 127.0830929 77.89475602 113 75 C112.02756348 74.80664062 111.05512695 74.61328125 110.05322266 74.4140625 C66.7907495 65.57189798 28.05563786 45.68055463 -5.3125 17 C-5.94124023 16.45996338 -6.56998047 15.91992676 -7.21777344 15.36352539 C-10.17613548 12.77189907 -12.80277636 10.29980157 -15 7 C-13.83352268 5.812314 -12.64059001 4.65058324 -11.4375 3.5 C-10.77621094 2.8503125 -10.11492187 2.200625 -9.43359375 1.53125 C-6.00929839 -0.62336281 -3.98350826 -0.58379 0 0 Z " fill="#0066ED" transform="translate(98,434)"/>
<path d="M0 0 C4.81703535 5.39049194 6.03322824 11.82578252 6.90625 18.890625 C7.00482803 19.62404114 7.10340607 20.35745728 7.20497131 21.11309814 C7.52011581 23.47019901 7.8224968 25.82874697 8.125 28.1875 C8.3425846 29.82761813 8.56125972 31.46759195 8.78100586 33.10742188 C9.10601392 35.53381031 9.43040595 37.96025829 9.75120544 40.38720703 C10.5037216 46.08018463 11.31221687 51.76199932 12.1875 57.4375 C13.03206134 62.94495753 13.84512235 68.45560827 14.625 73.97265625 C14.80087646 75.21660156 14.97675293 76.46054687 15.15795898 77.7421875 C15.50049051 80.17291374 15.84126676 82.60388826 16.17993164 85.03515625 C17.05609741 91.24983081 18.02873638 97.42748929 19.19458008 103.59472656 C19.7649088 106.69902289 20.2079047 109.80928528 20.625 112.9375 C21.615 112.9375 22.605 112.9375 23.625 112.9375 C24.285 112.2775 24.945 111.6175 25.625 110.9375 C31.76991501 110.37887136 31.76991501 110.37887136 34.28125 112.01953125 C36.27598471 114.86666713 36.32505251 117.50304611 36.6875 120.9375 C37.1767984 125.41108535 37.75748093 129.795291 38.58984375 134.21875 C39.83616155 140.89031737 40.65349344 147.59808946 41.48046875 154.33203125 C42.20456937 160.08590603 43.10108334 165.76004341 44.24023438 171.44726562 C44.63227406 173.98457828 44.69154408 176.37440575 44.625 178.9375 C43.89539063 178.504375 43.16578125 178.07125 42.4140625 177.625 C32.68333482 172.43527857 24.46175927 172.05126399 13.625 172.9375 C12.635 173.2675 11.645 173.5975 10.625 173.9375 C4.30048195 174.51245619 -0.7644689 174.15836045 -6.375 170.9375 C-7.60140735 169.8534435 -8.80834286 168.74714381 -10 167.625 C-20.45619893 158.04184293 -33.89439169 155.39634946 -47.6015625 155.62890625 C-57.25763059 156.4185847 -64.93907231 160.52439808 -73.07421875 165.546875 C-75.375 166.9375 -75.375 166.9375 -76.375 166.9375 C-76.23460448 162.95812229 -76.08668681 158.97905706 -75.9375 155 C-75.89818359 153.88302734 -75.85886719 152.76605469 -75.81835938 151.61523438 C-75.6071462 146.07495025 -75.28306561 140.60982672 -74.60913086 135.10717773 C-74.1727023 131.06281835 -74.04376281 127.00030832 -73.875 122.9375 C-73.64194824 117.32699469 -73.2728426 111.79116577 -72.61132812 106.21484375 C-72.18770459 102.13265336 -72.04527682 98.03675675 -71.875 93.9375 C-71.67370699 89.09155719 -71.44917356 84.28192216 -70.8671875 79.46484375 C-70.17030223 73.61075034 -70.06649493 67.73212856 -69.9453125 61.84179688 C-69.49387958 49.07941199 -65.00397031 37.66257038 -55.5859375 28.8203125 C-52.20697158 25.94281855 -48.72177644 23.20580537 -45.2109375 20.4921875 C-39.44085316 16.03128196 -33.82727541 11.39213801 -28.23681641 6.70874023 C-19.44769007 -0.60296684 -11.18932267 -6.83791941 0 0 Z " fill="#AB6A51" transform="translate(381.375,226.0625)"/>
<path d="M0 0 C0 0.66 0 1.32 0 2 C-0.85380249 2.3242395 -0.85380249 2.3242395 -1.72485352 2.6550293 C-4.34149419 3.65550174 -6.9519069 4.67135719 -9.5625 5.6875 C-10.45775391 6.02716797 -11.35300781 6.36683594 -12.27539062 6.71679688 C-21.89365815 10.48659404 -27.33353422 14.57356836 -32.875 23.3125 C-33.64807495 24.50564819 -33.64807495 24.50564819 -34.43676758 25.72290039 C-39.29647975 33.30362951 -43.82430678 41.023209 -48 49 C-48.36158203 49.67981934 -48.72316406 50.35963867 -49.09570312 51.06005859 C-54.57347067 61.48665581 -58.66618364 72.28137766 -62.375 83.4375 C-62.69185257 84.38861664 -62.69185257 84.38861664 -63.0151062 85.35894775 C-65.7068077 93.49348714 -68.08700217 101.64768892 -70 110 C-70.19948242 110.85182861 -70.39896484 111.70365723 -70.60449219 112.58129883 C-77.34238069 143.13826544 -77.32873321 179.56739542 -70 210 C-69.74847168 211.08635742 -69.49694336 212.17271484 -69.23779297 213.29199219 C-66.96546095 224.92855101 -66.96546095 224.92855101 -63 236 C-57.40382959 218.04748233 -57.40382959 218.04748233 -52.125 200 C-48.55529911 187.37045743 -44.85196181 174.78112293 -41.12402344 162.19755554 C-39.61367553 157.0938717 -38.12138532 151.98516831 -36.63717651 146.87382507 C-35.56957729 143.20532444 -34.4921638 139.53974897 -33.41290283 135.87466431 C-32.8908714 134.09426173 -32.3728733 132.31267119 -31.85906982 130.52987671 C-31.13815003 128.03094489 -30.40276654 125.53669194 -29.6640625 123.04296875 C-29.45396545 122.30175781 -29.24386841 121.56054688 -29.02740479 120.796875 C-27.72063686 116.45034398 -26.24397344 113.21271459 -23 110 C-19.10551807 109.37410112 -16.9658734 109.46876963 -13.5 111.375 C-10.72937074 116.22360121 -12.45678003 121.84156929 -13.77099609 127.06347656 C-14.78125923 130.53694206 -15.84926372 133.98767171 -16.9375 137.4375 C-17.76408649 140.11045846 -18.58327291 142.78566784 -19.40234375 145.4609375 C-19.61531097 146.1537532 -19.8282782 146.84656891 -20.04769897 147.56037903 C-22.2617686 154.79110719 -24.32026809 162.06412026 -26.3732605 169.34188843 C-29.56483524 180.6500121 -32.85084983 191.91498275 -36.375 203.125 C-39.91903778 214.44420618 -43.40269252 225.78060686 -46.79034424 237.14764404 C-47.34300633 238.99492971 -47.90019773 240.84086689 -48.46209717 242.68536377 C-49.25002668 245.27503212 -50.02141144 247.86910322 -50.7890625 250.46484375 C-51.02812317 251.23858841 -51.26718384 252.01233307 -51.51348877 252.80952454 C-53.49165332 259.61378363 -52.75674506 264.08644938 -49.32006836 270.40380859 C-48.9669458 271.03367676 -48.61382324 271.66354492 -48.25 272.3125 C-47.89236572 272.97330566 -47.53473145 273.63411133 -47.16625977 274.31494141 C-45.62379629 277.15118476 -44.04559611 279.92762016 -42.32421875 282.66015625 C-39.4696595 287.21941003 -38.24553185 290.4794171 -39.21875 295.87890625 C-40.35179641 298.95512726 -42.19575437 300.91913225 -44.44140625 303.26171875 C-49.18759077 308.55508244 -50.79631543 315.15800349 -52 322 C-66.39359061 307.88272613 -76.7095771 290.75026997 -86 273 C-86.38542969 272.26861816 -86.77085938 271.53723633 -87.16796875 270.78369141 C-97.68182513 250.55887126 -104.67731574 228.34901324 -109 206 C-109.24339111 204.79996338 -109.24339111 204.79996338 -109.49169922 203.57568359 C-114.77878838 176.32180295 -114.62968848 144.17568588 -109 117 C-108.83902832 116.15099121 -108.67805664 115.30198242 -108.51220703 114.42724609 C-102.40987745 82.4266532 -90.24980705 50.99469856 -71.51049805 24.22607422 C-69.92855953 21.95791825 -69.92855953 21.95791825 -68.45239258 19.27783203 C-62.68199212 9.91460096 -55.23234858 7.36918761 -45.3125 3.875 C-43.80026569 3.31040656 -42.28918399 2.74271585 -40.77929688 2.171875 C-26.13021344 -3.29719965 -15.29923834 -4.08628305 0 0 Z " fill="#87523D" transform="translate(123,106)"/>
<path d="M0 0 C5.5274177 3.93733863 9.53460613 8.82080272 13.61328125 14.20703125 C17.56692213 18.76543555 21.5645038 18.90894313 27.34375 19.4375 C40.2720424 20.86298679 49.71646944 26.41752129 58.1171875 36.41015625 C63.43884172 43.85236811 64.84830095 51.33014219 64.84375 60.25 C64.84656982 61.06146484 64.84938965 61.87292969 64.85229492 62.70898438 C64.82440972 66.84764792 64.63656642 70.56164744 63.46875 74.5625 C62.27176024 78.83864272 63.47038828 81.59216 64.91015625 85.6875 C67.07958347 94.04717765 66.32049 103.403265 63.65625 111.5625 C59.55883048 110.2964561 55.92440949 108.76975437 52.171875 106.69921875 C50.64433594 105.86293945 50.64433594 105.86293945 49.0859375 105.00976562 C48.03664063 104.42904297 46.98734375 103.84832031 45.90625 103.25 C37.09799538 98.39770947 37.09799538 98.39770947 28.203125 93.70703125 C27.44354492 93.31491455 26.68396484 92.92279785 25.90136719 92.51879883 C19.09314284 89.61886247 10.68153549 89.30246764 3.65820312 91.50097656 C0.67083484 92.78512586 -2.20681866 94.19172081 -5.09375 95.6875 C-6.06957031 96.161875 -7.04539062 96.63625 -8.05078125 97.125 C-17.14342333 101.65296443 -24.79341108 106.20808579 -29.34375 115.5625 C-29.72466797 116.77099609 -29.72466797 116.77099609 -30.11328125 118.00390625 C-30.95192569 120.57767712 -31.65066782 122.44056323 -33.34375 124.5625 C-37.30249609 126.08148554 -41.13515452 126.34528217 -45.34375 126.5625 C-46.08496094 126.6759375 -46.82617188 126.789375 -47.58984375 126.90625 C-52.1380466 127.41872356 -54.48322576 126.00366553 -57.90625 123.3125 C-58.65003906 122.66152344 -59.39382813 122.01054688 -60.16015625 121.33984375 C-62.22714744 119.65740906 -63.89533604 118.84134743 -66.34375 117.875 C-69.34375 115.5625 -69.34375 115.5625 -69.75 112.86328125 C-69.8130728 110.72669002 -69.87158616 108.58995984 -69.92578125 106.453125 C-70.40393969 103.14623482 -70.92156266 102.40750259 -73.53125 100.4375 C-74.47291016 99.77621094 -74.47291016 99.77621094 -75.43359375 99.1015625 C-81.60017885 94.13298473 -85.0842798 85.2019094 -86.34375 77.5625 C-87.41390896 66.0999085 -86.4460422 56.27654432 -79.25390625 46.8125 C-75.436055 42.42686574 -71.36063854 38.46440464 -66.75390625 34.9140625 C-63.7738023 32.05778559 -63.13657 28.90525572 -62.59375 24.9375 C-60.55659471 14.07801867 -53.29229311 6.23828171 -44.5390625 -0.01171875 C-31.43574738 -8.52187893 -13.23279458 -8.11611401 0 0 Z " fill="#A2E62C" transform="translate(387.34375,5.4375)"/>
<path d="M0 0 C1.84204982 1.18029466 3.66772317 2.38691374 5.46875 3.62890625 C10.49430012 6.66103907 14.98593459 7.38400727 20.7890625 7.5546875 C30.57848964 8.1633031 38.26745968 10.91629229 45.0390625 18.1796875 C50.08462309 24.96509657 50.87434664 32.9735852 50.0390625 41.1796875 C49.47910318 42.94432994 48.87574914 44.69588415 48.2265625 46.4296875 C47.01859522 49.77711964 47.01859522 49.77711964 47.84765625 53.078125 C49.11092601 54.80810526 49.11092601 54.80810526 50.546875 56.21875 C54.70713126 61.68589304 55.43855469 68.08957108 55.9140625 74.7421875 C56.6995234 83.00064618 58.47611368 86.7058124 64.5390625 92.6171875 C70.68301045 98.91473414 72.8409201 104.38937026 73.0390625 113.1796875 C72.0490625 113.27765625 71.0590625 113.375625 70.0390625 113.4765625 C61.11947763 114.44905365 53.77843044 115.55959457 47.1015625 121.9296875 C43.0071363 124.93783736 39.96363417 124.89632293 35.0390625 124.1796875 C33.35328539 123.56293978 31.68458212 122.89696528 30.0390625 122.1796875 C28.7396875 122.1796875 27.4403125 122.1796875 26.1015625 122.1796875 C24.01171875 121.97265625 24.01171875 121.97265625 22.0390625 121.1796875 C20.26021809 118.82416036 18.97227048 116.36582422 17.59375 113.7578125 C13.7688605 107.41503092 7.04479026 104.02857591 0.0390625 102.1796875 C-3.72306215 101.3455322 -7.49336803 100.58095134 -11.28125 99.875 C-14.2780399 99.3087276 -17.23776509 98.66661319 -20.2109375 97.9921875 C-34.6672321 95.16794451 -46.14872992 100.12457092 -59.4609375 105.3671875 C-61.78266144 106.28038198 -64.10552076 107.19069693 -66.4296875 108.09765625 C-67.44482422 108.49750732 -68.45996094 108.8973584 -69.50585938 109.30932617 C-71.9609375 110.1796875 -71.9609375 110.1796875 -73.9609375 110.1796875 C-79.75793036 99.35863416 -81.99588502 88.43323916 -79.0234375 76.2421875 C-77.2770631 71.06240711 -74.27561617 66.64435922 -71.18579102 62.17602539 C-67.35567877 56.59482142 -65.71999402 51.87250694 -65.72265625 45.109375 C-65.70654297 43.9646875 -65.69042969 42.82 -65.67382812 41.640625 C-65.65706737 39.27349111 -65.65162761 36.9062466 -65.65820312 34.5390625 C-65.44779793 22.40343397 -61.58634159 11.90922122 -52.9609375 3.1796875 C-50.12255106 0.81700828 -47.19690451 -1.04887631 -43.9609375 -2.8203125 C-42.90712891 -3.44099609 -42.90712891 -3.44099609 -41.83203125 -4.07421875 C-28.35995584 -10.79854161 -12.21816283 -7.51142992 0 0 Z " fill="#7FCF00" transform="translate(134.9609375,6.8203125)"/>
<path d="M0 0 C0.90063171 -0.00701431 1.80126343 -0.01402863 2.72918701 -0.02125549 C5.6176866 -0.03865216 8.5059812 -0.04510713 11.39453125 -0.046875 C12.3812381 -0.04754974 13.36794495 -0.04822449 14.384552 -0.04891968 C37.17766446 -0.0241302 59.43239052 1.94491142 81.20703125 9.203125 C80.82651575 14.53034207 78.93093414 17.5525995 75.20703125 21.203125 C73.90136256 22.31536129 72.58841028 23.41908573 71.26953125 24.515625 C66.94941005 28.21625712 63.98980064 32.26175879 61.20703125 37.203125 C60.86542969 37.79351562 60.52382813 38.38390625 60.171875 38.9921875 C56.43662558 46.87964441 57.13986261 58.33139535 59.33203125 66.578125 C61.79785875 73.4225247 65.0143572 79.87742758 71.08203125 84.078125 C73.7357987 86.08448984 74.15733636 86.86185744 74.6484375 90.234375 C74.64490847 93.25522425 74.51329003 96.19887225 74.20703125 99.203125 C73.046875 99.13351563 71.88671875 99.06390625 70.69140625 98.9921875 C58.74826995 98.49791811 51.27908811 100.48842043 41.20703125 107.203125 C36.09280654 107.82367946 33.31147747 106.46917034 29.01953125 103.765625 C21.0851767 98.82536651 14.36642437 98.52909708 5.20703125 99.203125 C0.18055855 100.46628806 -3.79586601 102.51282311 -8.04296875 105.453125 C-11.4937554 107.64908014 -12.76372618 107.97797934 -16.79296875 107.203125 C-19.34480876 105.81160882 -21.76235081 104.28753785 -24.19140625 102.69140625 C-26.78600816 101.20710696 -28.82604923 100.65995497 -31.73046875 100.078125 C-33.96484375 99.421875 -33.96484375 99.421875 -35.79296875 98.203125 C-36.96758135 95.27562898 -37.50298295 92.45331475 -38.0625 89.3515625 C-39.70643689 82.26593078 -44.12482319 77.49253245 -49.79296875 73.203125 C-52.95553541 69.02791384 -53.35065796 65.02153846 -53.73046875 59.953125 C-54.50678769 51.90117234 -55.95883069 45.61862472 -61.23046875 39.265625 C-62.79296875 36.203125 -62.79296875 36.203125 -62.375 34 C-61.80652722 32.30258831 -61.2155812 30.612581 -60.60546875 28.9296875 C-58.76481821 22.75288905 -59.49904126 16.4192927 -60.79296875 10.203125 C-40.71519791 4.66952167 -20.91748188 0.10974399 0 0 Z " fill="#01D1FB" transform="translate(243.79296875,21.796875)"/>
<path d="M0 0 C0.94527054 0.24638969 0.94527054 0.24638969 1.90963745 0.49775696 C3.93549703 1.0281109 5.95789803 1.57053439 7.98046875 2.11328125 C9.37522689 2.4805021 10.7701662 2.8470355 12.1652832 3.21289062 C20.46547973 5.39794685 28.75490657 7.63141615 36.98950195 10.0534668 C40.24578796 10.99302434 42.73103208 11.42578125 46.16796875 11.42578125 C46.16796875 12.08578125 46.16796875 12.74578125 46.16796875 13.42578125 C46.72484375 13.63203125 47.28171875 13.83828125 47.85546875 14.05078125 C55.18135756 18.40671513 56.67714402 25.27312762 58.66796875 33.05078125 C58.96203613 34.15075439 59.25610352 35.25072754 59.55908203 36.3840332 C60.44674203 39.72687677 61.31045565 43.07509123 62.16796875 46.42578125 C62.42674805 47.42367676 62.68552734 48.42157227 62.95214844 49.44970703 C67.15922569 65.69725044 67.15922569 65.69725044 68.16796875 72.42578125 C67.55953125 72.20921875 66.95109375 71.99265625 66.32421875 71.76953125 C52.48734747 67.37428978 38.43920965 68.15696027 25.45703125 74.81640625 C22.96362884 76.27408766 20.56168037 77.81012515 18.16796875 79.42578125 C17.33910156 79.98136719 16.51023438 80.53695312 15.65625 81.109375 C14.12354479 82.13858285 12.59665118 83.17654712 11.078125 84.2265625 C6.69779154 86.9765878 2.17079615 86.91772594 -2.83203125 86.42578125 C-5.30636566 85.62555008 -7.47517847 84.55888355 -9.83203125 83.42578125 C-21.2164306 80.66366469 -30.95660882 83.00652918 -41.01953125 88.67578125 C-41.94765625 89.25328125 -42.87578125 89.83078125 -43.83203125 90.42578125 C-42.60909736 81.49827212 -40.84672442 72.84672862 -38.64453125 64.11328125 C-35.61218386 51.85767786 -32.84304806 39.5629745 -30.22973633 27.21166992 C-25.65573838 5.84318323 -25.65573838 5.84318323 -19.83203125 0.42578125 C-13.27351052 -2.71090258 -6.83723229 -1.80735657 0 0 Z " fill="#AB6A51" transform="translate(126.83203125,312.57421875)"/>
<path d="M0 0 C8.96564038 6.80614228 16.49183573 15.69644479 18.34423828 27.12353516 C18.55612871 29.26849559 18.72133465 31.41263708 18.875 33.5625 C19.6604609 41.82095868 21.43705118 45.5261249 27.5 51.4375 C33.64394795 57.73504664 35.8018576 63.20968276 36 72 C35.01 72.09796875 34.02 72.1959375 33 72.296875 C24.08041513 73.26936615 16.73936794 74.37990707 10.0625 80.75 C5.9680738 83.75814986 2.92457167 83.71663543 -2 83 C-3.68577711 82.38325228 -5.35448038 81.71727778 -7 81 C-8.299375 81 -9.59875 81 -10.9375 81 C-13.02734375 80.79296875 -13.02734375 80.79296875 -15 80 C-16.77884441 77.64447286 -18.06679202 75.18613672 -19.4453125 72.578125 C-23.27236962 66.23174888 -29.99338406 62.8556848 -37 61 C-41.9779375 59.8786291 -46.98303268 58.9269089 -52 58 C-53.50923471 57.71548021 -55.01834763 57.43031374 -56.52734375 57.14453125 C-60.35017748 56.42210598 -64.17461341 55.70877728 -68 55 C-72.42584298 44.2778685 -72.81936903 31.92816594 -68.9375 21 C-66.40122471 15.28625624 -63.26878721 10.55516288 -59 6 C-58.41605469 5.37480469 -57.83210938 4.74960937 -57.23046875 4.10546875 C-41.43410193 -11.15880992 -17.78923073 -12.01553303 0 0 Z " fill="#A2E62D" transform="translate(172,48)"/>
<path d="M0 0 C5.5274177 3.93733863 9.53460613 8.82080272 13.61328125 14.20703125 C17.56692213 18.76543555 21.5645038 18.90894313 27.34375 19.4375 C40.2720424 20.86298679 49.71646944 26.41752129 58.1171875 36.41015625 C63.4442694 43.8599586 64.84789084 51.38354798 64.90625 60.3125 C64.9371875 61.47265625 64.9371875 61.47265625 64.96875 62.65625 C65.00651935 68.28388278 63.89630286 72.39858867 61.65625 77.5625 C59.30927054 75.27575168 57.4791155 72.9321293 55.59375 70.25 C50.37126328 63.50565657 43.99051495 60.22937614 35.96875 57.6875 C29.43857423 55.46779286 26.14330078 51.40388536 22.47265625 45.734375 C16.55647916 36.64516176 7.07801059 31.81694821 -3.34375 29.5625 C-15.71019449 28.24229849 -26.62388333 31.49689047 -36.421875 39.1953125 C-40.8687695 43.35219214 -43.75471126 48.08825942 -46.34375 53.5625 C-46.79041016 54.50029297 -46.79041016 54.50029297 -47.24609375 55.45703125 C-49.01815265 59.64473264 -49.5993106 63.54488527 -50.09375 68.0625 C-50.88888099 73.81394748 -52.38959429 76.63130424 -56.46875 80.66796875 C-62.5465018 86.80903046 -67.04628175 94.99920956 -68.34375 103.5625 C-73.98882604 102.19399672 -77.12346116 98.12089973 -80.34375 93.5625 C-86.35003867 82.53557002 -88.48299768 70.54734024 -85.54296875 58.19921875 C-81.86363027 48.45086833 -74.91053378 41.20025771 -66.75390625 34.9140625 C-63.7738023 32.05778559 -63.13657 28.90525572 -62.59375 24.9375 C-60.55659471 14.07801867 -53.29229311 6.23828171 -44.5390625 -0.01171875 C-31.43574738 -8.52187893 -13.23279458 -8.11611401 0 0 Z " fill="#7FCF00" transform="translate(387.34375,5.4375)"/>
<path d="M0 0 C1.77734375 1.60546875 1.77734375 1.60546875 3 3 C2.01 3.47308594 1.02 3.94617188 0 4.43359375 C-1.33385457 5.10052104 -2.66715861 5.76855019 -4 6.4375 C-4.64839844 6.74365234 -5.29679687 7.04980469 -5.96484375 7.36523438 C-19.11515182 14.07058948 -23.17659078 26.4914285 -28.20092773 39.40917969 C-31.88786166 48.80585975 -35.82612126 56.98705667 -42.21565247 64.87307739 C-46.64381743 70.40370972 -49.40915474 76.10168008 -49.328125 83.3203125 C-49.32361328 84.26108643 -49.31910156 85.20186035 -49.31445312 86.17114258 C-49.28254883 87.633302 -49.28254883 87.633302 -49.25 89.125 C-49.23904297 90.14037842 -49.22808594 91.15575684 -49.21679688 92.2019043 C-49.13548691 97.75440263 -48.91421928 103.27536285 -48.5 108.8125 C-48.42265625 109.88371094 -48.3453125 110.95492187 -48.265625 112.05859375 C-48.09259671 113.97462757 -47.85580664 115.88629195 -47.546875 117.78515625 C-47.23096106 120.54108967 -47.14327507 122.35573009 -48 125 C-51.26831425 128.28067082 -55.10677895 130.52734404 -59 133 C-60.85705053 134.4492786 -62.69098842 135.92868515 -64.5 137.4375 C-65.39589844 138.17742187 -66.29179687 138.91734375 -67.21484375 139.6796875 C-68.6512288 140.87633928 -70.08738962 142.07326917 -71.52001953 143.27441406 C-73.03113347 144.54075331 -74.54676623 145.80169408 -76.0625 147.0625 C-76.96097656 147.81660156 -77.85945313 148.57070312 -78.78515625 149.34765625 C-81 151 -81 151 -83 151 C-86.5030306 132.02020991 -86.17276297 111.47350576 -86.40841675 92.19329834 C-86.427636 90.8264928 -86.45525621 89.45977672 -86.49172974 88.09332275 C-86.69226192 80.09452288 -86.62915968 74.95819429 -81 69 C-76.29781772 70.82862644 -76.29781772 70.82862644 -74.1875 72.04296875 C-69.15890361 74.24297967 -62.64814125 74.03362933 -57.578125 72.0546875 C-52.03144183 68.73918892 -47.69701177 64.36379414 -46 58 C-45.21701058 51.14291083 -45.90885883 45.66951353 -50 40 C-53.40366653 36.24258161 -57.09777567 34.2839159 -62 33 C-59.57386604 22.14016226 -54.90934097 14.52537187 -45.51074219 8.5078125 C-30.97640003 -0.22070726 -16.67440595 -7.68857808 0 0 Z " fill="#87533E" transform="translate(416,98)"/>
<path d="M0 0 C3.44996778 0.79999253 5.06552996 2.75592995 7.15625 5.5 C8.44258663 8.07267326 8.28794323 9.91229857 8.29669189 12.79402161 C8.30525711 14.47855186 8.30525711 14.47855186 8.31399536 16.19711304 C8.31511322 17.43506622 8.31623108 18.67301941 8.31738281 19.94848633 C8.32234772 21.24772537 8.32731262 22.54696442 8.33242798 23.88557434 C8.34556082 27.45592518 8.35199878 31.0262572 8.35643864 34.59662843 C8.35936827 36.82690513 8.36347289 39.05717668 8.36794281 41.28745079 C8.38162079 48.26439542 8.39128567 55.24132828 8.3951447 62.21828538 C8.39962473 70.27397141 8.41716868 78.3294877 8.4461453 86.38512212 C8.46776052 92.61024569 8.47784891 98.8353215 8.47918582 105.0604822 C8.48023408 108.77912999 8.48614594 112.49761828 8.50400543 116.21622658 C8.5235444 120.36536584 8.5191978 124.51414992 8.51269531 128.66333008 C8.5219101 129.89521057 8.53112488 131.12709106 8.5406189 132.39630127 C8.53504974 133.52778091 8.52948059 134.65926056 8.52374268 135.82502747 C8.52520924 136.80598294 8.5266758 137.78693842 8.5281868 138.79761982 C7.9413999 143.06103577 6.19918826 145.6825619 2.84375 148.3125 C-0.40019389 149.74587056 -2.33087562 150.01229418 -5.84375 149.5 C-8.54365662 147.70006226 -10.3856365 146.416227 -11.84375 143.5 C-11.94780435 141.68696643 -11.98762437 139.87011233 -11.99765015 138.05412292 C-12.00625061 136.89744614 -12.01485107 135.74076935 -12.02371216 134.54904175 C-12.02797211 133.27368561 -12.03223206 131.99832947 -12.03662109 130.68432617 C-12.04452155 129.33255299 -12.05279047 127.98078191 -12.06140137 126.62901306 C-12.08762726 122.18368547 -12.10292921 117.73834842 -12.1171875 113.29296875 C-12.12254688 111.76325283 -12.12792439 110.23353697 -12.13331985 108.70382118 C-12.15494911 102.34118943 -12.17368628 95.97856022 -12.18494225 89.61590099 C-12.20118467 80.49424344 -12.23436852 71.37301165 -12.29134309 62.25151461 C-12.33002937 55.83955952 -12.34957333 49.42771837 -12.35486281 43.01564962 C-12.35851804 39.18509203 -12.37055657 35.35498847 -12.40296555 31.52455711 C-12.43302386 27.92027813 -12.43936669 24.3167284 -12.42758179 20.71235085 C-12.42725559 18.76067917 -12.45173622 16.80905265 -12.47695923 14.85754395 C-12.4088415 5.31656764 -12.4088415 5.31656764 -9.44985962 2.21626282 C-6.0006914 -0.05519926 -4.01916189 -0.2143553 0 0 Z " fill="#98E6FC" transform="translate(211.84375,213.5)"/>
<path d="M0 0 C1.12535156 -0.05994141 1.12535156 -0.05994141 2.2734375 -0.12109375 C5.90306397 0.74109327 7.30680835 2.56379385 9.625 5.4375 C10.100317 8.29388725 10.27204513 10.54386892 10.20849609 13.38964844 C10.21083252 14.17571472 10.21316895 14.96178101 10.21557617 15.77166748 C10.21718774 18.36408478 10.18317585 20.9547106 10.1484375 23.546875 C10.14164277 25.3566219 10.13692377 27.16637767 10.13418579 28.97613525 C10.12077851 33.74052977 10.07650798 38.50417835 10.02661133 43.26831055 C9.99131845 47.13984234 9.97814769 51.01129735 9.96619225 54.88296127 C9.95133198 59.52097873 9.9261747 64.15891867 9.8984375 68.796875 C9.89107134 70.11150349 9.89107134 70.11150349 9.88355637 71.45269012 C9.86711172 73.95780063 9.84370073 76.46274399 9.81787109 78.96777344 C9.81361115 79.69432129 9.8093512 80.42086914 9.80496216 81.16943359 C9.74943852 85.65696597 9.39978874 90.0464257 8.85547066 94.50139236 C8.58286602 96.79145363 8.43890222 99.07110146 8.34375 101.375 C8.30636719 102.20773437 8.26898438 103.04046875 8.23046875 103.8984375 C8.19566406 104.73632812 8.16085937 105.57421875 8.125 106.4375 C7.92369722 111.28367799 7.69922739 116.09586934 7.125 120.9140625 C6.43050869 126.76065041 6.24994311 132.62413686 6.01953125 138.50390625 C5.98214844 139.35597656 5.94476563 140.20804688 5.90625 141.0859375 C5.86081055 142.23328369 5.86081055 142.23328369 5.81445312 143.40380859 C5.625 145.4375 5.625 145.4375 4.625 148.4375 C1.72204195 149.88897903 -0.14761779 149.80989025 -3.375 149.4375 C-6.80729611 147.38446376 -9.08455241 145.30884276 -10.375 141.4375 C-10.47179051 139.6347307 -10.50995582 137.82858131 -10.51544189 136.02322388 C-10.52115204 134.89882904 -10.52686218 133.7744342 -10.53274536 132.6159668 C-10.53386322 131.38160889 -10.53498108 130.14725098 -10.53613281 128.87548828 C-10.54109772 127.57610321 -10.54606262 126.27671814 -10.55117798 124.93795776 C-10.56429434 121.37179823 -10.57074532 117.80565752 -10.57518864 114.23947763 C-10.57812031 112.01137317 -10.58222528 109.78327384 -10.58669281 107.55517197 C-10.60036511 100.58357013 -10.61003334 93.61198004 -10.6138947 86.64036572 C-10.61837635 78.59317977 -10.63593018 70.5461636 -10.6648953 62.49902928 C-10.68650972 56.2781318 -10.69659883 50.0572821 -10.69793582 43.83634746 C-10.69898393 40.12106796 -10.70489304 36.40594812 -10.72275543 32.69070816 C-10.74229311 28.54646747 -10.73794813 24.4025824 -10.73144531 20.25830078 C-10.7406601 19.02799133 -10.74987488 17.79768188 -10.7593689 16.53009033 C-10.75379974 15.40005585 -10.74823059 14.27002136 -10.74249268 13.10574341 C-10.74395924 12.12608675 -10.7454258 11.14643009 -10.7469368 10.13708687 C-10.30175511 6.9058749 -9.2950167 5.05676444 -7.375 2.4375 C-4.35292605 0.42278403 -3.45773301 0.10030966 0 0 Z " fill="#98E6FC" transform="translate(302.375,213.5625)"/>
<path d="M0 0 C5.15230642 3.99463648 6.06411479 7.67647023 7.07714844 13.78613281 C7.31990509 15.10294037 7.31990509 15.10294037 7.56756592 16.4463501 C8.1002863 19.36222643 8.60473244 22.28226944 9.109375 25.203125 C9.4824828 27.27609288 9.85737667 29.34874 10.23394775 31.42108154 C11.22769401 36.91646711 12.19780843 42.41576935 13.1628418 47.91625977 C14.11348016 53.31375119 15.08447806 58.70756077 16.0546875 64.1015625 C17.21073633 70.53471667 18.36363884 76.96836592 19.5020752 83.40466309 C21.47514977 94.55187929 23.49018052 105.68922702 25.58398438 116.81445312 C26.00608984 119.0677605 26.42814862 121.32107662 26.85015869 123.57440186 C27.64728628 127.82829531 28.45577153 132.07982048 29.27044678 136.3303833 C29.63288823 138.26151379 29.99491043 140.19272302 30.35644531 142.12402344 C30.52392021 142.97981239 30.69139511 143.83560135 30.86394501 144.7173233 C31.91429608 150.39973365 32.72817033 156.22859023 32 162 C29.875 164.6875 29.875 164.6875 27 166 C23.84100484 165.9368201 21.9016902 165.70966657 19.39485455 163.73668575 C17.66594104 161.5840746 17.31642296 159.98374639 16.80732727 157.27552795 C16.61997355 156.31012557 16.43261984 155.34472319 16.23958874 154.35006618 C15.95144031 152.76924802 15.95144031 152.76924802 15.6574707 151.15649414 C15.44582181 150.04714288 15.23417292 148.93779161 15.01611042 147.79482365 C14.33293307 144.19855197 13.66623774 140.59944441 13 137 C12.55829253 134.65971859 12.11561869 132.31961935 11.67196655 129.97970581 C10.38179905 123.15185426 9.11199114 116.32033122 7.84866118 109.48746753 C7.47451116 107.46387203 7.1000052 105.44034265 6.72542763 103.41682625 C5.54678371 97.04845076 4.36981047 90.67976959 3.19509429 84.31066841 C1.85036188 77.02004443 0.49958897 69.73057184 -0.85608178 62.4419741 C-1.91427374 56.75059585 -2.96698186 51.05822003 -4.01559371 45.36506897 C-4.63802791 41.98645531 -5.2627434 38.60830357 -5.89332008 35.23119926 C-6.59159401 31.48402904 -7.28088383 27.73531067 -7.96801758 23.98608398 C-8.17522934 22.88528 -8.3824411 21.78447601 -8.59593201 20.65031433 C-11.26440289 5.94523521 -11.26440289 5.94523521 -8.375 1.5 C-5.23686002 -0.48198314 -3.65126535 -0.67064058 0 0 Z " fill="#87523E" transform="translate(433,170)"/>
<path d="M0 0 C0.91676514 0.24339111 0.91676514 0.24339111 1.85205078 0.49169922 C4.25861419 1.06119968 6.40362008 1.132699 8.875 1.125 C9.69742188 1.12757813 10.51984375 1.13015625 11.3671875 1.1328125 C14.30190165 0.98477054 17.10686051 0.50170337 20 0 C20.07009833 15.42928309 20.12299221 30.85855426 20.15543652 46.2879591 C20.17090177 53.45219943 20.19198466 60.61634078 20.22631836 67.78051758 C20.2562313 74.02522435 20.27557749 80.26985944 20.28226548 86.51463586 C20.28617459 89.82087108 20.29692981 93.12685355 20.31719017 96.4330349 C20.33891795 100.12499607 20.34196879 103.81653026 20.34057617 107.50854492 C20.351362 108.60330643 20.36214783 109.69806793 20.3732605 110.82600403 C20.33498247 120.18350857 20.33498247 120.18350857 17 124 C13.31106884 126.45928744 10.28358579 126.69305579 6 126 C2.55687286 123.8755173 1.28382453 122.85147359 0 119 C-0.08971537 117.37582739 -0.12196858 115.74818391 -0.12025452 114.12153625 C-0.12162918 113.11612793 -0.12300385 112.1107196 -0.12442017 111.07484436 C-0.12082489 109.9728923 -0.11722961 108.87094025 -0.11352539 107.7355957 C-0.11367142 106.57448273 -0.11381744 105.41336975 -0.1139679 104.21707153 C-0.11326989 100.36995593 -0.10548266 96.52288842 -0.09765625 92.67578125 C-0.09579167 90.01205869 -0.09431878 87.34833882 -0.09336853 84.68461609 C-0.09025943 78.38420709 -0.0820517 72.08381543 -0.07201904 65.78341407 C-0.06084485 58.61056923 -0.05534416 51.43772357 -0.05032361 44.26487219 C-0.03986875 29.50990593 -0.02227743 14.75495327 0 0 Z " fill="#99E6FC" transform="translate(246,181)"/>
<path d="M0 0 C2.70237736 1.78023912 2.99569202 2.97919932 3.66015625 6.1875 C3.85931641 8.0746875 3.85931641 8.0746875 4.0625 10 C4.5517984 14.47358535 5.13248093 18.857791 5.96484375 23.28125 C7.21116155 29.95281737 8.02849344 36.66058946 8.85546875 43.39453125 C9.57956937 49.14840603 10.47608334 54.82254341 11.61523438 60.50976562 C12.00727406 63.04707828 12.06654408 65.43690575 12 68 C11.27039063 67.566875 10.54078125 67.13375 9.7890625 66.6875 C0.05833482 61.49777857 -8.16324073 61.11376399 -19 62 C-20.485 62.495 -20.485 62.495 -22 63 C-23.39439664 63.06665376 -24.79169875 63.08538199 -26.1875 63.0625 C-27.445625 63.041875 -28.70375 63.02125 -30 63 C-30.10872094 54.02448207 -29.82875817 45.13986799 -29.1875 36.1875 C-29.11724609 35.02541016 -29.04699219 33.86332031 -28.97460938 32.66601562 C-27.89201233 17.43171001 -27.89201233 17.43171001 -22.15234375 12.03125 C-21.09446664 11.17033891 -20.02252282 10.32643654 -18.9375 9.5 C-18.39544922 9.05914062 -17.85339844 8.61828125 -17.29492188 8.1640625 C-13.32019119 5 -13.32019119 5 -11 5 C-11 4.34 -11 3.68 -11 3 C-7.65709546 -0.47662072 -4.65719113 -0.50805721 0 0 Z " fill="#BC7B63" transform="translate(414,337)"/>
<path d="M0 0 C3.58158826 0.51165547 5.06434706 0.87698914 7.5 3.5 C8.47071584 6.45962028 8.62370021 9.16981058 8.62025452 12.27093506 C8.62162918 13.22723312 8.62300385 14.18353119 8.62442017 15.16880798 C8.62082489 16.21106033 8.61722961 17.25331268 8.61352539 18.32714844 C8.61367142 19.42988602 8.61381744 20.5326236 8.6139679 21.66877747 C8.61327093 25.31566328 8.60548857 28.9624981 8.59765625 32.609375 C8.5957913 35.13714571 8.59436776 37.66491679 8.59336853 40.19268799 C8.5899398 46.16723869 8.58205734 52.14176748 8.57201904 58.1163094 C8.56083739 64.91917224 8.55534228 71.72203595 8.55032361 78.52490568 C8.53987418 92.51661393 8.52228752 106.50830596 8.5 120.5 C7.39527344 120.97050781 6.29054688 121.44101562 5.15234375 121.92578125 C2.54647942 123.04895058 0.01423832 124.19259608 -2.5 125.5 C-4.897888 115.05205943 -6.78755417 104.94463276 -7.10546875 94.20703125 C-7.14238327 93.10833206 -7.17929779 92.00963287 -7.21733093 90.87763977 C-7.66917084 75.98830266 -7.75958687 61.09226159 -7.79516602 46.19702148 C-7.80417388 42.8195677 -7.82544251 39.4425058 -7.85668945 36.06518555 C-7.89505396 31.91788105 -7.91391586 27.77092858 -7.91844749 23.62345314 C-7.92329696 22.06174987 -7.9348639 20.50005154 -7.95348549 18.93845177 C-7.97779698 16.7745391 -7.97693387 14.61200497 -7.9699707 12.44799805 C-7.97583694 11.22292038 -7.98170319 9.99784271 -7.98774719 8.73564148 C-7.19800759 3.49662779 -5.31242981 0.75891854 0 0 Z " fill="#87523E" transform="translate(404.5,215.5)"/>
<path d="M0 0 C2.875 1.3125 2.875 1.3125 5 4 C5.91138792 12.15977177 4.6573529 20.75282724 3.9765625 28.8984375 C3.87032562 30.20922272 3.76408875 31.52000793 3.65463257 32.87051392 C3.43032606 35.63574668 3.20316189 38.40072326 2.97363281 41.16552734 C2.68505231 44.64199073 2.40148887 48.11883802 2.11981583 51.59586716 C0.86508624 67.07555539 -0.46772854 82.54508095 -2 98 C-7.13503344 97.35812082 -11.9943454 96.31727753 -17 95 C-16.40156201 78.39526739 -15.24044937 61.84891274 -13.89819336 45.29052734 C-13.61421208 41.78376069 -13.34006109 38.27629678 -13.06820774 34.76857185 C-12.80291089 31.36865455 -12.52782848 27.96954568 -12.25390625 24.5703125 C-12.15799698 23.32444366 -12.06208771 22.07857483 -11.96327209 20.79495239 C-10.7192042 5.75072672 -10.7192042 5.75072672 -7.75 1 C-4.99846091 -0.57230805 -3.11017622 -0.43542467 0 0 Z " fill="#87523E" transform="translate(144,219)"/>
<path d="M0 0 C1.2375 -0.02320313 1.2375 -0.02320313 2.5 -0.046875 C6.16359955 1.12089736 8.13561269 3.50123054 10 6.75 C10.64705802 9.66508108 10.58689184 12.45543816 10.48828125 15.4296875 C10.48120651 16.24245148 10.47413177 17.05521545 10.46684265 17.89260864 C10.43900674 20.47103623 10.37629411 23.04723662 10.3125 25.625 C10.28740291 27.38017682 10.26459221 29.13538791 10.24414062 30.890625 C10.19347909 35.17861707 10.09562306 39.46183682 10 43.75 C3.4 44.08 -3.2 44.41 -10 44.75 C-10.11506655 39.44671079 -10.21451094 34.14778332 -10.2746582 28.84423828 C-10.29973866 27.04200534 -10.33381188 25.23987349 -10.37719727 23.43798828 C-10.4381375 20.84121723 -10.46627346 18.24579535 -10.48828125 15.6484375 C-10.51408768 14.8482016 -10.5398941 14.0479657 -10.56648254 13.22348022 C-10.56852848 9.10438088 -10.24103921 6.52020137 -7.62573242 3.24365234 C-4.80360339 0.56348257 -3.8173079 -0.07157452 0 0 Z " fill="#99E6FC" transform="translate(256,337.25)"/>
<path d="M0 0 C3.13364731 1.44147776 5.14047556 3.08693694 7 6 C8.05789315 10.21792238 8.06036508 14.07663707 5.9296875 17.94140625 C3.66207883 20.75894397 1.68176306 22.76455317 -1.953125 23.2734375 C-6.24672199 23.46329043 -9.09582964 23.4342668 -12.5 20.625 C-16.13542732 16.80780131 -16.39236502 14.44157848 -16.359375 9.328125 C-15.75455722 5.40995764 -13.83123243 3.69641184 -11 1 C-7.46361841 -0.7681908 -3.85129138 -0.63351861 0 0 Z " fill="#C7EFFE" transform="translate(236,89)"/>
<path d="M0 0 C2.875 1.625 2.875 1.625 5 4 C5.625 6.9375 5.625 6.9375 5 10 C2.9375 12.9375 2.9375 12.9375 0 15 C-3.8427383 15.06625411 -5.99200716 14.81899419 -9 12.375 C-10.45635054 8.91616747 -9.91305869 6.58701629 -9 3 C-6.74511844 -0.67901728 -4.07013941 -0.56981952 0 0 Z " fill="#C1EEFE" transform="translate(260,71)"/>
</svg>
