<?xml version="1.0" encoding="UTF-8"?>
<svg version="1.1" xmlns="http://www.w3.org/2000/svg" width="512" height="512">
<path d="M0 0 C1.63182289 -0.00576172 1.63182289 -0.00576172 3.29661191 -0.01163983 C5.07324556 -0.01034011 5.07324556 -0.01034011 6.8857708 -0.00901413 C8.78573761 -0.01347081 8.78573761 -0.01347081 10.7240876 -0.01801753 C14.23325767 -0.02606482 17.74240727 -0.02787583 21.25158548 -0.028615 C25.03907154 -0.03046953 28.82654708 -0.03801889 32.61402702 -0.04475021 C40.89313757 -0.05831814 49.17224327 -0.06435592 57.45136309 -0.06876087 C62.62385504 -0.07152603 67.79634513 -0.07576389 72.96883583 -0.08026505 C87.29834501 -0.09245594 101.62785269 -0.10275545 115.95736694 -0.10614014 C116.87406457 -0.1063597 117.7907622 -0.10657927 118.73523854 -0.10680549 C119.65409326 -0.10702377 120.57294797 -0.10724204 121.51964676 -0.10746694 C123.38150541 -0.1079104 125.24336406 -0.10835696 127.1052227 -0.10880661 C128.02876316 -0.10902804 128.95230362 -0.10924947 129.90383016 -0.10947761 C144.86213993 -0.11342403 159.82040095 -0.13087412 174.7786919 -0.15416613 C190.14711039 -0.177903 205.51550443 -0.19034306 220.88394153 -0.19150805 C229.50829785 -0.19242353 238.13259063 -0.19814357 246.7569294 -0.21632767 C254.10200902 -0.23176023 261.44700548 -0.23683056 268.79209824 -0.22858956 C272.53638194 -0.22469414 276.2804983 -0.22555812 280.0247612 -0.23964691 C284.09288989 -0.25481367 288.16064478 -0.24648659 292.22878838 -0.23606491 C293.98534553 -0.24814952 293.98534553 -0.24814952 295.77738869 -0.26047826 C311.36343458 -0.16740443 325.9423974 4.46509235 337.37573051 15.31892776 C349.55126104 28.42689951 353.29365081 41.78068038 352.78198051 59.24470901 C351.99545642 73.82068588 344.84122242 85.81360192 334.44213676 95.76814651 C326.27211747 102.19579499 315.90245454 107.35051552 305.43823051 108.13142776 C304.54748833 108.19974808 303.65674614 108.26806839 302.73901176 108.33845901 C292.37992139 108.72855028 284.11105721 106.17722776 276.43823051 99.13142776 C269.72682497 92.51133386 266.56943456 85.40773254 266.18823051 75.94392776 C266.3368638 66.98134041 269.49315206 58.84762519 275.43823051 52.13142776 C283.26534779 45.36342537 290.56993494 42.6125236 300.91088676 42.81111526 C304.44040177 43.25844174 306.13619517 44.4580964 308.43823051 47.13142776 C310.72677046 50.40077054 310.90985269 53.20124296 310.43823051 57.13142776 C308.39829143 60.78924957 306.9340379 62.80088951 303.43823051 65.13142776 C301.28198051 65.72908401 301.28198051 65.72908401 298.93823051 66.19392776 C296.33740284 66.71842801 293.96433627 67.28939251 291.43823051 68.13142776 C290.1920252 71.87004371 289.81214432 75.2542193 290.43823051 79.13142776 C292.08021893 82.35774819 292.08021893 82.35774819 295.43823051 84.13142776 C302.77245126 85.44484606 309.16445538 84.0223195 315.43823051 80.13142776 C322.42868515 75.25201458 327.83235009 68.69077042 329.43823051 60.13142776 C330.35784093 49.84988179 328.73751991 41.77741414 322.06323051 33.75642776 C314.96929948 26.25410411 307.00593871 23.4019323 296.84767485 23.03882945 C293.67114634 22.99948796 290.4960459 22.99338249 287.31927299 22.997715 C285.49047014 22.99431666 285.49047014 22.99431666 283.62472177 22.99084967 C280.25268569 22.98562465 276.88070306 22.98486305 273.50866675 22.98604405 C269.86709638 22.98624853 266.22553389 22.98072474 262.58396721 22.97598648 C255.45376861 22.96768954 248.32357828 22.96493207 241.19337526 22.9643741 C235.39558015 22.96389847 229.59778776 22.96184133 223.79999352 22.95867348 C207.35115047 22.94986933 190.90231395 22.9452537 174.45346853 22.94600395 C173.56720463 22.94604391 172.68094074 22.94608386 171.76782036 22.94612503 C170.43679552 22.94618635 170.43679552 22.94618635 169.07888129 22.94624891 C154.70195817 22.94665526 140.32506126 22.93708791 125.94814572 22.92298666 C111.17521701 22.90861169 96.40230108 22.90171711 81.62936521 22.90258044 C73.33986062 22.90291203 65.05038351 22.90018147 56.76088524 22.88940239 C49.70237321 22.88028261 42.64390109 22.87813424 35.58538571 22.88491181 C31.9870729 22.88816963 28.38883662 22.8882605 24.79053116 22.87955856 C20.88202652 22.87020404 16.97363274 22.8764889 13.0651226 22.88418961 C11.93854516 22.87904604 10.81196771 22.87390248 9.65125155 22.86860305 C-1.59423655 22.91743199 -11.5302762 23.96961204 -20.56176949 31.13142776 C-27.11124972 37.81908268 -29.68878909 44.75210886 -29.99926949 54.00642776 C-29.78369564 63.15851741 -27.28656099 70.6990185 -20.56176949 77.13142776 C-12.39117987 82.77777018 -5.60797611 85.42435672 4.43823051 84.13142776 C7.77644862 82.29491178 7.77644862 82.29491178 9.43823051 79.13142776 C10.07382779 75.17660028 9.84852598 72.99109446 8.12573051 69.38142776 C5.22689281 66.95449387 3.61636755 66.5369267 0.00073051 65.69392776 C-3.59998532 64.82744534 -6.18377023 64.18635801 -8.74926949 61.44392776 C-10.93819337 57.44348066 -11.69561707 54.58709443 -10.56176949 50.13142776 C-8.79179057 47.11855924 -6.73719326 44.71913965 -3.56176949 43.13142776 C5.14442094 42.20941802 12.47375391 43.6127461 19.66479301 48.70955276 C25.86477599 53.86459479 30.30048795 59.28366228 32.43823051 67.13142776 C33.46506681 78.54602656 32.60445631 88.22611799 25.25073051 97.44392776 C18.59445503 104.49929472 9.95758261 108.10944157 0.31323051 108.44392776 C-14.47030124 108.1001247 -27.66205416 102.79094926 -38.31176949 92.53377151 C-49.03947206 81.07971408 -53.96581255 67.03101143 -53.77270699 51.40877151 C-52.75275496 35.56173911 -46.02825388 22.91517492 -34.56176949 12.13142776 C-25.1887017 4.10222995 -12.24585745 0.01630883 0 0 Z " fill="#000000" transform="translate(95.56176948547363,41.86857223510742)"/>
<path d="M0 0 C2.82424288 2.19022918 4.41508603 3.83017207 6 7 C6.09744786 8.66717094 6.13099385 10.33823783 6.13422108 12.00825119 C6.13867892 13.07445214 6.14313676 14.14065309 6.14772969 15.23916316 C6.14754533 16.41987494 6.14736097 17.60058671 6.14717102 18.81707764 C6.15084771 20.06412011 6.1545244 21.31116259 6.1583125 22.59599423 C6.16834838 26.06877504 6.17205184 29.54153856 6.17470181 33.01433182 C6.17860017 36.75542183 6.18817884 40.49649809 6.19691467 44.23757935 C6.2166925 53.27800613 6.22674703 62.31843405 6.23564246 71.35887706 C6.24002327 75.61385794 6.24539062 79.86883756 6.25063133 84.12381744 C6.26764504 98.26445126 6.28213981 112.40508429 6.28938007 126.54572678 C6.29129004 130.21668244 6.29321036 133.88763811 6.29516602 137.55859375 C6.29564976 138.471017 6.2961335 139.38344026 6.2966319 140.3235127 C6.30493441 155.10831689 6.33027441 169.89304022 6.36274669 184.67780909 C6.3957976 199.84944951 6.41382706 215.02104881 6.41702431 230.19272542 C6.41919126 238.71413385 6.42796674 247.23542439 6.45348549 255.75679779 C6.47516565 263.01322921 6.4832562 270.26951411 6.47351871 277.52597424 C6.46896613 281.22903327 6.47091531 284.93178982 6.49028015 288.63480759 C6.51108811 292.64841507 6.50095196 296.66134833 6.48774719 300.67498779 C6.49871644 301.84677668 6.50968568 303.01856557 6.52098733 304.22586322 C6.47159499 310.42304774 6.26213355 314.33562555 2 319 C-1.71453232 320.85726616 -5.95579425 320.58501089 -10 320 C-12.82424288 317.80977082 -14.41508603 316.16982793 -16 313 C-16.09744786 311.33282906 -16.13099385 309.66176217 -16.13422108 307.99174881 C-16.13867892 306.92554786 -16.14313676 305.85934691 -16.14772969 304.76083684 C-16.14754533 303.58012506 -16.14736097 302.39941329 -16.14717102 301.18292236 C-16.15084771 299.93587989 -16.1545244 298.68883741 -16.1583125 297.40400577 C-16.16834838 293.93122496 -16.17205184 290.45846144 -16.17470181 286.98566818 C-16.17860017 283.24457817 -16.18817884 279.50350191 -16.19691467 275.76242065 C-16.2166925 266.72199387 -16.22674703 257.68156595 -16.23564246 248.64112294 C-16.24002327 244.38614206 -16.24539062 240.13116244 -16.25063133 235.87618256 C-16.26764504 221.73554874 -16.28213981 207.59491571 -16.28938007 193.45427322 C-16.29129004 189.78331756 -16.29321036 186.11236189 -16.29516602 182.44140625 C-16.29564976 181.528983 -16.2961335 180.61655974 -16.2966319 179.6764873 C-16.30493441 164.89168311 -16.33027441 150.10695978 -16.36274669 135.32219091 C-16.3957976 120.15055049 -16.41382706 104.97895119 -16.41702431 89.80727458 C-16.41919126 81.28586615 -16.42796674 72.76457561 -16.45348549 64.24320221 C-16.47516565 56.98677079 -16.4832562 49.73048589 -16.47351871 42.47402576 C-16.46896613 38.77096673 -16.47091531 35.06821018 -16.49028015 31.36519241 C-16.51108811 27.35158493 -16.50095196 23.33865167 -16.48774719 19.32501221 C-16.49871644 18.15322332 -16.50968568 16.98143443 -16.52098733 15.77413678 C-16.47159499 9.57695226 -16.26213355 5.66437445 -12 1 C-8.28546768 -0.85726616 -4.04420575 -0.58501089 0 0 Z " fill="#000000" transform="translate(293,128)"/>
<path d="M0 0 C2.82424288 2.19022918 4.41508603 3.83017207 6 7 C6.09744786 8.66717094 6.13099385 10.33823783 6.13422108 12.00825119 C6.13867892 13.07445214 6.14313676 14.14065309 6.14772969 15.23916316 C6.14754533 16.41987494 6.14736097 17.60058671 6.14717102 18.81707764 C6.15084771 20.06412011 6.1545244 21.31116259 6.1583125 22.59599423 C6.16834838 26.06877504 6.17205184 29.54153856 6.17470181 33.01433182 C6.17860017 36.75542183 6.18817884 40.49649809 6.19691467 44.23757935 C6.2166925 53.27800613 6.22674703 62.31843405 6.23564246 71.35887706 C6.24002327 75.61385794 6.24539062 79.86883756 6.25063133 84.12381744 C6.26764504 98.26445126 6.28213981 112.40508429 6.28938007 126.54572678 C6.29129004 130.21668244 6.29321036 133.88763811 6.29516602 137.55859375 C6.29564976 138.471017 6.2961335 139.38344026 6.2966319 140.3235127 C6.30493441 155.10831689 6.33027441 169.89304022 6.36274669 184.67780909 C6.3957976 199.84944951 6.41382706 215.02104881 6.41702431 230.19272542 C6.41919126 238.71413385 6.42796674 247.23542439 6.45348549 255.75679779 C6.47516565 263.01322921 6.4832562 270.26951411 6.47351871 277.52597424 C6.46896613 281.22903327 6.47091531 284.93178982 6.49028015 288.63480759 C6.51108811 292.64841507 6.50095196 296.66134833 6.48774719 300.67498779 C6.49871644 301.84677668 6.50968568 303.01856557 6.52098733 304.22586322 C6.47159499 310.42304774 6.26213355 314.33562555 2 319 C-1.71453232 320.85726616 -5.95579425 320.58501089 -10 320 C-12.82424288 317.80977082 -14.41508603 316.16982793 -16 313 C-16.09744786 311.33282906 -16.13099385 309.66176217 -16.13422108 307.99174881 C-16.13867892 306.92554786 -16.14313676 305.85934691 -16.14772969 304.76083684 C-16.14754533 303.58012506 -16.14736097 302.39941329 -16.14717102 301.18292236 C-16.15084771 299.93587989 -16.1545244 298.68883741 -16.1583125 297.40400577 C-16.16834838 293.93122496 -16.17205184 290.45846144 -16.17470181 286.98566818 C-16.17860017 283.24457817 -16.18817884 279.50350191 -16.19691467 275.76242065 C-16.2166925 266.72199387 -16.22674703 257.68156595 -16.23564246 248.64112294 C-16.24002327 244.38614206 -16.24539062 240.13116244 -16.25063133 235.87618256 C-16.26764504 221.73554874 -16.28213981 207.59491571 -16.28938007 193.45427322 C-16.29129004 189.78331756 -16.29321036 186.11236189 -16.29516602 182.44140625 C-16.29564976 181.528983 -16.2961335 180.61655974 -16.2966319 179.6764873 C-16.30493441 164.89168311 -16.33027441 150.10695978 -16.36274669 135.32219091 C-16.3957976 120.15055049 -16.41382706 104.97895119 -16.41702431 89.80727458 C-16.41919126 81.28586615 -16.42796674 72.76457561 -16.45348549 64.24320221 C-16.47516565 56.98677079 -16.4832562 49.73048589 -16.47351871 42.47402576 C-16.46896613 38.77096673 -16.47091531 35.06821018 -16.49028015 31.36519241 C-16.51108811 27.35158493 -16.50095196 23.33865167 -16.48774719 19.32501221 C-16.49871644 18.15322332 -16.50968568 16.98143443 -16.52098733 15.77413678 C-16.47159499 9.57695226 -16.26213355 5.66437445 -12 1 C-8.28546768 -0.85726616 -4.04420575 -0.58501089 0 0 Z " fill="#000000" transform="translate(165,128)"/>
<path d="M0 0 C3.34625024 2.52676039 4.67977847 4.03933542 6 8 C6.09363603 9.69893821 6.12912147 11.40134255 6.13142776 13.10285759 C6.13526891 14.1646995 6.13911005 15.2265414 6.1430676 16.32056034 C6.14220112 17.4912595 6.14133463 18.66195865 6.14044189 19.86813354 C6.14341302 21.10856891 6.14638414 22.34900427 6.1494453 23.62702858 C6.15663409 27.07669118 6.15930527 30.52630398 6.16004276 33.97597051 C6.16189202 37.69384524 6.16943866 41.41170915 6.17617798 45.12957764 C6.18976647 53.26170627 6.19578667 61.39382998 6.20018864 69.52596807 C6.20294988 74.60173618 6.20718699 79.67750238 6.21169281 84.7532692 C6.22388558 98.80130074 6.23418525 112.84933075 6.2375679 126.89736748 C6.23778747 127.79665812 6.23800703 128.69594877 6.23823325 129.62249065 C6.23845153 130.52395324 6.23866981 131.42541584 6.2388947 132.35419548 C6.23933817 134.18095454 6.23978473 136.0077136 6.24023438 137.83447266 C6.2404558 138.74061149 6.24067723 139.64675032 6.24090537 140.58034791 C6.24485486 155.26875037 6.26231342 169.95710327 6.2855939 184.64548658 C6.30929212 199.71884309 6.32176903 214.79217471 6.32293582 229.86555016 C6.32385338 238.33155588 6.32962615 246.797497 6.34775543 255.26348495 C6.36313573 262.47123014 6.36828913 269.67889077 6.36001733 276.88664924 C6.3561036 280.56523728 6.35707547 284.24365493 6.37107468 287.92222214 C6.38610277 291.90752193 6.37796858 295.89258032 6.36749268 299.87789917 C6.37554908 301.04413689 6.38360548 302.2103746 6.39190602 303.41195285 C6.38202126 305.01253895 6.38202126 305.01253895 6.3719368 306.64546013 C6.37253389 307.56541515 6.37313097 308.48537018 6.37374616 309.43320262 C5.76056876 313.64435533 3.41280843 317.43627193 0 320 C-4.83197176 320.90906587 -8.85900986 320.69856539 -13.0625 318.125 C-15.97773006 314.9276509 -16.12609665 313.19198372 -16.13422108 308.95772076 C-16.13867892 307.88393632 -16.14313676 306.81015188 -16.14772969 305.70382851 C-16.14754533 304.51465272 -16.14736097 303.32547693 -16.14717102 302.1002655 C-16.15268605 300.21639278 -16.15268605 300.21639278 -16.1583125 298.29446203 C-16.1683485 294.79694747 -16.17205185 291.29945007 -16.17470181 287.80192316 C-16.1786001 284.03426721 -16.18817871 280.26662491 -16.19691467 276.49897766 C-16.21669194 267.39478105 -16.22674662 258.29058331 -16.23564246 249.18637058 C-16.24002305 244.90187299 -16.24539043 240.61737663 -16.25063133 236.33288002 C-16.26764442 222.09530869 -16.28213961 207.85773813 -16.28938007 193.6201582 C-16.29129005 189.92409959 -16.29321037 186.228041 -16.29516602 182.53198242 C-16.29564976 181.61331563 -16.2961335 180.69464883 -16.2966319 179.74814365 C-16.30493601 164.85919977 -16.33027898 149.97033613 -16.36274669 135.0814273 C-16.39578928 119.80470057 -16.41382627 104.52801466 -16.41702431 89.251252 C-16.41919195 80.67007206 -16.42797758 72.08900917 -16.45348549 63.507864 C-16.47515424 56.20126528 -16.48326183 48.89481201 -16.47351871 41.5881848 C-16.4689629 37.85892204 -16.47093393 34.12995964 -16.49028015 30.40073776 C-16.51105919 26.3605072 -16.50096244 22.32094753 -16.48774719 18.28068542 C-16.49871644 17.0982018 -16.50968568 15.91571817 -16.52098733 14.6974017 C-16.45809979 6.77052827 -16.45809979 6.77052827 -14.0945158 2.79495716 C-9.86312728 -0.83125617 -5.38442634 -0.7704132 0 0 Z " fill="#000000" transform="translate(336,128)"/>
<path d="M0 0 C3.40367358 0.50485111 5.15778544 1.85009633 7.44921875 4.36328125 C8.70625068 6.87734511 8.57803882 8.59068316 8.58343983 11.40556049 C8.58789767 12.47934493 8.59235551 13.55312937 8.59694844 14.65945274 C8.59676408 15.84862853 8.59657972 17.03780432 8.59638977 18.26301575 C8.60006646 19.51893089 8.60374315 20.77484604 8.60753125 22.06881922 C8.61756725 25.56633378 8.6212706 29.06383118 8.62392056 32.56135809 C8.62781885 36.32901404 8.63739746 40.09665634 8.64613342 43.86430359 C8.66591069 52.9685002 8.67596537 62.07269794 8.68486121 71.17691067 C8.6892418 75.46140826 8.69460918 79.74590462 8.69985008 84.03040123 C8.71686317 98.26797256 8.73135836 112.50554312 8.73859882 126.74312305 C8.7405088 130.43918166 8.74242912 134.13524025 8.74438477 137.83129883 C8.74486851 138.74996562 8.74535225 139.66863242 8.74585065 140.6151376 C8.75415476 155.50408148 8.77949773 170.39294512 8.81196544 185.28185395 C8.84500803 200.55858068 8.86304502 215.83526659 8.86624306 231.11202925 C8.8684107 239.69320919 8.87719633 248.27427208 8.90270424 256.85541725 C8.92437299 264.16201597 8.93248058 271.46846924 8.92273746 278.77509645 C8.91818165 282.50435921 8.92015268 286.23332161 8.9394989 289.96254349 C8.96027794 294.00277405 8.95018119 298.04233372 8.93696594 302.08259583 C8.94793519 303.26507945 8.95890443 304.44756308 8.97020608 305.66587955 C8.90731854 313.59275298 8.90731854 313.59275298 6.54373455 317.56832409 C2.78734591 320.78747225 -0.24706528 320.75357183 -5.06640625 320.71875 C-7.55078125 320.36328125 -7.55078125 320.36328125 -10.61328125 318.05078125 C-13.29154243 314.3357738 -13.67616509 311.71945925 -13.68220901 307.26042366 C-13.68605016 306.19858175 -13.6898913 305.13673985 -13.69384885 304.04272091 C-13.69298237 302.87202175 -13.69211588 301.7013226 -13.69122314 300.49514771 C-13.69419427 299.25471234 -13.69716539 298.01427698 -13.70022655 296.73625267 C-13.70741534 293.28659007 -13.71008652 289.83697727 -13.71082401 286.38731074 C-13.71267327 282.66943601 -13.72021991 278.9515721 -13.72695923 275.23370361 C-13.74054772 267.10157498 -13.74656792 258.96945127 -13.75096989 250.83731318 C-13.75373113 245.76154507 -13.75796824 240.68577887 -13.76247406 235.61001205 C-13.77466683 221.56198051 -13.7849665 207.5139505 -13.78834915 193.46591377 C-13.78856872 192.56662313 -13.78878828 191.66733248 -13.7890145 190.7407906 C-13.78923278 189.83932801 -13.78945106 188.93786541 -13.78967595 188.00908577 C-13.79011942 186.18232671 -13.79056598 184.35556765 -13.79101562 182.52880859 C-13.79123705 181.62266976 -13.79145848 180.71653093 -13.79168662 179.78293334 C-13.79563611 165.09453088 -13.81309467 150.40617798 -13.83637515 135.71779467 C-13.86007337 120.64443816 -13.87255028 105.57110654 -13.87371707 90.49773109 C-13.87463463 82.03172537 -13.8804074 73.56578425 -13.89853668 65.0997963 C-13.91391698 57.89205111 -13.91907038 50.68439048 -13.91079858 43.47663201 C-13.90688485 39.79804397 -13.90785672 36.11962632 -13.92185593 32.44105911 C-13.93688402 28.45575932 -13.92874983 24.47070093 -13.91827393 20.48538208 C-13.92633033 19.31914436 -13.93438673 18.15290665 -13.94268727 16.9513284 C-13.93609743 15.884271 -13.92950758 14.81721359 -13.92271805 13.71782112 C-13.92331514 12.7978661 -13.92391222 11.87791107 -13.92452741 10.93007863 C-12.69816819 2.50774287 -7.73121961 -0.21444259 0 0 Z " fill="#000000" transform="translate(247.55078125,127.63671875)"/>
<path d="M0 0 C3.34625024 2.52676039 4.67977847 4.03933542 6 8 C6.09363603 9.69893821 6.12912147 11.40134255 6.13142776 13.10285759 C6.13526891 14.1646995 6.13911005 15.2265414 6.1430676 16.32056034 C6.14220112 17.4912595 6.14133463 18.66195865 6.14044189 19.86813354 C6.14341302 21.10856891 6.14638414 22.34900427 6.1494453 23.62702858 C6.15663409 27.07669118 6.15930527 30.52630398 6.16004276 33.97597051 C6.16189202 37.69384524 6.16943866 41.41170915 6.17617798 45.12957764 C6.18976647 53.26170627 6.19578667 61.39382998 6.20018864 69.52596807 C6.20294988 74.60173618 6.20718699 79.67750238 6.21169281 84.7532692 C6.22388558 98.80130074 6.23418525 112.84933075 6.2375679 126.89736748 C6.23778747 127.79665812 6.23800703 128.69594877 6.23823325 129.62249065 C6.23845153 130.52395324 6.23866981 131.42541584 6.2388947 132.35419548 C6.23933817 134.18095454 6.23978473 136.0077136 6.24023438 137.83447266 C6.2404558 138.74061149 6.24067723 139.64675032 6.24090537 140.58034791 C6.24485486 155.26875037 6.26231342 169.95710327 6.2855939 184.64548658 C6.30929212 199.71884309 6.32176903 214.79217471 6.32293582 229.86555016 C6.32385338 238.33155588 6.32962615 246.797497 6.34775543 255.26348495 C6.36313573 262.47123014 6.36828913 269.67889077 6.36001733 276.88664924 C6.3561036 280.56523728 6.35707547 284.24365493 6.37107468 287.92222214 C6.38610277 291.90752193 6.37796858 295.89258032 6.36749268 299.87789917 C6.37554908 301.04413689 6.38360548 302.2103746 6.39190602 303.41195285 C6.38202126 305.01253895 6.38202126 305.01253895 6.3719368 306.64546013 C6.37253389 307.56541515 6.37313097 308.48537018 6.37374616 309.43320262 C5.76056876 313.64435533 3.41280843 317.43627193 0 320 C-4.83197176 320.90906587 -8.85900986 320.69856539 -13.0625 318.125 C-15.97773006 314.9276509 -16.12609665 313.19198372 -16.13422108 308.95772076 C-16.13867892 307.88393632 -16.14313676 306.81015188 -16.14772969 305.70382851 C-16.14754533 304.51465272 -16.14736097 303.32547693 -16.14717102 302.1002655 C-16.15268605 300.21639278 -16.15268605 300.21639278 -16.1583125 298.29446203 C-16.1683485 294.79694747 -16.17205185 291.29945007 -16.17470181 287.80192316 C-16.1786001 284.03426721 -16.18817871 280.26662491 -16.19691467 276.49897766 C-16.21669194 267.39478105 -16.22674662 258.29058331 -16.23564246 249.18637058 C-16.24002305 244.90187299 -16.24539043 240.61737663 -16.25063133 236.33288002 C-16.26764442 222.09530869 -16.28213961 207.85773813 -16.28938007 193.6201582 C-16.29129005 189.92409959 -16.29321037 186.228041 -16.29516602 182.53198242 C-16.29564976 181.61331563 -16.2961335 180.69464883 -16.2966319 179.74814365 C-16.30493601 164.85919977 -16.33027898 149.97033613 -16.36274669 135.0814273 C-16.39578928 119.80470057 -16.41382627 104.52801466 -16.41702431 89.251252 C-16.41919195 80.67007206 -16.42797758 72.08900917 -16.45348549 63.507864 C-16.47515424 56.20126528 -16.48326183 48.89481201 -16.47351871 41.5881848 C-16.4689629 37.85892204 -16.47093393 34.12995964 -16.49028015 30.40073776 C-16.51105919 26.3605072 -16.50096244 22.32094753 -16.48774719 18.28068542 C-16.49871644 17.0982018 -16.50968568 15.91571817 -16.52098733 14.6974017 C-16.45809979 6.77052827 -16.45809979 6.77052827 -14.0945158 2.79495716 C-9.86312728 -0.83125617 -5.38442634 -0.7704132 0 0 Z " fill="#000000" transform="translate(208,128)"/>
<path d="M0 0 C0.72913689 -0.00367669 1.45827379 -0.00735338 2.20950574 -0.01114148 C4.66532754 -0.02219991 7.12110707 -0.02602579 9.57695007 -0.02983093 C11.33265824 -0.03609392 13.08836507 -0.04274057 14.84407043 -0.04974365 C19.62305631 -0.06716783 24.40203217 -0.07770911 29.18104196 -0.08594918 C32.16511157 -0.09109596 35.14917806 -0.09717181 38.13324547 -0.10346031 C47.46484539 -0.12251569 56.79643737 -0.13674652 66.12805301 -0.14507228 C76.9089822 -0.15484929 87.68970632 -0.18117947 98.47056323 -0.22157317 C106.79757849 -0.25170499 115.12453486 -0.26653833 123.45160359 -0.26985329 C128.42783298 -0.27220699 133.40384338 -0.28120893 138.38001442 -0.30631447 C143.06104814 -0.32954916 147.74171797 -0.33384704 152.42279434 -0.32355309 C154.14130677 -0.3230565 155.85983683 -0.32941293 157.57829475 -0.34310913 C159.92405428 -0.36075956 162.26849815 -0.35375683 164.61425781 -0.34057617 C165.92705876 -0.34296453 167.23985971 -0.34535288 168.59244251 -0.34781361 C172.55522959 0.22822911 174.17470435 1.36935705 176.99760437 4.14717102 C179.28614431 7.4165138 179.46922655 10.21698622 178.99760437 14.14717102 C176.95766529 17.80499282 175.49341175 19.81663276 171.99760437 22.14717102 C168.84971142 22.40723324 168.84971142 22.40723324 164.88168335 22.42132568 C164.1523976 22.42656236 163.42311185 22.43179904 162.67172652 22.43719441 C160.22129677 22.45222901 157.77107518 22.45290031 155.32060242 22.4535675 C153.56636704 22.46118672 151.81213502 22.46961381 150.0579071 22.47879028 C145.28716647 22.50076683 140.51648995 22.50953852 135.74570441 22.51461673 C132.76580336 22.51825685 129.78591918 22.52449514 126.80602455 22.53161812 C116.41195053 22.55612446 106.0179265 22.56916688 95.62382507 22.57270813 C85.93246081 22.57634338 76.24141326 22.60623501 66.5501458 22.64811271 C58.23242724 22.68279604 49.91481371 22.69825624 41.59702331 22.69895416 C36.6280029 22.69974771 31.65930488 22.70852166 26.69035912 22.73695183 C22.01579872 22.76309862 17.34182875 22.7653567 12.6672287 22.74929619 C10.95235979 22.74747894 9.2374572 22.75419737 7.52266121 22.7701149 C5.1792332 22.79053984 2.83787794 22.78004732 0.49447632 22.76190186 C-0.81610402 22.76391318 -2.12668436 22.76592451 -3.47697926 22.76799679 C-8.09984683 21.95390988 -9.7088157 20.43139798 -13.00239563 17.14717102 C-14.61669486 13.91857255 -14.5981022 10.63723449 -14.00239563 7.14717102 C-10.39535161 0.86176222 -6.89815135 0.0224745 0 0 Z " fill="#000000" transform="translate(163.0023956298828,84.85282897949219)"/>
</svg>
